<?xml version="1.0" encoding="utf-8" standalone="no"?>
<!DOCTYPE svg PUBLIC "-//W3C//DTD SVG 1.1//EN"
  "http://www.w3.org/Graphics/SVG/1.1/DTD/svg11.dtd">
<!-- Created with matplotlib (http://matplotlib.org/) -->
<svg height="54pt" version="1.1" viewBox="0 0 90 54" width="90pt" xmlns="http://www.w3.org/2000/svg" xmlns:xlink="http://www.w3.org/1999/xlink">
 <defs>
  <style type="text/css">
*{stroke-linecap:butt;stroke-linejoin:round;}
  </style>
 </defs>
 <g id="figure_1">
  <g id="patch_1">
   <path d="M 0 54 
L 90 54 
L 90 0 
L 0 0 
z
" style="fill:#ffffff;"/>
  </g>
  <g id="axes_1">
   <g id="patch_2">
    <path d="M 11.25 47.25 
L 81 47.25 
L 81 6.48 
L 11.25 6.48 
z
" style="fill:#ffffff;"/>
   </g>
   <g id="matplotlib.axis_1">
    <g id="xtick_1">
     <g id="line2d_1">
      <defs>
       <path d="M 0 0 
L 0 6 
" id="md218cf18a7" style="stroke:#262626;stroke-width:0.8;"/>
      </defs>
      <g>
       <use style="fill:#262626;stroke:#262626;stroke-width:0.8;" x="14.420455" xlink:href="#md218cf18a7" y="47.25"/>
      </g>
     </g>
     <g id="text_1">
      <text style="fill:#262626;font-family:Arial;font-size:8px;font-style:normal;font-weight:400;text-anchor:middle;" transform="rotate(-0, 14.420455, 64.57625)" x="14.420455" y="64.57625">12</text>
     </g>
    </g>
    <g id="xtick_2">
     <g id="line2d_2">
      <g>
       <use style="fill:#262626;stroke:#262626;stroke-width:0.8;" x="46.125" xlink:href="#md218cf18a7" y="47.25"/>
      </g>
     </g>
     <g id="text_2">
      <text style="fill:#262626;font-family:Arial;font-size:8px;font-style:normal;font-weight:400;text-anchor:middle;" transform="rotate(-0, 46.125, 64.57625)" x="46.125" y="64.57625">24</text>
     </g>
    </g>
    <g id="xtick_3">
     <g id="line2d_3">
      <g>
       <use style="fill:#262626;stroke:#262626;stroke-width:0.8;" x="77.829545" xlink:href="#md218cf18a7" y="47.25"/>
      </g>
     </g>
     <g id="text_3">
      <text style="fill:#262626;font-family:Arial;font-size:8px;font-style:normal;font-weight:400;text-anchor:middle;" transform="rotate(-0, 77.829545, 64.57625)" x="77.829545" y="64.57625">48</text>
     </g>
    </g>
    <g id="text_4">
     <text style="fill:#262626;font-family:Arial;font-size:8px;font-style:normal;font-weight:400;text-anchor:middle;" transform="rotate(-0, 46.125, 75.8925)" x="46.125" y="75.8925">Hours of Starvation + TMP</text>
    </g>
   </g>
   <g id="matplotlib.axis_2">
    <g id="ytick_1">
     <g id="line2d_4">
      <defs>
       <path d="M 0 0 
L -6 0 
" id="m7db104d503" style="stroke:#262626;stroke-width:0.8;"/>
      </defs>
      <g>
       <use style="fill:#262626;stroke:#262626;stroke-width:0.8;" x="6.25" xlink:href="#m7db104d503" y="47.25"/>
      </g>
     </g>
     <g id="text_5">
      <text style="fill:#262626;font-family:Arial;font-size:8px;font-style:normal;font-weight:400;text-anchor:end;" transform="rotate(-0, -5.35, 50.113125)" x="-5.35" y="50.113125">0</text>
     </g>
    </g>
    <g id="ytick_2">
     <g id="line2d_5">
      <g>
       <use style="fill:#262626;stroke:#262626;stroke-width:0.8;" x="6.25" xlink:href="#m7db104d503" y="39.096"/>
      </g>
     </g>
     <g id="text_6">
      <text style="fill:#262626;font-family:Arial;font-size:8px;font-style:normal;font-weight:400;text-anchor:end;" transform="rotate(-0, -5.35, 41.959125)" x="-5.35" y="41.959125">1</text>
     </g>
    </g>
    <g id="ytick_3">
     <g id="line2d_6">
      <g>
       <use style="fill:#262626;stroke:#262626;stroke-width:0.8;" x="6.25" xlink:href="#m7db104d503" y="30.942"/>
      </g>
     </g>
     <g id="text_7">
      <text style="fill:#262626;font-family:Arial;font-size:8px;font-style:normal;font-weight:400;text-anchor:end;" transform="rotate(-0, -5.35, 33.805125)" x="-5.35" y="33.805125">2</text>
     </g>
    </g>
    <g id="ytick_4">
     <g id="line2d_7">
      <g>
       <use style="fill:#262626;stroke:#262626;stroke-width:0.8;" x="6.25" xlink:href="#m7db104d503" y="22.788"/>
      </g>
     </g>
     <g id="text_8">
      <text style="fill:#262626;font-family:Arial;font-size:8px;font-style:normal;font-weight:400;text-anchor:end;" transform="rotate(-0, -5.35, 25.651125)" x="-5.35" y="25.651125">3</text>
     </g>
    </g>
    <g id="ytick_5">
     <g id="line2d_8">
      <g>
       <use style="fill:#262626;stroke:#262626;stroke-width:0.8;" x="6.25" xlink:href="#m7db104d503" y="14.634"/>
      </g>
     </g>
     <g id="text_9">
      <text style="fill:#262626;font-family:Arial;font-size:8px;font-style:normal;font-weight:400;text-anchor:end;" transform="rotate(-0, -5.35, 17.497125)" x="-5.35" y="17.497125">4</text>
     </g>
    </g>
    <g id="ytick_6">
     <g id="line2d_9">
      <g>
       <use style="fill:#262626;stroke:#262626;stroke-width:0.8;" x="6.25" xlink:href="#m7db104d503" y="6.48"/>
      </g>
     </g>
     <g id="text_10">
      <text style="fill:#262626;font-family:Arial;font-size:8px;font-style:normal;font-weight:400;text-anchor:end;" transform="rotate(-0, -5.35, 9.343125)" x="-5.35" y="9.343125">5</text>
     </g>
    </g>
    <g id="text_11">
     <text style="fill:#262626;font-family:Arial;font-size:8px;font-style:normal;font-weight:400;" transform="translate(-24.061 50.875)rotate(-90)">Fluorescence</text>
     <text style="fill:#262626;font-family:Arial;font-size:8px;font-style:normal;font-weight:400;" transform="translate(-15.4825 57.539375)rotate(-90)">(Relative to Rich)</text>
    </g>
   </g>
   <g id="line2d_10">
    <path clip-path="url(#p1eb61d4271)" d="M 14.420455 40.993288 
L 46.125 40.365595 
L 77.829545 37.065695 
" style="fill:none;stroke:#0000ff;stroke-linecap:round;"/>
    <defs>
     <path d="M 0 1 
C 0.265203 1 0.51958 0.894634 0.707107 0.707107 
C 0.894634 0.51958 1 0.265203 1 0 
C 1 -0.265203 0.894634 -0.51958 0.707107 -0.707107 
C 0.51958 -0.894634 0.265203 -1 0 -1 
C -0.265203 -1 -0.51958 -0.894634 -0.707107 -0.707107 
C -0.894634 -0.51958 -1 -0.265203 -1 0 
C -1 0.265203 -0.894634 0.51958 -0.707107 0.707107 
C -0.51958 0.894634 -0.265203 1 0 1 
z
" id="m8add0150a2"/>
    </defs>
    <g clip-path="url(#p1eb61d4271)">
     <use style="fill:#0000ff;" x="14.420455" xlink:href="#m8add0150a2" y="40.993288"/>
     <use style="fill:#0000ff;" x="46.125" xlink:href="#m8add0150a2" y="40.365595"/>
     <use style="fill:#0000ff;" x="77.829545" xlink:href="#m8add0150a2" y="37.065695"/>
    </g>
   </g>
   <g id="line2d_11">
    <path clip-path="url(#p1eb61d4271)" d="M 14.420455 42.295422 
L 46.125 41.501043 
L 77.829545 38.806914 
" style="fill:none;stroke:#008000;stroke-linecap:round;"/>
    <defs>
     <path d="M 0 1 
C 0.265203 1 0.51958 0.894634 0.707107 0.707107 
C 0.894634 0.51958 1 0.265203 1 0 
C 1 -0.265203 0.894634 -0.51958 0.707107 -0.707107 
C 0.51958 -0.894634 0.265203 -1 0 -1 
C -0.265203 -1 -0.51958 -0.894634 -0.707107 -0.707107 
C -0.894634 -0.51958 -1 -0.265203 -1 0 
C -1 0.265203 -0.894634 0.51958 -0.707107 0.707107 
C -0.51958 0.894634 -0.265203 1 0 1 
z
" id="m300cf0937d"/>
    </defs>
    <g clip-path="url(#p1eb61d4271)">
     <use style="fill:#008000;" x="14.420455" xlink:href="#m300cf0937d" y="42.295422"/>
     <use style="fill:#008000;" x="46.125" xlink:href="#m300cf0937d" y="41.501043"/>
     <use style="fill:#008000;" x="77.829545" xlink:href="#m300cf0937d" y="38.806914"/>
    </g>
   </g>
   <g id="line2d_12">
    <path clip-path="url(#p1eb61d4271)" d="M 14.420455 41.61743 
L 46.125 41.396741 
L 77.829545 39.068971 
" style="fill:none;stroke:#ff0000;stroke-linecap:round;"/>
    <defs>
     <path d="M 0 1 
C 0.265203 1 0.51958 0.894634 0.707107 0.707107 
C 0.894634 0.51958 1 0.265203 1 0 
C 1 -0.265203 0.894634 -0.51958 0.707107 -0.707107 
C 0.51958 -0.894634 0.265203 -1 0 -1 
C -0.265203 -1 -0.51958 -0.894634 -0.707107 -0.707107 
C -0.894634 -0.51958 -1 -0.265203 -1 0 
C -1 0.265203 -0.894634 0.51958 -0.707107 0.707107 
C -0.51958 0.894634 -0.265203 1 0 1 
z
" id="m34c144fe52"/>
    </defs>
    <g clip-path="url(#p1eb61d4271)">
     <use style="fill:#ff0000;" x="14.420455" xlink:href="#m34c144fe52" y="41.61743"/>
     <use style="fill:#ff0000;" x="46.125" xlink:href="#m34c144fe52" y="41.396741"/>
     <use style="fill:#ff0000;" x="77.829545" xlink:href="#m34c144fe52" y="39.068971"/>
    </g>
   </g>
   <g id="line2d_13">
    <path clip-path="url(#p1eb61d4271)" d="M 14.420455 41.919405 
L 46.125 42.002103 
L 77.829545 39.37205 
" style="fill:none;stroke:#00ffff;stroke-linecap:round;"/>
    <defs>
     <path d="M 0 1 
C 0.265203 1 0.51958 0.894634 0.707107 0.707107 
C 0.894634 0.51958 1 0.265203 1 0 
C 1 -0.265203 0.894634 -0.51958 0.707107 -0.707107 
C 0.51958 -0.894634 0.265203 -1 0 -1 
C -0.265203 -1 -0.51958 -0.894634 -0.707107 -0.707107 
C -0.894634 -0.51958 -1 -0.265203 -1 0 
C -1 0.265203 -0.894634 0.51958 -0.707107 0.707107 
C -0.51958 0.894634 -0.265203 1 0 1 
z
" id="m24012e20e0"/>
    </defs>
    <g clip-path="url(#p1eb61d4271)">
     <use style="fill:#00ffff;" x="14.420455" xlink:href="#m24012e20e0" y="41.919405"/>
     <use style="fill:#00ffff;" x="46.125" xlink:href="#m24012e20e0" y="42.002103"/>
     <use style="fill:#00ffff;" x="77.829545" xlink:href="#m24012e20e0" y="39.37205"/>
    </g>
   </g>
   <g id="line2d_14">
    <path clip-path="url(#p1eb61d4271)" d="M 14.420455 43.105864 
L 46.125 43.171759 
L 77.829545 36.167806 
" style="fill:none;stroke:#ff00ff;stroke-linecap:round;"/>
    <defs>
     <path d="M 0 1 
C 0.265203 1 0.51958 0.894634 0.707107 0.707107 
C 0.894634 0.51958 1 0.265203 1 0 
C 1 -0.265203 0.894634 -0.51958 0.707107 -0.707107 
C 0.51958 -0.894634 0.265203 -1 0 -1 
C -0.265203 -1 -0.51958 -0.894634 -0.707107 -0.707107 
C -0.894634 -0.51958 -1 -0.265203 -1 0 
C -1 0.265203 -0.894634 0.51958 -0.707107 0.707107 
C -0.51958 0.894634 -0.265203 1 0 1 
z
" id="m18c31d24d3"/>
    </defs>
    <g clip-path="url(#p1eb61d4271)">
     <use style="fill:#ff00ff;" x="14.420455" xlink:href="#m18c31d24d3" y="43.105864"/>
     <use style="fill:#ff00ff;" x="46.125" xlink:href="#m18c31d24d3" y="43.171759"/>
     <use style="fill:#ff00ff;" x="77.829545" xlink:href="#m18c31d24d3" y="36.167806"/>
    </g>
   </g>
   <g id="patch_3">
    <path d="M 6.25 47.25 
L 6.25 6.48 
" style="fill:none;stroke:#262626;stroke-linecap:square;stroke-linejoin:miter;stroke-width:1.25;"/>
   </g>
   <g id="patch_4">
    <path d="M 81 47.25 
L 81 6.48 
" style="fill:none;"/>
   </g>
   <g id="patch_5">
    <path d="M 11.25 47.25 
L 81 47.25 
" style="fill:none;stroke:#262626;stroke-linecap:square;stroke-linejoin:miter;stroke-width:1.25;"/>
   </g>
   <g id="patch_6">
    <path d="M 11.25 6.48 
L 81 6.48 
" style="fill:none;"/>
   </g>
   <g id="text_12">
    <text style="fill:#262626;font-family:Arial;font-size:8px;font-style:normal;font-weight:400;text-anchor:middle;" transform="rotate(-0, 46.125, 0.48)" x="46.125" y="0.48">– Leu</text>
   </g>
   <g id="legend_1">
    <g id="line2d_15">
     <path style="fill:none;stroke:#0000ff;stroke-linecap:round;"/>
    </g>
    <g id="line2d_16">
     <g>
      <use style="fill:#0000ff;" x="113.6375" xlink:href="#m8add0150a2" y="6.41375"/>
     </g>
    </g>
    <g id="text_13">
     <text style="fill:#262626;font-family:Arial;font-size:8px;font-style:normal;font-weight:400;text-anchor:start;" transform="rotate(-0, 128.0375, 9.21375)" x="128.0375" y="9.21375">WT-8x-CTA</text>
    </g>
    <g id="line2d_17">
     <path style="fill:none;stroke:#008000;stroke-linecap:round;"/>
    </g>
    <g id="line2d_18">
     <g>
      <use style="fill:#008000;" x="113.6375" xlink:href="#m300cf0937d" y="17.73"/>
     </g>
    </g>
    <g id="text_14">
     <text style="fill:#262626;font-family:Arial;font-size:8px;font-style:normal;font-weight:400;text-anchor:start;" transform="rotate(-0, 128.0375, 20.53)" x="128.0375" y="20.53">WT-8x-CTA1TTG1</text>
    </g>
    <g id="line2d_19">
     <path style="fill:none;stroke:#ff0000;stroke-linecap:round;"/>
    </g>
    <g id="line2d_20">
     <g>
      <use style="fill:#ff0000;" x="113.6375" xlink:href="#m34c144fe52" y="29.04625"/>
     </g>
    </g>
    <g id="text_15">
     <text style="fill:#262626;font-family:Arial;font-size:8px;font-style:normal;font-weight:400;text-anchor:start;" transform="rotate(-0, 128.0375, 31.84625)" x="128.0375" y="31.84625">WT-8x-CTA2TTG1</text>
    </g>
    <g id="line2d_21">
     <path style="fill:none;stroke:#00ffff;stroke-linecap:round;"/>
    </g>
    <g id="line2d_22">
     <g>
      <use style="fill:#00ffff;" x="113.6375" xlink:href="#m24012e20e0" y="40.3625"/>
     </g>
    </g>
    <g id="text_16">
     <text style="fill:#262626;font-family:Arial;font-size:8px;font-style:normal;font-weight:400;text-anchor:start;" transform="rotate(-0, 128.0375, 43.1625)" x="128.0375" y="43.1625">WT-8x-CTA3TTG1</text>
    </g>
    <g id="line2d_23">
     <path style="fill:none;stroke:#ff00ff;stroke-linecap:round;"/>
    </g>
    <g id="line2d_24">
     <g>
      <use style="fill:#ff00ff;" x="113.6375" xlink:href="#m18c31d24d3" y="51.67875"/>
     </g>
    </g>
    <g id="text_17">
     <text style="fill:#262626;font-family:Arial;font-size:8px;font-style:normal;font-weight:400;text-anchor:start;" transform="rotate(-0, 128.0375, 54.47875)" x="128.0375" y="54.47875">WT-8x-TTG</text>
    </g>
   </g>
  </g>
 </g>
 <defs>
  <clipPath id="p1eb61d4271">
   <rect height="40.77" width="69.75" x="11.25" y="6.48"/>
  </clipPath>
 </defs>
</svg>
