<?xml version="1.0" encoding="utf-8" standalone="no"?>
<!DOCTYPE svg PUBLIC "-//W3C//DTD SVG 1.1//EN"
  "http://www.w3.org/Graphics/SVG/1.1/DTD/svg11.dtd">
<!-- Created with matplotlib (http://matplotlib.org/) -->
<svg height="54pt" version="1.1" viewBox="0 0 216 54" width="216pt" xmlns="http://www.w3.org/2000/svg" xmlns:xlink="http://www.w3.org/1999/xlink">
 <defs>
  <style type="text/css">
*{stroke-linecap:butt;stroke-linejoin:round;}
  </style>
 </defs>
 <g id="figure_1">
  <g id="patch_1">
   <path d="M 0 54 
L 216 54 
L 216 0 
L 0 0 
z
" style="fill:#ffffff;"/>
  </g>
  <g id="axes_1">
   <g id="patch_2">
    <path d="M 27 47.25 
L 87.872727 47.25 
L 87.872727 6.48 
L 27 6.48 
z
" style="fill:#ffffff;"/>
   </g>
   <g id="matplotlib.axis_1">
    <g id="xtick_1">
     <g id="line2d_1">
      <defs>
       <path d="M 0 0 
L 0 6 
" id="m2eb99a21a6" style="stroke:#262626;stroke-width:0.8;"/>
      </defs>
      <g>
       <use style="fill:#262626;stroke:#262626;stroke-width:0.8;" x="29.766942" xlink:href="#m2eb99a21a6" y="47.25"/>
      </g>
     </g>
     <g id="text_1">
      <text style="fill:#262626;font-family:Arial;font-size:8px;font-style:normal;font-weight:400;text-anchor:middle;" transform="rotate(-0, 29.766942, 64.57625)" x="29.766942" y="64.57625">12</text>
     </g>
    </g>
    <g id="xtick_2">
     <g id="line2d_2">
      <g>
       <use style="fill:#262626;stroke:#262626;stroke-width:0.8;" x="57.436364" xlink:href="#m2eb99a21a6" y="47.25"/>
      </g>
     </g>
     <g id="text_2">
      <text style="fill:#262626;font-family:Arial;font-size:8px;font-style:normal;font-weight:400;text-anchor:middle;" transform="rotate(-0, 57.436364, 64.57625)" x="57.436364" y="64.57625">24</text>
     </g>
    </g>
    <g id="xtick_3">
     <g id="line2d_3">
      <g>
       <use style="fill:#262626;stroke:#262626;stroke-width:0.8;" x="85.105785" xlink:href="#m2eb99a21a6" y="47.25"/>
      </g>
     </g>
     <g id="text_3">
      <text style="fill:#262626;font-family:Arial;font-size:8px;font-style:normal;font-weight:400;text-anchor:middle;" transform="rotate(-0, 85.105785, 64.57625)" x="85.105785" y="64.57625">48</text>
     </g>
    </g>
    <g id="text_4">
     <text style="fill:#262626;font-family:Arial;font-size:8px;font-style:normal;font-weight:400;text-anchor:middle;" transform="rotate(-0, 57.436364, 75.8925)" x="57.436364" y="75.8925">Hours of Starvation - TMP</text>
    </g>
   </g>
   <g id="matplotlib.axis_2">
    <g id="ytick_1">
     <g id="line2d_4">
      <defs>
       <path d="M 0 0 
L -6 0 
" id="m6f09cc52b8" style="stroke:#262626;stroke-width:0.8;"/>
      </defs>
      <g>
       <use style="fill:#262626;stroke:#262626;stroke-width:0.8;" x="22" xlink:href="#m6f09cc52b8" y="47.25"/>
      </g>
     </g>
     <g id="text_5">
      <text style="fill:#262626;font-family:Arial;font-size:8px;font-style:normal;font-weight:400;text-anchor:end;" transform="rotate(-0, 10.4, 50.113125)" x="10.4" y="50.113125">0</text>
     </g>
    </g>
    <g id="ytick_2">
     <g id="line2d_5">
      <g>
       <use style="fill:#262626;stroke:#262626;stroke-width:0.8;" x="22" xlink:href="#m6f09cc52b8" y="39.096"/>
      </g>
     </g>
     <g id="text_6">
      <text style="fill:#262626;font-family:Arial;font-size:8px;font-style:normal;font-weight:400;text-anchor:end;" transform="rotate(-0, 10.4, 41.959125)" x="10.4" y="41.959125">30</text>
     </g>
    </g>
    <g id="ytick_3">
     <g id="line2d_6">
      <g>
       <use style="fill:#262626;stroke:#262626;stroke-width:0.8;" x="22" xlink:href="#m6f09cc52b8" y="30.942"/>
      </g>
     </g>
     <g id="text_7">
      <text style="fill:#262626;font-family:Arial;font-size:8px;font-style:normal;font-weight:400;text-anchor:end;" transform="rotate(-0, 10.4, 33.805125)" x="10.4" y="33.805125">60</text>
     </g>
    </g>
    <g id="ytick_4">
     <g id="line2d_7">
      <g>
       <use style="fill:#262626;stroke:#262626;stroke-width:0.8;" x="22" xlink:href="#m6f09cc52b8" y="22.788"/>
      </g>
     </g>
     <g id="text_8">
      <text style="fill:#262626;font-family:Arial;font-size:8px;font-style:normal;font-weight:400;text-anchor:end;" transform="rotate(-0, 10.4, 25.651125)" x="10.4" y="25.651125">90</text>
     </g>
    </g>
    <g id="ytick_5">
     <g id="line2d_8">
      <g>
       <use style="fill:#262626;stroke:#262626;stroke-width:0.8;" x="22" xlink:href="#m6f09cc52b8" y="14.634"/>
      </g>
     </g>
     <g id="text_9">
      <text style="fill:#262626;font-family:Arial;font-size:8px;font-style:normal;font-weight:400;text-anchor:end;" transform="rotate(-0, 10.4, 17.497125)" x="10.4" y="17.497125">120</text>
     </g>
    </g>
    <g id="ytick_6">
     <g id="line2d_9">
      <g>
       <use style="fill:#262626;stroke:#262626;stroke-width:0.8;" x="22" xlink:href="#m6f09cc52b8" y="6.48"/>
      </g>
     </g>
     <g id="text_10">
      <text style="fill:#262626;font-family:Arial;font-size:8px;font-style:normal;font-weight:400;text-anchor:end;" transform="rotate(-0, 10.4, 9.343125)" x="10.4" y="9.343125">150</text>
     </g>
    </g>
    <g id="text_11">
     <text style="fill:#262626;font-family:Arial;font-size:8px;font-style:normal;font-weight:400;text-anchor:middle;" transform="rotate(-90, -8.63, 26.865)" x="-8.63" y="26.865">Fluorescence (a.u.)</text>
    </g>
   </g>
   <g id="line2d_10">
    <path clip-path="url(#p1d20ef7b9d)" d="M 29.766942 28.698588 
L 57.436364 34.240335 
L 85.105785 39.30512 
" style="fill:none;stroke:#0000ff;stroke-linecap:round;"/>
    <defs>
     <path d="M 0 1 
C 0.265203 1 0.51958 0.894634 0.707107 0.707107 
C 0.894634 0.51958 1 0.265203 1 0 
C 1 -0.265203 0.894634 -0.51958 0.707107 -0.707107 
C 0.51958 -0.894634 0.265203 -1 0 -1 
C -0.265203 -1 -0.51958 -0.894634 -0.707107 -0.707107 
C -0.894634 -0.51958 -1 -0.265203 -1 0 
C -1 0.265203 -0.894634 0.51958 -0.707107 0.707107 
C -0.51958 0.894634 -0.265203 1 0 1 
z
" id="ma87f213e02"/>
    </defs>
    <g clip-path="url(#p1d20ef7b9d)">
     <use style="fill:#0000ff;" x="29.766942" xlink:href="#ma87f213e02" y="28.698588"/>
     <use style="fill:#0000ff;" x="57.436364" xlink:href="#ma87f213e02" y="34.240335"/>
     <use style="fill:#0000ff;" x="85.105785" xlink:href="#ma87f213e02" y="39.30512"/>
    </g>
   </g>
   <g id="line2d_11">
    <path clip-path="url(#p1d20ef7b9d)" d="M 29.766942 23.101273 
L 57.436364 31.511161 
L 85.105785 36.477082 
" style="fill:none;stroke:#008000;stroke-linecap:round;"/>
    <defs>
     <path d="M 0 1 
C 0.265203 1 0.51958 0.894634 0.707107 0.707107 
C 0.894634 0.51958 1 0.265203 1 0 
C 1 -0.265203 0.894634 -0.51958 0.707107 -0.707107 
C 0.51958 -0.894634 0.265203 -1 0 -1 
C -0.265203 -1 -0.51958 -0.894634 -0.707107 -0.707107 
C -0.894634 -0.51958 -1 -0.265203 -1 0 
C -1 0.265203 -0.894634 0.51958 -0.707107 0.707107 
C -0.51958 0.894634 -0.265203 1 0 1 
z
" id="meee439fe7e"/>
    </defs>
    <g clip-path="url(#p1d20ef7b9d)">
     <use style="fill:#008000;" x="29.766942" xlink:href="#meee439fe7e" y="23.101273"/>
     <use style="fill:#008000;" x="57.436364" xlink:href="#meee439fe7e" y="31.511161"/>
     <use style="fill:#008000;" x="85.105785" xlink:href="#meee439fe7e" y="36.477082"/>
    </g>
   </g>
   <g id="line2d_12">
    <path clip-path="url(#p1d20ef7b9d)" d="M 29.766942 22.316076 
L 57.436364 30.145879 
L 85.105785 35.842941 
" style="fill:none;stroke:#ff0000;stroke-linecap:round;"/>
    <defs>
     <path d="M 0 1 
C 0.265203 1 0.51958 0.894634 0.707107 0.707107 
C 0.894634 0.51958 1 0.265203 1 0 
C 1 -0.265203 0.894634 -0.51958 0.707107 -0.707107 
C 0.51958 -0.894634 0.265203 -1 0 -1 
C -0.265203 -1 -0.51958 -0.894634 -0.707107 -0.707107 
C -0.894634 -0.51958 -1 -0.265203 -1 0 
C -1 0.265203 -0.894634 0.51958 -0.707107 0.707107 
C -0.51958 0.894634 -0.265203 1 0 1 
z
" id="m9518bb6273"/>
    </defs>
    <g clip-path="url(#p1d20ef7b9d)">
     <use style="fill:#ff0000;" x="29.766942" xlink:href="#m9518bb6273" y="22.316076"/>
     <use style="fill:#ff0000;" x="57.436364" xlink:href="#m9518bb6273" y="30.145879"/>
     <use style="fill:#ff0000;" x="85.105785" xlink:href="#m9518bb6273" y="35.842941"/>
    </g>
   </g>
   <g id="line2d_13">
    <path clip-path="url(#p1d20ef7b9d)" d="M 29.766942 16.605587 
L 57.436364 26.95439 
L 85.105785 34.10362 
" style="fill:none;stroke:#00ffff;stroke-linecap:round;"/>
    <defs>
     <path d="M 0 1 
C 0.265203 1 0.51958 0.894634 0.707107 0.707107 
C 0.894634 0.51958 1 0.265203 1 0 
C 1 -0.265203 0.894634 -0.51958 0.707107 -0.707107 
C 0.51958 -0.894634 0.265203 -1 0 -1 
C -0.265203 -1 -0.51958 -0.894634 -0.707107 -0.707107 
C -0.894634 -0.51958 -1 -0.265203 -1 0 
C -1 0.265203 -0.894634 0.51958 -0.707107 0.707107 
C -0.51958 0.894634 -0.265203 1 0 1 
z
" id="m3b2e198051"/>
    </defs>
    <g clip-path="url(#p1d20ef7b9d)">
     <use style="fill:#00ffff;" x="29.766942" xlink:href="#m3b2e198051" y="16.605587"/>
     <use style="fill:#00ffff;" x="57.436364" xlink:href="#m3b2e198051" y="26.95439"/>
     <use style="fill:#00ffff;" x="85.105785" xlink:href="#m3b2e198051" y="34.10362"/>
    </g>
   </g>
   <g id="line2d_14">
    <path clip-path="url(#p1d20ef7b9d)" d="M 29.766942 26.119145 
L 57.436364 31.519136 
L 85.105785 38.578416 
" style="fill:none;stroke:#ff00ff;stroke-linecap:round;"/>
    <defs>
     <path d="M 0 1 
C 0.265203 1 0.51958 0.894634 0.707107 0.707107 
C 0.894634 0.51958 1 0.265203 1 0 
C 1 -0.265203 0.894634 -0.51958 0.707107 -0.707107 
C 0.51958 -0.894634 0.265203 -1 0 -1 
C -0.265203 -1 -0.51958 -0.894634 -0.707107 -0.707107 
C -0.894634 -0.51958 -1 -0.265203 -1 0 
C -1 0.265203 -0.894634 0.51958 -0.707107 0.707107 
C -0.51958 0.894634 -0.265203 1 0 1 
z
" id="mdbba706b97"/>
    </defs>
    <g clip-path="url(#p1d20ef7b9d)">
     <use style="fill:#ff00ff;" x="29.766942" xlink:href="#mdbba706b97" y="26.119145"/>
     <use style="fill:#ff00ff;" x="57.436364" xlink:href="#mdbba706b97" y="31.519136"/>
     <use style="fill:#ff00ff;" x="85.105785" xlink:href="#mdbba706b97" y="38.578416"/>
    </g>
   </g>
   <g id="patch_3">
    <path d="M 22 47.25 
L 22 6.48 
" style="fill:none;stroke:#262626;stroke-linecap:square;stroke-linejoin:miter;stroke-width:1.25;"/>
   </g>
   <g id="patch_4">
    <path d="M 87.872727 47.25 
L 87.872727 6.48 
" style="fill:none;"/>
   </g>
   <g id="patch_5">
    <path d="M 27 47.25 
L 87.872727 47.25 
" style="fill:none;stroke:#262626;stroke-linecap:square;stroke-linejoin:miter;stroke-width:1.25;"/>
   </g>
   <g id="patch_6">
    <path d="M 27 6.48 
L 87.872727 6.48 
" style="fill:none;"/>
   </g>
   <g id="text_12">
    <text style="fill:#262626;font-family:Arial;font-size:8px;font-style:normal;font-weight:400;text-anchor:middle;" transform="rotate(-0, 57.436364, 0.48)" x="57.436364" y="0.48">Rich</text>
   </g>
  </g>
  <g id="axes_2">
   <g id="patch_7">
    <path d="M 133.527273 47.25 
L 194.4 47.25 
L 194.4 6.48 
L 133.527273 6.48 
z
" style="fill:#ffffff;"/>
   </g>
   <g id="matplotlib.axis_3">
    <g id="xtick_4">
     <g id="line2d_15">
      <g>
       <use style="fill:#262626;stroke:#262626;stroke-width:0.8;" x="136.294215" xlink:href="#m2eb99a21a6" y="47.25"/>
      </g>
     </g>
     <g id="text_13">
      <text style="fill:#262626;font-family:Arial;font-size:8px;font-style:normal;font-weight:400;text-anchor:middle;" transform="rotate(-0, 136.294215, 64.57625)" x="136.294215" y="64.57625">12</text>
     </g>
    </g>
    <g id="xtick_5">
     <g id="line2d_16">
      <g>
       <use style="fill:#262626;stroke:#262626;stroke-width:0.8;" x="163.963636" xlink:href="#m2eb99a21a6" y="47.25"/>
      </g>
     </g>
     <g id="text_14">
      <text style="fill:#262626;font-family:Arial;font-size:8px;font-style:normal;font-weight:400;text-anchor:middle;" transform="rotate(-0, 163.963636, 64.57625)" x="163.963636" y="64.57625">24</text>
     </g>
    </g>
    <g id="xtick_6">
     <g id="line2d_17">
      <g>
       <use style="fill:#262626;stroke:#262626;stroke-width:0.8;" x="191.633058" xlink:href="#m2eb99a21a6" y="47.25"/>
      </g>
     </g>
     <g id="text_15">
      <text style="fill:#262626;font-family:Arial;font-size:8px;font-style:normal;font-weight:400;text-anchor:middle;" transform="rotate(-0, 191.633058, 64.57625)" x="191.633058" y="64.57625">48</text>
     </g>
    </g>
    <g id="text_16">
     <text style="fill:#262626;font-family:Arial;font-size:8px;font-style:normal;font-weight:400;text-anchor:middle;" transform="rotate(-0, 163.963636, 75.8925)" x="163.963636" y="75.8925">Hours of Starvation - TMP</text>
    </g>
   </g>
   <g id="matplotlib.axis_4">
    <g id="ytick_7">
     <g id="line2d_18">
      <g>
       <use style="fill:#262626;stroke:#262626;stroke-width:0.8;" x="128.527273" xlink:href="#m6f09cc52b8" y="47.25"/>
      </g>
     </g>
     <g id="text_17">
      <text style="fill:#262626;font-family:Arial;font-size:8px;font-style:normal;font-weight:400;text-anchor:end;" transform="rotate(-0, 116.927273, 50.113125)" x="116.927273" y="50.113125">0</text>
     </g>
    </g>
    <g id="ytick_8">
     <g id="line2d_19">
      <g>
       <use style="fill:#262626;stroke:#262626;stroke-width:0.8;" x="128.527273" xlink:href="#m6f09cc52b8" y="39.096"/>
      </g>
     </g>
     <g id="text_18">
      <text style="fill:#262626;font-family:Arial;font-size:8px;font-style:normal;font-weight:400;text-anchor:end;" transform="rotate(-0, 116.927273, 41.959125)" x="116.927273" y="41.959125">30</text>
     </g>
    </g>
    <g id="ytick_9">
     <g id="line2d_20">
      <g>
       <use style="fill:#262626;stroke:#262626;stroke-width:0.8;" x="128.527273" xlink:href="#m6f09cc52b8" y="30.942"/>
      </g>
     </g>
     <g id="text_19">
      <text style="fill:#262626;font-family:Arial;font-size:8px;font-style:normal;font-weight:400;text-anchor:end;" transform="rotate(-0, 116.927273, 33.805125)" x="116.927273" y="33.805125">60</text>
     </g>
    </g>
    <g id="ytick_10">
     <g id="line2d_21">
      <g>
       <use style="fill:#262626;stroke:#262626;stroke-width:0.8;" x="128.527273" xlink:href="#m6f09cc52b8" y="22.788"/>
      </g>
     </g>
     <g id="text_20">
      <text style="fill:#262626;font-family:Arial;font-size:8px;font-style:normal;font-weight:400;text-anchor:end;" transform="rotate(-0, 116.927273, 25.651125)" x="116.927273" y="25.651125">90</text>
     </g>
    </g>
    <g id="ytick_11">
     <g id="line2d_22">
      <g>
       <use style="fill:#262626;stroke:#262626;stroke-width:0.8;" x="128.527273" xlink:href="#m6f09cc52b8" y="14.634"/>
      </g>
     </g>
     <g id="text_21">
      <text style="fill:#262626;font-family:Arial;font-size:8px;font-style:normal;font-weight:400;text-anchor:end;" transform="rotate(-0, 116.927273, 17.497125)" x="116.927273" y="17.497125">120</text>
     </g>
    </g>
    <g id="ytick_12">
     <g id="line2d_23">
      <g>
       <use style="fill:#262626;stroke:#262626;stroke-width:0.8;" x="128.527273" xlink:href="#m6f09cc52b8" y="6.48"/>
      </g>
     </g>
     <g id="text_22">
      <text style="fill:#262626;font-family:Arial;font-size:8px;font-style:normal;font-weight:400;text-anchor:end;" transform="rotate(-0, 116.927273, 9.343125)" x="116.927273" y="9.343125">150</text>
     </g>
    </g>
    <g id="text_23">
     <text style="fill:#262626;font-family:Arial;font-size:8px;font-style:normal;font-weight:400;text-anchor:middle;" transform="rotate(-90, 97.897273, 26.865)" x="97.897273" y="26.865">Fluorescence (a.u.)</text>
    </g>
   </g>
   <g id="line2d_24">
    <path clip-path="url(#p7488765995)" d="M 136.294215 33.015166 
L 163.963636 36.265968 
L 191.633058 37.326884 
" style="fill:none;stroke:#0000ff;stroke-linecap:round;"/>
    <g clip-path="url(#p7488765995)">
     <use style="fill:#0000ff;" x="136.294215" xlink:href="#ma87f213e02" y="33.015166"/>
     <use style="fill:#0000ff;" x="163.963636" xlink:href="#ma87f213e02" y="36.265968"/>
     <use style="fill:#0000ff;" x="191.633058" xlink:href="#ma87f213e02" y="37.326884"/>
    </g>
   </g>
   <g id="line2d_25">
    <path clip-path="url(#p7488765995)" d="M 136.294215 32.576618 
L 163.963636 36.153372 
L 191.633058 36.095147 
" style="fill:none;stroke:#008000;stroke-linecap:round;"/>
    <g clip-path="url(#p7488765995)">
     <use style="fill:#008000;" x="136.294215" xlink:href="#meee439fe7e" y="32.576618"/>
     <use style="fill:#008000;" x="163.963636" xlink:href="#meee439fe7e" y="36.153372"/>
     <use style="fill:#008000;" x="191.633058" xlink:href="#meee439fe7e" y="36.095147"/>
    </g>
   </g>
   <g id="line2d_26">
    <path clip-path="url(#p7488765995)" d="M 136.294215 30.026297 
L 163.963636 34.971995 
L 191.633058 35.805129 
" style="fill:none;stroke:#ff0000;stroke-linecap:round;"/>
    <g clip-path="url(#p7488765995)">
     <use style="fill:#ff0000;" x="136.294215" xlink:href="#m9518bb6273" y="30.026297"/>
     <use style="fill:#ff0000;" x="163.963636" xlink:href="#m9518bb6273" y="34.971995"/>
     <use style="fill:#ff0000;" x="191.633058" xlink:href="#m9518bb6273" y="35.805129"/>
    </g>
   </g>
   <g id="line2d_27">
    <path clip-path="url(#p7488765995)" d="M 136.294215 27.216524 
L 163.963636 34.187789 
L 191.633058 34.548686 
" style="fill:none;stroke:#00ffff;stroke-linecap:round;"/>
    <g clip-path="url(#p7488765995)">
     <use style="fill:#00ffff;" x="136.294215" xlink:href="#m3b2e198051" y="27.216524"/>
     <use style="fill:#00ffff;" x="163.963636" xlink:href="#m3b2e198051" y="34.187789"/>
     <use style="fill:#00ffff;" x="191.633058" xlink:href="#m3b2e198051" y="34.548686"/>
    </g>
   </g>
   <g id="line2d_28">
    <path clip-path="url(#p7488765995)" d="M 136.294215 36.510591 
L 163.963636 39.382174 
L 191.633058 35.464352 
" style="fill:none;stroke:#ff00ff;stroke-linecap:round;"/>
    <g clip-path="url(#p7488765995)">
     <use style="fill:#ff00ff;" x="136.294215" xlink:href="#mdbba706b97" y="36.510591"/>
     <use style="fill:#ff00ff;" x="163.963636" xlink:href="#mdbba706b97" y="39.382174"/>
     <use style="fill:#ff00ff;" x="191.633058" xlink:href="#mdbba706b97" y="35.464352"/>
    </g>
   </g>
   <g id="patch_8">
    <path d="M 128.527273 47.25 
L 128.527273 6.48 
" style="fill:none;stroke:#262626;stroke-linecap:square;stroke-linejoin:miter;stroke-width:1.25;"/>
   </g>
   <g id="patch_9">
    <path d="M 194.4 47.25 
L 194.4 6.48 
" style="fill:none;"/>
   </g>
   <g id="patch_10">
    <path d="M 133.527273 47.25 
L 194.4 47.25 
" style="fill:none;stroke:#262626;stroke-linecap:square;stroke-linejoin:miter;stroke-width:1.25;"/>
   </g>
   <g id="patch_11">
    <path d="M 133.527273 6.48 
L 194.4 6.48 
" style="fill:none;"/>
   </g>
   <g id="text_24">
    <text style="fill:#262626;font-family:Arial;font-size:8px;font-style:normal;font-weight:400;text-anchor:middle;" transform="rotate(-0, 163.963636, 0.48)" x="163.963636" y="0.48">– Leu</text>
   </g>
   <g id="legend_1">
    <g id="line2d_29">
     <path d="M 216.818182 6.41375 
L 217 6.41375 
" style="fill:none;stroke:#0000ff;stroke-linecap:round;"/>
    </g>
    <g id="line2d_30">
     <g>
      <use style="fill:#0000ff;" x="224.818182" xlink:href="#ma87f213e02" y="6.41375"/>
     </g>
    </g>
    <g id="text_25">
     <text style="fill:#262626;font-family:Arial;font-size:8px;font-style:normal;font-weight:400;text-anchor:start;" transform="rotate(-0, 239.218182, 9.21375)" x="239.218182" y="9.21375">WT-8x-CTA</text>
    </g>
    <g id="line2d_31">
     <path d="M 216.818182 17.73 
L 217 17.73 
" style="fill:none;stroke:#008000;stroke-linecap:round;"/>
    </g>
    <g id="line2d_32">
     <g>
      <use style="fill:#008000;" x="224.818182" xlink:href="#meee439fe7e" y="17.73"/>
     </g>
    </g>
    <g id="text_26">
     <text style="fill:#262626;font-family:Arial;font-size:8px;font-style:normal;font-weight:400;text-anchor:start;" transform="rotate(-0, 239.218182, 20.53)" x="239.218182" y="20.53">WT-8x-CTA1TTG1</text>
    </g>
    <g id="line2d_33">
     <path d="M 216.818182 29.04625 
L 217 29.04625 
" style="fill:none;stroke:#ff0000;stroke-linecap:round;"/>
    </g>
    <g id="line2d_34">
     <g>
      <use style="fill:#ff0000;" x="224.818182" xlink:href="#m9518bb6273" y="29.04625"/>
     </g>
    </g>
    <g id="text_27">
     <text style="fill:#262626;font-family:Arial;font-size:8px;font-style:normal;font-weight:400;text-anchor:start;" transform="rotate(-0, 239.218182, 31.84625)" x="239.218182" y="31.84625">WT-8x-CTA2TTG1</text>
    </g>
    <g id="line2d_35">
     <path d="M 216.818182 40.3625 
L 217 40.3625 
" style="fill:none;stroke:#00ffff;stroke-linecap:round;"/>
    </g>
    <g id="line2d_36">
     <g>
      <use style="fill:#00ffff;" x="224.818182" xlink:href="#m3b2e198051" y="40.3625"/>
     </g>
    </g>
    <g id="text_28">
     <text style="fill:#262626;font-family:Arial;font-size:8px;font-style:normal;font-weight:400;text-anchor:start;" transform="rotate(-0, 239.218182, 43.1625)" x="239.218182" y="43.1625">WT-8x-CTA3TTG1</text>
    </g>
    <g id="line2d_37">
     <path d="M 216.818182 51.67875 
L 217 51.67875 
" style="fill:none;stroke:#ff00ff;stroke-linecap:round;"/>
    </g>
    <g id="line2d_38">
     <g>
      <use style="fill:#ff00ff;" x="224.818182" xlink:href="#mdbba706b97" y="51.67875"/>
     </g>
    </g>
    <g id="text_29">
     <text style="fill:#262626;font-family:Arial;font-size:8px;font-style:normal;font-weight:400;text-anchor:start;" transform="rotate(-0, 239.218182, 54.47875)" x="239.218182" y="54.47875">WT-8x-TTG</text>
    </g>
   </g>
  </g>
 </g>
 <defs>
  <clipPath id="p1d20ef7b9d">
   <rect height="40.77" width="60.872727" x="27" y="6.48"/>
  </clipPath>
  <clipPath id="p7488765995">
   <rect height="40.77" width="60.872727" x="133.527273" y="6.48"/>
  </clipPath>
 </defs>
</svg>
