<?xml version="1.0" encoding="utf-8" standalone="no"?>
<!DOCTYPE svg PUBLIC "-//W3C//DTD SVG 1.1//EN"
  "http://www.w3.org/Graphics/SVG/1.1/DTD/svg11.dtd">
<!-- Created with matplotlib (http://matplotlib.org/) -->
<svg height="72pt" version="1.1" viewBox="0 0 576 72" width="576pt" xmlns="http://www.w3.org/2000/svg" xmlns:xlink="http://www.w3.org/1999/xlink">
 <defs>
  <style type="text/css">
*{stroke-linecap:butt;stroke-linejoin:round;stroke-miterlimit:100000;}
  </style>
 </defs>
 <g id="figure_1">
  <g id="patch_1">
   <path d="M 0 72 
L 576 72 
L 576 0 
L 0 0 
z
" style="fill:#ffffff;"/>
  </g>
  <g id="axes_1">
   <g id="patch_2">
    <path d="M 72 63 
L 140.152672 63 
L 140.152672 7.2 
L 72 7.2 
z
" style="fill:#ffffff;"/>
   </g>
   <g id="line2d_1">
    <path clip-path="url(#pb7a8d511e5)" d="M 75.097849 31.17522 
L 106.076336 19.366942 
L 137.054823 13.923557 
" style="fill:none;stroke:#0000ff;stroke-linecap:square;"/>
    <defs>
     <path d="M 0 1 
C 0.265203 1 0.51958 0.894634 0.707107 0.707107 
C 0.894634 0.51958 1 0.265203 1 0 
C 1 -0.265203 0.894634 -0.51958 0.707107 -0.707107 
C 0.51958 -0.894634 0.265203 -1 0 -1 
C -0.265203 -1 -0.51958 -0.894634 -0.707107 -0.707107 
C -0.894634 -0.51958 -1 -0.265203 -1 0 
C -1 0.265203 -0.894634 0.51958 -0.707107 0.707107 
C -0.51958 0.894634 -0.265203 1 0 1 
z
" id="m8569db9786" style="stroke:#000000;stroke-width:0.5;"/>
    </defs>
    <g clip-path="url(#pb7a8d511e5)">
     <use style="fill:#0000ff;stroke:#000000;stroke-width:0.5;" x="75.0978487162" xlink:href="#m8569db9786" y="31.1752196568"/>
     <use style="fill:#0000ff;stroke:#000000;stroke-width:0.5;" x="106.076335878" xlink:href="#m8569db9786" y="19.3669416713"/>
     <use style="fill:#0000ff;stroke:#000000;stroke-width:0.5;" x="137.05482304" xlink:href="#m8569db9786" y="13.9235574777"/>
    </g>
   </g>
   <g id="line2d_2">
    <path clip-path="url(#pb7a8d511e5)" d="M 75.097849 46.225938 
L 106.076336 37.694552 
L 137.054823 31.642196 
" style="fill:none;stroke:#008000;stroke-linecap:square;"/>
    <defs>
     <path d="M 0 1 
C 0.265203 1 0.51958 0.894634 0.707107 0.707107 
C 0.894634 0.51958 1 0.265203 1 0 
C 1 -0.265203 0.894634 -0.51958 0.707107 -0.707107 
C 0.51958 -0.894634 0.265203 -1 0 -1 
C -0.265203 -1 -0.51958 -0.894634 -0.707107 -0.707107 
C -0.894634 -0.51958 -1 -0.265203 -1 0 
C -1 0.265203 -0.894634 0.51958 -0.707107 0.707107 
C -0.51958 0.894634 -0.265203 1 0 1 
z
" id="m5c45b73144" style="stroke:#000000;stroke-width:0.5;"/>
    </defs>
    <g clip-path="url(#pb7a8d511e5)">
     <use style="fill:#008000;stroke:#000000;stroke-width:0.5;" x="75.0978487162" xlink:href="#m5c45b73144" y="46.2259384905"/>
     <use style="fill:#008000;stroke:#000000;stroke-width:0.5;" x="106.076335878" xlink:href="#m5c45b73144" y="37.6945520926"/>
     <use style="fill:#008000;stroke:#000000;stroke-width:0.5;" x="137.05482304" xlink:href="#m5c45b73144" y="31.642196296"/>
    </g>
   </g>
   <g id="line2d_3">
    <path clip-path="url(#pb7a8d511e5)" d="M 75.097849 47.371177 
L 106.076336 42.727606 
L 137.054823 37.226128 
" style="fill:none;stroke:#ff0000;stroke-linecap:square;"/>
    <defs>
     <path d="M 0 1 
C 0.265203 1 0.51958 0.894634 0.707107 0.707107 
C 0.894634 0.51958 1 0.265203 1 0 
C 1 -0.265203 0.894634 -0.51958 0.707107 -0.707107 
C 0.51958 -0.894634 0.265203 -1 0 -1 
C -0.265203 -1 -0.51958 -0.894634 -0.707107 -0.707107 
C -0.894634 -0.51958 -1 -0.265203 -1 0 
C -1 0.265203 -0.894634 0.51958 -0.707107 0.707107 
C -0.51958 0.894634 -0.265203 1 0 1 
z
" id="m9b841c7a97" style="stroke:#000000;stroke-width:0.5;"/>
    </defs>
    <g clip-path="url(#pb7a8d511e5)">
     <use style="fill:#ff0000;stroke:#000000;stroke-width:0.5;" x="75.0978487162" xlink:href="#m9b841c7a97" y="47.3711774414"/>
     <use style="fill:#ff0000;stroke:#000000;stroke-width:0.5;" x="106.076335878" xlink:href="#m9b841c7a97" y="42.7276062221"/>
     <use style="fill:#ff0000;stroke:#000000;stroke-width:0.5;" x="137.05482304" xlink:href="#m9b841c7a97" y="37.2261275181"/>
    </g>
   </g>
   <g id="line2d_4">
    <path clip-path="url(#pb7a8d511e5)" d="M 75.097849 48.468999 
L 106.076336 41.773831 
L 137.054823 37.012553 
" style="fill:none;stroke:#00ffff;stroke-linecap:square;"/>
    <defs>
     <path d="M 0 1 
C 0.265203 1 0.51958 0.894634 0.707107 0.707107 
C 0.894634 0.51958 1 0.265203 1 0 
C 1 -0.265203 0.894634 -0.51958 0.707107 -0.707107 
C 0.51958 -0.894634 0.265203 -1 0 -1 
C -0.265203 -1 -0.51958 -0.894634 -0.707107 -0.707107 
C -0.894634 -0.51958 -1 -0.265203 -1 0 
C -1 0.265203 -0.894634 0.51958 -0.707107 0.707107 
C -0.51958 0.894634 -0.265203 1 0 1 
z
" id="mf03b04df18" style="stroke:#000000;stroke-width:0.5;"/>
    </defs>
    <g clip-path="url(#pb7a8d511e5)">
     <use style="fill:#00ffff;stroke:#000000;stroke-width:0.5;" x="75.0978487162" xlink:href="#mf03b04df18" y="48.4689994315"/>
     <use style="fill:#00ffff;stroke:#000000;stroke-width:0.5;" x="106.076335878" xlink:href="#mf03b04df18" y="41.7738314104"/>
     <use style="fill:#00ffff;stroke:#000000;stroke-width:0.5;" x="137.05482304" xlink:href="#mf03b04df18" y="37.0125531738"/>
    </g>
   </g>
   <g id="line2d_5">
    <path clip-path="url(#pb7a8d511e5)" d="M 75.097849 53.318811 
L 106.076336 49.35664 
L 137.054823 46.09772 
" style="fill:none;stroke:#ff00ff;stroke-linecap:square;"/>
    <defs>
     <path d="M 0 1 
C 0.265203 1 0.51958 0.894634 0.707107 0.707107 
C 0.894634 0.51958 1 0.265203 1 0 
C 1 -0.265203 0.894634 -0.51958 0.707107 -0.707107 
C 0.51958 -0.894634 0.265203 -1 0 -1 
C -0.265203 -1 -0.51958 -0.894634 -0.707107 -0.707107 
C -0.894634 -0.51958 -1 -0.265203 -1 0 
C -1 0.265203 -0.894634 0.51958 -0.707107 0.707107 
C -0.51958 0.894634 -0.265203 1 0 1 
z
" id="mf1046c074f" style="stroke:#000000;stroke-width:0.5;"/>
    </defs>
    <g clip-path="url(#pb7a8d511e5)">
     <use style="fill:#ff00ff;stroke:#000000;stroke-width:0.5;" x="75.0978487162" xlink:href="#mf1046c074f" y="53.3188109305"/>
     <use style="fill:#ff00ff;stroke:#000000;stroke-width:0.5;" x="106.076335878" xlink:href="#mf1046c074f" y="49.356640189"/>
     <use style="fill:#ff00ff;stroke:#000000;stroke-width:0.5;" x="137.05482304" xlink:href="#mf1046c074f" y="46.0977203195"/>
    </g>
   </g>
   <g id="line2d_6">
    <path clip-path="url(#pb7a8d511e5)" d="M 75.097849 54.639211 
L 106.076336 50.668382 
L 137.054823 48.264554 
" style="fill:none;stroke:#ffa500;stroke-linecap:square;"/>
    <defs>
     <path d="M 0 1 
C 0.265203 1 0.51958 0.894634 0.707107 0.707107 
C 0.894634 0.51958 1 0.265203 1 0 
C 1 -0.265203 0.894634 -0.51958 0.707107 -0.707107 
C 0.51958 -0.894634 0.265203 -1 0 -1 
C -0.265203 -1 -0.51958 -0.894634 -0.707107 -0.707107 
C -0.894634 -0.51958 -1 -0.265203 -1 0 
C -1 0.265203 -0.894634 0.51958 -0.707107 0.707107 
C -0.51958 0.894634 -0.265203 1 0 1 
z
" id="m356f5ad567" style="stroke:#000000;stroke-width:0.5;"/>
    </defs>
    <g clip-path="url(#pb7a8d511e5)">
     <use style="fill:#ffa500;stroke:#000000;stroke-width:0.5;" x="75.0978487162" xlink:href="#m356f5ad567" y="54.6392111258"/>
     <use style="fill:#ffa500;stroke:#000000;stroke-width:0.5;" x="106.076335878" xlink:href="#m356f5ad567" y="50.668381965"/>
     <use style="fill:#ffa500;stroke:#000000;stroke-width:0.5;" x="137.05482304" xlink:href="#m356f5ad567" y="48.2645535017"/>
    </g>
   </g>
   <g id="patch_3">
    <path d="M 72 7.2 
L 140.152672 7.2 
" style="fill:none;"/>
   </g>
   <g id="patch_4">
    <path d="M 140.152672 63 
L 140.152672 7.2 
" style="fill:none;"/>
   </g>
   <g id="patch_5">
    <path d="M 72 63 
L 140.152672 63 
" style="fill:none;stroke:#000000;stroke-linecap:square;stroke-linejoin:miter;"/>
   </g>
   <g id="patch_6">
    <path d="M 67 63 
L 67 7.2 
" style="fill:none;stroke:#000000;stroke-linecap:square;stroke-linejoin:miter;"/>
   </g>
   <g id="matplotlib.axis_1">
    <g id="xtick_1">
     <g id="line2d_7">
      <defs>
       <path d="M 0 0 
L 0 4 
" id="m729dd3ec45" style="stroke:#000000;stroke-width:0.5;"/>
      </defs>
      <g>
       <use style="stroke:#000000;stroke-width:0.5;" x="75.0978487162" xlink:href="#m729dd3ec45" y="63.0"/>
      </g>
     </g>
     <g id="text_1">
      <!-- 12 -->
      <defs>
       <path d="M 37.25 0 
L 28.46875 0 
L 28.46875 56 
Q 25.296875 52.984375 20.140625 49.953125 
Q 14.984375 46.921875 10.890625 45.40625 
L 10.890625 53.90625 
Q 18.265625 57.375 23.78125 62.296875 
Q 29.296875 67.234375 31.59375 71.875 
L 37.25 71.875 
z
" id="ArialMT-31"/>
       <path d="M 50.34375 8.453125 
L 50.34375 0 
L 3.03125 0 
Q 2.9375 3.171875 4.046875 6.109375 
Q 5.859375 10.9375 9.828125 15.625 
Q 13.8125 20.3125 21.34375 26.46875 
Q 33.015625 36.03125 37.109375 41.625 
Q 41.21875 47.21875 41.21875 52.203125 
Q 41.21875 57.421875 37.46875 61 
Q 33.734375 64.59375 27.734375 64.59375 
Q 21.390625 64.59375 17.578125 60.78125 
Q 13.765625 56.984375 13.71875 50.25 
L 4.6875 51.171875 
Q 5.609375 61.28125 11.65625 66.578125 
Q 17.71875 71.875 27.9375 71.875 
Q 38.234375 71.875 44.234375 66.15625 
Q 50.25 60.453125 50.25 52 
Q 50.25 47.703125 48.484375 43.546875 
Q 46.734375 39.40625 42.65625 34.8125 
Q 38.578125 30.21875 29.109375 22.21875 
Q 21.1875 15.578125 18.9375 13.203125 
Q 16.703125 10.84375 15.234375 8.453125 
z
" id="ArialMT-32"/>
      </defs>
      <g transform="translate(71.7612862162 75.2946875)scale(0.06 -0.06)">
       <use xlink:href="#ArialMT-31"/>
       <use x="55.615234375" xlink:href="#ArialMT-32"/>
      </g>
     </g>
    </g>
    <g id="xtick_2">
     <g id="line2d_8">
      <g>
       <use style="stroke:#000000;stroke-width:0.5;" x="106.076335878" xlink:href="#m729dd3ec45" y="63.0"/>
      </g>
     </g>
     <g id="text_2">
      <!-- 24 -->
      <defs>
       <path d="M 32.328125 0 
L 32.328125 17.140625 
L 1.265625 17.140625 
L 1.265625 25.203125 
L 33.9375 71.578125 
L 41.109375 71.578125 
L 41.109375 25.203125 
L 50.78125 25.203125 
L 50.78125 17.140625 
L 41.109375 17.140625 
L 41.109375 0 
z
M 32.328125 25.203125 
L 32.328125 57.46875 
L 9.90625 25.203125 
z
" id="ArialMT-34"/>
      </defs>
      <g transform="translate(102.739773378 75.2946875)scale(0.06 -0.06)">
       <use xlink:href="#ArialMT-32"/>
       <use x="55.615234375" xlink:href="#ArialMT-34"/>
      </g>
     </g>
    </g>
    <g id="xtick_3">
     <g id="line2d_9">
      <g>
       <use style="stroke:#000000;stroke-width:0.5;" x="137.05482304" xlink:href="#m729dd3ec45" y="63.0"/>
      </g>
     </g>
     <g id="text_3">
      <!-- 48 -->
      <defs>
       <path d="M 17.671875 38.8125 
Q 12.203125 40.828125 9.5625 44.53125 
Q 6.9375 48.25 6.9375 53.421875 
Q 6.9375 61.234375 12.546875 66.546875 
Q 18.171875 71.875 27.484375 71.875 
Q 36.859375 71.875 42.578125 66.421875 
Q 48.296875 60.984375 48.296875 53.171875 
Q 48.296875 48.1875 45.671875 44.5 
Q 43.0625 40.828125 37.75 38.8125 
Q 44.34375 36.671875 47.78125 31.875 
Q 51.21875 27.09375 51.21875 20.453125 
Q 51.21875 11.28125 44.71875 5.03125 
Q 38.234375 -1.21875 27.640625 -1.21875 
Q 17.046875 -1.21875 10.546875 5.046875 
Q 4.046875 11.328125 4.046875 20.703125 
Q 4.046875 27.6875 7.59375 32.390625 
Q 11.140625 37.109375 17.671875 38.8125 
M 15.921875 53.71875 
Q 15.921875 48.640625 19.1875 45.40625 
Q 22.46875 42.1875 27.6875 42.1875 
Q 32.765625 42.1875 36.015625 45.375 
Q 39.265625 48.578125 39.265625 53.21875 
Q 39.265625 58.0625 35.90625 61.359375 
Q 32.5625 64.65625 27.59375 64.65625 
Q 22.5625 64.65625 19.234375 61.421875 
Q 15.921875 58.203125 15.921875 53.71875 
M 13.09375 20.65625 
Q 13.09375 16.890625 14.875 13.375 
Q 16.65625 9.859375 20.171875 7.921875 
Q 23.6875 6 27.734375 6 
Q 34.03125 6 38.125 10.046875 
Q 42.234375 14.109375 42.234375 20.359375 
Q 42.234375 26.703125 38.015625 30.859375 
Q 33.796875 35.015625 27.4375 35.015625 
Q 21.234375 35.015625 17.15625 30.90625 
Q 13.09375 26.8125 13.09375 20.65625 
" id="ArialMT-38"/>
      </defs>
      <g transform="translate(133.71826054 75.2946875)scale(0.06 -0.06)">
       <use xlink:href="#ArialMT-34"/>
       <use x="55.615234375" xlink:href="#ArialMT-38"/>
      </g>
     </g>
    </g>
    <g id="text_4">
     <!-- Hours of Starvation -->
     <defs>
      <path d="M 8.015625 0 
L 8.015625 71.578125 
L 17.484375 71.578125 
L 17.484375 42.1875 
L 54.6875 42.1875 
L 54.6875 71.578125 
L 64.15625 71.578125 
L 64.15625 0 
L 54.6875 0 
L 54.6875 33.734375 
L 17.484375 33.734375 
L 17.484375 0 
z
" id="ArialMT-48"/>
      <path d="M 40.4375 6.390625 
Q 35.546875 2.25 31.03125 0.53125 
Q 26.515625 -1.171875 21.34375 -1.171875 
Q 12.796875 -1.171875 8.203125 3 
Q 3.609375 7.171875 3.609375 13.671875 
Q 3.609375 17.484375 5.34375 20.625 
Q 7.078125 23.78125 9.890625 25.6875 
Q 12.703125 27.59375 16.21875 28.5625 
Q 18.796875 29.25 24.03125 29.890625 
Q 34.671875 31.15625 39.703125 32.90625 
Q 39.75 34.71875 39.75 35.203125 
Q 39.75 40.578125 37.25 42.78125 
Q 33.890625 45.75 27.25 45.75 
Q 21.046875 45.75 18.09375 43.578125 
Q 15.140625 41.40625 13.71875 35.890625 
L 5.125 37.0625 
Q 6.296875 42.578125 8.984375 45.96875 
Q 11.671875 49.359375 16.75 51.1875 
Q 21.828125 53.03125 28.515625 53.03125 
Q 35.15625 53.03125 39.296875 51.46875 
Q 43.453125 49.90625 45.40625 47.53125 
Q 47.359375 45.171875 48.140625 41.546875 
Q 48.578125 39.3125 48.578125 33.453125 
L 48.578125 21.734375 
Q 48.578125 9.46875 49.140625 6.21875 
Q 49.703125 2.984375 51.375 0 
L 42.1875 0 
Q 40.828125 2.734375 40.4375 6.390625 
M 39.703125 26.03125 
Q 34.90625 24.078125 25.34375 22.703125 
Q 19.921875 21.921875 17.671875 20.9375 
Q 15.4375 19.96875 14.203125 18.09375 
Q 12.984375 16.21875 12.984375 13.921875 
Q 12.984375 10.40625 15.640625 8.0625 
Q 18.3125 5.71875 23.4375 5.71875 
Q 28.515625 5.71875 32.46875 7.9375 
Q 36.421875 10.15625 38.28125 14.015625 
Q 39.703125 17 39.703125 22.796875 
z
" id="ArialMT-61"/>
      <path d="M 8.6875 0 
L 8.6875 45.015625 
L 0.921875 45.015625 
L 0.921875 51.859375 
L 8.6875 51.859375 
L 8.6875 57.375 
Q 8.6875 62.59375 9.625 65.140625 
Q 10.890625 68.5625 14.078125 70.671875 
Q 17.28125 72.796875 23.046875 72.796875 
Q 26.765625 72.796875 31.25 71.921875 
L 29.9375 64.265625 
Q 27.203125 64.75 24.75 64.75 
Q 20.75 64.75 19.09375 63.03125 
Q 17.4375 61.328125 17.4375 56.640625 
L 17.4375 51.859375 
L 27.546875 51.859375 
L 27.546875 45.015625 
L 17.4375 45.015625 
L 17.4375 0 
z
" id="ArialMT-66"/>
      <path d="M 25.78125 7.859375 
L 27.046875 0.09375 
Q 23.34375 -0.6875 20.40625 -0.6875 
Q 15.625 -0.6875 12.984375 0.828125 
Q 10.359375 2.34375 9.28125 4.8125 
Q 8.203125 7.28125 8.203125 15.1875 
L 8.203125 45.015625 
L 1.765625 45.015625 
L 1.765625 51.859375 
L 8.203125 51.859375 
L 8.203125 64.703125 
L 16.9375 69.96875 
L 16.9375 51.859375 
L 25.78125 51.859375 
L 25.78125 45.015625 
L 16.9375 45.015625 
L 16.9375 14.703125 
Q 16.9375 10.9375 17.40625 9.859375 
Q 17.875 8.796875 18.921875 8.15625 
Q 19.96875 7.515625 21.921875 7.515625 
Q 23.390625 7.515625 25.78125 7.859375 
" id="ArialMT-74"/>
      <path d="M 40.578125 0 
L 40.578125 7.625 
Q 34.515625 -1.171875 24.125 -1.171875 
Q 19.53125 -1.171875 15.546875 0.578125 
Q 11.578125 2.34375 9.640625 5 
Q 7.71875 7.671875 6.9375 11.53125 
Q 6.390625 14.109375 6.390625 19.734375 
L 6.390625 51.859375 
L 15.1875 51.859375 
L 15.1875 23.09375 
Q 15.1875 16.21875 15.71875 13.8125 
Q 16.546875 10.359375 19.234375 8.375 
Q 21.921875 6.390625 25.875 6.390625 
Q 29.828125 6.390625 33.296875 8.421875 
Q 36.765625 10.453125 38.203125 13.9375 
Q 39.65625 17.4375 39.65625 24.078125 
L 39.65625 51.859375 
L 48.4375 51.859375 
L 48.4375 0 
z
" id="ArialMT-75"/>
      <path d="M 21 0 
L 1.265625 51.859375 
L 10.546875 51.859375 
L 21.6875 20.796875 
Q 23.484375 15.765625 25 10.359375 
Q 26.171875 14.453125 28.265625 20.21875 
L 39.796875 51.859375 
L 48.828125 51.859375 
L 29.203125 0 
z
" id="ArialMT-76"/>
      <path d="M 6.5 0 
L 6.5 51.859375 
L 14.40625 51.859375 
L 14.40625 44 
Q 17.4375 49.515625 20 51.265625 
Q 22.5625 53.03125 25.640625 53.03125 
Q 30.078125 53.03125 34.671875 50.203125 
L 31.640625 42.046875 
Q 28.421875 43.953125 25.203125 43.953125 
Q 22.3125 43.953125 20.015625 42.21875 
Q 17.71875 40.484375 16.75 37.40625 
Q 15.28125 32.71875 15.28125 27.15625 
L 15.28125 0 
z
" id="ArialMT-72"/>
      <path d="M 3.078125 15.484375 
L 11.765625 16.84375 
Q 12.5 11.625 15.84375 8.84375 
Q 19.1875 6.0625 25.203125 6.0625 
Q 31.25 6.0625 34.171875 8.515625 
Q 37.109375 10.984375 37.109375 14.3125 
Q 37.109375 17.28125 34.515625 19 
Q 32.71875 20.171875 25.53125 21.96875 
Q 15.875 24.421875 12.140625 26.203125 
Q 8.40625 27.984375 6.46875 31.125 
Q 4.546875 34.28125 4.546875 38.09375 
Q 4.546875 41.546875 6.125 44.5 
Q 7.71875 47.46875 10.453125 49.421875 
Q 12.5 50.921875 16.03125 51.96875 
Q 19.578125 53.03125 23.640625 53.03125 
Q 29.734375 53.03125 34.34375 51.265625 
Q 38.96875 49.515625 41.15625 46.5 
Q 43.359375 43.5 44.1875 38.484375 
L 35.59375 37.3125 
Q 35.015625 41.3125 32.203125 43.546875 
Q 29.390625 45.796875 24.265625 45.796875 
Q 18.21875 45.796875 15.625 43.796875 
Q 13.03125 41.796875 13.03125 39.109375 
Q 13.03125 37.40625 14.109375 36.03125 
Q 15.1875 34.625 17.484375 33.6875 
Q 18.796875 33.203125 25.25 31.453125 
Q 34.578125 28.953125 38.25 27.359375 
Q 41.9375 25.78125 44.03125 22.75 
Q 46.140625 19.734375 46.140625 15.234375 
Q 46.140625 10.84375 43.578125 6.953125 
Q 41.015625 3.078125 36.171875 0.953125 
Q 31.34375 -1.171875 25.25 -1.171875 
Q 15.140625 -1.171875 9.84375 3.03125 
Q 4.546875 7.234375 3.078125 15.484375 
" id="ArialMT-73"/>
      <path d="M 3.328125 25.921875 
Q 3.328125 40.328125 11.328125 47.265625 
Q 18.015625 53.03125 27.640625 53.03125 
Q 38.328125 53.03125 45.109375 46.015625 
Q 51.90625 39.015625 51.90625 26.65625 
Q 51.90625 16.65625 48.90625 10.90625 
Q 45.90625 5.171875 40.15625 2 
Q 34.421875 -1.171875 27.640625 -1.171875 
Q 16.75 -1.171875 10.03125 5.8125 
Q 3.328125 12.796875 3.328125 25.921875 
M 12.359375 25.921875 
Q 12.359375 15.96875 16.703125 11.015625 
Q 21.046875 6.0625 27.640625 6.0625 
Q 34.1875 6.0625 38.53125 11.03125 
Q 42.875 16.015625 42.875 26.21875 
Q 42.875 35.84375 38.5 40.796875 
Q 34.125 45.75 27.640625 45.75 
Q 21.046875 45.75 16.703125 40.8125 
Q 12.359375 35.890625 12.359375 25.921875 
" id="ArialMT-6f"/>
      <path d="M 6.59375 0 
L 6.59375 51.859375 
L 14.5 51.859375 
L 14.5 44.484375 
Q 20.21875 53.03125 31 53.03125 
Q 35.6875 53.03125 39.625 51.34375 
Q 43.5625 49.65625 45.515625 46.921875 
Q 47.46875 44.1875 48.25 40.4375 
Q 48.734375 37.984375 48.734375 31.890625 
L 48.734375 0 
L 39.9375 0 
L 39.9375 31.546875 
Q 39.9375 36.921875 38.90625 39.578125 
Q 37.890625 42.234375 35.28125 43.8125 
Q 32.671875 45.40625 29.15625 45.40625 
Q 23.53125 45.40625 19.453125 41.84375 
Q 15.375 38.28125 15.375 28.328125 
L 15.375 0 
z
" id="ArialMT-6e"/>
      <path d="M 4.5 23 
L 13.421875 23.78125 
Q 14.0625 18.40625 16.375 14.96875 
Q 18.703125 11.53125 23.578125 9.40625 
Q 28.46875 7.28125 34.578125 7.28125 
Q 39.984375 7.28125 44.140625 8.890625 
Q 48.296875 10.5 50.3125 13.296875 
Q 52.34375 16.109375 52.34375 19.4375 
Q 52.34375 22.796875 50.390625 25.3125 
Q 48.4375 27.828125 43.953125 29.546875 
Q 41.0625 30.671875 31.203125 33.03125 
Q 21.34375 35.40625 17.390625 37.5 
Q 12.25 40.1875 9.734375 44.15625 
Q 7.234375 48.140625 7.234375 53.078125 
Q 7.234375 58.5 10.296875 63.203125 
Q 13.375 67.921875 19.28125 70.359375 
Q 25.203125 72.796875 32.421875 72.796875 
Q 40.375 72.796875 46.453125 70.234375 
Q 52.546875 67.671875 55.8125 62.6875 
Q 59.078125 57.71875 59.328125 51.421875 
L 50.25 50.734375 
Q 49.515625 57.515625 45.28125 60.984375 
Q 41.0625 64.453125 32.8125 64.453125 
Q 24.21875 64.453125 20.28125 61.296875 
Q 16.359375 58.15625 16.359375 53.71875 
Q 16.359375 49.859375 19.140625 47.359375 
Q 21.875 44.875 33.421875 42.265625 
Q 44.96875 39.65625 49.265625 37.703125 
Q 55.515625 34.8125 58.484375 30.390625 
Q 61.46875 25.984375 61.46875 20.21875 
Q 61.46875 14.5 58.203125 9.4375 
Q 54.9375 4.390625 48.796875 1.578125 
Q 42.671875 -1.21875 35.015625 -1.21875 
Q 25.296875 -1.21875 18.71875 1.609375 
Q 12.15625 4.4375 8.421875 10.125 
Q 4.6875 15.828125 4.5 23 
" id="ArialMT-53"/>
      <path d="M 6.640625 61.46875 
L 6.640625 71.578125 
L 15.4375 71.578125 
L 15.4375 61.46875 
z
M 6.640625 0 
L 6.640625 51.859375 
L 15.4375 51.859375 
L 15.4375 0 
z
" id="ArialMT-69"/>
      <path id="ArialMT-20"/>
     </defs>
     <g transform="translate(71.8400858779 87.2134375)scale(0.08 -0.08)">
      <use xlink:href="#ArialMT-48"/>
      <use x="72.216796875" xlink:href="#ArialMT-6f"/>
      <use x="127.83203125" xlink:href="#ArialMT-75"/>
      <use x="183.447265625" xlink:href="#ArialMT-72"/>
      <use x="216.748046875" xlink:href="#ArialMT-73"/>
      <use x="266.748046875" xlink:href="#ArialMT-20"/>
      <use x="294.53125" xlink:href="#ArialMT-6f"/>
      <use x="350.146484375" xlink:href="#ArialMT-66"/>
      <use x="377.9296875" xlink:href="#ArialMT-20"/>
      <use x="405.712890625" xlink:href="#ArialMT-53"/>
      <use x="472.412109375" xlink:href="#ArialMT-74"/>
      <use x="500.1953125" xlink:href="#ArialMT-61"/>
      <use x="555.810546875" xlink:href="#ArialMT-72"/>
      <use x="589.111328125" xlink:href="#ArialMT-76"/>
      <use x="639.111328125" xlink:href="#ArialMT-61"/>
      <use x="694.7265625" xlink:href="#ArialMT-74"/>
      <use x="722.509765625" xlink:href="#ArialMT-69"/>
      <use x="744.7265625" xlink:href="#ArialMT-6f"/>
      <use x="800.341796875" xlink:href="#ArialMT-6e"/>
     </g>
    </g>
   </g>
   <g id="matplotlib.axis_2">
    <g id="ytick_1">
     <g id="line2d_10">
      <defs>
       <path d="M 0 0 
L -4 0 
" id="mafe369fd09" style="stroke:#000000;stroke-width:0.5;"/>
      </defs>
      <g>
       <use style="stroke:#000000;stroke-width:0.5;" x="67.0" xlink:href="#mafe369fd09" y="63.0"/>
      </g>
     </g>
     <g id="text_5">
      <!-- 0 -->
      <defs>
       <path d="M 4.15625 35.296875 
Q 4.15625 48 6.765625 55.734375 
Q 9.375 63.484375 14.515625 67.671875 
Q 19.671875 71.875 27.484375 71.875 
Q 33.25 71.875 37.59375 69.546875 
Q 41.9375 67.234375 44.765625 62.859375 
Q 47.609375 58.5 49.21875 52.21875 
Q 50.828125 45.953125 50.828125 35.296875 
Q 50.828125 22.703125 48.234375 14.96875 
Q 45.65625 7.234375 40.5 3 
Q 35.359375 -1.21875 27.484375 -1.21875 
Q 17.140625 -1.21875 11.234375 6.203125 
Q 4.15625 15.140625 4.15625 35.296875 
M 13.1875 35.296875 
Q 13.1875 17.671875 17.3125 11.828125 
Q 21.4375 6 27.484375 6 
Q 33.546875 6 37.671875 11.859375 
Q 41.796875 17.71875 41.796875 35.296875 
Q 41.796875 52.984375 37.671875 58.78125 
Q 33.546875 64.59375 27.390625 64.59375 
Q 21.34375 64.59375 17.71875 59.46875 
Q 13.1875 52.9375 13.1875 35.296875 
" id="ArialMT-30"/>
      </defs>
      <g transform="translate(55.6634375 64.55109375)scale(0.06 -0.06)">
       <use xlink:href="#ArialMT-30"/>
      </g>
     </g>
    </g>
    <g id="ytick_2">
     <g id="line2d_11">
      <g>
       <use style="stroke:#000000;stroke-width:0.5;" x="67.0" xlink:href="#mafe369fd09" y="51.0428571429"/>
      </g>
     </g>
     <g id="text_6">
      <!-- 1500 -->
      <defs>
       <path d="M 4.15625 18.75 
L 13.375 19.53125 
Q 14.40625 12.796875 18.140625 9.390625 
Q 21.875 6 27.15625 6 
Q 33.5 6 37.890625 10.78125 
Q 42.28125 15.578125 42.28125 23.484375 
Q 42.28125 31 38.0625 35.34375 
Q 33.84375 39.703125 27 39.703125 
Q 22.75 39.703125 19.328125 37.765625 
Q 15.921875 35.84375 13.96875 32.765625 
L 5.71875 33.84375 
L 12.640625 70.609375 
L 48.25 70.609375 
L 48.25 62.203125 
L 19.671875 62.203125 
L 15.828125 42.96875 
Q 22.265625 47.46875 29.34375 47.46875 
Q 38.71875 47.46875 45.15625 40.96875 
Q 51.609375 34.46875 51.609375 24.265625 
Q 51.609375 14.546875 45.953125 7.46875 
Q 39.0625 -1.21875 27.15625 -1.21875 
Q 17.390625 -1.21875 11.203125 4.25 
Q 5.03125 9.71875 4.15625 18.75 
" id="ArialMT-35"/>
      </defs>
      <g transform="translate(45.65375 52.5939508929)scale(0.06 -0.06)">
       <use xlink:href="#ArialMT-31"/>
       <use x="55.615234375" xlink:href="#ArialMT-35"/>
       <use x="111.23046875" xlink:href="#ArialMT-30"/>
       <use x="166.845703125" xlink:href="#ArialMT-30"/>
      </g>
     </g>
    </g>
    <g id="ytick_3">
     <g id="line2d_12">
      <g>
       <use style="stroke:#000000;stroke-width:0.5;" x="67.0" xlink:href="#mafe369fd09" y="39.0857142857"/>
      </g>
     </g>
     <g id="text_7">
      <!-- 3000 -->
      <defs>
       <path d="M 4.203125 18.890625 
L 12.984375 20.0625 
Q 14.5 12.59375 18.140625 9.296875 
Q 21.78125 6 27 6 
Q 33.203125 6 37.46875 10.296875 
Q 41.75 14.59375 41.75 20.953125 
Q 41.75 27 37.796875 30.921875 
Q 33.84375 34.859375 27.734375 34.859375 
Q 25.25 34.859375 21.53125 33.890625 
L 22.515625 41.609375 
Q 23.390625 41.5 23.921875 41.5 
Q 29.546875 41.5 34.03125 44.421875 
Q 38.53125 47.359375 38.53125 53.46875 
Q 38.53125 58.296875 35.25 61.46875 
Q 31.984375 64.65625 26.8125 64.65625 
Q 21.6875 64.65625 18.265625 61.421875 
Q 14.84375 58.203125 13.875 51.765625 
L 5.078125 53.328125 
Q 6.6875 62.15625 12.390625 67.015625 
Q 18.109375 71.875 26.609375 71.875 
Q 32.46875 71.875 37.390625 69.359375 
Q 42.328125 66.84375 44.9375 62.5 
Q 47.5625 58.15625 47.5625 53.265625 
Q 47.5625 48.640625 45.0625 44.828125 
Q 42.578125 41.015625 37.703125 38.765625 
Q 44.046875 37.3125 47.5625 32.6875 
Q 51.078125 28.078125 51.078125 21.140625 
Q 51.078125 11.765625 44.234375 5.25 
Q 37.40625 -1.265625 26.953125 -1.265625 
Q 17.53125 -1.265625 11.296875 4.34375 
Q 5.078125 9.96875 4.203125 18.890625 
" id="ArialMT-33"/>
      </defs>
      <g transform="translate(45.65375 40.6368080357)scale(0.06 -0.06)">
       <use xlink:href="#ArialMT-33"/>
       <use x="55.615234375" xlink:href="#ArialMT-30"/>
       <use x="111.23046875" xlink:href="#ArialMT-30"/>
       <use x="166.845703125" xlink:href="#ArialMT-30"/>
      </g>
     </g>
    </g>
    <g id="ytick_4">
     <g id="line2d_13">
      <g>
       <use style="stroke:#000000;stroke-width:0.5;" x="67.0" xlink:href="#mafe369fd09" y="27.1285714286"/>
      </g>
     </g>
     <g id="text_8">
      <!-- 4500 -->
      <g transform="translate(45.65375 28.6796651786)scale(0.06 -0.06)">
       <use xlink:href="#ArialMT-34"/>
       <use x="55.615234375" xlink:href="#ArialMT-35"/>
       <use x="111.23046875" xlink:href="#ArialMT-30"/>
       <use x="166.845703125" xlink:href="#ArialMT-30"/>
      </g>
     </g>
    </g>
    <g id="ytick_5">
     <g id="line2d_14">
      <g>
       <use style="stroke:#000000;stroke-width:0.5;" x="67.0" xlink:href="#mafe369fd09" y="15.1714285714"/>
      </g>
     </g>
     <g id="text_9">
      <!-- 6000 -->
      <defs>
       <path d="M 49.75 54.046875 
L 41.015625 53.375 
Q 39.84375 58.546875 37.703125 60.890625 
Q 34.125 64.65625 28.90625 64.65625 
Q 24.703125 64.65625 21.53125 62.3125 
Q 17.390625 59.28125 14.984375 53.46875 
Q 12.59375 47.65625 12.5 36.921875 
Q 15.671875 41.75 20.265625 44.09375 
Q 24.859375 46.4375 29.890625 46.4375 
Q 38.671875 46.4375 44.84375 39.96875 
Q 51.03125 33.5 51.03125 23.25 
Q 51.03125 16.5 48.125 10.71875 
Q 45.21875 4.9375 40.140625 1.859375 
Q 35.0625 -1.21875 28.609375 -1.21875 
Q 17.625 -1.21875 10.6875 6.859375 
Q 3.765625 14.9375 3.765625 33.5 
Q 3.765625 54.25 11.421875 63.671875 
Q 18.109375 71.875 29.4375 71.875 
Q 37.890625 71.875 43.28125 67.140625 
Q 48.6875 62.40625 49.75 54.046875 
M 13.875 23.1875 
Q 13.875 18.65625 15.796875 14.5 
Q 17.71875 10.359375 21.1875 8.171875 
Q 24.65625 6 28.46875 6 
Q 34.03125 6 38.03125 10.484375 
Q 42.046875 14.984375 42.046875 22.703125 
Q 42.046875 30.125 38.078125 34.390625 
Q 34.125 38.671875 28.125 38.671875 
Q 22.171875 38.671875 18.015625 34.390625 
Q 13.875 30.125 13.875 23.1875 
" id="ArialMT-36"/>
      </defs>
      <g transform="translate(45.65375 16.7225223214)scale(0.06 -0.06)">
       <use xlink:href="#ArialMT-36"/>
       <use x="55.615234375" xlink:href="#ArialMT-30"/>
       <use x="111.23046875" xlink:href="#ArialMT-30"/>
       <use x="166.845703125" xlink:href="#ArialMT-30"/>
      </g>
     </g>
    </g>
    <g id="text_10">
     <!-- Fluorescence -->
     <defs>
      <path d="M 6.390625 0 
L 6.390625 71.578125 
L 15.1875 71.578125 
L 15.1875 0 
z
" id="ArialMT-6c"/>
      <path d="M 40.4375 19 
L 49.078125 17.875 
Q 47.65625 8.9375 41.8125 3.875 
Q 35.984375 -1.171875 27.484375 -1.171875 
Q 16.84375 -1.171875 10.375 5.78125 
Q 3.90625 12.75 3.90625 25.734375 
Q 3.90625 34.125 6.6875 40.421875 
Q 9.46875 46.734375 15.15625 49.875 
Q 20.84375 53.03125 27.546875 53.03125 
Q 35.984375 53.03125 41.359375 48.75 
Q 46.734375 44.484375 48.25 36.625 
L 39.703125 35.296875 
Q 38.484375 40.53125 35.375 43.15625 
Q 32.28125 45.796875 27.875 45.796875 
Q 21.234375 45.796875 17.078125 41.03125 
Q 12.9375 36.28125 12.9375 25.984375 
Q 12.9375 15.53125 16.9375 10.796875 
Q 20.953125 6.0625 27.390625 6.0625 
Q 32.5625 6.0625 36.03125 9.234375 
Q 39.5 12.40625 40.4375 19 
" id="ArialMT-63"/>
      <path d="M 42.09375 16.703125 
L 51.171875 15.578125 
Q 49.03125 7.625 43.21875 3.21875 
Q 37.40625 -1.171875 28.375 -1.171875 
Q 17 -1.171875 10.328125 5.828125 
Q 3.65625 12.84375 3.65625 25.484375 
Q 3.65625 38.578125 10.390625 45.796875 
Q 17.140625 53.03125 27.875 53.03125 
Q 38.28125 53.03125 44.875 45.953125 
Q 51.46875 38.875 51.46875 26.03125 
Q 51.46875 25.25 51.421875 23.6875 
L 12.75 23.6875 
Q 13.234375 15.140625 17.578125 10.59375 
Q 21.921875 6.0625 28.421875 6.0625 
Q 33.25 6.0625 36.671875 8.59375 
Q 40.09375 11.140625 42.09375 16.703125 
M 13.234375 30.90625 
L 42.1875 30.90625 
Q 41.609375 37.453125 38.875 40.71875 
Q 34.671875 45.796875 27.984375 45.796875 
Q 21.921875 45.796875 17.796875 41.75 
Q 13.671875 37.703125 13.234375 30.90625 
" id="ArialMT-65"/>
      <path d="M 8.203125 0 
L 8.203125 71.578125 
L 56.5 71.578125 
L 56.5 63.140625 
L 17.671875 63.140625 
L 17.671875 40.96875 
L 51.265625 40.96875 
L 51.265625 32.515625 
L 17.671875 32.515625 
L 17.671875 0 
z
" id="ArialMT-46"/>
     </defs>
     <g transform="translate(30.3915 59.11)rotate(-90.0)scale(0.08 -0.08)">
      <use xlink:href="#ArialMT-46"/>
      <use x="61.083984375" xlink:href="#ArialMT-6c"/>
      <use x="83.30078125" xlink:href="#ArialMT-75"/>
      <use x="138.916015625" xlink:href="#ArialMT-6f"/>
      <use x="194.53125" xlink:href="#ArialMT-72"/>
      <use x="227.83203125" xlink:href="#ArialMT-65"/>
      <use x="283.447265625" xlink:href="#ArialMT-73"/>
      <use x="333.447265625" xlink:href="#ArialMT-63"/>
      <use x="383.447265625" xlink:href="#ArialMT-65"/>
      <use x="439.0625" xlink:href="#ArialMT-6e"/>
      <use x="494.677734375" xlink:href="#ArialMT-63"/>
      <use x="544.677734375" xlink:href="#ArialMT-65"/>
     </g>
     <!-- (a.u.) -->
     <defs>
      <path d="M 9.078125 0 
L 9.078125 10.015625 
L 19.09375 10.015625 
L 19.09375 0 
z
" id="ArialMT-2e"/>
      <path d="M 12.359375 -21.046875 
L 6.0625 -21.046875 
Q 20.65625 2.390625 20.65625 25.875 
Q 20.65625 35.0625 18.5625 44.09375 
Q 16.890625 51.421875 13.921875 58.15625 
Q 12.015625 62.546875 6.0625 72.796875 
L 12.359375 72.796875 
Q 21.53125 60.546875 25.921875 48.1875 
Q 29.6875 37.546875 29.6875 25.921875 
Q 29.6875 12.75 24.625 0.4375 
Q 19.578125 -11.859375 12.359375 -21.046875 
" id="ArialMT-29"/>
      <path d="M 23.390625 -21.046875 
Q 16.109375 -11.859375 11.078125 0.4375 
Q 6.0625 12.75 6.0625 25.921875 
Q 6.0625 37.546875 9.8125 48.1875 
Q 14.203125 60.546875 23.390625 72.796875 
L 29.6875 72.796875 
Q 23.78125 62.640625 21.875 58.296875 
Q 18.890625 51.5625 17.1875 44.234375 
Q 15.09375 35.109375 15.09375 25.875 
Q 15.09375 2.390625 29.6875 -21.046875 
z
" id="ArialMT-28"/>
     </defs>
     <g transform="translate(38.97 44.435)rotate(-90.0)scale(0.08 -0.08)">
      <use xlink:href="#ArialMT-28"/>
      <use x="33.30078125" xlink:href="#ArialMT-61"/>
      <use x="88.916015625" xlink:href="#ArialMT-2e"/>
      <use x="116.69921875" xlink:href="#ArialMT-75"/>
      <use x="172.314453125" xlink:href="#ArialMT-2e"/>
      <use x="200.09765625" xlink:href="#ArialMT-29"/>
     </g>
    </g>
   </g>
   <g id="text_11">
    <!-- Rich -->
    <defs>
     <path d="M 7.859375 0 
L 7.859375 71.578125 
L 39.59375 71.578125 
Q 49.171875 71.578125 54.140625 69.640625 
Q 59.125 67.71875 62.109375 62.828125 
Q 65.09375 57.953125 65.09375 52.046875 
Q 65.09375 44.4375 60.15625 39.203125 
Q 55.21875 33.984375 44.921875 32.5625 
Q 48.6875 30.765625 50.640625 29 
Q 54.78125 25.203125 58.5 19.484375 
L 70.953125 0 
L 59.03125 0 
L 49.5625 14.890625 
Q 45.40625 21.34375 42.71875 24.75 
Q 40.046875 28.171875 37.921875 29.53125 
Q 35.796875 30.90625 33.59375 31.453125 
Q 31.984375 31.78125 28.328125 31.78125 
L 17.328125 31.78125 
L 17.328125 0 
z
M 17.328125 39.984375 
L 37.703125 39.984375 
Q 44.1875 39.984375 47.84375 41.328125 
Q 51.515625 42.671875 53.421875 45.625 
Q 55.328125 48.578125 55.328125 52.046875 
Q 55.328125 57.125 51.640625 60.390625 
Q 47.953125 63.671875 39.984375 63.671875 
L 17.328125 63.671875 
z
" id="ArialMT-52"/>
     <path d="M 6.59375 0 
L 6.59375 71.578125 
L 15.375 71.578125 
L 15.375 45.90625 
Q 21.53125 53.03125 30.90625 53.03125 
Q 36.671875 53.03125 40.921875 50.75 
Q 45.171875 48.484375 47 44.484375 
Q 48.828125 40.484375 48.828125 32.859375 
L 48.828125 0 
L 40.046875 0 
L 40.046875 32.859375 
Q 40.046875 39.453125 37.1875 42.453125 
Q 34.328125 45.453125 29.109375 45.453125 
Q 25.203125 45.453125 21.75 43.421875 
Q 18.3125 41.40625 16.84375 37.9375 
Q 15.375 34.46875 15.375 28.375 
L 15.375 0 
z
" id="ArialMT-68"/>
    </defs>
    <g transform="translate(98.0744608779 2.2)scale(0.08 -0.08)">
     <use xlink:href="#ArialMT-52"/>
     <use x="72.216796875" xlink:href="#ArialMT-69"/>
     <use x="94.43359375" xlink:href="#ArialMT-63"/>
     <use x="144.43359375" xlink:href="#ArialMT-68"/>
    </g>
   </g>
  </g>
  <g id="axes_2">
   <g id="patch_7">
    <path d="M 198.082443 63 
L 266.235115 63 
L 266.235115 7.2 
L 198.082443 7.2 
z
" style="fill:#ffffff;"/>
   </g>
   <g id="line2d_15">
    <path clip-path="url(#p2e540fbbe5)" d="M 201.180291 49.281254 
L 232.158779 46.668036 
L 263.137266 36.465417 
" style="fill:none;stroke:#0000ff;stroke-linecap:square;"/>
    <g clip-path="url(#p2e540fbbe5)">
     <use style="fill:#0000ff;stroke:#000000;stroke-width:0.5;" x="201.180291464" xlink:href="#m8569db9786" y="49.2812541399"/>
     <use style="fill:#0000ff;stroke:#000000;stroke-width:0.5;" x="232.158778626" xlink:href="#m8569db9786" y="46.6680355539"/>
     <use style="fill:#0000ff;stroke:#000000;stroke-width:0.5;" x="263.137265788" xlink:href="#m8569db9786" y="36.4654165806"/>
    </g>
   </g>
   <g id="line2d_16">
    <path clip-path="url(#p2e540fbbe5)" d="M 201.180291 55.541608 
L 232.158779 52.464947 
L 263.137266 46.073925 
" style="fill:none;stroke:#008000;stroke-linecap:square;"/>
    <g clip-path="url(#p2e540fbbe5)">
     <use style="fill:#008000;stroke:#000000;stroke-width:0.5;" x="201.180291464" xlink:href="#m5c45b73144" y="55.5416080758"/>
     <use style="fill:#008000;stroke:#000000;stroke-width:0.5;" x="232.158778626" xlink:href="#m5c45b73144" y="52.4649465716"/>
     <use style="fill:#008000;stroke:#000000;stroke-width:0.5;" x="263.137265788" xlink:href="#m5c45b73144" y="46.0739247489"/>
    </g>
   </g>
   <g id="line2d_17">
    <path clip-path="url(#p2e540fbbe5)" d="M 201.180291 53.254259 
L 232.158779 48.714931 
L 263.137266 40.087261 
" style="fill:none;stroke:#ff0000;stroke-linecap:square;"/>
    <g clip-path="url(#p2e540fbbe5)">
     <use style="fill:#ff0000;stroke:#000000;stroke-width:0.5;" x="201.180291464" xlink:href="#m9b841c7a97" y="53.254259096"/>
     <use style="fill:#ff0000;stroke:#000000;stroke-width:0.5;" x="232.158778626" xlink:href="#m9b841c7a97" y="48.7149314314"/>
     <use style="fill:#ff0000;stroke:#000000;stroke-width:0.5;" x="263.137265788" xlink:href="#m9b841c7a97" y="40.0872612305"/>
    </g>
   </g>
   <g id="line2d_18">
    <path clip-path="url(#p2e540fbbe5)" d="M 201.180291 54.71289 
L 232.158779 49.809777 
L 263.137266 42.080967 
" style="fill:none;stroke:#00ffff;stroke-linecap:square;"/>
    <g clip-path="url(#p2e540fbbe5)">
     <use style="fill:#00ffff;stroke:#000000;stroke-width:0.5;" x="201.180291464" xlink:href="#mf03b04df18" y="54.7128904018"/>
     <use style="fill:#00ffff;stroke:#000000;stroke-width:0.5;" x="232.158778626" xlink:href="#mf03b04df18" y="49.8097767857"/>
     <use style="fill:#00ffff;stroke:#000000;stroke-width:0.5;" x="263.137265788" xlink:href="#mf03b04df18" y="42.0809668945"/>
    </g>
   </g>
   <g id="line2d_19">
    <path clip-path="url(#p2e540fbbe5)" d="M 201.180291 58.660199 
L 232.158779 57.6062 
L 263.137266 56.596614 
" style="fill:none;stroke:#ff00ff;stroke-linecap:square;"/>
    <g clip-path="url(#p2e540fbbe5)">
     <use style="fill:#ff00ff;stroke:#000000;stroke-width:0.5;" x="201.180291464" xlink:href="#mf1046c074f" y="58.6601993722"/>
     <use style="fill:#ff00ff;stroke:#000000;stroke-width:0.5;" x="232.158778626" xlink:href="#mf1046c074f" y="57.6061998047"/>
     <use style="fill:#ff00ff;stroke:#000000;stroke-width:0.5;" x="263.137265788" xlink:href="#mf1046c074f" y="56.5966142892"/>
    </g>
   </g>
   <g id="line2d_20">
    <path clip-path="url(#p2e540fbbe5)" d="M 201.180291 57.693474 
L 232.158779 55.286079 
L 263.137266 50.760257 
" style="fill:none;stroke:#ffa500;stroke-linecap:square;"/>
    <g clip-path="url(#p2e540fbbe5)">
     <use style="fill:#ffa500;stroke:#000000;stroke-width:0.5;" x="201.180291464" xlink:href="#m356f5ad567" y="57.6934743949"/>
     <use style="fill:#ffa500;stroke:#000000;stroke-width:0.5;" x="232.158778626" xlink:href="#m356f5ad567" y="55.286079126"/>
     <use style="fill:#ffa500;stroke:#000000;stroke-width:0.5;" x="263.137265788" xlink:href="#m356f5ad567" y="50.7602567662"/>
    </g>
   </g>
   <g id="patch_8">
    <path d="M 198.082443 7.2 
L 266.235115 7.2 
" style="fill:none;"/>
   </g>
   <g id="patch_9">
    <path d="M 266.235115 63 
L 266.235115 7.2 
" style="fill:none;"/>
   </g>
   <g id="patch_10">
    <path d="M 198.082443 63 
L 266.235115 63 
" style="fill:none;stroke:#000000;stroke-linecap:square;stroke-linejoin:miter;"/>
   </g>
   <g id="patch_11">
    <path d="M 193.082443 63 
L 193.082443 7.2 
" style="fill:none;stroke:#000000;stroke-linecap:square;stroke-linejoin:miter;"/>
   </g>
   <g id="matplotlib.axis_3">
    <g id="xtick_4">
     <g id="line2d_21">
      <g>
       <use style="stroke:#000000;stroke-width:0.5;" x="201.180291464" xlink:href="#m729dd3ec45" y="63.0"/>
      </g>
     </g>
     <g id="text_12">
      <!-- 12 -->
      <g transform="translate(197.843728964 75.2946875)scale(0.06 -0.06)">
       <use xlink:href="#ArialMT-31"/>
       <use x="55.615234375" xlink:href="#ArialMT-32"/>
      </g>
     </g>
    </g>
    <g id="xtick_5">
     <g id="line2d_22">
      <g>
       <use style="stroke:#000000;stroke-width:0.5;" x="232.158778626" xlink:href="#m729dd3ec45" y="63.0"/>
      </g>
     </g>
     <g id="text_13">
      <!-- 24 -->
      <g transform="translate(228.822216126 75.2946875)scale(0.06 -0.06)">
       <use xlink:href="#ArialMT-32"/>
       <use x="55.615234375" xlink:href="#ArialMT-34"/>
      </g>
     </g>
    </g>
    <g id="xtick_6">
     <g id="line2d_23">
      <g>
       <use style="stroke:#000000;stroke-width:0.5;" x="263.137265788" xlink:href="#m729dd3ec45" y="63.0"/>
      </g>
     </g>
     <g id="text_14">
      <!-- 48 -->
      <g transform="translate(259.800703288 75.2946875)scale(0.06 -0.06)">
       <use xlink:href="#ArialMT-34"/>
       <use x="55.615234375" xlink:href="#ArialMT-38"/>
      </g>
     </g>
    </g>
    <g id="text_15">
     <!-- Hours of Starvation -->
     <g transform="translate(197.922528626 87.2134375)scale(0.08 -0.08)">
      <use xlink:href="#ArialMT-48"/>
      <use x="72.216796875" xlink:href="#ArialMT-6f"/>
      <use x="127.83203125" xlink:href="#ArialMT-75"/>
      <use x="183.447265625" xlink:href="#ArialMT-72"/>
      <use x="216.748046875" xlink:href="#ArialMT-73"/>
      <use x="266.748046875" xlink:href="#ArialMT-20"/>
      <use x="294.53125" xlink:href="#ArialMT-6f"/>
      <use x="350.146484375" xlink:href="#ArialMT-66"/>
      <use x="377.9296875" xlink:href="#ArialMT-20"/>
      <use x="405.712890625" xlink:href="#ArialMT-53"/>
      <use x="472.412109375" xlink:href="#ArialMT-74"/>
      <use x="500.1953125" xlink:href="#ArialMT-61"/>
      <use x="555.810546875" xlink:href="#ArialMT-72"/>
      <use x="589.111328125" xlink:href="#ArialMT-76"/>
      <use x="639.111328125" xlink:href="#ArialMT-61"/>
      <use x="694.7265625" xlink:href="#ArialMT-74"/>
      <use x="722.509765625" xlink:href="#ArialMT-69"/>
      <use x="744.7265625" xlink:href="#ArialMT-6f"/>
      <use x="800.341796875" xlink:href="#ArialMT-6e"/>
     </g>
    </g>
   </g>
   <g id="matplotlib.axis_4">
    <g id="ytick_6">
     <g id="line2d_24">
      <g>
       <use style="stroke:#000000;stroke-width:0.5;" x="193.082442748" xlink:href="#mafe369fd09" y="63.0"/>
      </g>
     </g>
     <g id="text_16">
      <!-- 0 -->
      <g transform="translate(181.745880248 64.55109375)scale(0.06 -0.06)">
       <use xlink:href="#ArialMT-30"/>
      </g>
     </g>
    </g>
    <g id="ytick_7">
     <g id="line2d_25">
      <g>
       <use style="stroke:#000000;stroke-width:0.5;" x="193.082442748" xlink:href="#mafe369fd09" y="51.0428571429"/>
      </g>
     </g>
     <g id="text_17">
      <!-- 1500 -->
      <g transform="translate(171.736192748 52.5939508929)scale(0.06 -0.06)">
       <use xlink:href="#ArialMT-31"/>
       <use x="55.615234375" xlink:href="#ArialMT-35"/>
       <use x="111.23046875" xlink:href="#ArialMT-30"/>
       <use x="166.845703125" xlink:href="#ArialMT-30"/>
      </g>
     </g>
    </g>
    <g id="ytick_8">
     <g id="line2d_26">
      <g>
       <use style="stroke:#000000;stroke-width:0.5;" x="193.082442748" xlink:href="#mafe369fd09" y="39.0857142857"/>
      </g>
     </g>
     <g id="text_18">
      <!-- 3000 -->
      <g transform="translate(171.736192748 40.6368080357)scale(0.06 -0.06)">
       <use xlink:href="#ArialMT-33"/>
       <use x="55.615234375" xlink:href="#ArialMT-30"/>
       <use x="111.23046875" xlink:href="#ArialMT-30"/>
       <use x="166.845703125" xlink:href="#ArialMT-30"/>
      </g>
     </g>
    </g>
    <g id="ytick_9">
     <g id="line2d_27">
      <g>
       <use style="stroke:#000000;stroke-width:0.5;" x="193.082442748" xlink:href="#mafe369fd09" y="27.1285714286"/>
      </g>
     </g>
     <g id="text_19">
      <!-- 4500 -->
      <g transform="translate(171.736192748 28.6796651786)scale(0.06 -0.06)">
       <use xlink:href="#ArialMT-34"/>
       <use x="55.615234375" xlink:href="#ArialMT-35"/>
       <use x="111.23046875" xlink:href="#ArialMT-30"/>
       <use x="166.845703125" xlink:href="#ArialMT-30"/>
      </g>
     </g>
    </g>
    <g id="ytick_10">
     <g id="line2d_28">
      <g>
       <use style="stroke:#000000;stroke-width:0.5;" x="193.082442748" xlink:href="#mafe369fd09" y="15.1714285714"/>
      </g>
     </g>
     <g id="text_20">
      <!-- 6000 -->
      <g transform="translate(171.736192748 16.7225223214)scale(0.06 -0.06)">
       <use xlink:href="#ArialMT-36"/>
       <use x="55.615234375" xlink:href="#ArialMT-30"/>
       <use x="111.23046875" xlink:href="#ArialMT-30"/>
       <use x="166.845703125" xlink:href="#ArialMT-30"/>
      </g>
     </g>
    </g>
    <g id="text_21">
     <!-- Fluorescence -->
     <g transform="translate(156.473942748 59.11)rotate(-90.0)scale(0.08 -0.08)">
      <use xlink:href="#ArialMT-46"/>
      <use x="61.083984375" xlink:href="#ArialMT-6c"/>
      <use x="83.30078125" xlink:href="#ArialMT-75"/>
      <use x="138.916015625" xlink:href="#ArialMT-6f"/>
      <use x="194.53125" xlink:href="#ArialMT-72"/>
      <use x="227.83203125" xlink:href="#ArialMT-65"/>
      <use x="283.447265625" xlink:href="#ArialMT-73"/>
      <use x="333.447265625" xlink:href="#ArialMT-63"/>
      <use x="383.447265625" xlink:href="#ArialMT-65"/>
      <use x="439.0625" xlink:href="#ArialMT-6e"/>
      <use x="494.677734375" xlink:href="#ArialMT-63"/>
      <use x="544.677734375" xlink:href="#ArialMT-65"/>
     </g>
     <!-- (a.u.) -->
     <g transform="translate(165.052442748 44.435)rotate(-90.0)scale(0.08 -0.08)">
      <use xlink:href="#ArialMT-28"/>
      <use x="33.30078125" xlink:href="#ArialMT-61"/>
      <use x="88.916015625" xlink:href="#ArialMT-2e"/>
      <use x="116.69921875" xlink:href="#ArialMT-75"/>
      <use x="172.314453125" xlink:href="#ArialMT-2e"/>
      <use x="200.09765625" xlink:href="#ArialMT-29"/>
     </g>
    </g>
   </g>
   <g id="text_22">
    <!-- –Arg -->
    <defs>
     <path d="M -0.140625 0 
L 27.34375 71.578125 
L 37.546875 71.578125 
L 66.84375 0 
L 56.0625 0 
L 47.703125 21.6875 
L 17.78125 21.6875 
L 9.90625 0 
z
M 20.515625 29.390625 
L 44.78125 29.390625 
L 37.3125 49.21875 
Q 33.890625 58.25 32.234375 64.0625 
Q 30.859375 57.171875 28.375 50.390625 
z
" id="ArialMT-41"/>
     <path d="M 4.984375 -4.296875 
L 13.53125 -5.5625 
Q 14.0625 -9.515625 16.5 -11.328125 
Q 19.78125 -13.765625 25.4375 -13.765625 
Q 31.546875 -13.765625 34.859375 -11.328125 
Q 38.1875 -8.890625 39.359375 -4.5 
Q 40.046875 -1.8125 39.984375 6.78125 
Q 34.234375 0 25.640625 0 
Q 14.9375 0 9.078125 7.71875 
Q 3.21875 15.4375 3.21875 26.21875 
Q 3.21875 33.640625 5.90625 39.90625 
Q 8.59375 46.1875 13.6875 49.609375 
Q 18.796875 53.03125 25.6875 53.03125 
Q 34.859375 53.03125 40.828125 45.609375 
L 40.828125 51.859375 
L 48.921875 51.859375 
L 48.921875 7.03125 
Q 48.921875 -5.078125 46.453125 -10.125 
Q 44 -15.1875 38.640625 -18.109375 
Q 33.296875 -21.046875 25.484375 -21.046875 
Q 16.21875 -21.046875 10.5 -16.875 
Q 4.78125 -12.703125 4.984375 -4.296875 
M 12.25 26.859375 
Q 12.25 16.65625 16.296875 11.96875 
Q 20.359375 7.28125 26.46875 7.28125 
Q 32.515625 7.28125 36.609375 11.9375 
Q 40.71875 16.609375 40.71875 26.5625 
Q 40.71875 36.078125 36.5 40.90625 
Q 32.28125 45.75 26.3125 45.75 
Q 20.453125 45.75 16.34375 40.984375 
Q 12.25 36.234375 12.25 26.859375 
" id="ArialMT-67"/>
     <path d="M -0.203125 22.359375 
L -0.203125 29.4375 
L 55.421875 29.4375 
L 55.421875 22.359375 
z
" id="ArialMT-2013"/>
    </defs>
    <g transform="translate(223.710028626 2.2)scale(0.08 -0.08)">
     <use xlink:href="#ArialMT-2013"/>
     <use x="55.615234375" xlink:href="#ArialMT-41"/>
     <use x="122.314453125" xlink:href="#ArialMT-72"/>
     <use x="155.615234375" xlink:href="#ArialMT-67"/>
    </g>
   </g>
  </g>
  <g id="axes_3">
   <g id="patch_12">
    <path d="M 324.164885 63 
L 392.317557 63 
L 392.317557 7.2 
L 324.164885 7.2 
z
" style="fill:#ffffff;"/>
   </g>
   <g id="line2d_29">
    <path clip-path="url(#pbb9ff0319b)" d="M 327.262734 40.121395 
L 358.241221 36.943959 
L 389.219709 22.072849 
" style="fill:none;stroke:#0000ff;stroke-linecap:square;"/>
    <g clip-path="url(#pbb9ff0319b)">
     <use style="fill:#0000ff;stroke:#000000;stroke-width:0.5;" x="327.262734212" xlink:href="#m8569db9786" y="40.1213947475"/>
     <use style="fill:#0000ff;stroke:#000000;stroke-width:0.5;" x="358.241221374" xlink:href="#m8569db9786" y="36.9439591867"/>
     <use style="fill:#0000ff;stroke:#000000;stroke-width:0.5;" x="389.219708536" xlink:href="#m8569db9786" y="22.0728485491"/>
    </g>
   </g>
   <g id="line2d_30">
    <path clip-path="url(#pbb9ff0319b)" d="M 327.262734 49.809544 
L 358.241221 44.193111 
L 389.219709 34.148247 
" style="fill:none;stroke:#008000;stroke-linecap:square;"/>
    <g clip-path="url(#pbb9ff0319b)">
     <use style="fill:#008000;stroke:#000000;stroke-width:0.5;" x="327.262734212" xlink:href="#m5c45b73144" y="49.8095442208"/>
     <use style="fill:#008000;stroke:#000000;stroke-width:0.5;" x="358.241221374" xlink:href="#m5c45b73144" y="44.1931113281"/>
     <use style="fill:#008000;stroke:#000000;stroke-width:0.5;" x="389.219708536" xlink:href="#m5c45b73144" y="34.1482472377"/>
    </g>
   </g>
   <g id="line2d_31">
    <path clip-path="url(#pbb9ff0319b)" d="M 327.262734 50.822017 
L 358.241221 47.437234 
L 389.219709 38.167032 
" style="fill:none;stroke:#ff0000;stroke-linecap:square;"/>
    <g clip-path="url(#pbb9ff0319b)">
     <use style="fill:#ff0000;stroke:#000000;stroke-width:0.5;" x="327.262734212" xlink:href="#m9b841c7a97" y="50.8220168492"/>
     <use style="fill:#ff0000;stroke:#000000;stroke-width:0.5;" x="358.241221374" xlink:href="#m9b841c7a97" y="47.4372336496"/>
     <use style="fill:#ff0000;stroke:#000000;stroke-width:0.5;" x="389.219708536" xlink:href="#m9b841c7a97" y="38.1670324428"/>
    </g>
   </g>
   <g id="line2d_32">
    <path clip-path="url(#pbb9ff0319b)" d="M 327.262734 51.735434 
L 358.241221 46.544095 
L 389.219709 36.346312 
" style="fill:none;stroke:#00ffff;stroke-linecap:square;"/>
    <g clip-path="url(#pbb9ff0319b)">
     <use style="fill:#00ffff;stroke:#000000;stroke-width:0.5;" x="327.262734212" xlink:href="#mf03b04df18" y="51.7354343576"/>
     <use style="fill:#00ffff;stroke:#000000;stroke-width:0.5;" x="358.241221374" xlink:href="#mf03b04df18" y="46.5440950195"/>
     <use style="fill:#00ffff;stroke:#000000;stroke-width:0.5;" x="389.219708536" xlink:href="#mf03b04df18" y="36.346312228"/>
    </g>
   </g>
   <g id="line2d_33">
    <path clip-path="url(#pbb9ff0319b)" d="M 327.262734 55.28806 
L 358.241221 51.641057 
L 389.219709 45.228615 
" style="fill:none;stroke:#ff00ff;stroke-linecap:square;"/>
    <g clip-path="url(#pbb9ff0319b)">
     <use style="fill:#ff00ff;stroke:#000000;stroke-width:0.5;" x="327.262734212" xlink:href="#mf1046c074f" y="55.2880598197"/>
     <use style="fill:#ff00ff;stroke:#000000;stroke-width:0.5;" x="358.241221374" xlink:href="#mf1046c074f" y="51.641056808"/>
     <use style="fill:#ff00ff;stroke:#000000;stroke-width:0.5;" x="389.219708536" xlink:href="#mf1046c074f" y="45.2286146903"/>
    </g>
   </g>
   <g id="line2d_34">
    <path clip-path="url(#pbb9ff0319b)" d="M 327.262734 55.92271 
L 358.241221 51.917421 
L 389.219709 48.713533 
" style="fill:none;stroke:#ffa500;stroke-linecap:square;"/>
    <g clip-path="url(#pbb9ff0319b)">
     <use style="fill:#ffa500;stroke:#000000;stroke-width:0.5;" x="327.262734212" xlink:href="#m356f5ad567" y="55.9227098929"/>
     <use style="fill:#ffa500;stroke:#000000;stroke-width:0.5;" x="358.241221374" xlink:href="#m356f5ad567" y="51.9174207485"/>
     <use style="fill:#ffa500;stroke:#000000;stroke-width:0.5;" x="389.219708536" xlink:href="#m356f5ad567" y="48.7135331229"/>
    </g>
   </g>
   <g id="patch_13">
    <path d="M 324.164885 7.2 
L 392.317557 7.2 
" style="fill:none;"/>
   </g>
   <g id="patch_14">
    <path d="M 392.317557 63 
L 392.317557 7.2 
" style="fill:none;"/>
   </g>
   <g id="patch_15">
    <path d="M 324.164885 63 
L 392.317557 63 
" style="fill:none;stroke:#000000;stroke-linecap:square;stroke-linejoin:miter;"/>
   </g>
   <g id="patch_16">
    <path d="M 319.164885 63 
L 319.164885 7.2 
" style="fill:none;stroke:#000000;stroke-linecap:square;stroke-linejoin:miter;"/>
   </g>
   <g id="matplotlib.axis_5">
    <g id="xtick_7">
     <g id="line2d_35">
      <g>
       <use style="stroke:#000000;stroke-width:0.5;" x="327.262734212" xlink:href="#m729dd3ec45" y="63.0"/>
      </g>
     </g>
     <g id="text_23">
      <!-- 12 -->
      <g transform="translate(323.926171712 75.2946875)scale(0.06 -0.06)">
       <use xlink:href="#ArialMT-31"/>
       <use x="55.615234375" xlink:href="#ArialMT-32"/>
      </g>
     </g>
    </g>
    <g id="xtick_8">
     <g id="line2d_36">
      <g>
       <use style="stroke:#000000;stroke-width:0.5;" x="358.241221374" xlink:href="#m729dd3ec45" y="63.0"/>
      </g>
     </g>
     <g id="text_24">
      <!-- 24 -->
      <g transform="translate(354.904658874 75.2946875)scale(0.06 -0.06)">
       <use xlink:href="#ArialMT-32"/>
       <use x="55.615234375" xlink:href="#ArialMT-34"/>
      </g>
     </g>
    </g>
    <g id="xtick_9">
     <g id="line2d_37">
      <g>
       <use style="stroke:#000000;stroke-width:0.5;" x="389.219708536" xlink:href="#m729dd3ec45" y="63.0"/>
      </g>
     </g>
     <g id="text_25">
      <!-- 48 -->
      <g transform="translate(385.883146036 75.2946875)scale(0.06 -0.06)">
       <use xlink:href="#ArialMT-34"/>
       <use x="55.615234375" xlink:href="#ArialMT-38"/>
      </g>
     </g>
    </g>
    <g id="text_26">
     <!-- Hours of Starvation -->
     <g transform="translate(324.004971374 87.2134375)scale(0.08 -0.08)">
      <use xlink:href="#ArialMT-48"/>
      <use x="72.216796875" xlink:href="#ArialMT-6f"/>
      <use x="127.83203125" xlink:href="#ArialMT-75"/>
      <use x="183.447265625" xlink:href="#ArialMT-72"/>
      <use x="216.748046875" xlink:href="#ArialMT-73"/>
      <use x="266.748046875" xlink:href="#ArialMT-20"/>
      <use x="294.53125" xlink:href="#ArialMT-6f"/>
      <use x="350.146484375" xlink:href="#ArialMT-66"/>
      <use x="377.9296875" xlink:href="#ArialMT-20"/>
      <use x="405.712890625" xlink:href="#ArialMT-53"/>
      <use x="472.412109375" xlink:href="#ArialMT-74"/>
      <use x="500.1953125" xlink:href="#ArialMT-61"/>
      <use x="555.810546875" xlink:href="#ArialMT-72"/>
      <use x="589.111328125" xlink:href="#ArialMT-76"/>
      <use x="639.111328125" xlink:href="#ArialMT-61"/>
      <use x="694.7265625" xlink:href="#ArialMT-74"/>
      <use x="722.509765625" xlink:href="#ArialMT-69"/>
      <use x="744.7265625" xlink:href="#ArialMT-6f"/>
      <use x="800.341796875" xlink:href="#ArialMT-6e"/>
     </g>
    </g>
   </g>
   <g id="matplotlib.axis_6">
    <g id="ytick_11">
     <g id="line2d_38">
      <g>
       <use style="stroke:#000000;stroke-width:0.5;" x="319.164885496" xlink:href="#mafe369fd09" y="63.0"/>
      </g>
     </g>
     <g id="text_27">
      <!-- 0 -->
      <g transform="translate(307.828322996 64.55109375)scale(0.06 -0.06)">
       <use xlink:href="#ArialMT-30"/>
      </g>
     </g>
    </g>
    <g id="ytick_12">
     <g id="line2d_39">
      <g>
       <use style="stroke:#000000;stroke-width:0.5;" x="319.164885496" xlink:href="#mafe369fd09" y="51.0428571429"/>
      </g>
     </g>
     <g id="text_28">
      <!-- 1500 -->
      <g transform="translate(297.818635496 52.5939508929)scale(0.06 -0.06)">
       <use xlink:href="#ArialMT-31"/>
       <use x="55.615234375" xlink:href="#ArialMT-35"/>
       <use x="111.23046875" xlink:href="#ArialMT-30"/>
       <use x="166.845703125" xlink:href="#ArialMT-30"/>
      </g>
     </g>
    </g>
    <g id="ytick_13">
     <g id="line2d_40">
      <g>
       <use style="stroke:#000000;stroke-width:0.5;" x="319.164885496" xlink:href="#mafe369fd09" y="39.0857142857"/>
      </g>
     </g>
     <g id="text_29">
      <!-- 3000 -->
      <g transform="translate(297.818635496 40.6368080357)scale(0.06 -0.06)">
       <use xlink:href="#ArialMT-33"/>
       <use x="55.615234375" xlink:href="#ArialMT-30"/>
       <use x="111.23046875" xlink:href="#ArialMT-30"/>
       <use x="166.845703125" xlink:href="#ArialMT-30"/>
      </g>
     </g>
    </g>
    <g id="ytick_14">
     <g id="line2d_41">
      <g>
       <use style="stroke:#000000;stroke-width:0.5;" x="319.164885496" xlink:href="#mafe369fd09" y="27.1285714286"/>
      </g>
     </g>
     <g id="text_30">
      <!-- 4500 -->
      <g transform="translate(297.818635496 28.6796651786)scale(0.06 -0.06)">
       <use xlink:href="#ArialMT-34"/>
       <use x="55.615234375" xlink:href="#ArialMT-35"/>
       <use x="111.23046875" xlink:href="#ArialMT-30"/>
       <use x="166.845703125" xlink:href="#ArialMT-30"/>
      </g>
     </g>
    </g>
    <g id="ytick_15">
     <g id="line2d_42">
      <g>
       <use style="stroke:#000000;stroke-width:0.5;" x="319.164885496" xlink:href="#mafe369fd09" y="15.1714285714"/>
      </g>
     </g>
     <g id="text_31">
      <!-- 6000 -->
      <g transform="translate(297.818635496 16.7225223214)scale(0.06 -0.06)">
       <use xlink:href="#ArialMT-36"/>
       <use x="55.615234375" xlink:href="#ArialMT-30"/>
       <use x="111.23046875" xlink:href="#ArialMT-30"/>
       <use x="166.845703125" xlink:href="#ArialMT-30"/>
      </g>
     </g>
    </g>
    <g id="text_32">
     <!-- Fluorescence -->
     <g transform="translate(282.556385496 59.11)rotate(-90.0)scale(0.08 -0.08)">
      <use xlink:href="#ArialMT-46"/>
      <use x="61.083984375" xlink:href="#ArialMT-6c"/>
      <use x="83.30078125" xlink:href="#ArialMT-75"/>
      <use x="138.916015625" xlink:href="#ArialMT-6f"/>
      <use x="194.53125" xlink:href="#ArialMT-72"/>
      <use x="227.83203125" xlink:href="#ArialMT-65"/>
      <use x="283.447265625" xlink:href="#ArialMT-73"/>
      <use x="333.447265625" xlink:href="#ArialMT-63"/>
      <use x="383.447265625" xlink:href="#ArialMT-65"/>
      <use x="439.0625" xlink:href="#ArialMT-6e"/>
      <use x="494.677734375" xlink:href="#ArialMT-63"/>
      <use x="544.677734375" xlink:href="#ArialMT-65"/>
     </g>
     <!-- (a.u.) -->
     <g transform="translate(291.134885496 44.435)rotate(-90.0)scale(0.08 -0.08)">
      <use xlink:href="#ArialMT-28"/>
      <use x="33.30078125" xlink:href="#ArialMT-61"/>
      <use x="88.916015625" xlink:href="#ArialMT-2e"/>
      <use x="116.69921875" xlink:href="#ArialMT-75"/>
      <use x="172.314453125" xlink:href="#ArialMT-2e"/>
      <use x="200.09765625" xlink:href="#ArialMT-29"/>
     </g>
    </g>
   </g>
   <g id="text_33">
    <!-- –Leu -->
    <defs>
     <path d="M 7.328125 0 
L 7.328125 71.578125 
L 16.796875 71.578125 
L 16.796875 8.453125 
L 52.046875 8.453125 
L 52.046875 0 
z
" id="ArialMT-4c"/>
    </defs>
    <g transform="translate(349.343721374 2.2)scale(0.08 -0.08)">
     <use xlink:href="#ArialMT-2013"/>
     <use x="55.615234375" xlink:href="#ArialMT-4c"/>
     <use x="111.23046875" xlink:href="#ArialMT-65"/>
     <use x="166.845703125" xlink:href="#ArialMT-75"/>
    </g>
   </g>
   <g id="legend_1">
    <g id="patch_17">
     <path d="M 406.943397 67.73875 
L 473.508397 67.73875 
L 473.508397 -2.75 
L 406.943397 -2.75 
z
" style="fill:#ffffff;stroke:#000000;stroke-linejoin:miter;"/>
    </g>
    <g id="line2d_43">
     <path d="M 412.543397 3.47375 
L 423.743397 3.47375 
" style="fill:none;stroke:#0000ff;stroke-linecap:square;"/>
    </g>
    <g id="line2d_44">
     <g>
      <use style="fill:#0000ff;stroke:#000000;stroke-width:0.5;" x="412.543396947" xlink:href="#m8569db9786" y="3.47375"/>
      <use style="fill:#0000ff;stroke:#000000;stroke-width:0.5;" x="423.743396947" xlink:href="#m8569db9786" y="3.47375"/>
     </g>
    </g>
    <g id="text_34">
     <!-- CGC (WT) -->
     <defs>
      <path d="M 25.921875 0 
L 25.921875 63.140625 
L 2.34375 63.140625 
L 2.34375 71.578125 
L 59.078125 71.578125 
L 59.078125 63.140625 
L 35.40625 63.140625 
L 35.40625 0 
z
" id="ArialMT-54"/>
      <path d="M 58.796875 25.09375 
L 68.265625 22.703125 
Q 65.28125 11.03125 57.546875 4.90625 
Q 49.8125 -1.21875 38.625 -1.21875 
Q 27.046875 -1.21875 19.796875 3.484375 
Q 12.546875 8.203125 8.765625 17.140625 
Q 4.984375 26.078125 4.984375 36.328125 
Q 4.984375 47.515625 9.25 55.828125 
Q 13.53125 64.15625 21.40625 68.46875 
Q 29.296875 72.796875 38.765625 72.796875 
Q 49.515625 72.796875 56.828125 67.328125 
Q 64.15625 61.859375 67.046875 51.953125 
L 57.71875 49.75 
Q 55.21875 57.5625 50.484375 61.125 
Q 45.75 64.703125 38.578125 64.703125 
Q 30.328125 64.703125 24.78125 60.734375 
Q 19.234375 56.78125 16.984375 50.109375 
Q 14.75 43.453125 14.75 36.375 
Q 14.75 27.25 17.40625 20.4375 
Q 20.0625 13.625 25.671875 10.25 
Q 31.296875 6.890625 37.84375 6.890625 
Q 45.796875 6.890625 51.3125 11.46875 
Q 56.84375 16.0625 58.796875 25.09375 
" id="ArialMT-43"/>
      <path d="M 20.21875 0 
L 1.21875 71.578125 
L 10.9375 71.578125 
L 21.828125 24.65625 
Q 23.578125 17.28125 24.859375 10.015625 
Q 27.59375 21.484375 28.078125 23.25 
L 41.703125 71.578125 
L 53.125 71.578125 
L 63.375 35.359375 
Q 67.234375 21.875 68.953125 10.015625 
Q 70.3125 16.796875 72.515625 25.59375 
L 83.734375 71.578125 
L 93.265625 71.578125 
L 73.640625 0 
L 64.5 0 
L 49.421875 54.546875 
Q 47.515625 61.375 47.171875 62.9375 
Q 46.046875 58.015625 45.0625 54.546875 
L 29.890625 0 
z
" id="ArialMT-57"/>
      <path d="M 41.21875 28.078125 
L 41.21875 36.46875 
L 71.53125 36.53125 
L 71.53125 9.96875 
Q 64.546875 4.390625 57.125 1.578125 
Q 49.703125 -1.21875 41.890625 -1.21875 
Q 31.34375 -1.21875 22.71875 3.296875 
Q 14.109375 7.8125 9.71875 16.359375 
Q 5.328125 24.90625 5.328125 35.453125 
Q 5.328125 45.90625 9.6875 54.953125 
Q 14.0625 64.015625 22.265625 68.40625 
Q 30.46875 72.796875 41.15625 72.796875 
Q 48.921875 72.796875 55.1875 70.28125 
Q 61.46875 67.78125 65.03125 63.28125 
Q 68.609375 58.796875 70.453125 51.5625 
L 61.921875 49.21875 
Q 60.296875 54.6875 57.90625 57.8125 
Q 55.515625 60.9375 51.0625 62.8125 
Q 46.625 64.703125 41.21875 64.703125 
Q 34.71875 64.703125 29.984375 62.71875 
Q 25.25 60.75 22.34375 57.515625 
Q 19.4375 54.296875 17.828125 50.4375 
Q 15.09375 43.796875 15.09375 36.03125 
Q 15.09375 26.46875 18.390625 20.015625 
Q 21.6875 13.578125 27.984375 10.453125 
Q 34.28125 7.328125 41.359375 7.328125 
Q 47.515625 7.328125 53.375 9.6875 
Q 59.234375 12.0625 62.25 14.75 
L 62.25 28.078125 
z
" id="ArialMT-47"/>
     </defs>
     <g transform="translate(432.543396947 6.27375)scale(0.08 -0.08)">
      <use xlink:href="#ArialMT-43"/>
      <use x="72.216796875" xlink:href="#ArialMT-47"/>
      <use x="150.0" xlink:href="#ArialMT-43"/>
      <use x="222.216796875" xlink:href="#ArialMT-20"/>
      <use x="250.0" xlink:href="#ArialMT-28"/>
      <use x="283.30078125" xlink:href="#ArialMT-57"/>
      <use x="377.685546875" xlink:href="#ArialMT-54"/>
      <use x="438.76953125" xlink:href="#ArialMT-29"/>
     </g>
    </g>
    <g id="line2d_45">
     <path d="M 412.543397 14.88375 
L 423.743397 14.88375 
" style="fill:none;stroke:#008000;stroke-linecap:square;"/>
    </g>
    <g id="line2d_46">
     <g>
      <use style="fill:#008000;stroke:#000000;stroke-width:0.5;" x="412.543396947" xlink:href="#m5c45b73144" y="14.88375"/>
      <use style="fill:#008000;stroke:#000000;stroke-width:0.5;" x="423.743396947" xlink:href="#m5c45b73144" y="14.88375"/>
     </g>
    </g>
    <g id="text_35">
     <!-- CGT -->
     <g transform="translate(432.543396947 17.68375)scale(0.08 -0.08)">
      <use xlink:href="#ArialMT-43"/>
      <use x="72.216796875" xlink:href="#ArialMT-47"/>
      <use x="150.0" xlink:href="#ArialMT-54"/>
     </g>
    </g>
    <g id="line2d_47">
     <path d="M 412.543397 26.2 
L 423.743397 26.2 
" style="fill:none;stroke:#ff0000;stroke-linecap:square;"/>
    </g>
    <g id="line2d_48">
     <g>
      <use style="fill:#ff0000;stroke:#000000;stroke-width:0.5;" x="412.543396947" xlink:href="#m9b841c7a97" y="26.2"/>
      <use style="fill:#ff0000;stroke:#000000;stroke-width:0.5;" x="423.743396947" xlink:href="#m9b841c7a97" y="26.2"/>
     </g>
    </g>
    <g id="text_36">
     <!-- CGG -->
     <g transform="translate(432.543396947 29.0)scale(0.08 -0.08)">
      <use xlink:href="#ArialMT-43"/>
      <use x="72.216796875" xlink:href="#ArialMT-47"/>
      <use x="150.0" xlink:href="#ArialMT-47"/>
     </g>
    </g>
    <g id="line2d_49">
     <path d="M 412.543397 37.51625 
L 423.743397 37.51625 
" style="fill:none;stroke:#00ffff;stroke-linecap:square;"/>
    </g>
    <g id="line2d_50">
     <g>
      <use style="fill:#00ffff;stroke:#000000;stroke-width:0.5;" x="412.543396947" xlink:href="#mf03b04df18" y="37.51625"/>
      <use style="fill:#00ffff;stroke:#000000;stroke-width:0.5;" x="423.743396947" xlink:href="#mf03b04df18" y="37.51625"/>
     </g>
    </g>
    <g id="text_37">
     <!-- CGA -->
     <g transform="translate(432.543396947 40.31625)scale(0.08 -0.08)">
      <use xlink:href="#ArialMT-43"/>
      <use x="72.216796875" xlink:href="#ArialMT-47"/>
      <use x="150.0" xlink:href="#ArialMT-41"/>
     </g>
    </g>
    <g id="line2d_51">
     <path d="M 412.543397 48.8325 
L 423.743397 48.8325 
" style="fill:none;stroke:#ff00ff;stroke-linecap:square;"/>
    </g>
    <g id="line2d_52">
     <g>
      <use style="fill:#ff00ff;stroke:#000000;stroke-width:0.5;" x="412.543396947" xlink:href="#mf1046c074f" y="48.8325"/>
      <use style="fill:#ff00ff;stroke:#000000;stroke-width:0.5;" x="423.743396947" xlink:href="#mf1046c074f" y="48.8325"/>
     </g>
    </g>
    <g id="text_38">
     <!-- AGA -->
     <g transform="translate(432.543396947 51.6325)scale(0.08 -0.08)">
      <use xlink:href="#ArialMT-41"/>
      <use x="66.69921875" xlink:href="#ArialMT-47"/>
      <use x="144.482421875" xlink:href="#ArialMT-41"/>
     </g>
    </g>
    <g id="line2d_53">
     <path d="M 412.543397 60.14875 
L 423.743397 60.14875 
" style="fill:none;stroke:#ffa500;stroke-linecap:square;"/>
    </g>
    <g id="line2d_54">
     <g>
      <use style="fill:#ffa500;stroke:#000000;stroke-width:0.5;" x="412.543396947" xlink:href="#m356f5ad567" y="60.14875"/>
      <use style="fill:#ffa500;stroke:#000000;stroke-width:0.5;" x="423.743396947" xlink:href="#m356f5ad567" y="60.14875"/>
     </g>
    </g>
    <g id="text_39">
     <!-- AGG -->
     <g transform="translate(432.543396947 62.94875)scale(0.08 -0.08)">
      <use xlink:href="#ArialMT-41"/>
      <use x="66.69921875" xlink:href="#ArialMT-47"/>
      <use x="144.482421875" xlink:href="#ArialMT-47"/>
     </g>
    </g>
   </g>
  </g>
 </g>
 <defs>
  <clipPath id="pbb9ff0319b">
   <rect height="55.8" width="68.1526717557" x="324.164885496" y="7.2"/>
  </clipPath>
  <clipPath id="p2e540fbbe5">
   <rect height="55.8" width="68.1526717557" x="198.082442748" y="7.2"/>
  </clipPath>
  <clipPath id="pb7a8d511e5">
   <rect height="55.8" width="68.1526717557" x="72.0" y="7.2"/>
  </clipPath>
 </defs>
</svg>
