<?xml version="1.0" encoding="utf-8" standalone="no"?>
<!DOCTYPE svg PUBLIC "-//W3C//DTD SVG 1.1//EN"
  "http://www.w3.org/Graphics/SVG/1.1/DTD/svg11.dtd">
<!-- Created with matplotlib (http://matplotlib.org/) -->
<svg height="72pt" version="1.1" viewBox="0 0 216 72" width="216pt" xmlns="http://www.w3.org/2000/svg" xmlns:xlink="http://www.w3.org/1999/xlink">
 <defs>
  <style type="text/css">
*{stroke-linecap:butt;stroke-linejoin:round;}
  </style>
 </defs>
 <g id="figure_1">
  <g id="patch_1">
   <path d="M 0 72 
L 216 72 
L 216 0 
L 0 0 
z
" style="fill:#ffffff;"/>
  </g>
  <g id="axes_1">
   <g id="patch_2">
    <path d="M 27 63 
L 87.872727 63 
L 87.872727 8.64 
L 27 8.64 
z
" style="fill:#ffffff;"/>
   </g>
   <g id="matplotlib.axis_1">
    <g id="xtick_1">
     <g id="line2d_1">
      <defs>
       <path d="M 0 0 
L 0 6 
" id="ma47575dde2" style="stroke:#262626;stroke-width:0.8;"/>
      </defs>
      <g>
       <use style="fill:#262626;stroke:#262626;stroke-width:0.8;" x="29.766942" xlink:href="#ma47575dde2" y="63"/>
      </g>
     </g>
     <g id="text_1">
      <text style="fill:#262626;font-family:Arial;font-size:8px;font-style:normal;font-weight:400;text-anchor:middle;" transform="rotate(-0, 29.766942, 80.32625)" x="29.766942" y="80.32625">12</text>
     </g>
    </g>
    <g id="xtick_2">
     <g id="line2d_2">
      <g>
       <use style="fill:#262626;stroke:#262626;stroke-width:0.8;" x="57.436364" xlink:href="#ma47575dde2" y="63"/>
      </g>
     </g>
     <g id="text_2">
      <text style="fill:#262626;font-family:Arial;font-size:8px;font-style:normal;font-weight:400;text-anchor:middle;" transform="rotate(-0, 57.436364, 80.32625)" x="57.436364" y="80.32625">24</text>
     </g>
    </g>
    <g id="xtick_3">
     <g id="line2d_3">
      <g>
       <use style="fill:#262626;stroke:#262626;stroke-width:0.8;" x="85.105785" xlink:href="#ma47575dde2" y="63"/>
      </g>
     </g>
     <g id="text_3">
      <text style="fill:#262626;font-family:Arial;font-size:8px;font-style:normal;font-weight:400;text-anchor:middle;" transform="rotate(-0, 85.105785, 80.32625)" x="85.105785" y="80.32625">48</text>
     </g>
    </g>
    <g id="text_4">
     <text style="fill:#262626;font-family:Arial;font-size:8px;font-style:normal;font-weight:400;text-anchor:middle;" transform="rotate(-0, 57.436364, 91.6425)" x="57.436364" y="91.6425">Hours of Starvation</text>
    </g>
   </g>
   <g id="matplotlib.axis_2">
    <g id="ytick_1">
     <g id="line2d_4">
      <defs>
       <path d="M 0 0 
L -6 0 
" id="m10600c9bfc" style="stroke:#262626;stroke-width:0.8;"/>
      </defs>
      <g>
       <use style="fill:#262626;stroke:#262626;stroke-width:0.8;" x="22" xlink:href="#m10600c9bfc" y="63"/>
      </g>
     </g>
     <g id="text_5">
      <text style="fill:#262626;font-family:Arial;font-size:8px;font-style:normal;font-weight:400;text-anchor:end;" transform="rotate(-0, 10.4, 65.863125)" x="10.4" y="65.863125">0.0</text>
     </g>
    </g>
    <g id="ytick_2">
     <g id="line2d_5">
      <g>
       <use style="fill:#262626;stroke:#262626;stroke-width:0.8;" x="22" xlink:href="#m10600c9bfc" y="49.41"/>
      </g>
     </g>
     <g id="text_6">
      <text style="fill:#262626;font-family:Arial;font-size:8px;font-style:normal;font-weight:400;text-anchor:end;" transform="rotate(-0, 10.4, 52.273125)" x="10.4" y="52.273125">0.3</text>
     </g>
    </g>
    <g id="ytick_3">
     <g id="line2d_6">
      <g>
       <use style="fill:#262626;stroke:#262626;stroke-width:0.8;" x="22" xlink:href="#m10600c9bfc" y="35.82"/>
      </g>
     </g>
     <g id="text_7">
      <text style="fill:#262626;font-family:Arial;font-size:8px;font-style:normal;font-weight:400;text-anchor:end;" transform="rotate(-0, 10.4, 38.683125)" x="10.4" y="38.683125">0.6</text>
     </g>
    </g>
    <g id="ytick_4">
     <g id="line2d_7">
      <g>
       <use style="fill:#262626;stroke:#262626;stroke-width:0.8;" x="22" xlink:href="#m10600c9bfc" y="22.23"/>
      </g>
     </g>
     <g id="text_8">
      <text style="fill:#262626;font-family:Arial;font-size:8px;font-style:normal;font-weight:400;text-anchor:end;" transform="rotate(-0, 10.4, 25.093125)" x="10.4" y="25.093125">0.9</text>
     </g>
    </g>
    <g id="ytick_5">
     <g id="line2d_8">
      <g>
       <use style="fill:#262626;stroke:#262626;stroke-width:0.8;" x="22" xlink:href="#m10600c9bfc" y="8.64"/>
      </g>
     </g>
     <g id="text_9">
      <text style="fill:#262626;font-family:Arial;font-size:8px;font-style:normal;font-weight:400;text-anchor:end;" transform="rotate(-0, 10.4, 11.503125)" x="10.4" y="11.503125">1.2</text>
     </g>
    </g>
    <g id="text_10">
     <text style="fill:#262626;font-family:Arial;font-size:8px;font-style:normal;font-weight:400;" transform="translate(-14.98225 59.83)rotate(-90)">Fluorescence</text>
     <text style="fill:#262626;font-family:Arial;font-size:8px;font-style:normal;font-weight:400;" transform="translate(-6.40375 66.494375)rotate(-90)">(Relative to Rich)</text>
    </g>
   </g>
   <g id="line2d_9">
    <path clip-path="url(#p3c212f8f3a)" d="M 29.766942 42.693303 
L 57.436364 45.090984 
L 85.105785 45.83821 
" style="fill:none;stroke:#cc79a7;stroke-linecap:round;"/>
    <defs>
     <path d="M 0 1 
C 0.265203 1 0.51958 0.894634 0.707107 0.707107 
C 0.894634 0.51958 1 0.265203 1 0 
C 1 -0.265203 0.894634 -0.51958 0.707107 -0.707107 
C 0.51958 -0.894634 0.265203 -1 0 -1 
C -0.265203 -1 -0.51958 -0.894634 -0.707107 -0.707107 
C -0.894634 -0.51958 -1 -0.265203 -1 0 
C -1 0.265203 -0.894634 0.51958 -0.707107 0.707107 
C -0.51958 0.894634 -0.265203 1 0 1 
z
" id="mf207771a5c"/>
    </defs>
    <g clip-path="url(#p3c212f8f3a)">
     <use style="fill:#cc79a7;" x="29.766942" xlink:href="#mf207771a5c" y="42.693303"/>
     <use style="fill:#cc79a7;" x="57.436364" xlink:href="#mf207771a5c" y="45.090984"/>
     <use style="fill:#cc79a7;" x="85.105785" xlink:href="#mf207771a5c" y="45.83821"/>
    </g>
   </g>
   <g id="line2d_10">
    <path clip-path="url(#p3c212f8f3a)" d="M 29.766942 34.248454 
L 57.436364 34.663036 
L 85.105785 25.37234 
" style="fill:none;stroke:#e69f00;stroke-linecap:round;"/>
    <defs>
     <path d="M 0 1 
C 0.265203 1 0.51958 0.894634 0.707107 0.707107 
C 0.894634 0.51958 1 0.265203 1 0 
C 1 -0.265203 0.894634 -0.51958 0.707107 -0.707107 
C 0.51958 -0.894634 0.265203 -1 0 -1 
C -0.265203 -1 -0.51958 -0.894634 -0.707107 -0.707107 
C -0.894634 -0.51958 -1 -0.265203 -1 0 
C -1 0.265203 -0.894634 0.51958 -0.707107 0.707107 
C -0.51958 0.894634 -0.265203 1 0 1 
z
" id="mbc284e38d4"/>
    </defs>
    <g clip-path="url(#p3c212f8f3a)">
     <use style="fill:#e69f00;" x="29.766942" xlink:href="#mbc284e38d4" y="34.248454"/>
     <use style="fill:#e69f00;" x="57.436364" xlink:href="#mbc284e38d4" y="34.663036"/>
     <use style="fill:#e69f00;" x="85.105785" xlink:href="#mbc284e38d4" y="25.37234"/>
    </g>
   </g>
   <g id="line2d_11">
    <path clip-path="url(#p3c212f8f3a)" d="M 29.766942 37.165161 
L 57.436364 34.849978 
L 85.105785 26.535002 
" style="fill:none;stroke:#d55e00;stroke-linecap:round;"/>
    <defs>
     <path d="M 0 1 
C 0.265203 1 0.51958 0.894634 0.707107 0.707107 
C 0.894634 0.51958 1 0.265203 1 0 
C 1 -0.265203 0.894634 -0.51958 0.707107 -0.707107 
C 0.51958 -0.894634 0.265203 -1 0 -1 
C -0.265203 -1 -0.51958 -0.894634 -0.707107 -0.707107 
C -0.894634 -0.51958 -1 -0.265203 -1 0 
C -1 0.265203 -0.894634 0.51958 -0.707107 0.707107 
C -0.51958 0.894634 -0.265203 1 0 1 
z
" id="m58de94d78a"/>
    </defs>
    <g clip-path="url(#p3c212f8f3a)">
     <use style="fill:#d55e00;" x="29.766942" xlink:href="#m58de94d78a" y="37.165161"/>
     <use style="fill:#d55e00;" x="57.436364" xlink:href="#m58de94d78a" y="34.849978"/>
     <use style="fill:#d55e00;" x="85.105785" xlink:href="#m58de94d78a" y="26.535002"/>
    </g>
   </g>
   <g id="line2d_12">
    <path clip-path="url(#p3c212f8f3a)" d="M 29.766942 43.472475 
L 57.436364 46.044095 
L 85.105785 38.507258 
" style="fill:none;stroke:#0072b2;stroke-linecap:round;"/>
    <defs>
     <path d="M 0 1 
C 0.265203 1 0.51958 0.894634 0.707107 0.707107 
C 0.894634 0.51958 1 0.265203 1 0 
C 1 -0.265203 0.894634 -0.51958 0.707107 -0.707107 
C 0.51958 -0.894634 0.265203 -1 0 -1 
C -0.265203 -1 -0.51958 -0.894634 -0.707107 -0.707107 
C -0.894634 -0.51958 -1 -0.265203 -1 0 
C -1 0.265203 -0.894634 0.51958 -0.707107 0.707107 
C -0.51958 0.894634 -0.265203 1 0 1 
z
" id="m4e14504bac"/>
    </defs>
    <g clip-path="url(#p3c212f8f3a)">
     <use style="fill:#0072b2;" x="29.766942" xlink:href="#m4e14504bac" y="43.472475"/>
     <use style="fill:#0072b2;" x="57.436364" xlink:href="#m4e14504bac" y="46.044095"/>
     <use style="fill:#0072b2;" x="85.105785" xlink:href="#m4e14504bac" y="38.507258"/>
    </g>
   </g>
   <g id="line2d_13">
    <path clip-path="url(#p3c212f8f3a)" d="M 29.766942 34.752059 
L 57.436364 31.079073 
L 85.105785 22.728711 
" style="fill:none;stroke:#56b4e9;stroke-linecap:round;"/>
    <defs>
     <path d="M 0 1 
C 0.265203 1 0.51958 0.894634 0.707107 0.707107 
C 0.894634 0.51958 1 0.265203 1 0 
C 1 -0.265203 0.894634 -0.51958 0.707107 -0.707107 
C 0.51958 -0.894634 0.265203 -1 0 -1 
C -0.265203 -1 -0.51958 -0.894634 -0.707107 -0.707107 
C -0.894634 -0.51958 -1 -0.265203 -1 0 
C -1 0.265203 -0.894634 0.51958 -0.707107 0.707107 
C -0.51958 0.894634 -0.265203 1 0 1 
z
" id="ma6cadbd4d7"/>
    </defs>
    <g clip-path="url(#p3c212f8f3a)">
     <use style="fill:#56b4e9;" x="29.766942" xlink:href="#ma6cadbd4d7" y="34.752059"/>
     <use style="fill:#56b4e9;" x="57.436364" xlink:href="#ma6cadbd4d7" y="31.079073"/>
     <use style="fill:#56b4e9;" x="85.105785" xlink:href="#ma6cadbd4d7" y="22.728711"/>
    </g>
   </g>
   <g id="line2d_14">
    <path clip-path="url(#p3c212f8f3a)" d="M 29.766942 42.85788 
L 57.436364 44.140902 
L 85.105785 38.548313 
" style="fill:none;stroke:#009e73;stroke-linecap:round;"/>
    <defs>
     <path d="M 0 1 
C 0.265203 1 0.51958 0.894634 0.707107 0.707107 
C 0.894634 0.51958 1 0.265203 1 0 
C 1 -0.265203 0.894634 -0.51958 0.707107 -0.707107 
C 0.51958 -0.894634 0.265203 -1 0 -1 
C -0.265203 -1 -0.51958 -0.894634 -0.707107 -0.707107 
C -0.894634 -0.51958 -1 -0.265203 -1 0 
C -1 0.265203 -0.894634 0.51958 -0.707107 0.707107 
C -0.51958 0.894634 -0.265203 1 0 1 
z
" id="m0784bd58d1"/>
    </defs>
    <g clip-path="url(#p3c212f8f3a)">
     <use style="fill:#009e73;" x="29.766942" xlink:href="#m0784bd58d1" y="42.85788"/>
     <use style="fill:#009e73;" x="57.436364" xlink:href="#m0784bd58d1" y="44.140902"/>
     <use style="fill:#009e73;" x="85.105785" xlink:href="#m0784bd58d1" y="38.548313"/>
    </g>
   </g>
   <g id="patch_3">
    <path d="M 22 63 
L 22 8.64 
" style="fill:none;stroke:#262626;stroke-linecap:square;stroke-linejoin:miter;stroke-width:1.25;"/>
   </g>
   <g id="patch_4">
    <path d="M 87.872727 63 
L 87.872727 8.64 
" style="fill:none;"/>
   </g>
   <g id="patch_5">
    <path d="M 27 63 
L 87.872727 63 
" style="fill:none;stroke:#262626;stroke-linecap:square;stroke-linejoin:miter;stroke-width:1.25;"/>
   </g>
   <g id="patch_6">
    <path d="M 27 8.64 
L 87.872727 8.64 
" style="fill:none;"/>
   </g>
   <g id="text_11">
    <text style="fill:#262626;font-family:Arial;font-size:8px;font-style:normal;font-weight:400;text-anchor:middle;" transform="rotate(-0, 57.436364, 2.64)" x="57.436364" y="2.64">– Arg</text>
   </g>
  </g>
  <g id="axes_2">
   <g id="patch_7">
    <path d="M 133.527273 63 
L 194.4 63 
L 194.4 8.64 
L 133.527273 8.64 
z
" style="fill:#ffffff;"/>
   </g>
   <g id="matplotlib.axis_3">
    <g id="xtick_4">
     <g id="line2d_15">
      <g>
       <use style="fill:#262626;stroke:#262626;stroke-width:0.8;" x="136.294215" xlink:href="#ma47575dde2" y="63"/>
      </g>
     </g>
     <g id="text_12">
      <text style="fill:#262626;font-family:Arial;font-size:8px;font-style:normal;font-weight:400;text-anchor:middle;" transform="rotate(-0, 136.294215, 80.32625)" x="136.294215" y="80.32625">12</text>
     </g>
    </g>
    <g id="xtick_5">
     <g id="line2d_16">
      <g>
       <use style="fill:#262626;stroke:#262626;stroke-width:0.8;" x="163.963636" xlink:href="#ma47575dde2" y="63"/>
      </g>
     </g>
     <g id="text_13">
      <text style="fill:#262626;font-family:Arial;font-size:8px;font-style:normal;font-weight:400;text-anchor:middle;" transform="rotate(-0, 163.963636, 80.32625)" x="163.963636" y="80.32625">24</text>
     </g>
    </g>
    <g id="xtick_6">
     <g id="line2d_17">
      <g>
       <use style="fill:#262626;stroke:#262626;stroke-width:0.8;" x="191.633058" xlink:href="#ma47575dde2" y="63"/>
      </g>
     </g>
     <g id="text_14">
      <text style="fill:#262626;font-family:Arial;font-size:8px;font-style:normal;font-weight:400;text-anchor:middle;" transform="rotate(-0, 191.633058, 80.32625)" x="191.633058" y="80.32625">48</text>
     </g>
    </g>
    <g id="text_15">
     <text style="fill:#262626;font-family:Arial;font-size:8px;font-style:normal;font-weight:400;text-anchor:middle;" transform="rotate(-0, 163.963636, 91.6425)" x="163.963636" y="91.6425">Hours of Starvation</text>
    </g>
   </g>
   <g id="matplotlib.axis_4">
    <g id="ytick_6">
     <g id="line2d_18">
      <g>
       <use style="fill:#262626;stroke:#262626;stroke-width:0.8;" x="128.527273" xlink:href="#m10600c9bfc" y="63"/>
      </g>
     </g>
     <g id="text_16">
      <text style="fill:#262626;font-family:Arial;font-size:8px;font-style:normal;font-weight:400;text-anchor:end;" transform="rotate(-0, 116.927273, 65.863125)" x="116.927273" y="65.863125">0.0</text>
     </g>
    </g>
    <g id="ytick_7">
     <g id="line2d_19">
      <g>
       <use style="fill:#262626;stroke:#262626;stroke-width:0.8;" x="128.527273" xlink:href="#m10600c9bfc" y="49.41"/>
      </g>
     </g>
     <g id="text_17">
      <text style="fill:#262626;font-family:Arial;font-size:8px;font-style:normal;font-weight:400;text-anchor:end;" transform="rotate(-0, 116.927273, 52.273125)" x="116.927273" y="52.273125">0.3</text>
     </g>
    </g>
    <g id="ytick_8">
     <g id="line2d_20">
      <g>
       <use style="fill:#262626;stroke:#262626;stroke-width:0.8;" x="128.527273" xlink:href="#m10600c9bfc" y="35.82"/>
      </g>
     </g>
     <g id="text_18">
      <text style="fill:#262626;font-family:Arial;font-size:8px;font-style:normal;font-weight:400;text-anchor:end;" transform="rotate(-0, 116.927273, 38.683125)" x="116.927273" y="38.683125">0.6</text>
     </g>
    </g>
    <g id="ytick_9">
     <g id="line2d_21">
      <g>
       <use style="fill:#262626;stroke:#262626;stroke-width:0.8;" x="128.527273" xlink:href="#m10600c9bfc" y="22.23"/>
      </g>
     </g>
     <g id="text_19">
      <text style="fill:#262626;font-family:Arial;font-size:8px;font-style:normal;font-weight:400;text-anchor:end;" transform="rotate(-0, 116.927273, 25.093125)" x="116.927273" y="25.093125">0.9</text>
     </g>
    </g>
    <g id="ytick_10">
     <g id="line2d_22">
      <g>
       <use style="fill:#262626;stroke:#262626;stroke-width:0.8;" x="128.527273" xlink:href="#m10600c9bfc" y="8.64"/>
      </g>
     </g>
     <g id="text_20">
      <text style="fill:#262626;font-family:Arial;font-size:8px;font-style:normal;font-weight:400;text-anchor:end;" transform="rotate(-0, 116.927273, 11.503125)" x="116.927273" y="11.503125">1.2</text>
     </g>
    </g>
   </g>
   <g id="line2d_23">
    <path clip-path="url(#p51b10edcaa)" d="M 136.294215 26.914465 
L 163.963636 25.284941 
L 191.633058 15.3707 
" style="fill:none;stroke:#cc79a7;stroke-linecap:round;"/>
    <g clip-path="url(#p51b10edcaa)">
     <use style="fill:#cc79a7;" x="136.294215" xlink:href="#mf207771a5c" y="26.914465"/>
     <use style="fill:#cc79a7;" x="163.963636" xlink:href="#mf207771a5c" y="25.284941"/>
     <use style="fill:#cc79a7;" x="191.633058" xlink:href="#mf207771a5c" y="15.3707"/>
    </g>
   </g>
   <g id="line2d_24">
    <path clip-path="url(#p51b10edcaa)" d="M 136.294215 24.654188 
L 163.963636 22.288324 
L 191.633058 19.080262 
" style="fill:none;stroke:#e69f00;stroke-linecap:round;"/>
    <g clip-path="url(#p51b10edcaa)">
     <use style="fill:#e69f00;" x="136.294215" xlink:href="#mbc284e38d4" y="24.654188"/>
     <use style="fill:#e69f00;" x="163.963636" xlink:href="#mbc284e38d4" y="22.288324"/>
     <use style="fill:#e69f00;" x="191.633058" xlink:href="#mbc284e38d4" y="19.080262"/>
    </g>
   </g>
   <g id="line2d_25">
    <path clip-path="url(#p51b10edcaa)" d="M 136.294215 27.883022 
L 163.963636 27.880497 
L 191.633058 16.538643 
" style="fill:none;stroke:#d55e00;stroke-linecap:round;"/>
    <g clip-path="url(#p51b10edcaa)">
     <use style="fill:#d55e00;" x="136.294215" xlink:href="#m58de94d78a" y="27.883022"/>
     <use style="fill:#d55e00;" x="163.963636" xlink:href="#m58de94d78a" y="27.880497"/>
     <use style="fill:#d55e00;" x="191.633058" xlink:href="#m58de94d78a" y="16.538643"/>
    </g>
   </g>
   <g id="line2d_26">
    <path clip-path="url(#p51b10edcaa)" d="M 136.294215 30.434156 
L 163.963636 35.948524 
L 191.633058 25.222201 
" style="fill:none;stroke:#0072b2;stroke-linecap:round;"/>
    <g clip-path="url(#p51b10edcaa)">
     <use style="fill:#0072b2;" x="136.294215" xlink:href="#m4e14504bac" y="30.434156"/>
     <use style="fill:#0072b2;" x="163.963636" xlink:href="#m4e14504bac" y="35.948524"/>
     <use style="fill:#0072b2;" x="191.633058" xlink:href="#m4e14504bac" y="25.222201"/>
    </g>
   </g>
   <g id="line2d_27">
    <path clip-path="url(#p51b10edcaa)" d="M 136.294215 27.702227 
L 163.963636 28.223973 
L 191.633058 19.353729 
" style="fill:none;stroke:#56b4e9;stroke-linecap:round;"/>
    <g clip-path="url(#p51b10edcaa)">
     <use style="fill:#56b4e9;" x="136.294215" xlink:href="#ma6cadbd4d7" y="27.702227"/>
     <use style="fill:#56b4e9;" x="163.963636" xlink:href="#ma6cadbd4d7" y="28.223973"/>
     <use style="fill:#56b4e9;" x="191.633058" xlink:href="#ma6cadbd4d7" y="19.353729"/>
    </g>
   </g>
   <g id="line2d_28">
    <path clip-path="url(#p51b10edcaa)" d="M 136.294215 27.377879 
L 163.963636 29.333255 
L 191.633058 21.320282 
" style="fill:none;stroke:#009e73;stroke-linecap:round;"/>
    <g clip-path="url(#p51b10edcaa)">
     <use style="fill:#009e73;" x="136.294215" xlink:href="#m0784bd58d1" y="27.377879"/>
     <use style="fill:#009e73;" x="163.963636" xlink:href="#m0784bd58d1" y="29.333255"/>
     <use style="fill:#009e73;" x="191.633058" xlink:href="#m0784bd58d1" y="21.320282"/>
    </g>
   </g>
   <g id="patch_8">
    <path d="M 128.527273 63 
L 128.527273 8.64 
" style="fill:none;stroke:#262626;stroke-linecap:square;stroke-linejoin:miter;stroke-width:1.25;"/>
   </g>
   <g id="patch_9">
    <path d="M 194.4 63 
L 194.4 8.64 
" style="fill:none;"/>
   </g>
   <g id="patch_10">
    <path d="M 133.527273 63 
L 194.4 63 
" style="fill:none;stroke:#262626;stroke-linecap:square;stroke-linejoin:miter;stroke-width:1.25;"/>
   </g>
   <g id="patch_11">
    <path d="M 133.527273 8.64 
L 194.4 8.64 
" style="fill:none;"/>
   </g>
   <g id="text_21">
    <text style="fill:#262626;font-family:Arial;font-size:8px;font-style:normal;font-weight:400;text-anchor:middle;" transform="rotate(-0, 163.963636, 2.64)" x="163.963636" y="2.64">– Leu</text>
   </g>
   <g id="legend_1">
    <g id="line2d_29">
     <path d="M 216.818182 5.17625 
L 217 5.17625 
" style="fill:none;stroke:#cc79a7;stroke-linecap:round;"/>
    </g>
    <g id="line2d_30">
     <g>
      <use style="fill:#cc79a7;" x="224.818182" xlink:href="#mf207771a5c" y="5.17625"/>
     </g>
    </g>
    <g id="text_22">
     <text style="fill:#262626;font-family:Arial;font-size:8px;font-style:normal;font-weight:400;text-anchor:start;" transform="rotate(-0, 239.218182, 7.97625)" x="239.218182" y="7.97625">AGA</text>
    </g>
    <g id="line2d_31">
     <path d="M 216.818182 16.4925 
L 217 16.4925 
" style="fill:none;stroke:#e69f00;stroke-linecap:round;"/>
    </g>
    <g id="line2d_32">
     <g>
      <use style="fill:#e69f00;" x="224.818182" xlink:href="#mbc284e38d4" y="16.4925"/>
     </g>
    </g>
    <g id="text_23">
     <text style="fill:#262626;font-family:Arial;font-size:8px;font-style:normal;font-weight:400;text-anchor:start;" transform="rotate(-0, 239.218182, 19.2925)" x="239.218182" y="19.2925">AGG</text>
    </g>
    <g id="line2d_33">
     <path d="M 216.818182 27.80875 
L 217 27.80875 
" style="fill:none;stroke:#d55e00;stroke-linecap:round;"/>
    </g>
    <g id="line2d_34">
     <g>
      <use style="fill:#d55e00;" x="224.818182" xlink:href="#m58de94d78a" y="27.80875"/>
     </g>
    </g>
    <g id="text_24">
     <text style="fill:#262626;font-family:Arial;font-size:8px;font-style:normal;font-weight:400;text-anchor:start;" transform="rotate(-0, 239.218182, 30.60875)" x="239.218182" y="30.60875">CGA</text>
    </g>
    <g id="line2d_35">
     <path d="M 216.818182 39.2225 
L 217 39.2225 
" style="fill:none;stroke:#0072b2;stroke-linecap:round;"/>
    </g>
    <g id="line2d_36">
     <g>
      <use style="fill:#0072b2;" x="224.818182" xlink:href="#m4e14504bac" y="39.2225"/>
     </g>
    </g>
    <g id="text_25">
     <text style="fill:#262626;font-family:Arial;font-size:8px;font-style:normal;font-weight:400;text-anchor:start;" transform="rotate(-0, 239.218182, 42.0225)" x="239.218182" y="42.0225">CGC (WT)</text>
    </g>
    <g id="line2d_37">
     <path d="M 216.818182 50.6325 
L 217 50.6325 
" style="fill:none;stroke:#56b4e9;stroke-linecap:round;"/>
    </g>
    <g id="line2d_38">
     <g>
      <use style="fill:#56b4e9;" x="224.818182" xlink:href="#ma6cadbd4d7" y="50.6325"/>
     </g>
    </g>
    <g id="text_26">
     <text style="fill:#262626;font-family:Arial;font-size:8px;font-style:normal;font-weight:400;text-anchor:start;" transform="rotate(-0, 239.218182, 53.4325)" x="239.218182" y="53.4325">CGG</text>
    </g>
    <g id="line2d_39">
     <path d="M 216.818182 61.94875 
L 217 61.94875 
" style="fill:none;stroke:#009e73;stroke-linecap:round;"/>
    </g>
    <g id="line2d_40">
     <g>
      <use style="fill:#009e73;" x="224.818182" xlink:href="#m0784bd58d1" y="61.94875"/>
     </g>
    </g>
    <g id="text_27">
     <text style="fill:#262626;font-family:Arial;font-size:8px;font-style:normal;font-weight:400;text-anchor:start;" transform="rotate(-0, 239.218182, 64.74875)" x="239.218182" y="64.74875">CGT</text>
    </g>
   </g>
  </g>
 </g>
 <defs>
  <clipPath id="p3c212f8f3a">
   <rect height="54.36" width="60.872727" x="27" y="8.64"/>
  </clipPath>
  <clipPath id="p51b10edcaa">
   <rect height="54.36" width="60.872727" x="133.527273" y="8.64"/>
  </clipPath>
 </defs>
</svg>
