<?xml version="1.0" encoding="utf-8" standalone="no"?>
<!DOCTYPE svg PUBLIC "-//W3C//DTD SVG 1.1//EN"
  "http://www.w3.org/Graphics/SVG/1.1/DTD/svg11.dtd">
<!-- Created with matplotlib (http://matplotlib.org/) -->
<svg height="54pt" version="1.1" viewBox="0 0 216 54" width="216pt" xmlns="http://www.w3.org/2000/svg" xmlns:xlink="http://www.w3.org/1999/xlink">
 <defs>
  <style type="text/css">
*{stroke-linecap:butt;stroke-linejoin:round;}
  </style>
 </defs>
 <g id="figure_1">
  <g id="patch_1">
   <path d="M 0 54 
L 216 54 
L 216 0 
L 0 0 
z
" style="fill:#ffffff;"/>
  </g>
  <g id="axes_1">
   <g id="patch_2">
    <path d="M 27 47.25 
L 87.872727 47.25 
L 87.872727 6.48 
L 27 6.48 
z
" style="fill:#ffffff;"/>
   </g>
   <g id="matplotlib.axis_1">
    <g id="xtick_1">
     <g id="line2d_1">
      <defs>
       <path d="M 0 0 
L 0 6 
" id="m469006bcda" style="stroke:#262626;stroke-width:0.8;"/>
      </defs>
      <g>
       <use style="fill:#262626;stroke:#262626;stroke-width:0.8;" x="29.766942" xlink:href="#m469006bcda" y="47.25"/>
      </g>
     </g>
     <g id="text_1">
      <text style="fill:#262626;font-family:Arial;font-size:8px;font-style:normal;font-weight:400;text-anchor:middle;" transform="rotate(-0, 29.766942, 64.57625)" x="29.766942" y="64.57625">12</text>
     </g>
    </g>
    <g id="xtick_2">
     <g id="line2d_2">
      <g>
       <use style="fill:#262626;stroke:#262626;stroke-width:0.8;" x="57.436364" xlink:href="#m469006bcda" y="47.25"/>
      </g>
     </g>
     <g id="text_2">
      <text style="fill:#262626;font-family:Arial;font-size:8px;font-style:normal;font-weight:400;text-anchor:middle;" transform="rotate(-0, 57.436364, 64.57625)" x="57.436364" y="64.57625">24</text>
     </g>
    </g>
    <g id="xtick_3">
     <g id="line2d_3">
      <g>
       <use style="fill:#262626;stroke:#262626;stroke-width:0.8;" x="85.105785" xlink:href="#m469006bcda" y="47.25"/>
      </g>
     </g>
     <g id="text_3">
      <text style="fill:#262626;font-family:Arial;font-size:8px;font-style:normal;font-weight:400;text-anchor:middle;" transform="rotate(-0, 85.105785, 64.57625)" x="85.105785" y="64.57625">48</text>
     </g>
    </g>
    <g id="text_4">
     <text style="fill:#262626;font-family:Arial;font-size:8px;font-style:normal;font-weight:400;text-anchor:middle;" transform="rotate(-0, 57.436364, 75.8925)" x="57.436364" y="75.8925">Hours of Starvation</text>
    </g>
   </g>
   <g id="matplotlib.axis_2">
    <g id="ytick_1">
     <g id="line2d_4">
      <defs>
       <path d="M 0 0 
L -6 0 
" id="m7946e0eb16" style="stroke:#262626;stroke-width:0.8;"/>
      </defs>
      <g>
       <use style="fill:#262626;stroke:#262626;stroke-width:0.8;" x="22" xlink:href="#m7946e0eb16" y="47.25"/>
      </g>
     </g>
     <g id="text_5">
      <text style="fill:#262626;font-family:Arial;font-size:8px;font-style:normal;font-weight:400;text-anchor:end;" transform="rotate(-0, 10.4, 50.113125)" x="10.4" y="50.113125">0.0</text>
     </g>
    </g>
    <g id="ytick_2">
     <g id="line2d_5">
      <g>
       <use style="fill:#262626;stroke:#262626;stroke-width:0.8;" x="22" xlink:href="#m7946e0eb16" y="37.214308"/>
      </g>
     </g>
     <g id="text_6">
      <text style="fill:#262626;font-family:Arial;font-size:8px;font-style:normal;font-weight:400;text-anchor:end;" transform="rotate(-0, 10.4, 40.077433)" x="10.4" y="40.077433">0.8</text>
     </g>
    </g>
    <g id="ytick_3">
     <g id="line2d_6">
      <g>
       <use style="fill:#262626;stroke:#262626;stroke-width:0.8;" x="22" xlink:href="#m7946e0eb16" y="27.178615"/>
      </g>
     </g>
     <g id="text_7">
      <text style="fill:#262626;font-family:Arial;font-size:8px;font-style:normal;font-weight:400;text-anchor:end;" transform="rotate(-0, 10.4, 30.04174)" x="10.4" y="30.04174">1.6</text>
     </g>
    </g>
    <g id="ytick_4">
     <g id="line2d_7">
      <g>
       <use style="fill:#262626;stroke:#262626;stroke-width:0.8;" x="22" xlink:href="#m7946e0eb16" y="17.142923"/>
      </g>
     </g>
     <g id="text_8">
      <text style="fill:#262626;font-family:Arial;font-size:8px;font-style:normal;font-weight:400;text-anchor:end;" transform="rotate(-0, 10.4, 20.006048)" x="10.4" y="20.006048">2.4</text>
     </g>
    </g>
    <g id="ytick_5">
     <g id="line2d_8">
      <g>
       <use style="fill:#262626;stroke:#262626;stroke-width:0.8;" x="22" xlink:href="#m7946e0eb16" y="7.107231"/>
      </g>
     </g>
     <g id="text_9">
      <text style="fill:#262626;font-family:Arial;font-size:8px;font-style:normal;font-weight:400;text-anchor:end;" transform="rotate(-0, 10.4, 9.970356)" x="10.4" y="9.970356">3.2</text>
     </g>
    </g>
    <g id="text_10">
     <text style="fill:#262626;font-family:Arial;font-size:8px;font-style:normal;font-weight:400;" transform="translate(-14.98225 50.875)rotate(-90)">Fluorescence</text>
     <text style="fill:#262626;font-family:Arial;font-size:8px;font-style:normal;font-weight:400;" transform="translate(-6.40375 57.539375)rotate(-90)">(Relative to Rich)</text>
    </g>
   </g>
   <g id="line2d_9">
    <path clip-path="url(#p3add1330ab)" d="M 29.766942 37.955655 
L 57.436364 36.997514 
L 85.105785 30.559272 
" style="fill:none;stroke:#0000ff;stroke-linecap:round;"/>
    <defs>
     <path d="M 0 1 
C 0.265203 1 0.51958 0.894634 0.707107 0.707107 
C 0.894634 0.51958 1 0.265203 1 0 
C 1 -0.265203 0.894634 -0.51958 0.707107 -0.707107 
C 0.51958 -0.894634 0.265203 -1 0 -1 
C -0.265203 -1 -0.51958 -0.894634 -0.707107 -0.707107 
C -0.894634 -0.51958 -1 -0.265203 -1 0 
C -1 0.265203 -0.894634 0.51958 -0.707107 0.707107 
C -0.51958 0.894634 -0.265203 1 0 1 
z
" id="m29c0f91567"/>
    </defs>
    <g clip-path="url(#p3add1330ab)">
     <use style="fill:#0000ff;" x="29.766942" xlink:href="#m29c0f91567" y="37.955655"/>
     <use style="fill:#0000ff;" x="57.436364" xlink:href="#m29c0f91567" y="36.997514"/>
     <use style="fill:#0000ff;" x="85.105785" xlink:href="#m29c0f91567" y="30.559272"/>
    </g>
   </g>
   <g id="line2d_10">
    <path clip-path="url(#p3add1330ab)" d="M 29.766942 37.605168 
L 57.436364 35.861891 
L 85.105785 29.949922 
" style="fill:none;stroke:#008000;stroke-linecap:round;"/>
    <defs>
     <path d="M 0 1 
C 0.265203 1 0.51958 0.894634 0.707107 0.707107 
C 0.894634 0.51958 1 0.265203 1 0 
C 1 -0.265203 0.894634 -0.51958 0.707107 -0.707107 
C 0.51958 -0.894634 0.265203 -1 0 -1 
C -0.265203 -1 -0.51958 -0.894634 -0.707107 -0.707107 
C -0.894634 -0.51958 -1 -0.265203 -1 0 
C -1 0.265203 -0.894634 0.51958 -0.707107 0.707107 
C -0.51958 0.894634 -0.265203 1 0 1 
z
" id="m9aad416124"/>
    </defs>
    <g clip-path="url(#p3add1330ab)">
     <use style="fill:#008000;" x="29.766942" xlink:href="#m9aad416124" y="37.605168"/>
     <use style="fill:#008000;" x="57.436364" xlink:href="#m9aad416124" y="35.861891"/>
     <use style="fill:#008000;" x="85.105785" xlink:href="#m9aad416124" y="29.949922"/>
    </g>
   </g>
   <g id="line2d_11">
    <path clip-path="url(#p3add1330ab)" d="M 29.766942 36.377964 
L 57.436364 35.632567 
L 85.105785 25.701732 
" style="fill:none;stroke:#ff0000;stroke-linecap:round;"/>
    <defs>
     <path d="M 0 1 
C 0.265203 1 0.51958 0.894634 0.707107 0.707107 
C 0.894634 0.51958 1 0.265203 1 0 
C 1 -0.265203 0.894634 -0.51958 0.707107 -0.707107 
C 0.51958 -0.894634 0.265203 -1 0 -1 
C -0.265203 -1 -0.51958 -0.894634 -0.707107 -0.707107 
C -0.894634 -0.51958 -1 -0.265203 -1 0 
C -1 0.265203 -0.894634 0.51958 -0.707107 0.707107 
C -0.51958 0.894634 -0.265203 1 0 1 
z
" id="mbeff9cb318"/>
    </defs>
    <g clip-path="url(#p3add1330ab)">
     <use style="fill:#ff0000;" x="29.766942" xlink:href="#mbeff9cb318" y="36.377964"/>
     <use style="fill:#ff0000;" x="57.436364" xlink:href="#mbeff9cb318" y="35.632567"/>
     <use style="fill:#ff0000;" x="85.105785" xlink:href="#mbeff9cb318" y="25.701732"/>
    </g>
   </g>
   <g id="line2d_12">
    <path clip-path="url(#p3add1330ab)" d="M 29.766942 36.925641 
L 57.436364 36.911959 
L 85.105785 30.66847 
" style="fill:none;stroke:#00ffff;stroke-linecap:round;"/>
    <defs>
     <path d="M 0 1 
C 0.265203 1 0.51958 0.894634 0.707107 0.707107 
C 0.894634 0.51958 1 0.265203 1 0 
C 1 -0.265203 0.894634 -0.51958 0.707107 -0.707107 
C 0.51958 -0.894634 0.265203 -1 0 -1 
C -0.265203 -1 -0.51958 -0.894634 -0.707107 -0.707107 
C -0.894634 -0.51958 -1 -0.265203 -1 0 
C -1 0.265203 -0.894634 0.51958 -0.707107 0.707107 
C -0.51958 0.894634 -0.265203 1 0 1 
z
" id="mf527e9a4be"/>
    </defs>
    <g clip-path="url(#p3add1330ab)">
     <use style="fill:#00ffff;" x="29.766942" xlink:href="#mf527e9a4be" y="36.925641"/>
     <use style="fill:#00ffff;" x="57.436364" xlink:href="#mf527e9a4be" y="36.911959"/>
     <use style="fill:#00ffff;" x="85.105785" xlink:href="#mf527e9a4be" y="30.66847"/>
    </g>
   </g>
   <g id="line2d_13">
    <path clip-path="url(#p3add1330ab)" d="M 29.766942 37.629261 
L 57.436364 34.751518 
L 85.105785 27.224934 
" style="fill:none;stroke:#ff00ff;stroke-linecap:round;"/>
    <defs>
     <path d="M 0 1 
C 0.265203 1 0.51958 0.894634 0.707107 0.707107 
C 0.894634 0.51958 1 0.265203 1 0 
C 1 -0.265203 0.894634 -0.51958 0.707107 -0.707107 
C 0.51958 -0.894634 0.265203 -1 0 -1 
C -0.265203 -1 -0.51958 -0.894634 -0.707107 -0.707107 
C -0.894634 -0.51958 -1 -0.265203 -1 0 
C -1 0.265203 -0.894634 0.51958 -0.707107 0.707107 
C -0.51958 0.894634 -0.265203 1 0 1 
z
" id="m7761cc91eb"/>
    </defs>
    <g clip-path="url(#p3add1330ab)">
     <use style="fill:#ff00ff;" x="29.766942" xlink:href="#m7761cc91eb" y="37.629261"/>
     <use style="fill:#ff00ff;" x="57.436364" xlink:href="#m7761cc91eb" y="34.751518"/>
     <use style="fill:#ff00ff;" x="85.105785" xlink:href="#m7761cc91eb" y="27.224934"/>
    </g>
   </g>
   <g id="line2d_14">
    <path clip-path="url(#p3add1330ab)" d="M 29.766942 38.205209 
L 57.436364 37.498036 
L 85.105785 30.182193 
" style="fill:none;stroke:#ffa500;stroke-linecap:round;"/>
    <defs>
     <path d="M 0 1 
C 0.265203 1 0.51958 0.894634 0.707107 0.707107 
C 0.894634 0.51958 1 0.265203 1 0 
C 1 -0.265203 0.894634 -0.51958 0.707107 -0.707107 
C 0.51958 -0.894634 0.265203 -1 0 -1 
C -0.265203 -1 -0.51958 -0.894634 -0.707107 -0.707107 
C -0.894634 -0.51958 -1 -0.265203 -1 0 
C -1 0.265203 -0.894634 0.51958 -0.707107 0.707107 
C -0.51958 0.894634 -0.265203 1 0 1 
z
" id="mcee2f15aca"/>
    </defs>
    <g clip-path="url(#p3add1330ab)">
     <use style="fill:#ffa500;" x="29.766942" xlink:href="#mcee2f15aca" y="38.205209"/>
     <use style="fill:#ffa500;" x="57.436364" xlink:href="#mcee2f15aca" y="37.498036"/>
     <use style="fill:#ffa500;" x="85.105785" xlink:href="#mcee2f15aca" y="30.182193"/>
    </g>
   </g>
   <g id="patch_3">
    <path d="M 22 47.25 
L 22 6.48 
" style="fill:none;stroke:#262626;stroke-linecap:square;stroke-linejoin:miter;stroke-width:1.25;"/>
   </g>
   <g id="patch_4">
    <path d="M 87.872727 47.25 
L 87.872727 6.48 
" style="fill:none;"/>
   </g>
   <g id="patch_5">
    <path d="M 27 47.25 
L 87.872727 47.25 
" style="fill:none;stroke:#262626;stroke-linecap:square;stroke-linejoin:miter;stroke-width:1.25;"/>
   </g>
   <g id="patch_6">
    <path d="M 27 6.48 
L 87.872727 6.48 
" style="fill:none;"/>
   </g>
   <g id="text_11">
    <text style="fill:#262626;font-family:Arial;font-size:8px;font-style:normal;font-weight:400;text-anchor:middle;" transform="rotate(-0, 57.436364, 0.48)" x="57.436364" y="0.48">– Arg</text>
   </g>
  </g>
  <g id="axes_2">
   <g id="patch_7">
    <path d="M 133.527273 47.25 
L 194.4 47.25 
L 194.4 6.48 
L 133.527273 6.48 
z
" style="fill:#ffffff;"/>
   </g>
   <g id="matplotlib.axis_3">
    <g id="xtick_4">
     <g id="line2d_15">
      <g>
       <use style="fill:#262626;stroke:#262626;stroke-width:0.8;" x="136.294215" xlink:href="#m469006bcda" y="47.25"/>
      </g>
     </g>
     <g id="text_12">
      <text style="fill:#262626;font-family:Arial;font-size:8px;font-style:normal;font-weight:400;text-anchor:middle;" transform="rotate(-0, 136.294215, 64.57625)" x="136.294215" y="64.57625">12</text>
     </g>
    </g>
    <g id="xtick_5">
     <g id="line2d_16">
      <g>
       <use style="fill:#262626;stroke:#262626;stroke-width:0.8;" x="163.963636" xlink:href="#m469006bcda" y="47.25"/>
      </g>
     </g>
     <g id="text_13">
      <text style="fill:#262626;font-family:Arial;font-size:8px;font-style:normal;font-weight:400;text-anchor:middle;" transform="rotate(-0, 163.963636, 64.57625)" x="163.963636" y="64.57625">24</text>
     </g>
    </g>
    <g id="xtick_6">
     <g id="line2d_17">
      <g>
       <use style="fill:#262626;stroke:#262626;stroke-width:0.8;" x="191.633058" xlink:href="#m469006bcda" y="47.25"/>
      </g>
     </g>
     <g id="text_14">
      <text style="fill:#262626;font-family:Arial;font-size:8px;font-style:normal;font-weight:400;text-anchor:middle;" transform="rotate(-0, 191.633058, 64.57625)" x="191.633058" y="64.57625">48</text>
     </g>
    </g>
    <g id="text_15">
     <text style="fill:#262626;font-family:Arial;font-size:8px;font-style:normal;font-weight:400;text-anchor:middle;" transform="rotate(-0, 163.963636, 75.8925)" x="163.963636" y="75.8925">Hours of Starvation</text>
    </g>
   </g>
   <g id="matplotlib.axis_4">
    <g id="ytick_6">
     <g id="line2d_18">
      <g>
       <use style="fill:#262626;stroke:#262626;stroke-width:0.8;" x="128.527273" xlink:href="#m7946e0eb16" y="47.25"/>
      </g>
     </g>
     <g id="text_16">
      <text style="fill:#262626;font-family:Arial;font-size:8px;font-style:normal;font-weight:400;text-anchor:end;" transform="rotate(-0, 116.927273, 50.113125)" x="116.927273" y="50.113125">0.0</text>
     </g>
    </g>
    <g id="ytick_7">
     <g id="line2d_19">
      <g>
       <use style="fill:#262626;stroke:#262626;stroke-width:0.8;" x="128.527273" xlink:href="#m7946e0eb16" y="37.214308"/>
      </g>
     </g>
     <g id="text_17">
      <text style="fill:#262626;font-family:Arial;font-size:8px;font-style:normal;font-weight:400;text-anchor:end;" transform="rotate(-0, 116.927273, 40.077433)" x="116.927273" y="40.077433">0.8</text>
     </g>
    </g>
    <g id="ytick_8">
     <g id="line2d_20">
      <g>
       <use style="fill:#262626;stroke:#262626;stroke-width:0.8;" x="128.527273" xlink:href="#m7946e0eb16" y="27.178615"/>
      </g>
     </g>
     <g id="text_18">
      <text style="fill:#262626;font-family:Arial;font-size:8px;font-style:normal;font-weight:400;text-anchor:end;" transform="rotate(-0, 116.927273, 30.04174)" x="116.927273" y="30.04174">1.6</text>
     </g>
    </g>
    <g id="ytick_9">
     <g id="line2d_21">
      <g>
       <use style="fill:#262626;stroke:#262626;stroke-width:0.8;" x="128.527273" xlink:href="#m7946e0eb16" y="17.142923"/>
      </g>
     </g>
     <g id="text_19">
      <text style="fill:#262626;font-family:Arial;font-size:8px;font-style:normal;font-weight:400;text-anchor:end;" transform="rotate(-0, 116.927273, 20.006048)" x="116.927273" y="20.006048">2.4</text>
     </g>
    </g>
    <g id="ytick_10">
     <g id="line2d_22">
      <g>
       <use style="fill:#262626;stroke:#262626;stroke-width:0.8;" x="128.527273" xlink:href="#m7946e0eb16" y="7.107231"/>
      </g>
     </g>
     <g id="text_20">
      <text style="fill:#262626;font-family:Arial;font-size:8px;font-style:normal;font-weight:400;text-anchor:end;" transform="rotate(-0, 116.927273, 9.970356)" x="116.927273" y="9.970356">3.2</text>
     </g>
    </g>
   </g>
   <g id="line2d_23">
    <path clip-path="url(#p0fb9c3a589)" d="M 136.294215 29.164215 
L 163.963636 28.461715 
L 191.633058 18.196862 
" style="fill:none;stroke:#0000ff;stroke-linecap:round;"/>
    <g clip-path="url(#p0fb9c3a589)">
     <use style="fill:#0000ff;" x="136.294215" xlink:href="#m29c0f91567" y="29.164215"/>
     <use style="fill:#0000ff;" x="163.963636" xlink:href="#m29c0f91567" y="28.461715"/>
     <use style="fill:#0000ff;" x="191.633058" xlink:href="#m29c0f91567" y="18.196862"/>
    </g>
   </g>
   <g id="line2d_24">
    <path clip-path="url(#p0fb9c3a589)" d="M 136.294215 30.316759 
L 163.963636 23.970626 
L 191.633058 9.174726 
" style="fill:none;stroke:#008000;stroke-linecap:round;"/>
    <g clip-path="url(#p0fb9c3a589)">
     <use style="fill:#008000;" x="136.294215" xlink:href="#m9aad416124" y="30.316759"/>
     <use style="fill:#008000;" x="163.963636" xlink:href="#m9aad416124" y="23.970626"/>
     <use style="fill:#008000;" x="191.633058" xlink:href="#m9aad416124" y="9.174726"/>
    </g>
   </g>
   <g id="line2d_25">
    <path clip-path="url(#p0fb9c3a589)" d="M 136.294215 29.029833 
L 163.963636 24.237128 
L 191.633058 6.755175 
" style="fill:none;stroke:#ff0000;stroke-linecap:round;"/>
    <g clip-path="url(#p0fb9c3a589)">
     <use style="fill:#ff0000;" x="136.294215" xlink:href="#mbeff9cb318" y="29.029833"/>
     <use style="fill:#ff0000;" x="163.963636" xlink:href="#mbeff9cb318" y="24.237128"/>
     <use style="fill:#ff0000;" x="191.633058" xlink:href="#mbeff9cb318" y="6.755175"/>
    </g>
   </g>
   <g id="line2d_26">
    <path clip-path="url(#p0fb9c3a589)" d="M 136.294215 29.821801 
L 163.963636 27.842393 
L 191.633058 14.636115 
" style="fill:none;stroke:#00ffff;stroke-linecap:round;"/>
    <g clip-path="url(#p0fb9c3a589)">
     <use style="fill:#00ffff;" x="136.294215" xlink:href="#mf527e9a4be" y="29.821801"/>
     <use style="fill:#00ffff;" x="163.963636" xlink:href="#mf527e9a4be" y="27.842393"/>
     <use style="fill:#00ffff;" x="191.633058" xlink:href="#mf527e9a4be" y="14.636115"/>
    </g>
   </g>
   <g id="line2d_27">
    <path clip-path="url(#p0fb9c3a589)" d="M 136.294215 28.341951 
L 163.963636 25.78541 
L 191.633058 13.519991 
" style="fill:none;stroke:#ff00ff;stroke-linecap:round;"/>
    <g clip-path="url(#p0fb9c3a589)">
     <use style="fill:#ff00ff;" x="136.294215" xlink:href="#m7761cc91eb" y="28.341951"/>
     <use style="fill:#ff00ff;" x="163.963636" xlink:href="#m7761cc91eb" y="25.78541"/>
     <use style="fill:#ff00ff;" x="191.633058" xlink:href="#m7761cc91eb" y="13.519991"/>
    </g>
   </g>
   <g id="line2d_28">
    <path clip-path="url(#p0fb9c3a589)" d="M 136.294215 36.253615 
L 163.963636 34.70605 
L 191.633058 31.932983 
" style="fill:none;stroke:#ffa500;stroke-linecap:round;"/>
    <g clip-path="url(#p0fb9c3a589)">
     <use style="fill:#ffa500;" x="136.294215" xlink:href="#mcee2f15aca" y="36.253615"/>
     <use style="fill:#ffa500;" x="163.963636" xlink:href="#mcee2f15aca" y="34.70605"/>
     <use style="fill:#ffa500;" x="191.633058" xlink:href="#mcee2f15aca" y="31.932983"/>
    </g>
   </g>
   <g id="patch_8">
    <path d="M 128.527273 47.25 
L 128.527273 6.48 
" style="fill:none;stroke:#262626;stroke-linecap:square;stroke-linejoin:miter;stroke-width:1.25;"/>
   </g>
   <g id="patch_9">
    <path d="M 194.4 47.25 
L 194.4 6.48 
" style="fill:none;"/>
   </g>
   <g id="patch_10">
    <path d="M 133.527273 47.25 
L 194.4 47.25 
" style="fill:none;stroke:#262626;stroke-linecap:square;stroke-linejoin:miter;stroke-width:1.25;"/>
   </g>
   <g id="patch_11">
    <path d="M 133.527273 6.48 
L 194.4 6.48 
" style="fill:none;"/>
   </g>
   <g id="text_21">
    <text style="fill:#262626;font-family:Arial;font-size:8px;font-style:normal;font-weight:400;text-anchor:middle;" transform="rotate(-0, 163.963636, 0.48)" x="163.963636" y="0.48">– Leu</text>
   </g>
   <g id="legend_1">
    <g id="line2d_29">
     <path d="M 216.818182 6.51125 
L 217 6.51125 
" style="fill:none;stroke:#0000ff;stroke-linecap:round;"/>
    </g>
    <g id="line2d_30">
     <g>
      <use style="fill:#0000ff;" x="224.818182" xlink:href="#m29c0f91567" y="6.51125"/>
     </g>
    </g>
    <g id="text_22">
     <text style="fill:#262626;font-family:Arial;font-size:8px;font-style:normal;font-weight:400;text-anchor:start;" transform="rotate(-0, 239.218182, 9.31125)" x="239.218182" y="9.31125">CTG (WT)</text>
    </g>
    <g id="line2d_31">
     <path d="M 216.818182 17.92125 
L 217 17.92125 
" style="fill:none;stroke:#008000;stroke-linecap:round;"/>
    </g>
    <g id="line2d_32">
     <g>
      <use style="fill:#008000;" x="224.818182" xlink:href="#m9aad416124" y="17.92125"/>
     </g>
    </g>
    <g id="text_23">
     <text style="fill:#262626;font-family:Arial;font-size:8px;font-style:normal;font-weight:400;text-anchor:start;" transform="rotate(-0, 239.218182, 20.72125)" x="239.218182" y="20.72125">CTA</text>
    </g>
    <g id="line2d_33">
     <path d="M 216.818182 29.2375 
L 217 29.2375 
" style="fill:none;stroke:#ff0000;stroke-linecap:round;"/>
    </g>
    <g id="line2d_34">
     <g>
      <use style="fill:#ff0000;" x="224.818182" xlink:href="#mbeff9cb318" y="29.2375"/>
     </g>
    </g>
    <g id="text_24">
     <text style="fill:#262626;font-family:Arial;font-size:8px;font-style:normal;font-weight:400;text-anchor:start;" transform="rotate(-0, 239.218182, 32.0375)" x="239.218182" y="32.0375">CTC</text>
    </g>
    <g id="line2d_35">
     <path d="M 216.818182 40.55375 
L 217 40.55375 
" style="fill:none;stroke:#00ffff;stroke-linecap:round;"/>
    </g>
    <g id="line2d_36">
     <g>
      <use style="fill:#00ffff;" x="224.818182" xlink:href="#mf527e9a4be" y="40.55375"/>
     </g>
    </g>
    <g id="text_25">
     <text style="fill:#262626;font-family:Arial;font-size:8px;font-style:normal;font-weight:400;text-anchor:start;" transform="rotate(-0, 239.218182, 43.35375)" x="239.218182" y="43.35375">CTT</text>
    </g>
    <g id="line2d_37">
     <path d="M 216.818182 51.87 
L 217 51.87 
" style="fill:none;stroke:#ff00ff;stroke-linecap:round;"/>
    </g>
    <g id="line2d_38">
     <g>
      <use style="fill:#ff00ff;" x="224.818182" xlink:href="#m7761cc91eb" y="51.87"/>
     </g>
    </g>
    <g id="text_26">
     <text style="fill:#262626;font-family:Arial;font-size:8px;font-style:normal;font-weight:400;text-anchor:start;" transform="rotate(-0, 239.218182, 54.67)" x="239.218182" y="54.67">TTA</text>
    </g>
    <g id="line2d_39">
     <path style="fill:none;stroke:#ffa500;stroke-linecap:round;"/>
    </g>
    <g id="line2d_40">
     <g>
      <use style="fill:#ffa500;" x="224.818182" xlink:href="#mcee2f15aca" y="63.18625"/>
     </g>
    </g>
    <g id="text_27">
     <text style="fill:#262626;font-family:Arial;font-size:8px;font-style:normal;font-weight:400;text-anchor:start;" transform="rotate(-0, 239.218182, 65.98625)" x="239.218182" y="65.98625">TTG</text>
    </g>
   </g>
  </g>
 </g>
 <defs>
  <clipPath id="p3add1330ab">
   <rect height="40.77" width="60.872727" x="27" y="6.48"/>
  </clipPath>
  <clipPath id="p0fb9c3a589">
   <rect height="40.77" width="60.872727" x="133.527273" y="6.48"/>
  </clipPath>
 </defs>
</svg>
