<?xml version="1.0" encoding="utf-8" standalone="no"?>
<!DOCTYPE svg PUBLIC "-//W3C//DTD SVG 1.1//EN"
  "http://www.w3.org/Graphics/SVG/1.1/DTD/svg11.dtd">
<!-- Created with matplotlib (http://matplotlib.org/) -->
<svg height="72pt" version="1.1" viewBox="0 0 216 72" width="216pt" xmlns="http://www.w3.org/2000/svg" xmlns:xlink="http://www.w3.org/1999/xlink">
 <defs>
  <style type="text/css">
*{stroke-linecap:butt;stroke-linejoin:round;}
  </style>
 </defs>
 <g id="figure_1">
  <g id="patch_1">
   <path d="M 0 72 
L 216 72 
L 216 0 
L 0 0 
z
" style="fill:#ffffff;"/>
  </g>
  <g id="axes_1">
   <g id="patch_2">
    <path d="M 27 63 
L 87.872727 63 
L 87.872727 8.64 
L 27 8.64 
z
" style="fill:#ffffff;"/>
   </g>
   <g id="matplotlib.axis_1">
    <g id="xtick_1">
     <g id="line2d_1">
      <defs>
       <path d="M 0 0 
L 0 6 
" id="ma4b28b5b7d" style="stroke:#262626;stroke-width:0.8;"/>
      </defs>
      <g>
       <use style="fill:#262626;stroke:#262626;stroke-width:0.8;" x="29.766942" xlink:href="#ma4b28b5b7d" y="63"/>
      </g>
     </g>
     <g id="text_1">
      <text style="fill:#262626;font-family:Arial;font-size:8px;font-style:normal;font-weight:400;text-anchor:middle;" transform="rotate(-0, 29.766942, 80.32625)" x="29.766942" y="80.32625">12</text>
     </g>
    </g>
    <g id="xtick_2">
     <g id="line2d_2">
      <g>
       <use style="fill:#262626;stroke:#262626;stroke-width:0.8;" x="57.436364" xlink:href="#ma4b28b5b7d" y="63"/>
      </g>
     </g>
     <g id="text_2">
      <text style="fill:#262626;font-family:Arial;font-size:8px;font-style:normal;font-weight:400;text-anchor:middle;" transform="rotate(-0, 57.436364, 80.32625)" x="57.436364" y="80.32625">24</text>
     </g>
    </g>
    <g id="xtick_3">
     <g id="line2d_3">
      <g>
       <use style="fill:#262626;stroke:#262626;stroke-width:0.8;" x="85.105785" xlink:href="#ma4b28b5b7d" y="63"/>
      </g>
     </g>
     <g id="text_3">
      <text style="fill:#262626;font-family:Arial;font-size:8px;font-style:normal;font-weight:400;text-anchor:middle;" transform="rotate(-0, 85.105785, 80.32625)" x="85.105785" y="80.32625">48</text>
     </g>
    </g>
    <g id="text_4">
     <text style="fill:#262626;font-family:Arial;font-size:8px;font-style:normal;font-weight:400;text-anchor:middle;" transform="rotate(-0, 57.436364, 91.6425)" x="57.436364" y="91.6425">Hours of Starvation</text>
    </g>
   </g>
   <g id="matplotlib.axis_2">
    <g id="ytick_1">
     <g id="line2d_4">
      <defs>
       <path d="M 0 0 
L -6 0 
" id="m19a83eef8a" style="stroke:#262626;stroke-width:0.8;"/>
      </defs>
      <g>
       <use style="fill:#262626;stroke:#262626;stroke-width:0.8;" x="22" xlink:href="#m19a83eef8a" y="63"/>
      </g>
     </g>
     <g id="text_5">
      <text style="fill:#262626;font-family:Arial;font-size:8px;font-style:normal;font-weight:400;text-anchor:end;" transform="rotate(-0, 10.4, 65.863125)" x="10.4" y="65.863125">0.0</text>
     </g>
    </g>
    <g id="ytick_2">
     <g id="line2d_5">
      <g>
       <use style="fill:#262626;stroke:#262626;stroke-width:0.8;" x="22" xlink:href="#m19a83eef8a" y="49.619077"/>
      </g>
     </g>
     <g id="text_6">
      <text style="fill:#262626;font-family:Arial;font-size:8px;font-style:normal;font-weight:400;text-anchor:end;" transform="rotate(-0, 10.4, 52.482202)" x="10.4" y="52.482202">0.8</text>
     </g>
    </g>
    <g id="ytick_3">
     <g id="line2d_6">
      <g>
       <use style="fill:#262626;stroke:#262626;stroke-width:0.8;" x="22" xlink:href="#m19a83eef8a" y="36.238154"/>
      </g>
     </g>
     <g id="text_7">
      <text style="fill:#262626;font-family:Arial;font-size:8px;font-style:normal;font-weight:400;text-anchor:end;" transform="rotate(-0, 10.4, 39.101279)" x="10.4" y="39.101279">1.6</text>
     </g>
    </g>
    <g id="ytick_4">
     <g id="line2d_7">
      <g>
       <use style="fill:#262626;stroke:#262626;stroke-width:0.8;" x="22" xlink:href="#m19a83eef8a" y="22.857231"/>
      </g>
     </g>
     <g id="text_8">
      <text style="fill:#262626;font-family:Arial;font-size:8px;font-style:normal;font-weight:400;text-anchor:end;" transform="rotate(-0, 10.4, 25.720356)" x="10.4" y="25.720356">2.4</text>
     </g>
    </g>
    <g id="ytick_5">
     <g id="line2d_8">
      <g>
       <use style="fill:#262626;stroke:#262626;stroke-width:0.8;" x="22" xlink:href="#m19a83eef8a" y="9.476308"/>
      </g>
     </g>
     <g id="text_9">
      <text style="fill:#262626;font-family:Arial;font-size:8px;font-style:normal;font-weight:400;text-anchor:end;" transform="rotate(-0, 10.4, 12.339433)" x="10.4" y="12.339433">3.2</text>
     </g>
    </g>
    <g id="text_10">
     <text style="fill:#262626;font-family:Arial;font-size:8px;font-style:normal;font-weight:400;" transform="translate(-14.98225 59.83)rotate(-90)">Fluorescence</text>
     <text style="fill:#262626;font-family:Arial;font-size:8px;font-style:normal;font-weight:400;" transform="translate(-6.40375 66.494375)rotate(-90)">(Relative to Rich)</text>
    </g>
   </g>
   <g id="line2d_9">
    <path clip-path="url(#pa1810bfb32)" d="M 29.766942 50.140224 
L 57.436364 47.815854 
L 85.105785 39.93323 
" style="fill:none;stroke:#cc79a7;stroke-linecap:round;"/>
    <defs>
     <path d="M 0 1 
C 0.265203 1 0.51958 0.894634 0.707107 0.707107 
C 0.894634 0.51958 1 0.265203 1 0 
C 1 -0.265203 0.894634 -0.51958 0.707107 -0.707107 
C 0.51958 -0.894634 0.265203 -1 0 -1 
C -0.265203 -1 -0.51958 -0.894634 -0.707107 -0.707107 
C -0.894634 -0.51958 -1 -0.265203 -1 0 
C -1 0.265203 -0.894634 0.51958 -0.707107 0.707107 
C -0.51958 0.894634 -0.265203 1 0 1 
z
" id="ma98c3d7779"/>
    </defs>
    <g clip-path="url(#pa1810bfb32)">
     <use style="fill:#cc79a7;" x="29.766942" xlink:href="#ma98c3d7779" y="50.140224"/>
     <use style="fill:#cc79a7;" x="57.436364" xlink:href="#ma98c3d7779" y="47.815854"/>
     <use style="fill:#cc79a7;" x="85.105785" xlink:href="#ma98c3d7779" y="39.93323"/>
    </g>
   </g>
   <g id="line2d_10">
    <path clip-path="url(#pa1810bfb32)" d="M 29.766942 48.503952 
L 57.436364 47.510089 
L 85.105785 34.268976 
" style="fill:none;stroke:#e69f00;stroke-linecap:round;"/>
    <defs>
     <path d="M 0 1 
C 0.265203 1 0.51958 0.894634 0.707107 0.707107 
C 0.894634 0.51958 1 0.265203 1 0 
C 1 -0.265203 0.894634 -0.51958 0.707107 -0.707107 
C 0.51958 -0.894634 0.265203 -1 0 -1 
C -0.265203 -1 -0.51958 -0.894634 -0.707107 -0.707107 
C -0.894634 -0.51958 -1 -0.265203 -1 0 
C -1 0.265203 -0.894634 0.51958 -0.707107 0.707107 
C -0.51958 0.894634 -0.265203 1 0 1 
z
" id="mfda466c8a6"/>
    </defs>
    <g clip-path="url(#pa1810bfb32)">
     <use style="fill:#e69f00;" x="29.766942" xlink:href="#mfda466c8a6" y="48.503952"/>
     <use style="fill:#e69f00;" x="57.436364" xlink:href="#mfda466c8a6" y="47.510089"/>
     <use style="fill:#e69f00;" x="85.105785" xlink:href="#mfda466c8a6" y="34.268976"/>
    </g>
   </g>
   <g id="line2d_11">
    <path clip-path="url(#pa1810bfb32)" d="M 29.766942 50.60754 
L 57.436364 49.330019 
L 85.105785 40.745696 
" style="fill:none;stroke:#d55e00;stroke-linecap:round;"/>
    <defs>
     <path d="M 0 1 
C 0.265203 1 0.51958 0.894634 0.707107 0.707107 
C 0.894634 0.51958 1 0.265203 1 0 
C 1 -0.265203 0.894634 -0.51958 0.707107 -0.707107 
C 0.51958 -0.894634 0.265203 -1 0 -1 
C -0.265203 -1 -0.51958 -0.894634 -0.707107 -0.707107 
C -0.894634 -0.51958 -1 -0.265203 -1 0 
C -1 0.265203 -0.894634 0.51958 -0.707107 0.707107 
C -0.51958 0.894634 -0.265203 1 0 1 
z
" id="ma7212d20c1"/>
    </defs>
    <g clip-path="url(#pa1810bfb32)">
     <use style="fill:#d55e00;" x="29.766942" xlink:href="#ma7212d20c1" y="50.60754"/>
     <use style="fill:#d55e00;" x="57.436364" xlink:href="#ma7212d20c1" y="49.330019"/>
     <use style="fill:#d55e00;" x="85.105785" xlink:href="#ma7212d20c1" y="40.745696"/>
    </g>
   </g>
   <g id="line2d_12">
    <path clip-path="url(#pa1810bfb32)" d="M 29.766942 49.234188 
L 57.436364 49.215945 
L 85.105785 40.891293 
" style="fill:none;stroke:#0072b2;stroke-linecap:round;"/>
    <defs>
     <path d="M 0 1 
C 0.265203 1 0.51958 0.894634 0.707107 0.707107 
C 0.894634 0.51958 1 0.265203 1 0 
C 1 -0.265203 0.894634 -0.51958 0.707107 -0.707107 
C 0.51958 -0.894634 0.265203 -1 0 -1 
C -0.265203 -1 -0.51958 -0.894634 -0.707107 -0.707107 
C -0.894634 -0.51958 -1 -0.265203 -1 0 
C -1 0.265203 -0.894634 0.51958 -0.707107 0.707107 
C -0.51958 0.894634 -0.265203 1 0 1 
z
" id="m82f4e1b76e"/>
    </defs>
    <g clip-path="url(#pa1810bfb32)">
     <use style="fill:#0072b2;" x="29.766942" xlink:href="#m82f4e1b76e" y="49.234188"/>
     <use style="fill:#0072b2;" x="57.436364" xlink:href="#m82f4e1b76e" y="49.215945"/>
     <use style="fill:#0072b2;" x="85.105785" xlink:href="#m82f4e1b76e" y="40.891293"/>
    </g>
   </g>
   <g id="line2d_13">
    <path clip-path="url(#pa1810bfb32)" d="M 29.766942 50.172348 
L 57.436364 46.335357 
L 85.105785 36.299911 
" style="fill:none;stroke:#56b4e9;stroke-linecap:round;"/>
    <defs>
     <path d="M 0 1 
C 0.265203 1 0.51958 0.894634 0.707107 0.707107 
C 0.894634 0.51958 1 0.265203 1 0 
C 1 -0.265203 0.894634 -0.51958 0.707107 -0.707107 
C 0.51958 -0.894634 0.265203 -1 0 -1 
C -0.265203 -1 -0.51958 -0.894634 -0.707107 -0.707107 
C -0.894634 -0.51958 -1 -0.265203 -1 0 
C -1 0.265203 -0.894634 0.51958 -0.707107 0.707107 
C -0.51958 0.894634 -0.265203 1 0 1 
z
" id="m6c94611b4c"/>
    </defs>
    <g clip-path="url(#pa1810bfb32)">
     <use style="fill:#56b4e9;" x="29.766942" xlink:href="#m6c94611b4c" y="50.172348"/>
     <use style="fill:#56b4e9;" x="57.436364" xlink:href="#m6c94611b4c" y="46.335357"/>
     <use style="fill:#56b4e9;" x="85.105785" xlink:href="#m6c94611b4c" y="36.299911"/>
    </g>
   </g>
   <g id="line2d_14">
    <path clip-path="url(#pa1810bfb32)" d="M 29.766942 50.940279 
L 57.436364 49.997381 
L 85.105785 40.242924 
" style="fill:none;stroke:#009e73;stroke-linecap:round;"/>
    <defs>
     <path d="M 0 1 
C 0.265203 1 0.51958 0.894634 0.707107 0.707107 
C 0.894634 0.51958 1 0.265203 1 0 
C 1 -0.265203 0.894634 -0.51958 0.707107 -0.707107 
C 0.51958 -0.894634 0.265203 -1 0 -1 
C -0.265203 -1 -0.51958 -0.894634 -0.707107 -0.707107 
C -0.894634 -0.51958 -1 -0.265203 -1 0 
C -1 0.265203 -0.894634 0.51958 -0.707107 0.707107 
C -0.51958 0.894634 -0.265203 1 0 1 
z
" id="m768ceba0a6"/>
    </defs>
    <g clip-path="url(#pa1810bfb32)">
     <use style="fill:#009e73;" x="29.766942" xlink:href="#m768ceba0a6" y="50.940279"/>
     <use style="fill:#009e73;" x="57.436364" xlink:href="#m768ceba0a6" y="49.997381"/>
     <use style="fill:#009e73;" x="85.105785" xlink:href="#m768ceba0a6" y="40.242924"/>
    </g>
   </g>
   <g id="patch_3">
    <path d="M 22 63 
L 22 8.64 
" style="fill:none;stroke:#262626;stroke-linecap:square;stroke-linejoin:miter;stroke-width:1.25;"/>
   </g>
   <g id="patch_4">
    <path d="M 87.872727 63 
L 87.872727 8.64 
" style="fill:none;"/>
   </g>
   <g id="patch_5">
    <path d="M 27 63 
L 87.872727 63 
" style="fill:none;stroke:#262626;stroke-linecap:square;stroke-linejoin:miter;stroke-width:1.25;"/>
   </g>
   <g id="patch_6">
    <path d="M 27 8.64 
L 87.872727 8.64 
" style="fill:none;"/>
   </g>
   <g id="text_11">
    <text style="fill:#262626;font-family:Arial;font-size:8px;font-style:normal;font-weight:400;text-anchor:middle;" transform="rotate(-0, 57.436364, 2.64)" x="57.436364" y="2.64">– Arg</text>
   </g>
  </g>
  <g id="axes_2">
   <g id="patch_7">
    <path d="M 133.527273 63 
L 194.4 63 
L 194.4 8.64 
L 133.527273 8.64 
z
" style="fill:#ffffff;"/>
   </g>
   <g id="matplotlib.axis_3">
    <g id="xtick_4">
     <g id="line2d_15">
      <g>
       <use style="fill:#262626;stroke:#262626;stroke-width:0.8;" x="136.294215" xlink:href="#ma4b28b5b7d" y="63"/>
      </g>
     </g>
     <g id="text_12">
      <text style="fill:#262626;font-family:Arial;font-size:8px;font-style:normal;font-weight:400;text-anchor:middle;" transform="rotate(-0, 136.294215, 80.32625)" x="136.294215" y="80.32625">12</text>
     </g>
    </g>
    <g id="xtick_5">
     <g id="line2d_16">
      <g>
       <use style="fill:#262626;stroke:#262626;stroke-width:0.8;" x="163.963636" xlink:href="#ma4b28b5b7d" y="63"/>
      </g>
     </g>
     <g id="text_13">
      <text style="fill:#262626;font-family:Arial;font-size:8px;font-style:normal;font-weight:400;text-anchor:middle;" transform="rotate(-0, 163.963636, 80.32625)" x="163.963636" y="80.32625">24</text>
     </g>
    </g>
    <g id="xtick_6">
     <g id="line2d_17">
      <g>
       <use style="fill:#262626;stroke:#262626;stroke-width:0.8;" x="191.633058" xlink:href="#ma4b28b5b7d" y="63"/>
      </g>
     </g>
     <g id="text_14">
      <text style="fill:#262626;font-family:Arial;font-size:8px;font-style:normal;font-weight:400;text-anchor:middle;" transform="rotate(-0, 191.633058, 80.32625)" x="191.633058" y="80.32625">48</text>
     </g>
    </g>
    <g id="text_15">
     <text style="fill:#262626;font-family:Arial;font-size:8px;font-style:normal;font-weight:400;text-anchor:middle;" transform="rotate(-0, 163.963636, 91.6425)" x="163.963636" y="91.6425">Hours of Starvation</text>
    </g>
   </g>
   <g id="matplotlib.axis_4">
    <g id="ytick_6">
     <g id="line2d_18">
      <g>
       <use style="fill:#262626;stroke:#262626;stroke-width:0.8;" x="128.527273" xlink:href="#m19a83eef8a" y="63"/>
      </g>
     </g>
     <g id="text_16">
      <text style="fill:#262626;font-family:Arial;font-size:8px;font-style:normal;font-weight:400;text-anchor:end;" transform="rotate(-0, 116.927273, 65.863125)" x="116.927273" y="65.863125">0.0</text>
     </g>
    </g>
    <g id="ytick_7">
     <g id="line2d_19">
      <g>
       <use style="fill:#262626;stroke:#262626;stroke-width:0.8;" x="128.527273" xlink:href="#m19a83eef8a" y="49.619077"/>
      </g>
     </g>
     <g id="text_17">
      <text style="fill:#262626;font-family:Arial;font-size:8px;font-style:normal;font-weight:400;text-anchor:end;" transform="rotate(-0, 116.927273, 52.482202)" x="116.927273" y="52.482202">0.8</text>
     </g>
    </g>
    <g id="ytick_8">
     <g id="line2d_20">
      <g>
       <use style="fill:#262626;stroke:#262626;stroke-width:0.8;" x="128.527273" xlink:href="#m19a83eef8a" y="36.238154"/>
      </g>
     </g>
     <g id="text_18">
      <text style="fill:#262626;font-family:Arial;font-size:8px;font-style:normal;font-weight:400;text-anchor:end;" transform="rotate(-0, 116.927273, 39.101279)" x="116.927273" y="39.101279">1.6</text>
     </g>
    </g>
    <g id="ytick_9">
     <g id="line2d_21">
      <g>
       <use style="fill:#262626;stroke:#262626;stroke-width:0.8;" x="128.527273" xlink:href="#m19a83eef8a" y="22.857231"/>
      </g>
     </g>
     <g id="text_19">
      <text style="fill:#262626;font-family:Arial;font-size:8px;font-style:normal;font-weight:400;text-anchor:end;" transform="rotate(-0, 116.927273, 25.720356)" x="116.927273" y="25.720356">2.4</text>
     </g>
    </g>
    <g id="ytick_10">
     <g id="line2d_22">
      <g>
       <use style="fill:#262626;stroke:#262626;stroke-width:0.8;" x="128.527273" xlink:href="#m19a83eef8a" y="9.476308"/>
      </g>
     </g>
     <g id="text_20">
      <text style="fill:#262626;font-family:Arial;font-size:8px;font-style:normal;font-weight:400;text-anchor:end;" transform="rotate(-0, 116.927273, 12.339433)" x="116.927273" y="12.339433">3.2</text>
     </g>
    </g>
   </g>
   <g id="line2d_23">
    <path clip-path="url(#pebf637760b)" d="M 136.294215 40.422345 
L 163.963636 31.960835 
L 191.633058 12.232968 
" style="fill:none;stroke:#cc79a7;stroke-linecap:round;"/>
    <g clip-path="url(#pebf637760b)">
     <use style="fill:#cc79a7;" x="136.294215" xlink:href="#ma98c3d7779" y="40.422345"/>
     <use style="fill:#cc79a7;" x="163.963636" xlink:href="#ma98c3d7779" y="31.960835"/>
     <use style="fill:#cc79a7;" x="191.633058" xlink:href="#ma98c3d7779" y="12.232968"/>
    </g>
   </g>
   <g id="line2d_24">
    <path clip-path="url(#pebf637760b)" d="M 136.294215 38.706444 
L 163.963636 32.316171 
L 191.633058 9.0069 
" style="fill:none;stroke:#e69f00;stroke-linecap:round;"/>
    <g clip-path="url(#pebf637760b)">
     <use style="fill:#e69f00;" x="136.294215" xlink:href="#mfda466c8a6" y="38.706444"/>
     <use style="fill:#e69f00;" x="163.963636" xlink:href="#mfda466c8a6" y="32.316171"/>
     <use style="fill:#e69f00;" x="191.633058" xlink:href="#mfda466c8a6" y="9.0069"/>
    </g>
   </g>
   <g id="line2d_25">
    <path clip-path="url(#pebf637760b)" d="M 136.294215 38.88562 
L 163.963636 37.948953 
L 191.633058 24.262483 
" style="fill:none;stroke:#d55e00;stroke-linecap:round;"/>
    <g clip-path="url(#pebf637760b)">
     <use style="fill:#d55e00;" x="136.294215" xlink:href="#ma7212d20c1" y="38.88562"/>
     <use style="fill:#d55e00;" x="163.963636" xlink:href="#ma7212d20c1" y="37.948953"/>
     <use style="fill:#d55e00;" x="191.633058" xlink:href="#ma7212d20c1" y="24.262483"/>
    </g>
   </g>
   <g id="line2d_26">
    <path clip-path="url(#pebf637760b)" d="M 136.294215 39.762401 
L 163.963636 37.123191 
L 191.633058 19.514821 
" style="fill:none;stroke:#0072b2;stroke-linecap:round;"/>
    <g clip-path="url(#pebf637760b)">
     <use style="fill:#0072b2;" x="136.294215" xlink:href="#m82f4e1b76e" y="39.762401"/>
     <use style="fill:#0072b2;" x="163.963636" xlink:href="#m82f4e1b76e" y="37.123191"/>
     <use style="fill:#0072b2;" x="191.633058" xlink:href="#m82f4e1b76e" y="19.514821"/>
    </g>
   </g>
   <g id="line2d_27">
    <path clip-path="url(#pebf637760b)" d="M 136.294215 37.789268 
L 163.963636 34.380547 
L 191.633058 18.026654 
" style="fill:none;stroke:#56b4e9;stroke-linecap:round;"/>
    <g clip-path="url(#pebf637760b)">
     <use style="fill:#56b4e9;" x="136.294215" xlink:href="#m6c94611b4c" y="37.789268"/>
     <use style="fill:#56b4e9;" x="163.963636" xlink:href="#m6c94611b4c" y="34.380547"/>
     <use style="fill:#56b4e9;" x="191.633058" xlink:href="#m6c94611b4c" y="18.026654"/>
    </g>
   </g>
   <g id="line2d_28">
    <path clip-path="url(#pebf637760b)" d="M 136.294215 48.338154 
L 163.963636 46.274734 
L 191.633058 42.577311 
" style="fill:none;stroke:#009e73;stroke-linecap:round;"/>
    <g clip-path="url(#pebf637760b)">
     <use style="fill:#009e73;" x="136.294215" xlink:href="#m768ceba0a6" y="48.338154"/>
     <use style="fill:#009e73;" x="163.963636" xlink:href="#m768ceba0a6" y="46.274734"/>
     <use style="fill:#009e73;" x="191.633058" xlink:href="#m768ceba0a6" y="42.577311"/>
    </g>
   </g>
   <g id="patch_8">
    <path d="M 128.527273 63 
L 128.527273 8.64 
" style="fill:none;stroke:#262626;stroke-linecap:square;stroke-linejoin:miter;stroke-width:1.25;"/>
   </g>
   <g id="patch_9">
    <path d="M 194.4 63 
L 194.4 8.64 
" style="fill:none;"/>
   </g>
   <g id="patch_10">
    <path d="M 133.527273 63 
L 194.4 63 
" style="fill:none;stroke:#262626;stroke-linecap:square;stroke-linejoin:miter;stroke-width:1.25;"/>
   </g>
   <g id="patch_11">
    <path d="M 133.527273 8.64 
L 194.4 8.64 
" style="fill:none;"/>
   </g>
   <g id="text_21">
    <text style="fill:#262626;font-family:Arial;font-size:8px;font-style:normal;font-weight:400;text-anchor:middle;" transform="rotate(-0, 163.963636, 2.64)" x="163.963636" y="2.64">– Leu</text>
   </g>
   <g id="legend_1">
    <g id="line2d_29">
     <path d="M 216.818182 5.17625 
L 217 5.17625 
" style="fill:none;stroke:#cc79a7;stroke-linecap:round;"/>
    </g>
    <g id="line2d_30">
     <g>
      <use style="fill:#cc79a7;" x="224.818182" xlink:href="#ma98c3d7779" y="5.17625"/>
     </g>
    </g>
    <g id="text_22">
     <text style="fill:#262626;font-family:Arial;font-size:8px;font-style:normal;font-weight:400;text-anchor:start;" transform="rotate(-0, 239.218182, 7.97625)" x="239.218182" y="7.97625">CTA</text>
    </g>
    <g id="line2d_31">
     <path d="M 216.818182 16.4925 
L 217 16.4925 
" style="fill:none;stroke:#e69f00;stroke-linecap:round;"/>
    </g>
    <g id="line2d_32">
     <g>
      <use style="fill:#e69f00;" x="224.818182" xlink:href="#mfda466c8a6" y="16.4925"/>
     </g>
    </g>
    <g id="text_23">
     <text style="fill:#262626;font-family:Arial;font-size:8px;font-style:normal;font-weight:400;text-anchor:start;" transform="rotate(-0, 239.218182, 19.2925)" x="239.218182" y="19.2925">CTC</text>
    </g>
    <g id="line2d_33">
     <path d="M 216.818182 27.90625 
L 217 27.90625 
" style="fill:none;stroke:#d55e00;stroke-linecap:round;"/>
    </g>
    <g id="line2d_34">
     <g>
      <use style="fill:#d55e00;" x="224.818182" xlink:href="#ma7212d20c1" y="27.90625"/>
     </g>
    </g>
    <g id="text_24">
     <text style="fill:#262626;font-family:Arial;font-size:8px;font-style:normal;font-weight:400;text-anchor:start;" transform="rotate(-0, 239.218182, 30.70625)" x="239.218182" y="30.70625">CTG (WT)</text>
    </g>
    <g id="line2d_35">
     <path d="M 216.818182 39.31625 
L 217 39.31625 
" style="fill:none;stroke:#0072b2;stroke-linecap:round;"/>
    </g>
    <g id="line2d_36">
     <g>
      <use style="fill:#0072b2;" x="224.818182" xlink:href="#m82f4e1b76e" y="39.31625"/>
     </g>
    </g>
    <g id="text_25">
     <text style="fill:#262626;font-family:Arial;font-size:8px;font-style:normal;font-weight:400;text-anchor:start;" transform="rotate(-0, 239.218182, 42.11625)" x="239.218182" y="42.11625">CTT</text>
    </g>
    <g id="line2d_37">
     <path d="M 216.818182 50.6325 
L 217 50.6325 
" style="fill:none;stroke:#56b4e9;stroke-linecap:round;"/>
    </g>
    <g id="line2d_38">
     <g>
      <use style="fill:#56b4e9;" x="224.818182" xlink:href="#m6c94611b4c" y="50.6325"/>
     </g>
    </g>
    <g id="text_26">
     <text style="fill:#262626;font-family:Arial;font-size:8px;font-style:normal;font-weight:400;text-anchor:start;" transform="rotate(-0, 239.218182, 53.4325)" x="239.218182" y="53.4325">TTA</text>
    </g>
    <g id="line2d_39">
     <path d="M 216.818182 61.94875 
L 217 61.94875 
" style="fill:none;stroke:#009e73;stroke-linecap:round;"/>
    </g>
    <g id="line2d_40">
     <g>
      <use style="fill:#009e73;" x="224.818182" xlink:href="#m768ceba0a6" y="61.94875"/>
     </g>
    </g>
    <g id="text_27">
     <text style="fill:#262626;font-family:Arial;font-size:8px;font-style:normal;font-weight:400;text-anchor:start;" transform="rotate(-0, 239.218182, 64.74875)" x="239.218182" y="64.74875">TTG</text>
    </g>
   </g>
  </g>
 </g>
 <defs>
  <clipPath id="pa1810bfb32">
   <rect height="54.36" width="60.872727" x="27" y="8.64"/>
  </clipPath>
  <clipPath id="pebf637760b">
   <rect height="54.36" width="60.872727" x="133.527273" y="8.64"/>
  </clipPath>
 </defs>
</svg>
