<?xml version="1.0" encoding="utf-8" standalone="no"?>
<!DOCTYPE svg PUBLIC "-//W3C//DTD SVG 1.1//EN"
  "http://www.w3.org/Graphics/SVG/1.1/DTD/svg11.dtd">
<!-- Created with matplotlib (http://matplotlib.org/) -->
<svg height="54pt" version="1.1" viewBox="0 0 216 54" width="216pt" xmlns="http://www.w3.org/2000/svg" xmlns:xlink="http://www.w3.org/1999/xlink">
 <defs>
  <style type="text/css">
*{stroke-linecap:butt;stroke-linejoin:round;}
  </style>
 </defs>
 <g id="figure_1">
  <g id="patch_1">
   <path d="M 0 54 
L 216 54 
L 216 0 
L 0 0 
z
" style="fill:#ffffff;"/>
  </g>
  <g id="axes_1">
   <g id="patch_2">
    <path d="M 27 47.25 
L 87.872727 47.25 
L 87.872727 6.48 
L 27 6.48 
z
" style="fill:#ffffff;"/>
   </g>
   <g id="matplotlib.axis_1">
    <g id="xtick_1">
     <g id="line2d_1">
      <defs>
       <path d="M 0 0 
L 0 6 
" id="m123fd9c084" style="stroke:#262626;stroke-width:0.8;"/>
      </defs>
      <g>
       <use style="fill:#262626;stroke:#262626;stroke-width:0.8;" x="29.766942" xlink:href="#m123fd9c084" y="47.25"/>
      </g>
     </g>
     <g id="text_1">
      <text style="fill:#262626;font-family:Arial;font-size:8px;font-style:normal;font-weight:400;text-anchor:middle;" transform="rotate(-0, 29.766942, 64.57625)" x="29.766942" y="64.57625">12</text>
     </g>
    </g>
    <g id="xtick_2">
     <g id="line2d_2">
      <g>
       <use style="fill:#262626;stroke:#262626;stroke-width:0.8;" x="57.436364" xlink:href="#m123fd9c084" y="47.25"/>
      </g>
     </g>
     <g id="text_2">
      <text style="fill:#262626;font-family:Arial;font-size:8px;font-style:normal;font-weight:400;text-anchor:middle;" transform="rotate(-0, 57.436364, 64.57625)" x="57.436364" y="64.57625">24</text>
     </g>
    </g>
    <g id="xtick_3">
     <g id="line2d_3">
      <g>
       <use style="fill:#262626;stroke:#262626;stroke-width:0.8;" x="85.105785" xlink:href="#m123fd9c084" y="47.25"/>
      </g>
     </g>
     <g id="text_3">
      <text style="fill:#262626;font-family:Arial;font-size:8px;font-style:normal;font-weight:400;text-anchor:middle;" transform="rotate(-0, 85.105785, 64.57625)" x="85.105785" y="64.57625">48</text>
     </g>
    </g>
    <g id="text_4">
     <text style="fill:#262626;font-family:Arial;font-size:8px;font-style:normal;font-weight:400;text-anchor:middle;" transform="rotate(-0, 57.436364, 75.8925)" x="57.436364" y="75.8925">Hours of Starvation</text>
    </g>
   </g>
   <g id="matplotlib.axis_2">
    <g id="ytick_1">
     <g id="line2d_4">
      <defs>
       <path d="M 0 0 
L -6 0 
" id="m119ffdf0e7" style="stroke:#262626;stroke-width:0.8;"/>
      </defs>
      <g>
       <use style="fill:#262626;stroke:#262626;stroke-width:0.8;" x="22" xlink:href="#m119ffdf0e7" y="47.25"/>
      </g>
     </g>
     <g id="text_5">
      <text style="fill:#262626;font-family:Arial;font-size:8px;font-style:normal;font-weight:400;text-anchor:end;" transform="rotate(-0, 10.4, 50.113125)" x="10.4" y="50.113125">0.0</text>
     </g>
    </g>
    <g id="ytick_2">
     <g id="line2d_5">
      <g>
       <use style="fill:#262626;stroke:#262626;stroke-width:0.8;" x="22" xlink:href="#m119ffdf0e7" y="37.214308"/>
      </g>
     </g>
     <g id="text_6">
      <text style="fill:#262626;font-family:Arial;font-size:8px;font-style:normal;font-weight:400;text-anchor:end;" transform="rotate(-0, 10.4, 40.077433)" x="10.4" y="40.077433">0.8</text>
     </g>
    </g>
    <g id="ytick_3">
     <g id="line2d_6">
      <g>
       <use style="fill:#262626;stroke:#262626;stroke-width:0.8;" x="22" xlink:href="#m119ffdf0e7" y="27.178615"/>
      </g>
     </g>
     <g id="text_7">
      <text style="fill:#262626;font-family:Arial;font-size:8px;font-style:normal;font-weight:400;text-anchor:end;" transform="rotate(-0, 10.4, 30.04174)" x="10.4" y="30.04174">1.6</text>
     </g>
    </g>
    <g id="ytick_4">
     <g id="line2d_7">
      <g>
       <use style="fill:#262626;stroke:#262626;stroke-width:0.8;" x="22" xlink:href="#m119ffdf0e7" y="17.142923"/>
      </g>
     </g>
     <g id="text_8">
      <text style="fill:#262626;font-family:Arial;font-size:8px;font-style:normal;font-weight:400;text-anchor:end;" transform="rotate(-0, 10.4, 20.006048)" x="10.4" y="20.006048">2.4</text>
     </g>
    </g>
    <g id="ytick_5">
     <g id="line2d_8">
      <g>
       <use style="fill:#262626;stroke:#262626;stroke-width:0.8;" x="22" xlink:href="#m119ffdf0e7" y="7.107231"/>
      </g>
     </g>
     <g id="text_9">
      <text style="fill:#262626;font-family:Arial;font-size:8px;font-style:normal;font-weight:400;text-anchor:end;" transform="rotate(-0, 10.4, 9.970356)" x="10.4" y="9.970356">3.2</text>
     </g>
    </g>
    <g id="text_10">
     <text style="fill:#262626;font-family:Arial;font-size:8px;font-style:normal;font-weight:400;" transform="translate(-14.98225 50.875)rotate(-90)">Fluorescence</text>
     <text style="fill:#262626;font-family:Arial;font-size:8px;font-style:normal;font-weight:400;" transform="translate(-6.40375 57.539375)rotate(-90)">(Relative to Rich)</text>
    </g>
   </g>
   <g id="line2d_9">
    <path clip-path="url(#p8e1d9d45d1)" d="M 29.766942 37.621021 
L 57.436364 37.251341 
L 85.105785 26.700254 
" style="fill:none;stroke:#0000ff;stroke-linecap:round;"/>
    <defs>
     <path d="M 0 1 
C 0.265203 1 0.51958 0.894634 0.707107 0.707107 
C 0.894634 0.51958 1 0.265203 1 0 
C 1 -0.265203 0.894634 -0.51958 0.707107 -0.707107 
C 0.51958 -0.894634 0.265203 -1 0 -1 
C -0.265203 -1 -0.51958 -0.894634 -0.707107 -0.707107 
C -0.894634 -0.51958 -1 -0.265203 -1 0 
C -1 0.265203 -0.894634 0.51958 -0.707107 0.707107 
C -0.51958 0.894634 -0.265203 1 0 1 
z
" id="m01ee157e6a"/>
    </defs>
    <g clip-path="url(#p8e1d9d45d1)">
     <use style="fill:#0000ff;" x="29.766942" xlink:href="#m01ee157e6a" y="37.621021"/>
     <use style="fill:#0000ff;" x="57.436364" xlink:href="#m01ee157e6a" y="37.251341"/>
     <use style="fill:#0000ff;" x="85.105785" xlink:href="#m01ee157e6a" y="26.700254"/>
    </g>
   </g>
   <g id="line2d_10">
    <path clip-path="url(#p8e1d9d45d1)" d="M 29.766942 30.732805 
L 57.436364 27.572395 
L 85.105785 10.187699 
" style="fill:none;stroke:#008000;stroke-linecap:round;"/>
    <defs>
     <path d="M 0 1 
C 0.265203 1 0.51958 0.894634 0.707107 0.707107 
C 0.894634 0.51958 1 0.265203 1 0 
C 1 -0.265203 0.894634 -0.51958 0.707107 -0.707107 
C 0.51958 -0.894634 0.265203 -1 0 -1 
C -0.265203 -1 -0.51958 -0.894634 -0.707107 -0.707107 
C -0.894634 -0.51958 -1 -0.265203 -1 0 
C -1 0.265203 -0.894634 0.51958 -0.707107 0.707107 
C -0.51958 0.894634 -0.265203 1 0 1 
z
" id="mf8c9a4c5ba"/>
    </defs>
    <g clip-path="url(#p8e1d9d45d1)">
     <use style="fill:#008000;" x="29.766942" xlink:href="#mf8c9a4c5ba" y="30.732805"/>
     <use style="fill:#008000;" x="57.436364" xlink:href="#mf8c9a4c5ba" y="27.572395"/>
     <use style="fill:#008000;" x="85.105785" xlink:href="#mf8c9a4c5ba" y="10.187699"/>
    </g>
   </g>
   <g id="line2d_11">
    <path clip-path="url(#p8e1d9d45d1)" d="M 29.766942 34.699007 
L 57.436364 29.553467 
L 85.105785 15.187879 
" style="fill:none;stroke:#ff0000;stroke-linecap:round;"/>
    <defs>
     <path d="M 0 1 
C 0.265203 1 0.51958 0.894634 0.707107 0.707107 
C 0.894634 0.51958 1 0.265203 1 0 
C 1 -0.265203 0.894634 -0.51958 0.707107 -0.707107 
C 0.51958 -0.894634 0.265203 -1 0 -1 
C -0.265203 -1 -0.51958 -0.894634 -0.707107 -0.707107 
C -0.894634 -0.51958 -1 -0.265203 -1 0 
C -1 0.265203 -0.894634 0.51958 -0.707107 0.707107 
C -0.51958 0.894634 -0.265203 1 0 1 
z
" id="m1c11637547"/>
    </defs>
    <g clip-path="url(#p8e1d9d45d1)">
     <use style="fill:#ff0000;" x="29.766942" xlink:href="#m1c11637547" y="34.699007"/>
     <use style="fill:#ff0000;" x="57.436364" xlink:href="#m1c11637547" y="29.553467"/>
     <use style="fill:#ff0000;" x="85.105785" xlink:href="#m1c11637547" y="15.187879"/>
    </g>
   </g>
   <g id="line2d_12">
    <path clip-path="url(#p8e1d9d45d1)" d="M 29.766942 36.887417 
L 57.436364 36.000129 
L 85.105785 27.030282 
" style="fill:none;stroke:#00ffff;stroke-linecap:round;"/>
    <defs>
     <path d="M 0 1 
C 0.265203 1 0.51958 0.894634 0.707107 0.707107 
C 0.894634 0.51958 1 0.265203 1 0 
C 1 -0.265203 0.894634 -0.51958 0.707107 -0.707107 
C 0.51958 -0.894634 0.265203 -1 0 -1 
C -0.265203 -1 -0.51958 -0.894634 -0.707107 -0.707107 
C -0.894634 -0.51958 -1 -0.265203 -1 0 
C -1 0.265203 -0.894634 0.51958 -0.707107 0.707107 
C -0.51958 0.894634 -0.265203 1 0 1 
z
" id="m88f9722f0c"/>
    </defs>
    <g clip-path="url(#p8e1d9d45d1)">
     <use style="fill:#00ffff;" x="29.766942" xlink:href="#m88f9722f0c" y="36.887417"/>
     <use style="fill:#00ffff;" x="57.436364" xlink:href="#m88f9722f0c" y="36.000129"/>
     <use style="fill:#00ffff;" x="85.105785" xlink:href="#m88f9722f0c" y="27.030282"/>
    </g>
   </g>
   <g id="line2d_13">
    <path clip-path="url(#p8e1d9d45d1)" d="M 29.766942 36.425647 
L 57.436364 38.105741 
L 85.105785 36.455633 
" style="fill:none;stroke:#ff00ff;stroke-linecap:round;"/>
    <defs>
     <path d="M 0 1 
C 0.265203 1 0.51958 0.894634 0.707107 0.707107 
C 0.894634 0.51958 1 0.265203 1 0 
C 1 -0.265203 0.894634 -0.51958 0.707107 -0.707107 
C 0.51958 -0.894634 0.265203 -1 0 -1 
C -0.265203 -1 -0.51958 -0.894634 -0.707107 -0.707107 
C -0.894634 -0.51958 -1 -0.265203 -1 0 
C -1 0.265203 -0.894634 0.51958 -0.707107 0.707107 
C -0.51958 0.894634 -0.265203 1 0 1 
z
" id="m16dfb623e0"/>
    </defs>
    <g clip-path="url(#p8e1d9d45d1)">
     <use style="fill:#ff00ff;" x="29.766942" xlink:href="#m16dfb623e0" y="36.425647"/>
     <use style="fill:#ff00ff;" x="57.436364" xlink:href="#m16dfb623e0" y="38.105741"/>
     <use style="fill:#ff00ff;" x="85.105785" xlink:href="#m16dfb623e0" y="36.455633"/>
    </g>
   </g>
   <g id="line2d_14">
    <path clip-path="url(#p8e1d9d45d1)" d="M 29.766942 32.448796 
L 57.436364 28.930137 
L 85.105785 17.762541 
" style="fill:none;stroke:#ffa500;stroke-linecap:round;"/>
    <defs>
     <path d="M 0 1 
C 0.265203 1 0.51958 0.894634 0.707107 0.707107 
C 0.894634 0.51958 1 0.265203 1 0 
C 1 -0.265203 0.894634 -0.51958 0.707107 -0.707107 
C 0.51958 -0.894634 0.265203 -1 0 -1 
C -0.265203 -1 -0.51958 -0.894634 -0.707107 -0.707107 
C -0.894634 -0.51958 -1 -0.265203 -1 0 
C -1 0.265203 -0.894634 0.51958 -0.707107 0.707107 
C -0.51958 0.894634 -0.265203 1 0 1 
z
" id="meadde07b2a"/>
    </defs>
    <g clip-path="url(#p8e1d9d45d1)">
     <use style="fill:#ffa500;" x="29.766942" xlink:href="#meadde07b2a" y="32.448796"/>
     <use style="fill:#ffa500;" x="57.436364" xlink:href="#meadde07b2a" y="28.930137"/>
     <use style="fill:#ffa500;" x="85.105785" xlink:href="#meadde07b2a" y="17.762541"/>
    </g>
   </g>
   <g id="patch_3">
    <path d="M 22 47.25 
L 22 6.48 
" style="fill:none;stroke:#262626;stroke-linecap:square;stroke-linejoin:miter;stroke-width:1.25;"/>
   </g>
   <g id="patch_4">
    <path d="M 87.872727 47.25 
L 87.872727 6.48 
" style="fill:none;"/>
   </g>
   <g id="patch_5">
    <path d="M 27 47.25 
L 87.872727 47.25 
" style="fill:none;stroke:#262626;stroke-linecap:square;stroke-linejoin:miter;stroke-width:1.25;"/>
   </g>
   <g id="patch_6">
    <path d="M 27 6.48 
L 87.872727 6.48 
" style="fill:none;"/>
   </g>
   <g id="text_11">
    <text style="fill:#262626;font-family:Arial;font-size:8px;font-style:normal;font-weight:400;text-anchor:middle;" transform="rotate(-0, 57.436364, 0.48)" x="57.436364" y="0.48">– Arg</text>
   </g>
  </g>
  <g id="axes_2">
   <g id="patch_7">
    <path d="M 133.527273 47.25 
L 194.4 47.25 
L 194.4 6.48 
L 133.527273 6.48 
z
" style="fill:#ffffff;"/>
   </g>
   <g id="matplotlib.axis_3">
    <g id="xtick_4">
     <g id="line2d_15">
      <g>
       <use style="fill:#262626;stroke:#262626;stroke-width:0.8;" x="136.294215" xlink:href="#m123fd9c084" y="47.25"/>
      </g>
     </g>
     <g id="text_12">
      <text style="fill:#262626;font-family:Arial;font-size:8px;font-style:normal;font-weight:400;text-anchor:middle;" transform="rotate(-0, 136.294215, 64.57625)" x="136.294215" y="64.57625">12</text>
     </g>
    </g>
    <g id="xtick_5">
     <g id="line2d_16">
      <g>
       <use style="fill:#262626;stroke:#262626;stroke-width:0.8;" x="163.963636" xlink:href="#m123fd9c084" y="47.25"/>
      </g>
     </g>
     <g id="text_13">
      <text style="fill:#262626;font-family:Arial;font-size:8px;font-style:normal;font-weight:400;text-anchor:middle;" transform="rotate(-0, 163.963636, 64.57625)" x="163.963636" y="64.57625">24</text>
     </g>
    </g>
    <g id="xtick_6">
     <g id="line2d_17">
      <g>
       <use style="fill:#262626;stroke:#262626;stroke-width:0.8;" x="191.633058" xlink:href="#m123fd9c084" y="47.25"/>
      </g>
     </g>
     <g id="text_14">
      <text style="fill:#262626;font-family:Arial;font-size:8px;font-style:normal;font-weight:400;text-anchor:middle;" transform="rotate(-0, 191.633058, 64.57625)" x="191.633058" y="64.57625">48</text>
     </g>
    </g>
    <g id="text_15">
     <text style="fill:#262626;font-family:Arial;font-size:8px;font-style:normal;font-weight:400;text-anchor:middle;" transform="rotate(-0, 163.963636, 75.8925)" x="163.963636" y="75.8925">Hours of Starvation</text>
    </g>
   </g>
   <g id="matplotlib.axis_4">
    <g id="ytick_6">
     <g id="line2d_18">
      <g>
       <use style="fill:#262626;stroke:#262626;stroke-width:0.8;" x="128.527273" xlink:href="#m119ffdf0e7" y="47.25"/>
      </g>
     </g>
     <g id="text_16">
      <text style="fill:#262626;font-family:Arial;font-size:8px;font-style:normal;font-weight:400;text-anchor:end;" transform="rotate(-0, 116.927273, 50.113125)" x="116.927273" y="50.113125">0.0</text>
     </g>
    </g>
    <g id="ytick_7">
     <g id="line2d_19">
      <g>
       <use style="fill:#262626;stroke:#262626;stroke-width:0.8;" x="128.527273" xlink:href="#m119ffdf0e7" y="37.214308"/>
      </g>
     </g>
     <g id="text_17">
      <text style="fill:#262626;font-family:Arial;font-size:8px;font-style:normal;font-weight:400;text-anchor:end;" transform="rotate(-0, 116.927273, 40.077433)" x="116.927273" y="40.077433">0.8</text>
     </g>
    </g>
    <g id="ytick_8">
     <g id="line2d_20">
      <g>
       <use style="fill:#262626;stroke:#262626;stroke-width:0.8;" x="128.527273" xlink:href="#m119ffdf0e7" y="27.178615"/>
      </g>
     </g>
     <g id="text_18">
      <text style="fill:#262626;font-family:Arial;font-size:8px;font-style:normal;font-weight:400;text-anchor:end;" transform="rotate(-0, 116.927273, 30.04174)" x="116.927273" y="30.04174">1.6</text>
     </g>
    </g>
    <g id="ytick_9">
     <g id="line2d_21">
      <g>
       <use style="fill:#262626;stroke:#262626;stroke-width:0.8;" x="128.527273" xlink:href="#m119ffdf0e7" y="17.142923"/>
      </g>
     </g>
     <g id="text_19">
      <text style="fill:#262626;font-family:Arial;font-size:8px;font-style:normal;font-weight:400;text-anchor:end;" transform="rotate(-0, 116.927273, 20.006048)" x="116.927273" y="20.006048">2.4</text>
     </g>
    </g>
    <g id="ytick_10">
     <g id="line2d_22">
      <g>
       <use style="fill:#262626;stroke:#262626;stroke-width:0.8;" x="128.527273" xlink:href="#m119ffdf0e7" y="7.107231"/>
      </g>
     </g>
     <g id="text_20">
      <text style="fill:#262626;font-family:Arial;font-size:8px;font-style:normal;font-weight:400;text-anchor:end;" transform="rotate(-0, 116.927273, 9.970356)" x="116.927273" y="9.970356">3.2</text>
     </g>
    </g>
   </g>
   <g id="line2d_23">
    <path clip-path="url(#p163b46463c)" d="M 136.294215 32.876469 
L 163.963636 30.06772 
L 191.633058 18.466836 
" style="fill:none;stroke:#0000ff;stroke-linecap:round;"/>
    <g clip-path="url(#p163b46463c)">
     <use style="fill:#0000ff;" x="136.294215" xlink:href="#m01ee157e6a" y="32.876469"/>
     <use style="fill:#0000ff;" x="163.963636" xlink:href="#m01ee157e6a" y="30.06772"/>
     <use style="fill:#0000ff;" x="191.633058" xlink:href="#m01ee157e6a" y="18.466836"/>
    </g>
   </g>
   <g id="line2d_24">
    <path clip-path="url(#p163b46463c)" d="M 136.294215 32.076818 
L 163.963636 28.190231 
L 191.633058 22.266761 
" style="fill:none;stroke:#008000;stroke-linecap:round;"/>
    <g clip-path="url(#p163b46463c)">
     <use style="fill:#008000;" x="136.294215" xlink:href="#mf8c9a4c5ba" y="32.076818"/>
     <use style="fill:#008000;" x="163.963636" xlink:href="#mf8c9a4c5ba" y="28.190231"/>
     <use style="fill:#008000;" x="191.633058" xlink:href="#mf8c9a4c5ba" y="22.266761"/>
    </g>
   </g>
   <g id="line2d_25">
    <path clip-path="url(#p163b46463c)" d="M 136.294215 31.285582 
L 163.963636 26.604078 
L 191.633058 15.217834 
" style="fill:none;stroke:#ff0000;stroke-linecap:round;"/>
    <g clip-path="url(#p163b46463c)">
     <use style="fill:#ff0000;" x="136.294215" xlink:href="#m1c11637547" y="31.285582"/>
     <use style="fill:#ff0000;" x="163.963636" xlink:href="#m1c11637547" y="26.604078"/>
     <use style="fill:#ff0000;" x="191.633058" xlink:href="#m1c11637547" y="15.217834"/>
    </g>
   </g>
   <g id="line2d_26">
    <path clip-path="url(#p163b46463c)" d="M 136.294215 33.639639 
L 163.963636 30.49684 
L 191.633058 21.677137 
" style="fill:none;stroke:#00ffff;stroke-linecap:round;"/>
    <g clip-path="url(#p163b46463c)">
     <use style="fill:#00ffff;" x="136.294215" xlink:href="#m88f9722f0c" y="33.639639"/>
     <use style="fill:#00ffff;" x="163.963636" xlink:href="#m88f9722f0c" y="30.49684"/>
     <use style="fill:#00ffff;" x="191.633058" xlink:href="#m88f9722f0c" y="21.677137"/>
    </g>
   </g>
   <g id="line2d_27">
    <path clip-path="url(#p163b46463c)" d="M 136.294215 33.812438 
L 163.963636 29.262375 
L 191.633058 16.754704 
" style="fill:none;stroke:#ff00ff;stroke-linecap:round;"/>
    <g clip-path="url(#p163b46463c)">
     <use style="fill:#ff00ff;" x="136.294215" xlink:href="#m16dfb623e0" y="33.812438"/>
     <use style="fill:#ff00ff;" x="163.963636" xlink:href="#m16dfb623e0" y="29.262375"/>
     <use style="fill:#ff00ff;" x="191.633058" xlink:href="#m16dfb623e0" y="16.754704"/>
    </g>
   </g>
   <g id="line2d_28">
    <path clip-path="url(#p163b46463c)" d="M 136.294215 31.21867 
L 163.963636 28.760201 
L 191.633058 18.430362 
" style="fill:none;stroke:#ffa500;stroke-linecap:round;"/>
    <g clip-path="url(#p163b46463c)">
     <use style="fill:#ffa500;" x="136.294215" xlink:href="#meadde07b2a" y="31.21867"/>
     <use style="fill:#ffa500;" x="163.963636" xlink:href="#meadde07b2a" y="28.760201"/>
     <use style="fill:#ffa500;" x="191.633058" xlink:href="#meadde07b2a" y="18.430362"/>
    </g>
   </g>
   <g id="patch_8">
    <path d="M 128.527273 47.25 
L 128.527273 6.48 
" style="fill:none;stroke:#262626;stroke-linecap:square;stroke-linejoin:miter;stroke-width:1.25;"/>
   </g>
   <g id="patch_9">
    <path d="M 194.4 47.25 
L 194.4 6.48 
" style="fill:none;"/>
   </g>
   <g id="patch_10">
    <path d="M 133.527273 47.25 
L 194.4 47.25 
" style="fill:none;stroke:#262626;stroke-linecap:square;stroke-linejoin:miter;stroke-width:1.25;"/>
   </g>
   <g id="patch_11">
    <path d="M 133.527273 6.48 
L 194.4 6.48 
" style="fill:none;"/>
   </g>
   <g id="text_21">
    <text style="fill:#262626;font-family:Arial;font-size:8px;font-style:normal;font-weight:400;text-anchor:middle;" transform="rotate(-0, 163.963636, 0.48)" x="163.963636" y="0.48">– Leu</text>
   </g>
   <g id="legend_1">
    <g id="line2d_29">
     <path d="M 216.818182 6.51125 
L 217 6.51125 
" style="fill:none;stroke:#0000ff;stroke-linecap:round;"/>
    </g>
    <g id="line2d_30">
     <g>
      <use style="fill:#0000ff;" x="224.818182" xlink:href="#m01ee157e6a" y="6.51125"/>
     </g>
    </g>
    <g id="text_22">
     <text style="fill:#262626;font-family:Arial;font-size:8px;font-style:normal;font-weight:400;text-anchor:start;" transform="rotate(-0, 239.218182, 9.31125)" x="239.218182" y="9.31125">CGC (WT)</text>
    </g>
    <g id="line2d_31">
     <path d="M 216.818182 17.92125 
L 217 17.92125 
" style="fill:none;stroke:#008000;stroke-linecap:round;"/>
    </g>
    <g id="line2d_32">
     <g>
      <use style="fill:#008000;" x="224.818182" xlink:href="#mf8c9a4c5ba" y="17.92125"/>
     </g>
    </g>
    <g id="text_23">
     <text style="fill:#262626;font-family:Arial;font-size:8px;font-style:normal;font-weight:400;text-anchor:start;" transform="rotate(-0, 239.218182, 20.72125)" x="239.218182" y="20.72125">CGG</text>
    </g>
    <g id="line2d_33">
     <path d="M 216.818182 29.2375 
L 217 29.2375 
" style="fill:none;stroke:#ff0000;stroke-linecap:round;"/>
    </g>
    <g id="line2d_34">
     <g>
      <use style="fill:#ff0000;" x="224.818182" xlink:href="#m1c11637547" y="29.2375"/>
     </g>
    </g>
    <g id="text_24">
     <text style="fill:#262626;font-family:Arial;font-size:8px;font-style:normal;font-weight:400;text-anchor:start;" transform="rotate(-0, 239.218182, 32.0375)" x="239.218182" y="32.0375">CGA</text>
    </g>
    <g id="line2d_35">
     <path d="M 216.818182 40.55375 
L 217 40.55375 
" style="fill:none;stroke:#00ffff;stroke-linecap:round;"/>
    </g>
    <g id="line2d_36">
     <g>
      <use style="fill:#00ffff;" x="224.818182" xlink:href="#m88f9722f0c" y="40.55375"/>
     </g>
    </g>
    <g id="text_25">
     <text style="fill:#262626;font-family:Arial;font-size:8px;font-style:normal;font-weight:400;text-anchor:start;" transform="rotate(-0, 239.218182, 43.35375)" x="239.218182" y="43.35375">CGT</text>
    </g>
    <g id="line2d_37">
     <path d="M 216.818182 51.87 
L 217 51.87 
" style="fill:none;stroke:#ff00ff;stroke-linecap:round;"/>
    </g>
    <g id="line2d_38">
     <g>
      <use style="fill:#ff00ff;" x="224.818182" xlink:href="#m16dfb623e0" y="51.87"/>
     </g>
    </g>
    <g id="text_26">
     <text style="fill:#262626;font-family:Arial;font-size:8px;font-style:normal;font-weight:400;text-anchor:start;" transform="rotate(-0, 239.218182, 54.67)" x="239.218182" y="54.67">AGA</text>
    </g>
    <g id="line2d_39">
     <path style="fill:none;stroke:#ffa500;stroke-linecap:round;"/>
    </g>
    <g id="line2d_40">
     <g>
      <use style="fill:#ffa500;" x="224.818182" xlink:href="#meadde07b2a" y="63.18625"/>
     </g>
    </g>
    <g id="text_27">
     <text style="fill:#262626;font-family:Arial;font-size:8px;font-style:normal;font-weight:400;text-anchor:start;" transform="rotate(-0, 239.218182, 65.98625)" x="239.218182" y="65.98625">AGG</text>
    </g>
   </g>
  </g>
 </g>
 <defs>
  <clipPath id="p8e1d9d45d1">
   <rect height="40.77" width="60.872727" x="27" y="6.48"/>
  </clipPath>
  <clipPath id="p163b46463c">
   <rect height="40.77" width="60.872727" x="133.527273" y="6.48"/>
  </clipPath>
 </defs>
</svg>
