<?xml version="1.0" encoding="utf-8" standalone="no"?>
<!DOCTYPE svg PUBLIC "-//W3C//DTD SVG 1.1//EN"
  "http://www.w3.org/Graphics/SVG/1.1/DTD/svg11.dtd">
<!-- Created with matplotlib (http://matplotlib.org/) -->
<svg height="72pt" version="1.1" viewBox="0 0 216 72" width="216pt" xmlns="http://www.w3.org/2000/svg" xmlns:xlink="http://www.w3.org/1999/xlink">
 <defs>
  <style type="text/css">
*{stroke-linecap:butt;stroke-linejoin:round;}
  </style>
 </defs>
 <g id="figure_1">
  <g id="patch_1">
   <path d="M 0 72 
L 216 72 
L 216 0 
L 0 0 
z
" style="fill:#ffffff;"/>
  </g>
  <g id="axes_1">
   <g id="patch_2">
    <path d="M 27 63 
L 87.872727 63 
L 87.872727 8.64 
L 27 8.64 
z
" style="fill:#ffffff;"/>
   </g>
   <g id="matplotlib.axis_1">
    <g id="xtick_1">
     <g id="line2d_1">
      <defs>
       <path d="M 0 0 
L 0 6 
" id="m3bfd0c6b90" style="stroke:#262626;stroke-width:0.8;"/>
      </defs>
      <g>
       <use style="fill:#262626;stroke:#262626;stroke-width:0.8;" x="29.766942" xlink:href="#m3bfd0c6b90" y="63"/>
      </g>
     </g>
     <g id="text_1">
      <text style="fill:#262626;font-family:Arial;font-size:8px;font-style:normal;font-weight:400;text-anchor:middle;" transform="rotate(-0, 29.766942, 80.32625)" x="29.766942" y="80.32625">12</text>
     </g>
    </g>
    <g id="xtick_2">
     <g id="line2d_2">
      <g>
       <use style="fill:#262626;stroke:#262626;stroke-width:0.8;" x="57.436364" xlink:href="#m3bfd0c6b90" y="63"/>
      </g>
     </g>
     <g id="text_2">
      <text style="fill:#262626;font-family:Arial;font-size:8px;font-style:normal;font-weight:400;text-anchor:middle;" transform="rotate(-0, 57.436364, 80.32625)" x="57.436364" y="80.32625">24</text>
     </g>
    </g>
    <g id="xtick_3">
     <g id="line2d_3">
      <g>
       <use style="fill:#262626;stroke:#262626;stroke-width:0.8;" x="85.105785" xlink:href="#m3bfd0c6b90" y="63"/>
      </g>
     </g>
     <g id="text_3">
      <text style="fill:#262626;font-family:Arial;font-size:8px;font-style:normal;font-weight:400;text-anchor:middle;" transform="rotate(-0, 85.105785, 80.32625)" x="85.105785" y="80.32625">48</text>
     </g>
    </g>
    <g id="text_4">
     <text style="fill:#262626;font-family:Arial;font-size:8px;font-style:normal;font-weight:400;text-anchor:middle;" transform="rotate(-0, 57.436364, 91.6425)" x="57.436364" y="91.6425">Hours of Starvation</text>
    </g>
   </g>
   <g id="matplotlib.axis_2">
    <g id="ytick_1">
     <g id="line2d_4">
      <defs>
       <path d="M 0 0 
L -6 0 
" id="m9e25dab574" style="stroke:#262626;stroke-width:0.8;"/>
      </defs>
      <g>
       <use style="fill:#262626;stroke:#262626;stroke-width:0.8;" x="22" xlink:href="#m9e25dab574" y="63"/>
      </g>
     </g>
     <g id="text_5">
      <text style="fill:#262626;font-family:Arial;font-size:8px;font-style:normal;font-weight:400;text-anchor:end;" transform="rotate(-0, 10.4, 65.863125)" x="10.4" y="65.863125">0.0</text>
     </g>
    </g>
    <g id="ytick_2">
     <g id="line2d_5">
      <g>
       <use style="fill:#262626;stroke:#262626;stroke-width:0.8;" x="22" xlink:href="#m9e25dab574" y="49.619077"/>
      </g>
     </g>
     <g id="text_6">
      <text style="fill:#262626;font-family:Arial;font-size:8px;font-style:normal;font-weight:400;text-anchor:end;" transform="rotate(-0, 10.4, 52.482202)" x="10.4" y="52.482202">0.8</text>
     </g>
    </g>
    <g id="ytick_3">
     <g id="line2d_6">
      <g>
       <use style="fill:#262626;stroke:#262626;stroke-width:0.8;" x="22" xlink:href="#m9e25dab574" y="36.238154"/>
      </g>
     </g>
     <g id="text_7">
      <text style="fill:#262626;font-family:Arial;font-size:8px;font-style:normal;font-weight:400;text-anchor:end;" transform="rotate(-0, 10.4, 39.101279)" x="10.4" y="39.101279">1.6</text>
     </g>
    </g>
    <g id="ytick_4">
     <g id="line2d_7">
      <g>
       <use style="fill:#262626;stroke:#262626;stroke-width:0.8;" x="22" xlink:href="#m9e25dab574" y="22.857231"/>
      </g>
     </g>
     <g id="text_8">
      <text style="fill:#262626;font-family:Arial;font-size:8px;font-style:normal;font-weight:400;text-anchor:end;" transform="rotate(-0, 10.4, 25.720356)" x="10.4" y="25.720356">2.4</text>
     </g>
    </g>
    <g id="ytick_5">
     <g id="line2d_8">
      <g>
       <use style="fill:#262626;stroke:#262626;stroke-width:0.8;" x="22" xlink:href="#m9e25dab574" y="9.476308"/>
      </g>
     </g>
     <g id="text_9">
      <text style="fill:#262626;font-family:Arial;font-size:8px;font-style:normal;font-weight:400;text-anchor:end;" transform="rotate(-0, 10.4, 12.339433)" x="10.4" y="12.339433">3.2</text>
     </g>
    </g>
    <g id="text_10">
     <text style="fill:#262626;font-family:Arial;font-size:8px;font-style:normal;font-weight:400;" transform="translate(-14.98225 59.83)rotate(-90)">Fluorescence</text>
     <text style="fill:#262626;font-family:Arial;font-size:8px;font-style:normal;font-weight:400;" transform="translate(-6.40375 66.494375)rotate(-90)">(Relative to Rich)</text>
    </g>
   </g>
   <g id="line2d_9">
    <path clip-path="url(#p1fc5f48248)" d="M 29.766942 48.567529 
L 57.436364 50.807655 
L 85.105785 48.607511 
" style="fill:none;stroke:#cc79a7;stroke-linecap:round;"/>
    <defs>
     <path d="M 0 1 
C 0.265203 1 0.51958 0.894634 0.707107 0.707107 
C 0.894634 0.51958 1 0.265203 1 0 
C 1 -0.265203 0.894634 -0.51958 0.707107 -0.707107 
C 0.51958 -0.894634 0.265203 -1 0 -1 
C -0.265203 -1 -0.51958 -0.894634 -0.707107 -0.707107 
C -0.894634 -0.51958 -1 -0.265203 -1 0 
C -1 0.265203 -0.894634 0.51958 -0.707107 0.707107 
C -0.51958 0.894634 -0.265203 1 0 1 
z
" id="m6b0c96bd49"/>
    </defs>
    <g clip-path="url(#p1fc5f48248)">
     <use style="fill:#cc79a7;" x="29.766942" xlink:href="#m6b0c96bd49" y="48.567529"/>
     <use style="fill:#cc79a7;" x="57.436364" xlink:href="#m6b0c96bd49" y="50.807655"/>
     <use style="fill:#cc79a7;" x="85.105785" xlink:href="#m6b0c96bd49" y="48.607511"/>
    </g>
   </g>
   <g id="line2d_10">
    <path clip-path="url(#p1fc5f48248)" d="M 29.766942 43.265061 
L 57.436364 38.573516 
L 85.105785 23.683387 
" style="fill:none;stroke:#e69f00;stroke-linecap:round;"/>
    <defs>
     <path d="M 0 1 
C 0.265203 1 0.51958 0.894634 0.707107 0.707107 
C 0.894634 0.51958 1 0.265203 1 0 
C 1 -0.265203 0.894634 -0.51958 0.707107 -0.707107 
C 0.51958 -0.894634 0.265203 -1 0 -1 
C -0.265203 -1 -0.51958 -0.894634 -0.707107 -0.707107 
C -0.894634 -0.51958 -1 -0.265203 -1 0 
C -1 0.265203 -0.894634 0.51958 -0.707107 0.707107 
C -0.51958 0.894634 -0.265203 1 0 1 
z
" id="m531ea41335"/>
    </defs>
    <g clip-path="url(#p1fc5f48248)">
     <use style="fill:#e69f00;" x="29.766942" xlink:href="#m531ea41335" y="43.265061"/>
     <use style="fill:#e69f00;" x="57.436364" xlink:href="#m531ea41335" y="38.573516"/>
     <use style="fill:#e69f00;" x="85.105785" xlink:href="#m531ea41335" y="23.683387"/>
    </g>
   </g>
   <g id="line2d_11">
    <path clip-path="url(#p1fc5f48248)" d="M 29.766942 46.265342 
L 57.436364 39.404622 
L 85.105785 20.250506 
" style="fill:none;stroke:#d55e00;stroke-linecap:round;"/>
    <defs>
     <path d="M 0 1 
C 0.265203 1 0.51958 0.894634 0.707107 0.707107 
C 0.894634 0.51958 1 0.265203 1 0 
C 1 -0.265203 0.894634 -0.51958 0.707107 -0.707107 
C 0.51958 -0.894634 0.265203 -1 0 -1 
C -0.265203 -1 -0.51958 -0.894634 -0.707107 -0.707107 
C -0.894634 -0.51958 -1 -0.265203 -1 0 
C -1 0.265203 -0.894634 0.51958 -0.707107 0.707107 
C -0.51958 0.894634 -0.265203 1 0 1 
z
" id="m826970cdf0"/>
    </defs>
    <g clip-path="url(#p1fc5f48248)">
     <use style="fill:#d55e00;" x="29.766942" xlink:href="#m826970cdf0" y="46.265342"/>
     <use style="fill:#d55e00;" x="57.436364" xlink:href="#m826970cdf0" y="39.404622"/>
     <use style="fill:#d55e00;" x="85.105785" xlink:href="#m826970cdf0" y="20.250506"/>
    </g>
   </g>
   <g id="line2d_12">
    <path clip-path="url(#p1fc5f48248)" d="M 29.766942 50.161361 
L 57.436364 49.668454 
L 85.105785 35.600338 
" style="fill:none;stroke:#0072b2;stroke-linecap:round;"/>
    <defs>
     <path d="M 0 1 
C 0.265203 1 0.51958 0.894634 0.707107 0.707107 
C 0.894634 0.51958 1 0.265203 1 0 
C 1 -0.265203 0.894634 -0.51958 0.707107 -0.707107 
C 0.51958 -0.894634 0.265203 -1 0 -1 
C -0.265203 -1 -0.51958 -0.894634 -0.707107 -0.707107 
C -0.894634 -0.51958 -1 -0.265203 -1 0 
C -1 0.265203 -0.894634 0.51958 -0.707107 0.707107 
C -0.51958 0.894634 -0.265203 1 0 1 
z
" id="m91a7a55d64"/>
    </defs>
    <g clip-path="url(#p1fc5f48248)">
     <use style="fill:#0072b2;" x="29.766942" xlink:href="#m91a7a55d64" y="50.161361"/>
     <use style="fill:#0072b2;" x="57.436364" xlink:href="#m91a7a55d64" y="49.668454"/>
     <use style="fill:#0072b2;" x="85.105785" xlink:href="#m91a7a55d64" y="35.600338"/>
    </g>
   </g>
   <g id="line2d_13">
    <path clip-path="url(#p1fc5f48248)" d="M 29.766942 40.977073 
L 57.436364 36.763193 
L 85.105785 13.583598 
" style="fill:none;stroke:#56b4e9;stroke-linecap:round;"/>
    <defs>
     <path d="M 0 1 
C 0.265203 1 0.51958 0.894634 0.707107 0.707107 
C 0.894634 0.51958 1 0.265203 1 0 
C 1 -0.265203 0.894634 -0.51958 0.707107 -0.707107 
C 0.51958 -0.894634 0.265203 -1 0 -1 
C -0.265203 -1 -0.51958 -0.894634 -0.707107 -0.707107 
C -0.894634 -0.51958 -1 -0.265203 -1 0 
C -1 0.265203 -0.894634 0.51958 -0.707107 0.707107 
C -0.51958 0.894634 -0.265203 1 0 1 
z
" id="m37c6a6196e"/>
    </defs>
    <g clip-path="url(#p1fc5f48248)">
     <use style="fill:#56b4e9;" x="29.766942" xlink:href="#m37c6a6196e" y="40.977073"/>
     <use style="fill:#56b4e9;" x="57.436364" xlink:href="#m37c6a6196e" y="36.763193"/>
     <use style="fill:#56b4e9;" x="85.105785" xlink:href="#m37c6a6196e" y="13.583598"/>
    </g>
   </g>
   <g id="line2d_14">
    <path clip-path="url(#p1fc5f48248)" d="M 29.766942 49.183222 
L 57.436364 48.000171 
L 85.105785 36.040377 
" style="fill:none;stroke:#009e73;stroke-linecap:round;"/>
    <defs>
     <path d="M 0 1 
C 0.265203 1 0.51958 0.894634 0.707107 0.707107 
C 0.894634 0.51958 1 0.265203 1 0 
C 1 -0.265203 0.894634 -0.51958 0.707107 -0.707107 
C 0.51958 -0.894634 0.265203 -1 0 -1 
C -0.265203 -1 -0.51958 -0.894634 -0.707107 -0.707107 
C -0.894634 -0.51958 -1 -0.265203 -1 0 
C -1 0.265203 -0.894634 0.51958 -0.707107 0.707107 
C -0.51958 0.894634 -0.265203 1 0 1 
z
" id="m744edd87e0"/>
    </defs>
    <g clip-path="url(#p1fc5f48248)">
     <use style="fill:#009e73;" x="29.766942" xlink:href="#m744edd87e0" y="49.183222"/>
     <use style="fill:#009e73;" x="57.436364" xlink:href="#m744edd87e0" y="48.000171"/>
     <use style="fill:#009e73;" x="85.105785" xlink:href="#m744edd87e0" y="36.040377"/>
    </g>
   </g>
   <g id="patch_3">
    <path d="M 22 63 
L 22 8.64 
" style="fill:none;stroke:#262626;stroke-linecap:square;stroke-linejoin:miter;stroke-width:1.25;"/>
   </g>
   <g id="patch_4">
    <path d="M 87.872727 63 
L 87.872727 8.64 
" style="fill:none;"/>
   </g>
   <g id="patch_5">
    <path d="M 27 63 
L 87.872727 63 
" style="fill:none;stroke:#262626;stroke-linecap:square;stroke-linejoin:miter;stroke-width:1.25;"/>
   </g>
   <g id="patch_6">
    <path d="M 27 8.64 
L 87.872727 8.64 
" style="fill:none;"/>
   </g>
   <g id="text_11">
    <text style="fill:#262626;font-family:Arial;font-size:8px;font-style:normal;font-weight:400;text-anchor:middle;" transform="rotate(-0, 57.436364, 2.64)" x="57.436364" y="2.64">– Arg</text>
   </g>
  </g>
  <g id="axes_2">
   <g id="patch_7">
    <path d="M 133.527273 63 
L 194.4 63 
L 194.4 8.64 
L 133.527273 8.64 
z
" style="fill:#ffffff;"/>
   </g>
   <g id="matplotlib.axis_3">
    <g id="xtick_4">
     <g id="line2d_15">
      <g>
       <use style="fill:#262626;stroke:#262626;stroke-width:0.8;" x="136.294215" xlink:href="#m3bfd0c6b90" y="63"/>
      </g>
     </g>
     <g id="text_12">
      <text style="fill:#262626;font-family:Arial;font-size:8px;font-style:normal;font-weight:400;text-anchor:middle;" transform="rotate(-0, 136.294215, 80.32625)" x="136.294215" y="80.32625">12</text>
     </g>
    </g>
    <g id="xtick_5">
     <g id="line2d_16">
      <g>
       <use style="fill:#262626;stroke:#262626;stroke-width:0.8;" x="163.963636" xlink:href="#m3bfd0c6b90" y="63"/>
      </g>
     </g>
     <g id="text_13">
      <text style="fill:#262626;font-family:Arial;font-size:8px;font-style:normal;font-weight:400;text-anchor:middle;" transform="rotate(-0, 163.963636, 80.32625)" x="163.963636" y="80.32625">24</text>
     </g>
    </g>
    <g id="xtick_6">
     <g id="line2d_17">
      <g>
       <use style="fill:#262626;stroke:#262626;stroke-width:0.8;" x="191.633058" xlink:href="#m3bfd0c6b90" y="63"/>
      </g>
     </g>
     <g id="text_14">
      <text style="fill:#262626;font-family:Arial;font-size:8px;font-style:normal;font-weight:400;text-anchor:middle;" transform="rotate(-0, 191.633058, 80.32625)" x="191.633058" y="80.32625">48</text>
     </g>
    </g>
    <g id="text_15">
     <text style="fill:#262626;font-family:Arial;font-size:8px;font-style:normal;font-weight:400;text-anchor:middle;" transform="rotate(-0, 163.963636, 91.6425)" x="163.963636" y="91.6425">Hours of Starvation</text>
    </g>
   </g>
   <g id="matplotlib.axis_4">
    <g id="ytick_6">
     <g id="line2d_18">
      <g>
       <use style="fill:#262626;stroke:#262626;stroke-width:0.8;" x="128.527273" xlink:href="#m9e25dab574" y="63"/>
      </g>
     </g>
     <g id="text_16">
      <text style="fill:#262626;font-family:Arial;font-size:8px;font-style:normal;font-weight:400;text-anchor:end;" transform="rotate(-0, 116.927273, 65.863125)" x="116.927273" y="65.863125">0.0</text>
     </g>
    </g>
    <g id="ytick_7">
     <g id="line2d_19">
      <g>
       <use style="fill:#262626;stroke:#262626;stroke-width:0.8;" x="128.527273" xlink:href="#m9e25dab574" y="49.619077"/>
      </g>
     </g>
     <g id="text_17">
      <text style="fill:#262626;font-family:Arial;font-size:8px;font-style:normal;font-weight:400;text-anchor:end;" transform="rotate(-0, 116.927273, 52.482202)" x="116.927273" y="52.482202">0.8</text>
     </g>
    </g>
    <g id="ytick_8">
     <g id="line2d_20">
      <g>
       <use style="fill:#262626;stroke:#262626;stroke-width:0.8;" x="128.527273" xlink:href="#m9e25dab574" y="36.238154"/>
      </g>
     </g>
     <g id="text_18">
      <text style="fill:#262626;font-family:Arial;font-size:8px;font-style:normal;font-weight:400;text-anchor:end;" transform="rotate(-0, 116.927273, 39.101279)" x="116.927273" y="39.101279">1.6</text>
     </g>
    </g>
    <g id="ytick_9">
     <g id="line2d_21">
      <g>
       <use style="fill:#262626;stroke:#262626;stroke-width:0.8;" x="128.527273" xlink:href="#m9e25dab574" y="22.857231"/>
      </g>
     </g>
     <g id="text_19">
      <text style="fill:#262626;font-family:Arial;font-size:8px;font-style:normal;font-weight:400;text-anchor:end;" transform="rotate(-0, 116.927273, 25.720356)" x="116.927273" y="25.720356">2.4</text>
     </g>
    </g>
    <g id="ytick_10">
     <g id="line2d_22">
      <g>
       <use style="fill:#262626;stroke:#262626;stroke-width:0.8;" x="128.527273" xlink:href="#m9e25dab574" y="9.476308"/>
      </g>
     </g>
     <g id="text_20">
      <text style="fill:#262626;font-family:Arial;font-size:8px;font-style:normal;font-weight:400;text-anchor:end;" transform="rotate(-0, 116.927273, 12.339433)" x="116.927273" y="12.339433">3.2</text>
     </g>
    </g>
   </g>
   <g id="line2d_23">
    <path clip-path="url(#pc86a85fe92)" d="M 136.294215 45.083251 
L 163.963636 39.0165 
L 191.633058 22.339606 
" style="fill:none;stroke:#cc79a7;stroke-linecap:round;"/>
    <g clip-path="url(#pc86a85fe92)">
     <use style="fill:#cc79a7;" x="136.294215" xlink:href="#m6b0c96bd49" y="45.083251"/>
     <use style="fill:#cc79a7;" x="163.963636" xlink:href="#m6b0c96bd49" y="39.0165"/>
     <use style="fill:#cc79a7;" x="191.633058" xlink:href="#m6b0c96bd49" y="22.339606"/>
    </g>
   </g>
   <g id="line2d_24">
    <path clip-path="url(#pc86a85fe92)" d="M 136.294215 41.624893 
L 163.963636 38.346935 
L 191.633058 24.573817 
" style="fill:none;stroke:#e69f00;stroke-linecap:round;"/>
    <g clip-path="url(#pc86a85fe92)">
     <use style="fill:#e69f00;" x="136.294215" xlink:href="#m531ea41335" y="41.624893"/>
     <use style="fill:#e69f00;" x="163.963636" xlink:href="#m531ea41335" y="38.346935"/>
     <use style="fill:#e69f00;" x="191.633058" xlink:href="#m531ea41335" y="24.573817"/>
    </g>
   </g>
   <g id="line2d_25">
    <path clip-path="url(#pc86a85fe92)" d="M 136.294215 41.714109 
L 163.963636 35.472104 
L 191.633058 20.290446 
" style="fill:none;stroke:#d55e00;stroke-linecap:round;"/>
    <g clip-path="url(#pc86a85fe92)">
     <use style="fill:#d55e00;" x="136.294215" xlink:href="#m826970cdf0" y="41.714109"/>
     <use style="fill:#d55e00;" x="163.963636" xlink:href="#m826970cdf0" y="35.472104"/>
     <use style="fill:#d55e00;" x="191.633058" xlink:href="#m826970cdf0" y="20.290446"/>
    </g>
   </g>
   <g id="line2d_26">
    <path clip-path="url(#pc86a85fe92)" d="M 136.294215 43.835291 
L 163.963636 40.090293 
L 191.633058 24.622448 
" style="fill:none;stroke:#0072b2;stroke-linecap:round;"/>
    <g clip-path="url(#pc86a85fe92)">
     <use style="fill:#0072b2;" x="136.294215" xlink:href="#m91a7a55d64" y="43.835291"/>
     <use style="fill:#0072b2;" x="163.963636" xlink:href="#m91a7a55d64" y="40.090293"/>
     <use style="fill:#0072b2;" x="191.633058" xlink:href="#m91a7a55d64" y="24.622448"/>
    </g>
   </g>
   <g id="line2d_27">
    <path clip-path="url(#pc86a85fe92)" d="M 136.294215 42.769091 
L 163.963636 37.586975 
L 191.633058 29.689015 
" style="fill:none;stroke:#56b4e9;stroke-linecap:round;"/>
    <g clip-path="url(#pc86a85fe92)">
     <use style="fill:#56b4e9;" x="136.294215" xlink:href="#m37c6a6196e" y="42.769091"/>
     <use style="fill:#56b4e9;" x="163.963636" xlink:href="#m37c6a6196e" y="37.586975"/>
     <use style="fill:#56b4e9;" x="191.633058" xlink:href="#m37c6a6196e" y="29.689015"/>
    </g>
   </g>
   <g id="line2d_28">
    <path clip-path="url(#pc86a85fe92)" d="M 136.294215 44.852852 
L 163.963636 40.662453 
L 191.633058 28.902849 
" style="fill:none;stroke:#009e73;stroke-linecap:round;"/>
    <g clip-path="url(#pc86a85fe92)">
     <use style="fill:#009e73;" x="136.294215" xlink:href="#m744edd87e0" y="44.852852"/>
     <use style="fill:#009e73;" x="163.963636" xlink:href="#m744edd87e0" y="40.662453"/>
     <use style="fill:#009e73;" x="191.633058" xlink:href="#m744edd87e0" y="28.902849"/>
    </g>
   </g>
   <g id="patch_8">
    <path d="M 128.527273 63 
L 128.527273 8.64 
" style="fill:none;stroke:#262626;stroke-linecap:square;stroke-linejoin:miter;stroke-width:1.25;"/>
   </g>
   <g id="patch_9">
    <path d="M 194.4 63 
L 194.4 8.64 
" style="fill:none;"/>
   </g>
   <g id="patch_10">
    <path d="M 133.527273 63 
L 194.4 63 
" style="fill:none;stroke:#262626;stroke-linecap:square;stroke-linejoin:miter;stroke-width:1.25;"/>
   </g>
   <g id="patch_11">
    <path d="M 133.527273 8.64 
L 194.4 8.64 
" style="fill:none;"/>
   </g>
   <g id="text_21">
    <text style="fill:#262626;font-family:Arial;font-size:8px;font-style:normal;font-weight:400;text-anchor:middle;" transform="rotate(-0, 163.963636, 2.64)" x="163.963636" y="2.64">– Leu</text>
   </g>
   <g id="legend_1">
    <g id="line2d_29">
     <path d="M 216.818182 5.17625 
L 217 5.17625 
" style="fill:none;stroke:#cc79a7;stroke-linecap:round;"/>
    </g>
    <g id="line2d_30">
     <g>
      <use style="fill:#cc79a7;" x="224.818182" xlink:href="#m6b0c96bd49" y="5.17625"/>
     </g>
    </g>
    <g id="text_22">
     <text style="fill:#262626;font-family:Arial;font-size:8px;font-style:normal;font-weight:400;text-anchor:start;" transform="rotate(-0, 239.218182, 7.97625)" x="239.218182" y="7.97625">AGA</text>
    </g>
    <g id="line2d_31">
     <path d="M 216.818182 16.4925 
L 217 16.4925 
" style="fill:none;stroke:#e69f00;stroke-linecap:round;"/>
    </g>
    <g id="line2d_32">
     <g>
      <use style="fill:#e69f00;" x="224.818182" xlink:href="#m531ea41335" y="16.4925"/>
     </g>
    </g>
    <g id="text_23">
     <text style="fill:#262626;font-family:Arial;font-size:8px;font-style:normal;font-weight:400;text-anchor:start;" transform="rotate(-0, 239.218182, 19.2925)" x="239.218182" y="19.2925">AGG</text>
    </g>
    <g id="line2d_33">
     <path d="M 216.818182 27.80875 
L 217 27.80875 
" style="fill:none;stroke:#d55e00;stroke-linecap:round;"/>
    </g>
    <g id="line2d_34">
     <g>
      <use style="fill:#d55e00;" x="224.818182" xlink:href="#m826970cdf0" y="27.80875"/>
     </g>
    </g>
    <g id="text_24">
     <text style="fill:#262626;font-family:Arial;font-size:8px;font-style:normal;font-weight:400;text-anchor:start;" transform="rotate(-0, 239.218182, 30.60875)" x="239.218182" y="30.60875">CGA</text>
    </g>
    <g id="line2d_35">
     <path d="M 216.818182 39.2225 
L 217 39.2225 
" style="fill:none;stroke:#0072b2;stroke-linecap:round;"/>
    </g>
    <g id="line2d_36">
     <g>
      <use style="fill:#0072b2;" x="224.818182" xlink:href="#m91a7a55d64" y="39.2225"/>
     </g>
    </g>
    <g id="text_25">
     <text style="fill:#262626;font-family:Arial;font-size:8px;font-style:normal;font-weight:400;text-anchor:start;" transform="rotate(-0, 239.218182, 42.0225)" x="239.218182" y="42.0225">CGC (WT)</text>
    </g>
    <g id="line2d_37">
     <path d="M 216.818182 50.6325 
L 217 50.6325 
" style="fill:none;stroke:#56b4e9;stroke-linecap:round;"/>
    </g>
    <g id="line2d_38">
     <g>
      <use style="fill:#56b4e9;" x="224.818182" xlink:href="#m37c6a6196e" y="50.6325"/>
     </g>
    </g>
    <g id="text_26">
     <text style="fill:#262626;font-family:Arial;font-size:8px;font-style:normal;font-weight:400;text-anchor:start;" transform="rotate(-0, 239.218182, 53.4325)" x="239.218182" y="53.4325">CGG</text>
    </g>
    <g id="line2d_39">
     <path d="M 216.818182 61.94875 
L 217 61.94875 
" style="fill:none;stroke:#009e73;stroke-linecap:round;"/>
    </g>
    <g id="line2d_40">
     <g>
      <use style="fill:#009e73;" x="224.818182" xlink:href="#m744edd87e0" y="61.94875"/>
     </g>
    </g>
    <g id="text_27">
     <text style="fill:#262626;font-family:Arial;font-size:8px;font-style:normal;font-weight:400;text-anchor:start;" transform="rotate(-0, 239.218182, 64.74875)" x="239.218182" y="64.74875">CGT</text>
    </g>
   </g>
  </g>
 </g>
 <defs>
  <clipPath id="p1fc5f48248">
   <rect height="54.36" width="60.872727" x="27" y="8.64"/>
  </clipPath>
  <clipPath id="pc86a85fe92">
   <rect height="54.36" width="60.872727" x="133.527273" y="8.64"/>
  </clipPath>
 </defs>
</svg>
