<?xml version="1.0" encoding="utf-8" standalone="no"?>
<!DOCTYPE svg PUBLIC "-//W3C//DTD SVG 1.1//EN"
  "http://www.w3.org/Graphics/SVG/1.1/DTD/svg11.dtd">
<!-- Created with matplotlib (http://matplotlib.org/) -->
<svg height="72pt" version="1.1" viewBox="0 0 432 72" width="432pt" xmlns="http://www.w3.org/2000/svg" xmlns:xlink="http://www.w3.org/1999/xlink">
 <defs>
  <style type="text/css">
*{stroke-linecap:butt;stroke-linejoin:round;}
  </style>
 </defs>
 <g id="figure_1">
  <g id="patch_1">
   <path d="M 0 72 
L 432 72 
L 432 0 
L 0 0 
z
" style="fill:#ffffff;"/>
  </g>
  <g id="axes_1">
   <g id="patch_2">
    <path d="M 54 63 
L 128.4 63 
L 128.4 8.64 
L 54 8.64 
z
" style="fill:#ffffff;"/>
   </g>
   <g id="matplotlib.axis_1">
    <g id="xtick_1">
     <g id="line2d_1">
      <defs>
       <path d="M 0 0 
L 0 6 
" id="mfd277c6094" style="stroke:#262626;stroke-width:0.8;"/>
      </defs>
      <g>
       <use style="fill:#262626;stroke:#262626;stroke-width:0.8;" x="57.381818" xlink:href="#mfd277c6094" y="63"/>
      </g>
     </g>
     <g id="text_1">
      <text style="fill:#262626;font-family:Arial;font-size:8px;font-style:normal;font-weight:400;text-anchor:middle;" transform="rotate(-0, 57.381818, 80.32625)" x="57.381818" y="80.32625">12</text>
     </g>
    </g>
    <g id="xtick_2">
     <g id="line2d_2">
      <g>
       <use style="fill:#262626;stroke:#262626;stroke-width:0.8;" x="91.2" xlink:href="#mfd277c6094" y="63"/>
      </g>
     </g>
     <g id="text_2">
      <text style="fill:#262626;font-family:Arial;font-size:8px;font-style:normal;font-weight:400;text-anchor:middle;" transform="rotate(-0, 91.2, 80.32625)" x="91.2" y="80.32625">24</text>
     </g>
    </g>
    <g id="xtick_3">
     <g id="line2d_3">
      <g>
       <use style="fill:#262626;stroke:#262626;stroke-width:0.8;" x="125.018182" xlink:href="#mfd277c6094" y="63"/>
      </g>
     </g>
     <g id="text_3">
      <text style="fill:#262626;font-family:Arial;font-size:8px;font-style:normal;font-weight:400;text-anchor:middle;" transform="rotate(-0, 125.018182, 80.32625)" x="125.018182" y="80.32625">48</text>
     </g>
    </g>
    <g id="text_4">
     <text style="fill:#262626;font-family:Arial;font-size:8px;font-style:normal;font-weight:400;text-anchor:middle;" transform="rotate(-0, 91.2, 91.6425)" x="91.2" y="91.6425">Hours of Starvation</text>
    </g>
   </g>
   <g id="matplotlib.axis_2">
    <g id="ytick_1">
     <g id="line2d_4">
      <defs>
       <path d="M 0 0 
L -6 0 
" id="m21aae5b97a" style="stroke:#262626;stroke-width:0.8;"/>
      </defs>
      <g>
       <use style="fill:#262626;stroke:#262626;stroke-width:0.8;" x="49" xlink:href="#m21aae5b97a" y="63"/>
      </g>
     </g>
     <g id="text_5">
      <text style="fill:#262626;font-family:Arial;font-size:8px;font-style:normal;font-weight:400;text-anchor:end;" transform="rotate(-0, 37.4, 65.863125)" x="37.4" y="65.863125">0</text>
     </g>
    </g>
    <g id="ytick_2">
     <g id="line2d_5">
      <g>
       <use style="fill:#262626;stroke:#262626;stroke-width:0.8;" x="49" xlink:href="#m21aae5b97a" y="52.128"/>
      </g>
     </g>
     <g id="text_6">
      <text style="fill:#262626;font-family:Arial;font-size:8px;font-style:normal;font-weight:400;text-anchor:end;" transform="rotate(-0, 37.4, 54.991125)" x="37.4" y="54.991125">3000</text>
     </g>
    </g>
    <g id="ytick_3">
     <g id="line2d_6">
      <g>
       <use style="fill:#262626;stroke:#262626;stroke-width:0.8;" x="49" xlink:href="#m21aae5b97a" y="41.256"/>
      </g>
     </g>
     <g id="text_7">
      <text style="fill:#262626;font-family:Arial;font-size:8px;font-style:normal;font-weight:400;text-anchor:end;" transform="rotate(-0, 37.4, 44.119125)" x="37.4" y="44.119125">6000</text>
     </g>
    </g>
    <g id="ytick_4">
     <g id="line2d_7">
      <g>
       <use style="fill:#262626;stroke:#262626;stroke-width:0.8;" x="49" xlink:href="#m21aae5b97a" y="30.384"/>
      </g>
     </g>
     <g id="text_8">
      <text style="fill:#262626;font-family:Arial;font-size:8px;font-style:normal;font-weight:400;text-anchor:end;" transform="rotate(-0, 37.4, 33.247125)" x="37.4" y="33.247125">9000</text>
     </g>
    </g>
    <g id="ytick_5">
     <g id="line2d_8">
      <g>
       <use style="fill:#262626;stroke:#262626;stroke-width:0.8;" x="49" xlink:href="#m21aae5b97a" y="19.512"/>
      </g>
     </g>
     <g id="text_9">
      <text style="fill:#262626;font-family:Arial;font-size:8px;font-style:normal;font-weight:400;text-anchor:end;" transform="rotate(-0, 37.4, 22.375125)" x="37.4" y="22.375125">12000</text>
     </g>
    </g>
    <g id="ytick_6">
     <g id="line2d_9">
      <g>
       <use style="fill:#262626;stroke:#262626;stroke-width:0.8;" x="49" xlink:href="#m21aae5b97a" y="8.64"/>
      </g>
     </g>
     <g id="text_10">
      <text style="fill:#262626;font-family:Arial;font-size:8px;font-style:normal;font-weight:400;text-anchor:end;" transform="rotate(-0, 37.4, 11.503125)" x="37.4" y="11.503125">15000</text>
     </g>
    </g>
    <g id="text_11">
     <text style="fill:#262626;font-family:Arial;font-size:8px;font-style:normal;font-weight:400;text-anchor:middle;" transform="rotate(-90, 9.4725, 35.82)" x="9.4725" y="35.82">Fluorescence (a.u.)</text>
    </g>
   </g>
   <g id="line2d_10">
    <path clip-path="url(#pa30d7b8e09)" d="M 57.381818 50.805893 
L 91.2 44.194084 
L 125.018182 43.820491 
" style="fill:none;stroke:#0000ff;stroke-linecap:round;"/>
    <defs>
     <path d="M 0 1 
C 0.265203 1 0.51958 0.894634 0.707107 0.707107 
C 0.894634 0.51958 1 0.265203 1 0 
C 1 -0.265203 0.894634 -0.51958 0.707107 -0.707107 
C 0.51958 -0.894634 0.265203 -1 0 -1 
C -0.265203 -1 -0.51958 -0.894634 -0.707107 -0.707107 
C -0.894634 -0.51958 -1 -0.265203 -1 0 
C -1 0.265203 -0.894634 0.51958 -0.707107 0.707107 
C -0.51958 0.894634 -0.265203 1 0 1 
z
" id="me1cb8caa1f"/>
    </defs>
    <g clip-path="url(#pa30d7b8e09)">
     <use style="fill:#0000ff;" x="57.381818" xlink:href="#me1cb8caa1f" y="50.805893"/>
     <use style="fill:#0000ff;" x="91.2" xlink:href="#me1cb8caa1f" y="44.194084"/>
     <use style="fill:#0000ff;" x="125.018182" xlink:href="#me1cb8caa1f" y="43.820491"/>
    </g>
   </g>
   <g id="line2d_11">
    <path clip-path="url(#pa30d7b8e09)" d="M 57.381818 55.463974 
L 91.2 52.052869 
L 125.018182 50.347989 
" style="fill:none;stroke:#008000;stroke-linecap:round;"/>
    <defs>
     <path d="M 0 1 
C 0.265203 1 0.51958 0.894634 0.707107 0.707107 
C 0.894634 0.51958 1 0.265203 1 0 
C 1 -0.265203 0.894634 -0.51958 0.707107 -0.707107 
C 0.51958 -0.894634 0.265203 -1 0 -1 
C -0.265203 -1 -0.51958 -0.894634 -0.707107 -0.707107 
C -0.894634 -0.51958 -1 -0.265203 -1 0 
C -1 0.265203 -0.894634 0.51958 -0.707107 0.707107 
C -0.51958 0.894634 -0.265203 1 0 1 
z
" id="mcaaf382aef"/>
    </defs>
    <g clip-path="url(#pa30d7b8e09)">
     <use style="fill:#008000;" x="57.381818" xlink:href="#mcaaf382aef" y="55.463974"/>
     <use style="fill:#008000;" x="91.2" xlink:href="#mcaaf382aef" y="52.052869"/>
     <use style="fill:#008000;" x="125.018182" xlink:href="#mcaaf382aef" y="50.347989"/>
    </g>
   </g>
   <g id="line2d_12">
    <path clip-path="url(#pa30d7b8e09)" d="M 57.381818 55.724245 
L 91.2 53.211549 
L 125.018182 49.770781 
" style="fill:none;stroke:#ff0000;stroke-linecap:round;"/>
    <defs>
     <path d="M 0 1 
C 0.265203 1 0.51958 0.894634 0.707107 0.707107 
C 0.894634 0.51958 1 0.265203 1 0 
C 1 -0.265203 0.894634 -0.51958 0.707107 -0.707107 
C 0.51958 -0.894634 0.265203 -1 0 -1 
C -0.265203 -1 -0.51958 -0.894634 -0.707107 -0.707107 
C -0.894634 -0.51958 -1 -0.265203 -1 0 
C -1 0.265203 -0.894634 0.51958 -0.707107 0.707107 
C -0.51958 0.894634 -0.265203 1 0 1 
z
" id="ma56595c0ba"/>
    </defs>
    <g clip-path="url(#pa30d7b8e09)">
     <use style="fill:#ff0000;" x="57.381818" xlink:href="#ma56595c0ba" y="55.724245"/>
     <use style="fill:#ff0000;" x="91.2" xlink:href="#ma56595c0ba" y="53.211549"/>
     <use style="fill:#ff0000;" x="125.018182" xlink:href="#ma56595c0ba" y="49.770781"/>
    </g>
   </g>
   <g id="line2d_13">
    <path clip-path="url(#pa30d7b8e09)" d="M 57.381818 54.202999 
L 91.2 51.41419 
L 125.018182 48.305944 
" style="fill:none;stroke:#00ffff;stroke-linecap:round;"/>
    <defs>
     <path d="M 0 1 
C 0.265203 1 0.51958 0.894634 0.707107 0.707107 
C 0.894634 0.51958 1 0.265203 1 0 
C 1 -0.265203 0.894634 -0.51958 0.707107 -0.707107 
C 0.51958 -0.894634 0.265203 -1 0 -1 
C -0.265203 -1 -0.51958 -0.894634 -0.707107 -0.707107 
C -0.894634 -0.51958 -1 -0.265203 -1 0 
C -1 0.265203 -0.894634 0.51958 -0.707107 0.707107 
C -0.51958 0.894634 -0.265203 1 0 1 
z
" id="mb1183e11ba"/>
    </defs>
    <g clip-path="url(#pa30d7b8e09)">
     <use style="fill:#00ffff;" x="57.381818" xlink:href="#mb1183e11ba" y="54.202999"/>
     <use style="fill:#00ffff;" x="91.2" xlink:href="#mb1183e11ba" y="51.41419"/>
     <use style="fill:#00ffff;" x="125.018182" xlink:href="#mb1183e11ba" y="48.305944"/>
    </g>
   </g>
   <g id="line2d_14">
    <path clip-path="url(#pa30d7b8e09)" d="M 57.381818 57.408444 
L 91.2 55.135697 
L 125.018182 54.924891 
" style="fill:none;stroke:#ff00ff;stroke-linecap:round;"/>
    <defs>
     <path d="M 0 1 
C 0.265203 1 0.51958 0.894634 0.707107 0.707107 
C 0.894634 0.51958 1 0.265203 1 0 
C 1 -0.265203 0.894634 -0.51958 0.707107 -0.707107 
C 0.51958 -0.894634 0.265203 -1 0 -1 
C -0.265203 -1 -0.51958 -0.894634 -0.707107 -0.707107 
C -0.894634 -0.51958 -1 -0.265203 -1 0 
C -1 0.265203 -0.894634 0.51958 -0.707107 0.707107 
C -0.51958 0.894634 -0.265203 1 0 1 
z
" id="m7235599ea5"/>
    </defs>
    <g clip-path="url(#pa30d7b8e09)">
     <use style="fill:#ff00ff;" x="57.381818" xlink:href="#m7235599ea5" y="57.408444"/>
     <use style="fill:#ff00ff;" x="91.2" xlink:href="#m7235599ea5" y="55.135697"/>
     <use style="fill:#ff00ff;" x="125.018182" xlink:href="#m7235599ea5" y="54.924891"/>
    </g>
   </g>
   <g id="line2d_15">
    <path clip-path="url(#pa30d7b8e09)" d="M 57.381818 57.098844 
L 91.2 55.231137 
L 125.018182 54.708531 
" style="fill:none;stroke:#ffa500;stroke-linecap:round;"/>
    <defs>
     <path d="M 0 1 
C 0.265203 1 0.51958 0.894634 0.707107 0.707107 
C 0.894634 0.51958 1 0.265203 1 0 
C 1 -0.265203 0.894634 -0.51958 0.707107 -0.707107 
C 0.51958 -0.894634 0.265203 -1 0 -1 
C -0.265203 -1 -0.51958 -0.894634 -0.707107 -0.707107 
C -0.894634 -0.51958 -1 -0.265203 -1 0 
C -1 0.265203 -0.894634 0.51958 -0.707107 0.707107 
C -0.51958 0.894634 -0.265203 1 0 1 
z
" id="m9593eb4f9b"/>
    </defs>
    <g clip-path="url(#pa30d7b8e09)">
     <use style="fill:#ffa500;" x="57.381818" xlink:href="#m9593eb4f9b" y="57.098844"/>
     <use style="fill:#ffa500;" x="91.2" xlink:href="#m9593eb4f9b" y="55.231137"/>
     <use style="fill:#ffa500;" x="125.018182" xlink:href="#m9593eb4f9b" y="54.708531"/>
    </g>
   </g>
   <g id="patch_3">
    <path d="M 49 63 
L 49 8.64 
" style="fill:none;stroke:#262626;stroke-linecap:square;stroke-linejoin:miter;stroke-width:1.25;"/>
   </g>
   <g id="patch_4">
    <path d="M 128.4 63 
L 128.4 8.64 
" style="fill:none;"/>
   </g>
   <g id="patch_5">
    <path d="M 54 63 
L 128.4 63 
" style="fill:none;stroke:#262626;stroke-linecap:square;stroke-linejoin:miter;stroke-width:1.25;"/>
   </g>
   <g id="patch_6">
    <path d="M 54 8.64 
L 128.4 8.64 
" style="fill:none;"/>
   </g>
   <g id="text_12">
    <text style="fill:#262626;font-family:Arial;font-size:8px;font-style:normal;font-weight:400;text-anchor:middle;" transform="rotate(-0, 91.2, 2.64)" x="91.2" y="2.64">Rich</text>
   </g>
  </g>
  <g id="axes_2">
   <g id="patch_7">
    <path d="M 184.2 63 
L 258.6 63 
L 258.6 8.64 
L 184.2 8.64 
z
" style="fill:#ffffff;"/>
   </g>
   <g id="matplotlib.axis_3">
    <g id="xtick_4">
     <g id="line2d_16">
      <g>
       <use style="fill:#262626;stroke:#262626;stroke-width:0.8;" x="187.581818" xlink:href="#mfd277c6094" y="63"/>
      </g>
     </g>
     <g id="text_13">
      <text style="fill:#262626;font-family:Arial;font-size:8px;font-style:normal;font-weight:400;text-anchor:middle;" transform="rotate(-0, 187.581818, 80.32625)" x="187.581818" y="80.32625">12</text>
     </g>
    </g>
    <g id="xtick_5">
     <g id="line2d_17">
      <g>
       <use style="fill:#262626;stroke:#262626;stroke-width:0.8;" x="221.4" xlink:href="#mfd277c6094" y="63"/>
      </g>
     </g>
     <g id="text_14">
      <text style="fill:#262626;font-family:Arial;font-size:8px;font-style:normal;font-weight:400;text-anchor:middle;" transform="rotate(-0, 221.4, 80.32625)" x="221.4" y="80.32625">24</text>
     </g>
    </g>
    <g id="xtick_6">
     <g id="line2d_18">
      <g>
       <use style="fill:#262626;stroke:#262626;stroke-width:0.8;" x="255.218182" xlink:href="#mfd277c6094" y="63"/>
      </g>
     </g>
     <g id="text_15">
      <text style="fill:#262626;font-family:Arial;font-size:8px;font-style:normal;font-weight:400;text-anchor:middle;" transform="rotate(-0, 255.218182, 80.32625)" x="255.218182" y="80.32625">48</text>
     </g>
    </g>
    <g id="text_16">
     <text style="fill:#262626;font-family:Arial;font-size:8px;font-style:normal;font-weight:400;text-anchor:middle;" transform="rotate(-0, 221.4, 91.6425)" x="221.4" y="91.6425">Hours of Starvation</text>
    </g>
   </g>
   <g id="matplotlib.axis_4">
    <g id="ytick_7">
     <g id="line2d_19">
      <g>
       <use style="fill:#262626;stroke:#262626;stroke-width:0.8;" x="179.2" xlink:href="#m21aae5b97a" y="63"/>
      </g>
     </g>
     <g id="text_17">
      <text style="fill:#262626;font-family:Arial;font-size:8px;font-style:normal;font-weight:400;text-anchor:end;" transform="rotate(-0, 167.6, 65.863125)" x="167.6" y="65.863125">0</text>
     </g>
    </g>
    <g id="ytick_8">
     <g id="line2d_20">
      <g>
       <use style="fill:#262626;stroke:#262626;stroke-width:0.8;" x="179.2" xlink:href="#m21aae5b97a" y="52.128"/>
      </g>
     </g>
     <g id="text_18">
      <text style="fill:#262626;font-family:Arial;font-size:8px;font-style:normal;font-weight:400;text-anchor:end;" transform="rotate(-0, 167.6, 54.991125)" x="167.6" y="54.991125">3000</text>
     </g>
    </g>
    <g id="ytick_9">
     <g id="line2d_21">
      <g>
       <use style="fill:#262626;stroke:#262626;stroke-width:0.8;" x="179.2" xlink:href="#m21aae5b97a" y="41.256"/>
      </g>
     </g>
     <g id="text_19">
      <text style="fill:#262626;font-family:Arial;font-size:8px;font-style:normal;font-weight:400;text-anchor:end;" transform="rotate(-0, 167.6, 44.119125)" x="167.6" y="44.119125">6000</text>
     </g>
    </g>
    <g id="ytick_10">
     <g id="line2d_22">
      <g>
       <use style="fill:#262626;stroke:#262626;stroke-width:0.8;" x="179.2" xlink:href="#m21aae5b97a" y="30.384"/>
      </g>
     </g>
     <g id="text_20">
      <text style="fill:#262626;font-family:Arial;font-size:8px;font-style:normal;font-weight:400;text-anchor:end;" transform="rotate(-0, 167.6, 33.247125)" x="167.6" y="33.247125">9000</text>
     </g>
    </g>
    <g id="ytick_11">
     <g id="line2d_23">
      <g>
       <use style="fill:#262626;stroke:#262626;stroke-width:0.8;" x="179.2" xlink:href="#m21aae5b97a" y="19.512"/>
      </g>
     </g>
     <g id="text_21">
      <text style="fill:#262626;font-family:Arial;font-size:8px;font-style:normal;font-weight:400;text-anchor:end;" transform="rotate(-0, 167.6, 22.375125)" x="167.6" y="22.375125">12000</text>
     </g>
    </g>
    <g id="ytick_12">
     <g id="line2d_24">
      <g>
       <use style="fill:#262626;stroke:#262626;stroke-width:0.8;" x="179.2" xlink:href="#m21aae5b97a" y="8.64"/>
      </g>
     </g>
     <g id="text_22">
      <text style="fill:#262626;font-family:Arial;font-size:8px;font-style:normal;font-weight:400;text-anchor:end;" transform="rotate(-0, 167.6, 11.503125)" x="167.6" y="11.503125">15000</text>
     </g>
    </g>
    <g id="text_23">
     <text style="fill:#262626;font-family:Arial;font-size:8px;font-style:normal;font-weight:400;text-anchor:middle;" transform="rotate(-90, 139.6725, 35.82)" x="139.6725" y="35.82">Fluorescence (a.u.)</text>
    </g>
   </g>
   <g id="line2d_25">
    <path clip-path="url(#pa05c736234)" d="M 187.581818 53.640064 
L 221.4 48.010784 
L 255.218182 31.581417 
" style="fill:none;stroke:#0000ff;stroke-linecap:round;"/>
    <g clip-path="url(#pa05c736234)">
     <use style="fill:#0000ff;" x="187.581818" xlink:href="#me1cb8caa1f" y="53.640064"/>
     <use style="fill:#0000ff;" x="221.4" xlink:href="#me1cb8caa1f" y="48.010784"/>
     <use style="fill:#0000ff;" x="255.218182" xlink:href="#me1cb8caa1f" y="31.581417"/>
    </g>
   </g>
   <g id="line2d_26">
    <path clip-path="url(#pa05c736234)" d="M 187.581818 53.077495 
L 221.4 45.828225 
L 255.218182 25.620404 
" style="fill:none;stroke:#008000;stroke-linecap:round;"/>
    <g clip-path="url(#pa05c736234)">
     <use style="fill:#008000;" x="187.581818" xlink:href="#mcaaf382aef" y="53.077495"/>
     <use style="fill:#008000;" x="221.4" xlink:href="#mcaaf382aef" y="45.828225"/>
     <use style="fill:#008000;" x="255.218182" xlink:href="#mcaaf382aef" y="25.620404"/>
    </g>
   </g>
   <g id="line2d_27">
    <path clip-path="url(#pa05c736234)" d="M 187.581818 55.720546 
L 221.4 49.191553 
L 255.218182 29.188137 
" style="fill:none;stroke:#ff0000;stroke-linecap:round;"/>
    <g clip-path="url(#pa05c736234)">
     <use style="fill:#ff0000;" x="187.581818" xlink:href="#ma56595c0ba" y="55.720546"/>
     <use style="fill:#ff0000;" x="221.4" xlink:href="#ma56595c0ba" y="49.191553"/>
     <use style="fill:#ff0000;" x="255.218182" xlink:href="#ma56595c0ba" y="29.188137"/>
    </g>
   </g>
   <g id="line2d_28">
    <path clip-path="url(#pa05c736234)" d="M 187.581818 55.733165 
L 221.4 52.609974 
L 255.218182 39.315762 
" style="fill:none;stroke:#00ffff;stroke-linecap:round;"/>
    <g clip-path="url(#pa05c736234)">
     <use style="fill:#00ffff;" x="187.581818" xlink:href="#mb1183e11ba" y="55.733165"/>
     <use style="fill:#00ffff;" x="221.4" xlink:href="#mb1183e11ba" y="52.609974"/>
     <use style="fill:#00ffff;" x="255.218182" xlink:href="#mb1183e11ba" y="39.315762"/>
    </g>
   </g>
   <g id="line2d_29">
    <path clip-path="url(#pa05c736234)" d="M 187.581818 58.175222 
L 221.4 57.267403 
L 255.218182 56.051545 
" style="fill:none;stroke:#ff00ff;stroke-linecap:round;"/>
    <g clip-path="url(#pa05c736234)">
     <use style="fill:#ff00ff;" x="187.581818" xlink:href="#m7235599ea5" y="58.175222"/>
     <use style="fill:#ff00ff;" x="221.4" xlink:href="#m7235599ea5" y="57.267403"/>
     <use style="fill:#ff00ff;" x="255.218182" xlink:href="#m7235599ea5" y="56.051545"/>
    </g>
   </g>
   <g id="line2d_30">
    <path clip-path="url(#pa05c736234)" d="M 187.581818 56.037314 
L 221.4 51.654534 
L 255.218182 43.510017 
" style="fill:none;stroke:#ffa500;stroke-linecap:round;"/>
    <g clip-path="url(#pa05c736234)">
     <use style="fill:#ffa500;" x="187.581818" xlink:href="#m9593eb4f9b" y="56.037314"/>
     <use style="fill:#ffa500;" x="221.4" xlink:href="#m9593eb4f9b" y="51.654534"/>
     <use style="fill:#ffa500;" x="255.218182" xlink:href="#m9593eb4f9b" y="43.510017"/>
    </g>
   </g>
   <g id="patch_8">
    <path d="M 179.2 63 
L 179.2 8.64 
" style="fill:none;stroke:#262626;stroke-linecap:square;stroke-linejoin:miter;stroke-width:1.25;"/>
   </g>
   <g id="patch_9">
    <path d="M 258.6 63 
L 258.6 8.64 
" style="fill:none;"/>
   </g>
   <g id="patch_10">
    <path d="M 184.2 63 
L 258.6 63 
" style="fill:none;stroke:#262626;stroke-linecap:square;stroke-linejoin:miter;stroke-width:1.25;"/>
   </g>
   <g id="patch_11">
    <path d="M 184.2 8.64 
L 258.6 8.64 
" style="fill:none;"/>
   </g>
   <g id="text_24">
    <text style="fill:#262626;font-family:Arial;font-size:8px;font-style:normal;font-weight:400;text-anchor:middle;" transform="rotate(-0, 221.4, 2.64)" x="221.4" y="2.64">–Arg</text>
   </g>
  </g>
  <g id="axes_3">
   <g id="patch_12">
    <path d="M 314.4 63 
L 388.8 63 
L 388.8 8.64 
L 314.4 8.64 
z
" style="fill:#ffffff;"/>
   </g>
   <g id="matplotlib.axis_5">
    <g id="xtick_7">
     <g id="line2d_31">
      <g>
       <use style="fill:#262626;stroke:#262626;stroke-width:0.8;" x="317.781818" xlink:href="#mfd277c6094" y="63"/>
      </g>
     </g>
     <g id="text_25">
      <text style="fill:#262626;font-family:Arial;font-size:8px;font-style:normal;font-weight:400;text-anchor:middle;" transform="rotate(-0, 317.781818, 80.32625)" x="317.781818" y="80.32625">12</text>
     </g>
    </g>
    <g id="xtick_8">
     <g id="line2d_32">
      <g>
       <use style="fill:#262626;stroke:#262626;stroke-width:0.8;" x="351.6" xlink:href="#mfd277c6094" y="63"/>
      </g>
     </g>
     <g id="text_26">
      <text style="fill:#262626;font-family:Arial;font-size:8px;font-style:normal;font-weight:400;text-anchor:middle;" transform="rotate(-0, 351.6, 80.32625)" x="351.6" y="80.32625">24</text>
     </g>
    </g>
    <g id="xtick_9">
     <g id="line2d_33">
      <g>
       <use style="fill:#262626;stroke:#262626;stroke-width:0.8;" x="385.418182" xlink:href="#mfd277c6094" y="63"/>
      </g>
     </g>
     <g id="text_27">
      <text style="fill:#262626;font-family:Arial;font-size:8px;font-style:normal;font-weight:400;text-anchor:middle;" transform="rotate(-0, 385.418182, 80.32625)" x="385.418182" y="80.32625">48</text>
     </g>
    </g>
    <g id="text_28">
     <text style="fill:#262626;font-family:Arial;font-size:8px;font-style:normal;font-weight:400;text-anchor:middle;" transform="rotate(-0, 351.6, 91.6425)" x="351.6" y="91.6425">Hours of Starvation</text>
    </g>
   </g>
   <g id="matplotlib.axis_6">
    <g id="ytick_13">
     <g id="line2d_34">
      <g>
       <use style="fill:#262626;stroke:#262626;stroke-width:0.8;" x="309.4" xlink:href="#m21aae5b97a" y="63"/>
      </g>
     </g>
     <g id="text_29">
      <text style="fill:#262626;font-family:Arial;font-size:8px;font-style:normal;font-weight:400;text-anchor:end;" transform="rotate(-0, 297.8, 65.863125)" x="297.8" y="65.863125">0</text>
     </g>
    </g>
    <g id="ytick_14">
     <g id="line2d_35">
      <g>
       <use style="fill:#262626;stroke:#262626;stroke-width:0.8;" x="309.4" xlink:href="#m21aae5b97a" y="52.128"/>
      </g>
     </g>
     <g id="text_30">
      <text style="fill:#262626;font-family:Arial;font-size:8px;font-style:normal;font-weight:400;text-anchor:end;" transform="rotate(-0, 297.8, 54.991125)" x="297.8" y="54.991125">3000</text>
     </g>
    </g>
    <g id="ytick_15">
     <g id="line2d_36">
      <g>
       <use style="fill:#262626;stroke:#262626;stroke-width:0.8;" x="309.4" xlink:href="#m21aae5b97a" y="41.256"/>
      </g>
     </g>
     <g id="text_31">
      <text style="fill:#262626;font-family:Arial;font-size:8px;font-style:normal;font-weight:400;text-anchor:end;" transform="rotate(-0, 297.8, 44.119125)" x="297.8" y="44.119125">6000</text>
     </g>
    </g>
    <g id="ytick_16">
     <g id="line2d_37">
      <g>
       <use style="fill:#262626;stroke:#262626;stroke-width:0.8;" x="309.4" xlink:href="#m21aae5b97a" y="30.384"/>
      </g>
     </g>
     <g id="text_32">
      <text style="fill:#262626;font-family:Arial;font-size:8px;font-style:normal;font-weight:400;text-anchor:end;" transform="rotate(-0, 297.8, 33.247125)" x="297.8" y="33.247125">9000</text>
     </g>
    </g>
    <g id="ytick_17">
     <g id="line2d_38">
      <g>
       <use style="fill:#262626;stroke:#262626;stroke-width:0.8;" x="309.4" xlink:href="#m21aae5b97a" y="19.512"/>
      </g>
     </g>
     <g id="text_33">
      <text style="fill:#262626;font-family:Arial;font-size:8px;font-style:normal;font-weight:400;text-anchor:end;" transform="rotate(-0, 297.8, 22.375125)" x="297.8" y="22.375125">12000</text>
     </g>
    </g>
    <g id="ytick_18">
     <g id="line2d_39">
      <g>
       <use style="fill:#262626;stroke:#262626;stroke-width:0.8;" x="309.4" xlink:href="#m21aae5b97a" y="8.64"/>
      </g>
     </g>
     <g id="text_34">
      <text style="fill:#262626;font-family:Arial;font-size:8px;font-style:normal;font-weight:400;text-anchor:end;" transform="rotate(-0, 297.8, 11.503125)" x="297.8" y="11.503125">15000</text>
     </g>
    </g>
    <g id="text_35">
     <text style="fill:#262626;font-family:Arial;font-size:8px;font-style:normal;font-weight:400;text-anchor:middle;" transform="rotate(-90, 269.8725, 35.82)" x="269.8725" y="35.82">Fluorescence (a.u.)</text>
    </g>
   </g>
   <g id="line2d_40">
    <path clip-path="url(#p4f8bcd0b42)" d="M 317.781818 49.028079 
L 351.6 37.241656 
L 385.418182 18.993315 
" style="fill:none;stroke:#0000ff;stroke-linecap:round;"/>
    <g clip-path="url(#p4f8bcd0b42)">
     <use style="fill:#0000ff;" x="317.781818" xlink:href="#me1cb8caa1f" y="49.028079"/>
     <use style="fill:#0000ff;" x="351.6" xlink:href="#me1cb8caa1f" y="37.241656"/>
     <use style="fill:#0000ff;" x="385.418182" xlink:href="#me1cb8caa1f" y="18.993315"/>
    </g>
   </g>
   <g id="line2d_41">
    <path clip-path="url(#p4f8bcd0b42)" d="M 317.781818 53.884895 
L 351.6 46.367383 
L 385.418182 37.802877 
" style="fill:none;stroke:#008000;stroke-linecap:round;"/>
    <g clip-path="url(#p4f8bcd0b42)">
     <use style="fill:#008000;" x="317.781818" xlink:href="#mcaaf382aef" y="53.884895"/>
     <use style="fill:#008000;" x="351.6" xlink:href="#mcaaf382aef" y="46.367383"/>
     <use style="fill:#008000;" x="385.418182" xlink:href="#mcaaf382aef" y="37.802877"/>
    </g>
   </g>
   <g id="line2d_42">
    <path clip-path="url(#p4f8bcd0b42)" d="M 317.781818 53.740792 
L 351.6 46.890172 
L 385.418182 29.219726 
" style="fill:none;stroke:#ff0000;stroke-linecap:round;"/>
    <g clip-path="url(#p4f8bcd0b42)">
     <use style="fill:#ff0000;" x="317.781818" xlink:href="#ma56595c0ba" y="53.740792"/>
     <use style="fill:#ff0000;" x="351.6" xlink:href="#ma56595c0ba" y="46.890172"/>
     <use style="fill:#ff0000;" x="385.418182" xlink:href="#ma56595c0ba" y="29.219726"/>
    </g>
   </g>
   <g id="line2d_43">
    <path clip-path="url(#p4f8bcd0b42)" d="M 317.781818 53.455638 
L 351.6 47.527311 
L 385.418182 33.045389 
" style="fill:none;stroke:#00ffff;stroke-linecap:round;"/>
    <g clip-path="url(#p4f8bcd0b42)">
     <use style="fill:#00ffff;" x="317.781818" xlink:href="#mb1183e11ba" y="53.455638"/>
     <use style="fill:#00ffff;" x="351.6" xlink:href="#mb1183e11ba" y="47.527311"/>
     <use style="fill:#00ffff;" x="385.418182" xlink:href="#mb1183e11ba" y="33.045389"/>
    </g>
   </g>
   <g id="line2d_44">
    <path clip-path="url(#p4f8bcd0b42)" d="M 317.781818 57.010427 
L 351.6 51.723438 
L 385.418182 43.369838 
" style="fill:none;stroke:#ff00ff;stroke-linecap:round;"/>
    <g clip-path="url(#p4f8bcd0b42)">
     <use style="fill:#ff00ff;" x="317.781818" xlink:href="#m7235599ea5" y="57.010427"/>
     <use style="fill:#ff00ff;" x="351.6" xlink:href="#m7235599ea5" y="51.723438"/>
     <use style="fill:#ff00ff;" x="385.418182" xlink:href="#m7235599ea5" y="43.369838"/>
    </g>
   </g>
   <g id="line2d_45">
    <path clip-path="url(#p4f8bcd0b42)" d="M 317.781818 55.458646 
L 351.6 51.549292 
L 385.418182 43.951419 
" style="fill:none;stroke:#ffa500;stroke-linecap:round;"/>
    <g clip-path="url(#p4f8bcd0b42)">
     <use style="fill:#ffa500;" x="317.781818" xlink:href="#m9593eb4f9b" y="55.458646"/>
     <use style="fill:#ffa500;" x="351.6" xlink:href="#m9593eb4f9b" y="51.549292"/>
     <use style="fill:#ffa500;" x="385.418182" xlink:href="#m9593eb4f9b" y="43.951419"/>
    </g>
   </g>
   <g id="patch_13">
    <path d="M 309.4 63 
L 309.4 8.64 
" style="fill:none;stroke:#262626;stroke-linecap:square;stroke-linejoin:miter;stroke-width:1.25;"/>
   </g>
   <g id="patch_14">
    <path d="M 388.8 63 
L 388.8 8.64 
" style="fill:none;"/>
   </g>
   <g id="patch_15">
    <path d="M 314.4 63 
L 388.8 63 
" style="fill:none;stroke:#262626;stroke-linecap:square;stroke-linejoin:miter;stroke-width:1.25;"/>
   </g>
   <g id="patch_16">
    <path d="M 314.4 8.64 
L 388.8 8.64 
" style="fill:none;"/>
   </g>
   <g id="text_36">
    <text style="fill:#262626;font-family:Arial;font-size:8px;font-style:normal;font-weight:400;text-anchor:middle;" transform="rotate(-0, 351.6, 2.64)" x="351.6" y="2.64">–Leu</text>
   </g>
   <g id="legend_1">
    <g id="line2d_46">
     <path d="M 414.6 5.27375 
L 430.6 5.27375 
" style="fill:none;stroke:#0000ff;stroke-linecap:round;"/>
    </g>
    <g id="line2d_47">
     <g>
      <use style="fill:#0000ff;" x="422.6" xlink:href="#me1cb8caa1f" y="5.27375"/>
     </g>
    </g>
    <g id="text_37">
     <text style="fill:#262626;font-family:Arial;font-size:8px;font-style:normal;font-weight:400;text-anchor:start;" transform="rotate(-0, 437, 8.07375)" x="437" y="8.07375">CGC (WT)</text>
    </g>
    <g id="line2d_48">
     <path d="M 414.6 16.68375 
L 430.6 16.68375 
" style="fill:none;stroke:#008000;stroke-linecap:round;"/>
    </g>
    <g id="line2d_49">
     <g>
      <use style="fill:#008000;" x="422.6" xlink:href="#mcaaf382aef" y="16.68375"/>
     </g>
    </g>
    <g id="text_38">
     <text style="fill:#262626;font-family:Arial;font-size:8px;font-style:normal;font-weight:400;text-anchor:start;" transform="rotate(-0, 437, 19.48375)" x="437" y="19.48375">CGG</text>
    </g>
    <g id="line2d_50">
     <path d="M 414.6 28 
L 430.6 28 
" style="fill:none;stroke:#ff0000;stroke-linecap:round;"/>
    </g>
    <g id="line2d_51">
     <g>
      <use style="fill:#ff0000;" x="422.6" xlink:href="#ma56595c0ba" y="28"/>
     </g>
    </g>
    <g id="text_39">
     <text style="fill:#262626;font-family:Arial;font-size:8px;font-style:normal;font-weight:400;text-anchor:start;" transform="rotate(-0, 437, 30.8)" x="437" y="30.8">CGA</text>
    </g>
    <g id="line2d_52">
     <path d="M 414.6 39.31625 
L 430.6 39.31625 
" style="fill:none;stroke:#00ffff;stroke-linecap:round;"/>
    </g>
    <g id="line2d_53">
     <g>
      <use style="fill:#00ffff;" x="422.6" xlink:href="#mb1183e11ba" y="39.31625"/>
     </g>
    </g>
    <g id="text_40">
     <text style="fill:#262626;font-family:Arial;font-size:8px;font-style:normal;font-weight:400;text-anchor:start;" transform="rotate(-0, 437, 42.11625)" x="437" y="42.11625">CGT</text>
    </g>
    <g id="line2d_54">
     <path d="M 414.6 50.6325 
L 430.6 50.6325 
" style="fill:none;stroke:#ff00ff;stroke-linecap:round;"/>
    </g>
    <g id="line2d_55">
     <g>
      <use style="fill:#ff00ff;" x="422.6" xlink:href="#m7235599ea5" y="50.6325"/>
     </g>
    </g>
    <g id="text_41">
     <text style="fill:#262626;font-family:Arial;font-size:8px;font-style:normal;font-weight:400;text-anchor:start;" transform="rotate(-0, 437, 53.4325)" x="437" y="53.4325">AGA</text>
    </g>
    <g id="line2d_56">
     <path d="M 414.6 61.94875 
L 430.6 61.94875 
" style="fill:none;stroke:#ffa500;stroke-linecap:round;"/>
    </g>
    <g id="line2d_57">
     <g>
      <use style="fill:#ffa500;" x="422.6" xlink:href="#m9593eb4f9b" y="61.94875"/>
     </g>
    </g>
    <g id="text_42">
     <text style="fill:#262626;font-family:Arial;font-size:8px;font-style:normal;font-weight:400;text-anchor:start;" transform="rotate(-0, 437, 64.74875)" x="437" y="64.74875">AGG</text>
    </g>
   </g>
  </g>
 </g>
 <defs>
  <clipPath id="pa30d7b8e09">
   <rect height="54.36" width="74.4" x="54" y="8.64"/>
  </clipPath>
  <clipPath id="pa05c736234">
   <rect height="54.36" width="74.4" x="184.2" y="8.64"/>
  </clipPath>
  <clipPath id="p4f8bcd0b42">
   <rect height="54.36" width="74.4" x="314.4" y="8.64"/>
  </clipPath>
 </defs>
</svg>
