<?xml version="1.0" encoding="utf-8" standalone="no"?>
<!DOCTYPE svg PUBLIC "-//W3C//DTD SVG 1.1//EN"
  "http://www.w3.org/Graphics/SVG/1.1/DTD/svg11.dtd">
<!-- Created with matplotlib (http://matplotlib.org/) -->
<svg height="54pt" version="1.1" viewBox="0 0 360 54" width="360pt" xmlns="http://www.w3.org/2000/svg" xmlns:xlink="http://www.w3.org/1999/xlink">
 <defs>
  <style type="text/css">
*{stroke-linecap:butt;stroke-linejoin:round;}
  </style>
 </defs>
 <g id="figure_1">
  <g id="patch_1">
   <path d="M 0 54 
L 360 54 
L 360 0 
L 0 0 
z
" style="fill:#ffffff;"/>
  </g>
  <g id="axes_1">
   <g id="patch_2">
    <path d="M 45 47.25 
L 107 47.25 
L 107 6.48 
L 45 6.48 
z
" style="fill:#ffffff;"/>
   </g>
   <g id="matplotlib.axis_1">
    <g id="xtick_1">
     <g id="line2d_1">
      <defs>
       <path d="M 0 0 
L 0 6 
" id="m95d656b85f" style="stroke:#262626;stroke-width:0.8;"/>
      </defs>
      <g>
       <use style="fill:#262626;stroke:#262626;stroke-width:0.8;" x="47.818182" xlink:href="#m95d656b85f" y="47.25"/>
      </g>
     </g>
     <g id="text_1">
      <text style="fill:#262626;font-family:Arial;font-size:8px;font-style:normal;font-weight:400;text-anchor:middle;" transform="rotate(-0, 47.818182, 64.57625)" x="47.818182" y="64.57625">12</text>
     </g>
    </g>
    <g id="xtick_2">
     <g id="line2d_2">
      <g>
       <use style="fill:#262626;stroke:#262626;stroke-width:0.8;" x="76" xlink:href="#m95d656b85f" y="47.25"/>
      </g>
     </g>
     <g id="text_2">
      <text style="fill:#262626;font-family:Arial;font-size:8px;font-style:normal;font-weight:400;text-anchor:middle;" transform="rotate(-0, 76, 64.57625)" x="76" y="64.57625">24</text>
     </g>
    </g>
    <g id="xtick_3">
     <g id="line2d_3">
      <g>
       <use style="fill:#262626;stroke:#262626;stroke-width:0.8;" x="104.181818" xlink:href="#m95d656b85f" y="47.25"/>
      </g>
     </g>
     <g id="text_3">
      <text style="fill:#262626;font-family:Arial;font-size:8px;font-style:normal;font-weight:400;text-anchor:middle;" transform="rotate(-0, 104.181818, 64.57625)" x="104.181818" y="64.57625">48</text>
     </g>
    </g>
    <g id="text_4">
     <text style="fill:#262626;font-family:Arial;font-size:8px;font-style:normal;font-weight:400;text-anchor:middle;" transform="rotate(-0, 76, 75.8925)" x="76" y="75.8925">Hours of Starvation + TMP</text>
    </g>
   </g>
   <g id="matplotlib.axis_2">
    <g id="ytick_1">
     <g id="line2d_4">
      <defs>
       <path d="M 0 0 
L -6 0 
" id="m10e4928fc6" style="stroke:#262626;stroke-width:0.8;"/>
      </defs>
      <g>
       <use style="fill:#262626;stroke:#262626;stroke-width:0.8;" x="40" xlink:href="#m10e4928fc6" y="47.25"/>
      </g>
     </g>
     <g id="text_5">
      <text style="fill:#262626;font-family:Arial;font-size:8px;font-style:normal;font-weight:400;text-anchor:end;" transform="rotate(-0, 28.4, 50.113125)" x="28.4" y="50.113125">0</text>
     </g>
    </g>
    <g id="ytick_2">
     <g id="line2d_5">
      <g>
       <use style="fill:#262626;stroke:#262626;stroke-width:0.8;" x="40" xlink:href="#m10e4928fc6" y="39.096"/>
      </g>
     </g>
     <g id="text_6">
      <text style="fill:#262626;font-family:Arial;font-size:8px;font-style:normal;font-weight:400;text-anchor:end;" transform="rotate(-0, 28.4, 41.959125)" x="28.4" y="41.959125">600</text>
     </g>
    </g>
    <g id="ytick_3">
     <g id="line2d_6">
      <g>
       <use style="fill:#262626;stroke:#262626;stroke-width:0.8;" x="40" xlink:href="#m10e4928fc6" y="30.942"/>
      </g>
     </g>
     <g id="text_7">
      <text style="fill:#262626;font-family:Arial;font-size:8px;font-style:normal;font-weight:400;text-anchor:end;" transform="rotate(-0, 28.4, 33.805125)" x="28.4" y="33.805125">1200</text>
     </g>
    </g>
    <g id="ytick_4">
     <g id="line2d_7">
      <g>
       <use style="fill:#262626;stroke:#262626;stroke-width:0.8;" x="40" xlink:href="#m10e4928fc6" y="22.788"/>
      </g>
     </g>
     <g id="text_8">
      <text style="fill:#262626;font-family:Arial;font-size:8px;font-style:normal;font-weight:400;text-anchor:end;" transform="rotate(-0, 28.4, 25.651125)" x="28.4" y="25.651125">1800</text>
     </g>
    </g>
    <g id="ytick_5">
     <g id="line2d_8">
      <g>
       <use style="fill:#262626;stroke:#262626;stroke-width:0.8;" x="40" xlink:href="#m10e4928fc6" y="14.634"/>
      </g>
     </g>
     <g id="text_9">
      <text style="fill:#262626;font-family:Arial;font-size:8px;font-style:normal;font-weight:400;text-anchor:end;" transform="rotate(-0, 28.4, 17.497125)" x="28.4" y="17.497125">2400</text>
     </g>
    </g>
    <g id="ytick_6">
     <g id="line2d_9">
      <g>
       <use style="fill:#262626;stroke:#262626;stroke-width:0.8;" x="40" xlink:href="#m10e4928fc6" y="6.48"/>
      </g>
     </g>
     <g id="text_10">
      <text style="fill:#262626;font-family:Arial;font-size:8px;font-style:normal;font-weight:400;text-anchor:end;" transform="rotate(-0, 28.4, 9.343125)" x="28.4" y="9.343125">3000</text>
     </g>
    </g>
    <g id="text_11">
     <text style="fill:#262626;font-family:Arial;font-size:8px;font-style:normal;font-weight:400;text-anchor:middle;" transform="rotate(-90, 4.92125, 26.865)" x="4.92125" y="26.865">Fluorescence (a.u.)</text>
    </g>
   </g>
   <g id="line2d_10">
    <path clip-path="url(#p5de0bb1d70)" d="M 47.818182 46.667797 
L 76 46.632553 
L 104.181818 46.679885 
" style="fill:none;stroke:#0000ff;stroke-linecap:round;"/>
    <defs>
     <path d="M 0 1 
C 0.265203 1 0.51958 0.894634 0.707107 0.707107 
C 0.894634 0.51958 1 0.265203 1 0 
C 1 -0.265203 0.894634 -0.51958 0.707107 -0.707107 
C 0.51958 -0.894634 0.265203 -1 0 -1 
C -0.265203 -1 -0.51958 -0.894634 -0.707107 -0.707107 
C -0.894634 -0.51958 -1 -0.265203 -1 0 
C -1 0.265203 -0.894634 0.51958 -0.707107 0.707107 
C -0.51958 0.894634 -0.265203 1 0 1 
z
" id="m36478ca074"/>
    </defs>
    <g clip-path="url(#p5de0bb1d70)">
     <use style="fill:#0000ff;" x="47.818182" xlink:href="#m36478ca074" y="46.667797"/>
     <use style="fill:#0000ff;" x="76" xlink:href="#m36478ca074" y="46.632553"/>
     <use style="fill:#0000ff;" x="104.181818" xlink:href="#m36478ca074" y="46.679885"/>
    </g>
   </g>
   <g id="line2d_11">
    <path clip-path="url(#p5de0bb1d70)" d="M 47.818182 46.798835 
L 76 46.863238 
L 104.181818 46.942576 
" style="fill:none;stroke:#008000;stroke-linecap:round;"/>
    <defs>
     <path d="M 0 1 
C 0.265203 1 0.51958 0.894634 0.707107 0.707107 
C 0.894634 0.51958 1 0.265203 1 0 
C 1 -0.265203 0.894634 -0.51958 0.707107 -0.707107 
C 0.51958 -0.894634 0.265203 -1 0 -1 
C -0.265203 -1 -0.51958 -0.894634 -0.707107 -0.707107 
C -0.894634 -0.51958 -1 -0.265203 -1 0 
C -1 0.265203 -0.894634 0.51958 -0.707107 0.707107 
C -0.51958 0.894634 -0.265203 1 0 1 
z
" id="ma21bc6943b"/>
    </defs>
    <g clip-path="url(#p5de0bb1d70)">
     <use style="fill:#008000;" x="47.818182" xlink:href="#ma21bc6943b" y="46.798835"/>
     <use style="fill:#008000;" x="76" xlink:href="#ma21bc6943b" y="46.863238"/>
     <use style="fill:#008000;" x="104.181818" xlink:href="#ma21bc6943b" y="46.942576"/>
    </g>
   </g>
   <g id="line2d_12">
    <path clip-path="url(#p5de0bb1d70)" d="M 47.818182 46.709634 
L 76 46.805469 
L 104.181818 46.840224 
" style="fill:none;stroke:#ff0000;stroke-linecap:round;"/>
    <defs>
     <path d="M 0 1 
C 0.265203 1 0.51958 0.894634 0.707107 0.707107 
C 0.894634 0.51958 1 0.265203 1 0 
C 1 -0.265203 0.894634 -0.51958 0.707107 -0.707107 
C 0.51958 -0.894634 0.265203 -1 0 -1 
C -0.265203 -1 -0.51958 -0.894634 -0.707107 -0.707107 
C -0.894634 -0.51958 -1 -0.265203 -1 0 
C -1 0.265203 -0.894634 0.51958 -0.707107 0.707107 
C -0.51958 0.894634 -0.265203 1 0 1 
z
" id="mbe22795e9b"/>
    </defs>
    <g clip-path="url(#p5de0bb1d70)">
     <use style="fill:#ff0000;" x="47.818182" xlink:href="#mbe22795e9b" y="46.709634"/>
     <use style="fill:#ff0000;" x="76" xlink:href="#mbe22795e9b" y="46.805469"/>
     <use style="fill:#ff0000;" x="104.181818" xlink:href="#mbe22795e9b" y="46.840224"/>
    </g>
   </g>
   <g id="line2d_13">
    <path clip-path="url(#p5de0bb1d70)" d="M 47.818182 46.795464 
L 76 46.880815 
L 104.181818 46.925466 
" style="fill:none;stroke:#00ffff;stroke-linecap:round;"/>
    <defs>
     <path d="M 0 1 
C 0.265203 1 0.51958 0.894634 0.707107 0.707107 
C 0.894634 0.51958 1 0.265203 1 0 
C 1 -0.265203 0.894634 -0.51958 0.707107 -0.707107 
C 0.51958 -0.894634 0.265203 -1 0 -1 
C -0.265203 -1 -0.51958 -0.894634 -0.707107 -0.707107 
C -0.894634 -0.51958 -1 -0.265203 -1 0 
C -1 0.265203 -0.894634 0.51958 -0.707107 0.707107 
C -0.51958 0.894634 -0.265203 1 0 1 
z
" id="m5ecb8a6fcb"/>
    </defs>
    <g clip-path="url(#p5de0bb1d70)">
     <use style="fill:#00ffff;" x="47.818182" xlink:href="#m5ecb8a6fcb" y="46.795464"/>
     <use style="fill:#00ffff;" x="76" xlink:href="#m5ecb8a6fcb" y="46.880815"/>
     <use style="fill:#00ffff;" x="104.181818" xlink:href="#m5ecb8a6fcb" y="46.925466"/>
    </g>
   </g>
   <g id="patch_3">
    <path d="M 40 47.25 
L 40 6.48 
" style="fill:none;stroke:#262626;stroke-linecap:square;stroke-linejoin:miter;stroke-width:1.25;"/>
   </g>
   <g id="patch_4">
    <path d="M 107 47.25 
L 107 6.48 
" style="fill:none;"/>
   </g>
   <g id="patch_5">
    <path d="M 45 47.25 
L 107 47.25 
" style="fill:none;stroke:#262626;stroke-linecap:square;stroke-linejoin:miter;stroke-width:1.25;"/>
   </g>
   <g id="patch_6">
    <path d="M 45 6.48 
L 107 6.48 
" style="fill:none;"/>
   </g>
   <g id="text_12">
    <text style="fill:#262626;font-family:Arial;font-size:8px;font-style:normal;font-weight:400;text-anchor:middle;" transform="rotate(-0, 76, 0.48)" x="76" y="0.48">Rich</text>
   </g>
  </g>
  <g id="axes_2">
   <g id="patch_7">
    <path d="M 153.5 47.25 
L 215.5 47.25 
L 215.5 6.48 
L 153.5 6.48 
z
" style="fill:#ffffff;"/>
   </g>
   <g id="matplotlib.axis_3">
    <g id="xtick_4">
     <g id="line2d_14">
      <g>
       <use style="fill:#262626;stroke:#262626;stroke-width:0.8;" x="156.318182" xlink:href="#m95d656b85f" y="47.25"/>
      </g>
     </g>
     <g id="text_13">
      <text style="fill:#262626;font-family:Arial;font-size:8px;font-style:normal;font-weight:400;text-anchor:middle;" transform="rotate(-0, 156.318182, 64.57625)" x="156.318182" y="64.57625">12</text>
     </g>
    </g>
    <g id="xtick_5">
     <g id="line2d_15">
      <g>
       <use style="fill:#262626;stroke:#262626;stroke-width:0.8;" x="184.5" xlink:href="#m95d656b85f" y="47.25"/>
      </g>
     </g>
     <g id="text_14">
      <text style="fill:#262626;font-family:Arial;font-size:8px;font-style:normal;font-weight:400;text-anchor:middle;" transform="rotate(-0, 184.5, 64.57625)" x="184.5" y="64.57625">24</text>
     </g>
    </g>
    <g id="xtick_6">
     <g id="line2d_16">
      <g>
       <use style="fill:#262626;stroke:#262626;stroke-width:0.8;" x="212.681818" xlink:href="#m95d656b85f" y="47.25"/>
      </g>
     </g>
     <g id="text_15">
      <text style="fill:#262626;font-family:Arial;font-size:8px;font-style:normal;font-weight:400;text-anchor:middle;" transform="rotate(-0, 212.681818, 64.57625)" x="212.681818" y="64.57625">48</text>
     </g>
    </g>
    <g id="text_16">
     <text style="fill:#262626;font-family:Arial;font-size:8px;font-style:normal;font-weight:400;text-anchor:middle;" transform="rotate(-0, 184.5, 75.8925)" x="184.5" y="75.8925">Hours of Starvation + TMP</text>
    </g>
   </g>
   <g id="matplotlib.axis_4">
    <g id="ytick_7">
     <g id="line2d_17">
      <g>
       <use style="fill:#262626;stroke:#262626;stroke-width:0.8;" x="148.5" xlink:href="#m10e4928fc6" y="47.25"/>
      </g>
     </g>
     <g id="text_17">
      <text style="fill:#262626;font-family:Arial;font-size:8px;font-style:normal;font-weight:400;text-anchor:end;" transform="rotate(-0, 136.9, 50.113125)" x="136.9" y="50.113125">0</text>
     </g>
    </g>
    <g id="ytick_8">
     <g id="line2d_18">
      <g>
       <use style="fill:#262626;stroke:#262626;stroke-width:0.8;" x="148.5" xlink:href="#m10e4928fc6" y="39.096"/>
      </g>
     </g>
     <g id="text_18">
      <text style="fill:#262626;font-family:Arial;font-size:8px;font-style:normal;font-weight:400;text-anchor:end;" transform="rotate(-0, 136.9, 41.959125)" x="136.9" y="41.959125">600</text>
     </g>
    </g>
    <g id="ytick_9">
     <g id="line2d_19">
      <g>
       <use style="fill:#262626;stroke:#262626;stroke-width:0.8;" x="148.5" xlink:href="#m10e4928fc6" y="30.942"/>
      </g>
     </g>
     <g id="text_19">
      <text style="fill:#262626;font-family:Arial;font-size:8px;font-style:normal;font-weight:400;text-anchor:end;" transform="rotate(-0, 136.9, 33.805125)" x="136.9" y="33.805125">1200</text>
     </g>
    </g>
    <g id="ytick_10">
     <g id="line2d_20">
      <g>
       <use style="fill:#262626;stroke:#262626;stroke-width:0.8;" x="148.5" xlink:href="#m10e4928fc6" y="22.788"/>
      </g>
     </g>
     <g id="text_20">
      <text style="fill:#262626;font-family:Arial;font-size:8px;font-style:normal;font-weight:400;text-anchor:end;" transform="rotate(-0, 136.9, 25.651125)" x="136.9" y="25.651125">1800</text>
     </g>
    </g>
    <g id="ytick_11">
     <g id="line2d_21">
      <g>
       <use style="fill:#262626;stroke:#262626;stroke-width:0.8;" x="148.5" xlink:href="#m10e4928fc6" y="14.634"/>
      </g>
     </g>
     <g id="text_21">
      <text style="fill:#262626;font-family:Arial;font-size:8px;font-style:normal;font-weight:400;text-anchor:end;" transform="rotate(-0, 136.9, 17.497125)" x="136.9" y="17.497125">2400</text>
     </g>
    </g>
    <g id="ytick_12">
     <g id="line2d_22">
      <g>
       <use style="fill:#262626;stroke:#262626;stroke-width:0.8;" x="148.5" xlink:href="#m10e4928fc6" y="6.48"/>
      </g>
     </g>
     <g id="text_22">
      <text style="fill:#262626;font-family:Arial;font-size:8px;font-style:normal;font-weight:400;text-anchor:end;" transform="rotate(-0, 136.9, 9.343125)" x="136.9" y="9.343125">3000</text>
     </g>
    </g>
   </g>
   <g id="line2d_23">
    <path clip-path="url(#pacc196b165)" d="M 156.318182 46.83443 
L 184.5 46.789204 
L 212.681818 46.324345 
" style="fill:none;stroke:#0000ff;stroke-linecap:round;"/>
    <g clip-path="url(#pacc196b165)">
     <use style="fill:#0000ff;" x="156.318182" xlink:href="#m36478ca074" y="46.83443"/>
     <use style="fill:#0000ff;" x="184.5" xlink:href="#m36478ca074" y="46.789204"/>
     <use style="fill:#0000ff;" x="212.681818" xlink:href="#m36478ca074" y="46.324345"/>
    </g>
   </g>
   <g id="line2d_24">
    <path clip-path="url(#pacc196b165)" d="M 156.318182 46.910945 
L 184.5 46.824493 
L 212.681818 46.605048 
" style="fill:none;stroke:#008000;stroke-linecap:round;"/>
    <g clip-path="url(#pacc196b165)">
     <use style="fill:#008000;" x="156.318182" xlink:href="#ma21bc6943b" y="46.910945"/>
     <use style="fill:#008000;" x="184.5" xlink:href="#ma21bc6943b" y="46.824493"/>
     <use style="fill:#008000;" x="212.681818" xlink:href="#ma21bc6943b" y="46.605048"/>
    </g>
   </g>
   <g id="line2d_25">
    <path clip-path="url(#pacc196b165)" d="M 156.318182 46.076112 
L 184.5 45.894099 
L 212.681818 45.122604 
" style="fill:none;stroke:#ff0000;stroke-linecap:round;"/>
    <g clip-path="url(#pacc196b165)">
     <use style="fill:#ff0000;" x="156.318182" xlink:href="#mbe22795e9b" y="46.076112"/>
     <use style="fill:#ff0000;" x="184.5" xlink:href="#mbe22795e9b" y="45.894099"/>
     <use style="fill:#ff0000;" x="212.681818" xlink:href="#mbe22795e9b" y="45.122604"/>
    </g>
   </g>
   <g id="line2d_26">
    <path clip-path="url(#pacc196b165)" d="M 156.318182 46.277306 
L 184.5 45.816805 
L 212.681818 45.690664 
" style="fill:none;stroke:#00ffff;stroke-linecap:round;"/>
    <g clip-path="url(#pacc196b165)">
     <use style="fill:#00ffff;" x="156.318182" xlink:href="#m5ecb8a6fcb" y="46.277306"/>
     <use style="fill:#00ffff;" x="184.5" xlink:href="#m5ecb8a6fcb" y="45.816805"/>
     <use style="fill:#00ffff;" x="212.681818" xlink:href="#m5ecb8a6fcb" y="45.690664"/>
    </g>
   </g>
   <g id="patch_8">
    <path d="M 148.5 47.25 
L 148.5 6.48 
" style="fill:none;stroke:#262626;stroke-linecap:square;stroke-linejoin:miter;stroke-width:1.25;"/>
   </g>
   <g id="patch_9">
    <path d="M 215.5 47.25 
L 215.5 6.48 
" style="fill:none;"/>
   </g>
   <g id="patch_10">
    <path d="M 153.5 47.25 
L 215.5 47.25 
" style="fill:none;stroke:#262626;stroke-linecap:square;stroke-linejoin:miter;stroke-width:1.25;"/>
   </g>
   <g id="patch_11">
    <path d="M 153.5 6.48 
L 215.5 6.48 
" style="fill:none;"/>
   </g>
   <g id="text_23">
    <text style="fill:#262626;font-family:Arial;font-size:8px;font-style:normal;font-weight:400;text-anchor:middle;" transform="rotate(-0, 184.5, 0.48)" x="184.5" y="0.48">– Arg</text>
   </g>
  </g>
  <g id="axes_3">
   <g id="patch_12">
    <path d="M 262 47.25 
L 324 47.25 
L 324 6.48 
L 262 6.48 
z
" style="fill:#ffffff;"/>
   </g>
   <g id="matplotlib.axis_5">
    <g id="xtick_7">
     <g id="line2d_27">
      <g>
       <use style="fill:#262626;stroke:#262626;stroke-width:0.8;" x="264.818182" xlink:href="#m95d656b85f" y="47.25"/>
      </g>
     </g>
     <g id="text_24">
      <text style="fill:#262626;font-family:Arial;font-size:8px;font-style:normal;font-weight:400;text-anchor:middle;" transform="rotate(-0, 264.818182, 64.57625)" x="264.818182" y="64.57625">12</text>
     </g>
    </g>
    <g id="xtick_8">
     <g id="line2d_28">
      <g>
       <use style="fill:#262626;stroke:#262626;stroke-width:0.8;" x="293" xlink:href="#m95d656b85f" y="47.25"/>
      </g>
     </g>
     <g id="text_25">
      <text style="fill:#262626;font-family:Arial;font-size:8px;font-style:normal;font-weight:400;text-anchor:middle;" transform="rotate(-0, 293, 64.57625)" x="293" y="64.57625">24</text>
     </g>
    </g>
    <g id="xtick_9">
     <g id="line2d_29">
      <g>
       <use style="fill:#262626;stroke:#262626;stroke-width:0.8;" x="321.181818" xlink:href="#m95d656b85f" y="47.25"/>
      </g>
     </g>
     <g id="text_26">
      <text style="fill:#262626;font-family:Arial;font-size:8px;font-style:normal;font-weight:400;text-anchor:middle;" transform="rotate(-0, 321.181818, 64.57625)" x="321.181818" y="64.57625">48</text>
     </g>
    </g>
    <g id="text_27">
     <text style="fill:#262626;font-family:Arial;font-size:8px;font-style:normal;font-weight:400;text-anchor:middle;" transform="rotate(-0, 293, 75.8925)" x="293" y="75.8925">Hours of Starvation + TMP</text>
    </g>
   </g>
   <g id="matplotlib.axis_6">
    <g id="ytick_13">
     <g id="line2d_30">
      <g>
       <use style="fill:#262626;stroke:#262626;stroke-width:0.8;" x="257" xlink:href="#m10e4928fc6" y="47.25"/>
      </g>
     </g>
     <g id="text_28">
      <text style="fill:#262626;font-family:Arial;font-size:8px;font-style:normal;font-weight:400;text-anchor:end;" transform="rotate(-0, 245.4, 50.113125)" x="245.4" y="50.113125">0</text>
     </g>
    </g>
    <g id="ytick_14">
     <g id="line2d_31">
      <g>
       <use style="fill:#262626;stroke:#262626;stroke-width:0.8;" x="257" xlink:href="#m10e4928fc6" y="39.096"/>
      </g>
     </g>
     <g id="text_29">
      <text style="fill:#262626;font-family:Arial;font-size:8px;font-style:normal;font-weight:400;text-anchor:end;" transform="rotate(-0, 245.4, 41.959125)" x="245.4" y="41.959125">600</text>
     </g>
    </g>
    <g id="ytick_15">
     <g id="line2d_32">
      <g>
       <use style="fill:#262626;stroke:#262626;stroke-width:0.8;" x="257" xlink:href="#m10e4928fc6" y="30.942"/>
      </g>
     </g>
     <g id="text_30">
      <text style="fill:#262626;font-family:Arial;font-size:8px;font-style:normal;font-weight:400;text-anchor:end;" transform="rotate(-0, 245.4, 33.805125)" x="245.4" y="33.805125">1200</text>
     </g>
    </g>
    <g id="ytick_16">
     <g id="line2d_33">
      <g>
       <use style="fill:#262626;stroke:#262626;stroke-width:0.8;" x="257" xlink:href="#m10e4928fc6" y="22.788"/>
      </g>
     </g>
     <g id="text_31">
      <text style="fill:#262626;font-family:Arial;font-size:8px;font-style:normal;font-weight:400;text-anchor:end;" transform="rotate(-0, 245.4, 25.651125)" x="245.4" y="25.651125">1800</text>
     </g>
    </g>
    <g id="ytick_17">
     <g id="line2d_34">
      <g>
       <use style="fill:#262626;stroke:#262626;stroke-width:0.8;" x="257" xlink:href="#m10e4928fc6" y="14.634"/>
      </g>
     </g>
     <g id="text_32">
      <text style="fill:#262626;font-family:Arial;font-size:8px;font-style:normal;font-weight:400;text-anchor:end;" transform="rotate(-0, 245.4, 17.497125)" x="245.4" y="17.497125">2400</text>
     </g>
    </g>
    <g id="ytick_18">
     <g id="line2d_35">
      <g>
       <use style="fill:#262626;stroke:#262626;stroke-width:0.8;" x="257" xlink:href="#m10e4928fc6" y="6.48"/>
      </g>
     </g>
     <g id="text_33">
      <text style="fill:#262626;font-family:Arial;font-size:8px;font-style:normal;font-weight:400;text-anchor:end;" transform="rotate(-0, 245.4, 9.343125)" x="245.4" y="9.343125">3000</text>
     </g>
    </g>
   </g>
   <g id="line2d_36">
    <path clip-path="url(#pd72d2b20a3)" d="M 264.818182 46.84558 
L 293 46.96923 
L 321.181818 46.812474 
" style="fill:none;stroke:#0000ff;stroke-linecap:round;"/>
    <g clip-path="url(#pd72d2b20a3)">
     <use style="fill:#0000ff;" x="264.818182" xlink:href="#m36478ca074" y="46.84558"/>
     <use style="fill:#0000ff;" x="293" xlink:href="#m36478ca074" y="46.96923"/>
     <use style="fill:#0000ff;" x="321.181818" xlink:href="#m36478ca074" y="46.812474"/>
    </g>
   </g>
   <g id="line2d_37">
    <path clip-path="url(#pd72d2b20a3)" d="M 264.818182 46.918292 
L 293 46.94876 
L 321.181818 46.766623 
" style="fill:none;stroke:#008000;stroke-linecap:round;"/>
    <g clip-path="url(#pd72d2b20a3)">
     <use style="fill:#008000;" x="264.818182" xlink:href="#ma21bc6943b" y="46.918292"/>
     <use style="fill:#008000;" x="293" xlink:href="#ma21bc6943b" y="46.94876"/>
     <use style="fill:#008000;" x="321.181818" xlink:href="#ma21bc6943b" y="46.766623"/>
    </g>
   </g>
   <g id="line2d_38">
    <path clip-path="url(#pd72d2b20a3)" d="M 264.818182 45.56479 
L 293 41.049222 
L 321.181818 9.563556 
" style="fill:none;stroke:#ff0000;stroke-linecap:round;"/>
    <g clip-path="url(#pd72d2b20a3)">
     <use style="fill:#ff0000;" x="264.818182" xlink:href="#mbe22795e9b" y="45.56479"/>
     <use style="fill:#ff0000;" x="293" xlink:href="#mbe22795e9b" y="41.049222"/>
     <use style="fill:#ff0000;" x="321.181818" xlink:href="#mbe22795e9b" y="9.563556"/>
    </g>
   </g>
   <g id="line2d_39">
    <path clip-path="url(#pd72d2b20a3)" d="M 264.818182 46.348186 
L 293 45.743962 
L 321.181818 43.714583 
" style="fill:none;stroke:#00ffff;stroke-linecap:round;"/>
    <g clip-path="url(#pd72d2b20a3)">
     <use style="fill:#00ffff;" x="264.818182" xlink:href="#m5ecb8a6fcb" y="46.348186"/>
     <use style="fill:#00ffff;" x="293" xlink:href="#m5ecb8a6fcb" y="45.743962"/>
     <use style="fill:#00ffff;" x="321.181818" xlink:href="#m5ecb8a6fcb" y="43.714583"/>
    </g>
   </g>
   <g id="patch_13">
    <path d="M 257 47.25 
L 257 6.48 
" style="fill:none;stroke:#262626;stroke-linecap:square;stroke-linejoin:miter;stroke-width:1.25;"/>
   </g>
   <g id="patch_14">
    <path d="M 324 47.25 
L 324 6.48 
" style="fill:none;"/>
   </g>
   <g id="patch_15">
    <path d="M 262 47.25 
L 324 47.25 
" style="fill:none;stroke:#262626;stroke-linecap:square;stroke-linejoin:miter;stroke-width:1.25;"/>
   </g>
   <g id="patch_16">
    <path d="M 262 6.48 
L 324 6.48 
" style="fill:none;"/>
   </g>
   <g id="text_34">
    <text style="fill:#262626;font-family:Arial;font-size:8px;font-style:normal;font-weight:400;text-anchor:middle;" transform="rotate(-0, 293, 0.48)" x="293" y="0.48">– Leu</text>
   </g>
   <g id="legend_1">
    <g id="line2d_40">
     <path d="M 346.7 6.41375 
L 361 6.41375 
" style="fill:none;stroke:#0000ff;stroke-linecap:round;"/>
    </g>
    <g id="line2d_41">
     <g>
      <use style="fill:#0000ff;" x="354.7" xlink:href="#m36478ca074" y="6.41375"/>
     </g>
    </g>
    <g id="text_35">
     <text style="fill:#262626;font-family:Arial;font-size:8px;font-style:normal;font-weight:400;text-anchor:start;" transform="rotate(-0, 369.1, 9.21375)" x="369.1" y="9.21375">WT-TTG8</text>
    </g>
    <g id="line2d_42">
     <path d="M 346.7 17.73 
L 361 17.73 
" style="fill:none;stroke:#008000;stroke-linecap:round;"/>
    </g>
    <g id="line2d_43">
     <g>
      <use style="fill:#008000;" x="354.7" xlink:href="#ma21bc6943b" y="17.73"/>
     </g>
    </g>
    <g id="text_36">
     <text style="fill:#262626;font-family:Arial;font-size:8px;font-style:normal;font-weight:400;text-anchor:start;" transform="rotate(-0, 369.1, 20.53)" x="369.1" y="20.53">WT-CTA8</text>
    </g>
    <g id="line2d_44">
     <path d="M 346.7 29.04625 
L 361 29.04625 
" style="fill:none;stroke:#ff0000;stroke-linecap:round;"/>
    </g>
    <g id="line2d_45">
     <g>
      <use style="fill:#ff0000;" x="354.7" xlink:href="#mbe22795e9b" y="29.04625"/>
     </g>
    </g>
    <g id="text_37">
     <text style="fill:#262626;font-family:Arial;font-size:8px;font-style:normal;font-weight:400;text-anchor:start;" transform="rotate(-0, 369.1, 31.84625)" x="369.1" y="31.84625">GCN2KO-TTG8</text>
    </g>
    <g id="line2d_46">
     <path d="M 346.7 40.3625 
L 361 40.3625 
" style="fill:none;stroke:#00ffff;stroke-linecap:round;"/>
    </g>
    <g id="line2d_47">
     <g>
      <use style="fill:#00ffff;" x="354.7" xlink:href="#m5ecb8a6fcb" y="40.3625"/>
     </g>
    </g>
    <g id="text_38">
     <text style="fill:#262626;font-family:Arial;font-size:8px;font-style:normal;font-weight:400;text-anchor:start;" transform="rotate(-0, 369.1, 43.1625)" x="369.1" y="43.1625">GCN2KO-CTA8</text>
    </g>
   </g>
  </g>
 </g>
 <defs>
  <clipPath id="p5de0bb1d70">
   <rect height="40.77" width="62" x="45" y="6.48"/>
  </clipPath>
  <clipPath id="pacc196b165">
   <rect height="40.77" width="62" x="153.5" y="6.48"/>
  </clipPath>
  <clipPath id="pd72d2b20a3">
   <rect height="40.77" width="62" x="262" y="6.48"/>
  </clipPath>
 </defs>
</svg>
