<?xml version="1.0" encoding="utf-8" standalone="no"?>
<!DOCTYPE svg PUBLIC "-//W3C//DTD SVG 1.1//EN"
  "http://www.w3.org/Graphics/SVG/1.1/DTD/svg11.dtd">
<!-- Created with matplotlib (http://matplotlib.org/) -->
<svg height="72pt" version="1.1" viewBox="0 0 432 72" width="432pt" xmlns="http://www.w3.org/2000/svg" xmlns:xlink="http://www.w3.org/1999/xlink">
 <defs>
  <style type="text/css">
*{stroke-linecap:butt;stroke-linejoin:round;}
  </style>
 </defs>
 <g id="figure_1">
  <g id="patch_1">
   <path d="M 0 72 
L 432 72 
L 432 0 
L 0 0 
z
" style="fill:#ffffff;"/>
  </g>
  <g id="axes_1">
   <g id="patch_2">
    <path d="M 54 63 
L 128.4 63 
L 128.4 8.64 
L 54 8.64 
z
" style="fill:#ffffff;"/>
   </g>
   <g id="matplotlib.axis_1">
    <g id="xtick_1">
     <g id="line2d_1">
      <defs>
       <path d="M 0 0 
L 0 6 
" id="m0ec1d663e2" style="stroke:#262626;stroke-width:0.8;"/>
      </defs>
      <g>
       <use style="fill:#262626;stroke:#262626;stroke-width:0.8;" x="91.2" xlink:href="#m0ec1d663e2" y="63"/>
      </g>
     </g>
     <g id="text_1">
      <text style="fill:#262626;font-family:Arial;font-size:8px;font-style:normal;font-weight:400;text-anchor:middle;" transform="rotate(-0, 91.2, 80.32625)" x="91.2" y="80.32625">24</text>
     </g>
    </g>
    <g id="text_2">
     <text style="fill:#262626;font-family:Arial;font-size:8px;font-style:normal;font-weight:400;text-anchor:middle;" transform="rotate(-0, 91.2, 91.6425)" x="91.2" y="91.6425">Hours of Starvation - TMP</text>
    </g>
   </g>
   <g id="matplotlib.axis_2">
    <g id="ytick_1">
     <g id="line2d_2">
      <defs>
       <path d="M 0 0 
L -6 0 
" id="me7852fc89e" style="stroke:#262626;stroke-width:0.8;"/>
      </defs>
      <g>
       <use style="fill:#262626;stroke:#262626;stroke-width:0.8;" x="49" xlink:href="#me7852fc89e" y="63"/>
      </g>
     </g>
     <g id="text_3">
      <text style="fill:#262626;font-family:Arial;font-size:8px;font-style:normal;font-weight:400;text-anchor:end;" transform="rotate(-0, 37.4, 65.863125)" x="37.4" y="65.863125">0</text>
     </g>
    </g>
    <g id="ytick_2">
     <g id="line2d_3">
      <g>
       <use style="fill:#262626;stroke:#262626;stroke-width:0.8;" x="49" xlink:href="#me7852fc89e" y="50.574857"/>
      </g>
     </g>
     <g id="text_4">
      <text style="fill:#262626;font-family:Arial;font-size:8px;font-style:normal;font-weight:400;text-anchor:end;" transform="rotate(-0, 37.4, 53.437982)" x="37.4" y="53.437982">80</text>
     </g>
    </g>
    <g id="ytick_3">
     <g id="line2d_4">
      <g>
       <use style="fill:#262626;stroke:#262626;stroke-width:0.8;" x="49" xlink:href="#me7852fc89e" y="38.149714"/>
      </g>
     </g>
     <g id="text_5">
      <text style="fill:#262626;font-family:Arial;font-size:8px;font-style:normal;font-weight:400;text-anchor:end;" transform="rotate(-0, 37.4, 41.012839)" x="37.4" y="41.012839">160</text>
     </g>
    </g>
    <g id="ytick_4">
     <g id="line2d_5">
      <g>
       <use style="fill:#262626;stroke:#262626;stroke-width:0.8;" x="49" xlink:href="#me7852fc89e" y="25.724571"/>
      </g>
     </g>
     <g id="text_6">
      <text style="fill:#262626;font-family:Arial;font-size:8px;font-style:normal;font-weight:400;text-anchor:end;" transform="rotate(-0, 37.4, 28.587696)" x="37.4" y="28.587696">240</text>
     </g>
    </g>
    <g id="ytick_5">
     <g id="line2d_6">
      <g>
       <use style="fill:#262626;stroke:#262626;stroke-width:0.8;" x="49" xlink:href="#me7852fc89e" y="13.299429"/>
      </g>
     </g>
     <g id="text_7">
      <text style="fill:#262626;font-family:Arial;font-size:8px;font-style:normal;font-weight:400;text-anchor:end;" transform="rotate(-0, 37.4, 16.162554)" x="37.4" y="16.162554">320</text>
     </g>
    </g>
    <g id="text_8">
     <text style="fill:#262626;font-family:Arial;font-size:8px;font-style:normal;font-weight:400;text-anchor:middle;" transform="rotate(-90, 18.37, 35.82)" x="18.37" y="35.82">Fluorescence (a.u.)</text>
    </g>
   </g>
   <g id="line2d_7">
    <path clip-path="url(#pfc703c68b5)" d="M 91.2 10.628386 
" style="fill:none;stroke:#0000ff;stroke-linecap:round;"/>
    <defs>
     <path d="M 0 1 
C 0.265203 1 0.51958 0.894634 0.707107 0.707107 
C 0.894634 0.51958 1 0.265203 1 0 
C 1 -0.265203 0.894634 -0.51958 0.707107 -0.707107 
C 0.51958 -0.894634 0.265203 -1 0 -1 
C -0.265203 -1 -0.51958 -0.894634 -0.707107 -0.707107 
C -0.894634 -0.51958 -1 -0.265203 -1 0 
C -1 0.265203 -0.894634 0.51958 -0.707107 0.707107 
C -0.51958 0.894634 -0.265203 1 0 1 
z
" id="mb2abeeb69f"/>
    </defs>
    <g clip-path="url(#pfc703c68b5)">
     <use style="fill:#0000ff;" x="91.2" xlink:href="#mb2abeeb69f" y="10.628386"/>
    </g>
   </g>
   <g id="line2d_8">
    <path clip-path="url(#pfc703c68b5)" d="M 91.2 57.041639 
" style="fill:none;stroke:#008000;stroke-linecap:round;"/>
    <defs>
     <path d="M 0 1 
C 0.265203 1 0.51958 0.894634 0.707107 0.707107 
C 0.894634 0.51958 1 0.265203 1 0 
C 1 -0.265203 0.894634 -0.51958 0.707107 -0.707107 
C 0.51958 -0.894634 0.265203 -1 0 -1 
C -0.265203 -1 -0.51958 -0.894634 -0.707107 -0.707107 
C -0.894634 -0.51958 -1 -0.265203 -1 0 
C -1 0.265203 -0.894634 0.51958 -0.707107 0.707107 
C -0.51958 0.894634 -0.265203 1 0 1 
z
" id="m7f9300ffa1"/>
    </defs>
    <g clip-path="url(#pfc703c68b5)">
     <use style="fill:#008000;" x="91.2" xlink:href="#m7f9300ffa1" y="57.041639"/>
    </g>
   </g>
   <g id="line2d_9">
    <path clip-path="url(#pfc703c68b5)" d="M 91.2 57.357717 
" style="fill:none;stroke:#ff0000;stroke-linecap:round;"/>
    <defs>
     <path d="M 0 1 
C 0.265203 1 0.51958 0.894634 0.707107 0.707107 
C 0.894634 0.51958 1 0.265203 1 0 
C 1 -0.265203 0.894634 -0.51958 0.707107 -0.707107 
C 0.51958 -0.894634 0.265203 -1 0 -1 
C -0.265203 -1 -0.51958 -0.894634 -0.707107 -0.707107 
C -0.894634 -0.51958 -1 -0.265203 -1 0 
C -1 0.265203 -0.894634 0.51958 -0.707107 0.707107 
C -0.51958 0.894634 -0.265203 1 0 1 
z
" id="m93eedf6c9c"/>
    </defs>
    <g clip-path="url(#pfc703c68b5)">
     <use style="fill:#ff0000;" x="91.2" xlink:href="#m93eedf6c9c" y="57.357717"/>
    </g>
   </g>
   <g id="line2d_10">
    <path clip-path="url(#pfc703c68b5)" d="M 91.2 56.123594 
" style="fill:none;stroke:#00ffff;stroke-linecap:round;"/>
    <defs>
     <path d="M 0 1 
C 0.265203 1 0.51958 0.894634 0.707107 0.707107 
C 0.894634 0.51958 1 0.265203 1 0 
C 1 -0.265203 0.894634 -0.51958 0.707107 -0.707107 
C 0.51958 -0.894634 0.265203 -1 0 -1 
C -0.265203 -1 -0.51958 -0.894634 -0.707107 -0.707107 
C -0.894634 -0.51958 -1 -0.265203 -1 0 
C -1 0.265203 -0.894634 0.51958 -0.707107 0.707107 
C -0.51958 0.894634 -0.265203 1 0 1 
z
" id="m71bd0b441c"/>
    </defs>
    <g clip-path="url(#pfc703c68b5)">
     <use style="fill:#00ffff;" x="91.2" xlink:href="#m71bd0b441c" y="56.123594"/>
    </g>
   </g>
   <g id="line2d_11">
    <path clip-path="url(#pfc703c68b5)" d="M 91.2 58.13396 
" style="fill:none;stroke:#ff00ff;stroke-linecap:round;"/>
    <defs>
     <path d="M 0 1 
C 0.265203 1 0.51958 0.894634 0.707107 0.707107 
C 0.894634 0.51958 1 0.265203 1 0 
C 1 -0.265203 0.894634 -0.51958 0.707107 -0.707107 
C 0.51958 -0.894634 0.265203 -1 0 -1 
C -0.265203 -1 -0.51958 -0.894634 -0.707107 -0.707107 
C -0.894634 -0.51958 -1 -0.265203 -1 0 
C -1 0.265203 -0.894634 0.51958 -0.707107 0.707107 
C -0.51958 0.894634 -0.265203 1 0 1 
z
" id="md3f7837332"/>
    </defs>
    <g clip-path="url(#pfc703c68b5)">
     <use style="fill:#ff00ff;" x="91.2" xlink:href="#md3f7837332" y="58.13396"/>
    </g>
   </g>
   <g id="line2d_12">
    <path clip-path="url(#pfc703c68b5)" d="M 91.2 54.622263 
" style="fill:none;stroke:#ffa500;stroke-linecap:round;"/>
    <defs>
     <path d="M 0 1 
C 0.265203 1 0.51958 0.894634 0.707107 0.707107 
C 0.894634 0.51958 1 0.265203 1 0 
C 1 -0.265203 0.894634 -0.51958 0.707107 -0.707107 
C 0.51958 -0.894634 0.265203 -1 0 -1 
C -0.265203 -1 -0.51958 -0.894634 -0.707107 -0.707107 
C -0.894634 -0.51958 -1 -0.265203 -1 0 
C -1 0.265203 -0.894634 0.51958 -0.707107 0.707107 
C -0.51958 0.894634 -0.265203 1 0 1 
z
" id="mc1d69187a8"/>
    </defs>
    <g clip-path="url(#pfc703c68b5)">
     <use style="fill:#ffa500;" x="91.2" xlink:href="#mc1d69187a8" y="54.622263"/>
    </g>
   </g>
   <g id="patch_3">
    <path d="M 49 63 
L 49 8.64 
" style="fill:none;stroke:#262626;stroke-linecap:square;stroke-linejoin:miter;stroke-width:1.25;"/>
   </g>
   <g id="patch_4">
    <path d="M 128.4 63 
L 128.4 8.64 
" style="fill:none;"/>
   </g>
   <g id="patch_5">
    <path d="M 54 63 
L 128.4 63 
" style="fill:none;stroke:#262626;stroke-linecap:square;stroke-linejoin:miter;stroke-width:1.25;"/>
   </g>
   <g id="patch_6">
    <path d="M 54 8.64 
L 128.4 8.64 
" style="fill:none;"/>
   </g>
   <g id="text_9">
    <text style="fill:#262626;font-family:Arial;font-size:8px;font-style:normal;font-weight:400;text-anchor:middle;" transform="rotate(-0, 91.2, 2.64)" x="91.2" y="2.64">Rich</text>
   </g>
  </g>
 </g>
 <defs>
  <clipPath id="pfc703c68b5">
   <rect height="54.36" width="74.4" x="54" y="8.64"/>
  </clipPath>
 </defs>
</svg>
