<?xml version="1.0" encoding="utf-8" standalone="no"?>
<!DOCTYPE svg PUBLIC "-//W3C//DTD SVG 1.1//EN"
  "http://www.w3.org/Graphics/SVG/1.1/DTD/svg11.dtd">
<!-- Created with matplotlib (http://matplotlib.org/) -->
<svg height="54pt" version="1.1" viewBox="0 0 216 54" width="216pt" xmlns="http://www.w3.org/2000/svg" xmlns:xlink="http://www.w3.org/1999/xlink">
 <defs>
  <style type="text/css">
*{stroke-linecap:butt;stroke-linejoin:round;}
  </style>
 </defs>
 <g id="figure_1">
  <g id="patch_1">
   <path d="M 0 54 
L 216 54 
L 216 0 
L 0 0 
z
" style="fill:#ffffff;"/>
  </g>
  <g id="axes_1">
   <g id="patch_2">
    <path d="M 27 47.25 
L 87.872727 47.25 
L 87.872727 6.48 
L 27 6.48 
z
" style="fill:#ffffff;"/>
   </g>
   <g id="matplotlib.axis_1">
    <g id="xtick_1">
     <g id="line2d_1">
      <defs>
       <path d="M 0 0 
L 0 6 
" id="m5f2697acdd" style="stroke:#262626;stroke-width:0.8;"/>
      </defs>
      <g>
       <use style="fill:#262626;stroke:#262626;stroke-width:0.8;" x="29.766942" xlink:href="#m5f2697acdd" y="47.25"/>
      </g>
     </g>
     <g id="text_1">
      <text style="fill:#262626;font-family:Arial;font-size:8px;font-style:normal;font-weight:400;text-anchor:middle;" transform="rotate(-0, 29.766942, 64.57625)" x="29.766942" y="64.57625">12</text>
     </g>
    </g>
    <g id="xtick_2">
     <g id="line2d_2">
      <g>
       <use style="fill:#262626;stroke:#262626;stroke-width:0.8;" x="57.436364" xlink:href="#m5f2697acdd" y="47.25"/>
      </g>
     </g>
     <g id="text_2">
      <text style="fill:#262626;font-family:Arial;font-size:8px;font-style:normal;font-weight:400;text-anchor:middle;" transform="rotate(-0, 57.436364, 64.57625)" x="57.436364" y="64.57625">24</text>
     </g>
    </g>
    <g id="xtick_3">
     <g id="line2d_3">
      <g>
       <use style="fill:#262626;stroke:#262626;stroke-width:0.8;" x="85.105785" xlink:href="#m5f2697acdd" y="47.25"/>
      </g>
     </g>
     <g id="text_3">
      <text style="fill:#262626;font-family:Arial;font-size:8px;font-style:normal;font-weight:400;text-anchor:middle;" transform="rotate(-0, 85.105785, 64.57625)" x="85.105785" y="64.57625">48</text>
     </g>
    </g>
    <g id="text_4">
     <text style="fill:#262626;font-family:Arial;font-size:8px;font-style:normal;font-weight:400;text-anchor:middle;" transform="rotate(-0, 57.436364, 75.8925)" x="57.436364" y="75.8925">Hours of Starvation</text>
    </g>
   </g>
   <g id="matplotlib.axis_2">
    <g id="ytick_1">
     <g id="line2d_4">
      <defs>
       <path d="M 0 0 
L -6 0 
" id="mcd9d64f338" style="stroke:#262626;stroke-width:0.8;"/>
      </defs>
      <g>
       <use style="fill:#262626;stroke:#262626;stroke-width:0.8;" x="22" xlink:href="#mcd9d64f338" y="47.25"/>
      </g>
     </g>
     <g id="text_5">
      <text style="fill:#262626;font-family:Arial;font-size:8px;font-style:normal;font-weight:400;text-anchor:end;" transform="rotate(-0, 10.4, 50.113125)" x="10.4" y="50.113125">0.0</text>
     </g>
    </g>
    <g id="ytick_2">
     <g id="line2d_5">
      <g>
       <use style="fill:#262626;stroke:#262626;stroke-width:0.8;" x="22" xlink:href="#mcd9d64f338" y="38.513571"/>
      </g>
     </g>
     <g id="text_6">
      <text style="fill:#262626;font-family:Arial;font-size:8px;font-style:normal;font-weight:400;text-anchor:end;" transform="rotate(-0, 10.4, 41.376696)" x="10.4" y="41.376696">0.3</text>
     </g>
    </g>
    <g id="ytick_3">
     <g id="line2d_6">
      <g>
       <use style="fill:#262626;stroke:#262626;stroke-width:0.8;" x="22" xlink:href="#mcd9d64f338" y="29.777143"/>
      </g>
     </g>
     <g id="text_7">
      <text style="fill:#262626;font-family:Arial;font-size:8px;font-style:normal;font-weight:400;text-anchor:end;" transform="rotate(-0, 10.4, 32.640268)" x="10.4" y="32.640268">0.6</text>
     </g>
    </g>
    <g id="ytick_4">
     <g id="line2d_7">
      <g>
       <use style="fill:#262626;stroke:#262626;stroke-width:0.8;" x="22" xlink:href="#mcd9d64f338" y="21.040714"/>
      </g>
     </g>
     <g id="text_8">
      <text style="fill:#262626;font-family:Arial;font-size:8px;font-style:normal;font-weight:400;text-anchor:end;" transform="rotate(-0, 10.4, 23.903839)" x="10.4" y="23.903839">0.9</text>
     </g>
    </g>
    <g id="ytick_5">
     <g id="line2d_8">
      <g>
       <use style="fill:#262626;stroke:#262626;stroke-width:0.8;" x="22" xlink:href="#mcd9d64f338" y="12.304286"/>
      </g>
     </g>
     <g id="text_9">
      <text style="fill:#262626;font-family:Arial;font-size:8px;font-style:normal;font-weight:400;text-anchor:end;" transform="rotate(-0, 10.4, 15.167411)" x="10.4" y="15.167411">1.2</text>
     </g>
    </g>
    <g id="text_10">
     <text style="fill:#262626;font-family:Arial;font-size:8px;font-style:normal;font-weight:400;" transform="translate(-14.98225 50.875)rotate(-90)">Fluorescence</text>
     <text style="fill:#262626;font-family:Arial;font-size:8px;font-style:normal;font-weight:400;" transform="translate(-6.40375 57.539375)rotate(-90)">(Relative to Rich)</text>
    </g>
   </g>
   <g id="line2d_9">
    <path clip-path="url(#pbec10501e9)" d="M 29.766942 31.365962 
L 57.436364 32.897432 
L 85.105785 27.61376 
" style="fill:none;stroke:#0000ff;stroke-linecap:round;"/>
    <defs>
     <path d="M 0 1 
C 0.265203 1 0.51958 0.894634 0.707107 0.707107 
C 0.894634 0.51958 1 0.265203 1 0 
C 1 -0.265203 0.894634 -0.51958 0.707107 -0.707107 
C 0.51958 -0.894634 0.265203 -1 0 -1 
C -0.265203 -1 -0.51958 -0.894634 -0.707107 -0.707107 
C -0.894634 -0.51958 -1 -0.265203 -1 0 
C -1 0.265203 -0.894634 0.51958 -0.707107 0.707107 
C -0.51958 0.894634 -0.265203 1 0 1 
z
" id="m265958c780"/>
    </defs>
    <g clip-path="url(#pbec10501e9)">
     <use style="fill:#0000ff;" x="29.766942" xlink:href="#m265958c780" y="31.365962"/>
     <use style="fill:#0000ff;" x="57.436364" xlink:href="#m265958c780" y="32.897432"/>
     <use style="fill:#0000ff;" x="85.105785" xlink:href="#m265958c780" y="27.61376"/>
    </g>
   </g>
   <g id="line2d_10">
    <path clip-path="url(#pbec10501e9)" d="M 29.766942 29.151316 
L 57.436364 31.913885 
L 85.105785 24.92572 
" style="fill:none;stroke:#008000;stroke-linecap:round;"/>
    <defs>
     <path d="M 0 1 
C 0.265203 1 0.51958 0.894634 0.707107 0.707107 
C 0.894634 0.51958 1 0.265203 1 0 
C 1 -0.265203 0.894634 -0.51958 0.707107 -0.707107 
C 0.51958 -0.894634 0.265203 -1 0 -1 
C -0.265203 -1 -0.51958 -0.894634 -0.707107 -0.707107 
C -0.894634 -0.51958 -1 -0.265203 -1 0 
C -1 0.265203 -0.894634 0.51958 -0.707107 0.707107 
C -0.51958 0.894634 -0.265203 1 0 1 
z
" id="m0fe74858d2"/>
    </defs>
    <g clip-path="url(#pbec10501e9)">
     <use style="fill:#008000;" x="29.766942" xlink:href="#m0fe74858d2" y="29.151316"/>
     <use style="fill:#008000;" x="57.436364" xlink:href="#m0fe74858d2" y="31.913885"/>
     <use style="fill:#008000;" x="85.105785" xlink:href="#m0fe74858d2" y="24.92572"/>
    </g>
   </g>
   <g id="line2d_11">
    <path clip-path="url(#pbec10501e9)" d="M 29.766942 27.701584 
L 57.436364 27.842783 
L 85.105785 20.856593 
" style="fill:none;stroke:#ff0000;stroke-linecap:round;"/>
    <defs>
     <path d="M 0 1 
C 0.265203 1 0.51958 0.894634 0.707107 0.707107 
C 0.894634 0.51958 1 0.265203 1 0 
C 1 -0.265203 0.894634 -0.51958 0.707107 -0.707107 
C 0.51958 -0.894634 0.265203 -1 0 -1 
C -0.265203 -1 -0.51958 -0.894634 -0.707107 -0.707107 
C -0.894634 -0.51958 -1 -0.265203 -1 0 
C -1 0.265203 -0.894634 0.51958 -0.707107 0.707107 
C -0.51958 0.894634 -0.265203 1 0 1 
z
" id="mf8b822bffa"/>
    </defs>
    <g clip-path="url(#pbec10501e9)">
     <use style="fill:#ff0000;" x="29.766942" xlink:href="#mf8b822bffa" y="27.701584"/>
     <use style="fill:#ff0000;" x="57.436364" xlink:href="#mf8b822bffa" y="27.842783"/>
     <use style="fill:#ff0000;" x="85.105785" xlink:href="#mf8b822bffa" y="20.856593"/>
    </g>
   </g>
   <g id="line2d_12">
    <path clip-path="url(#pbec10501e9)" d="M 29.766942 29.976737 
L 57.436364 30.600024 
L 85.105785 23.835503 
" style="fill:none;stroke:#00ffff;stroke-linecap:round;"/>
    <defs>
     <path d="M 0 1 
C 0.265203 1 0.51958 0.894634 0.707107 0.707107 
C 0.894634 0.51958 1 0.265203 1 0 
C 1 -0.265203 0.894634 -0.51958 0.707107 -0.707107 
C 0.51958 -0.894634 0.265203 -1 0 -1 
C -0.265203 -1 -0.51958 -0.894634 -0.707107 -0.707107 
C -0.894634 -0.51958 -1 -0.265203 -1 0 
C -1 0.265203 -0.894634 0.51958 -0.707107 0.707107 
C -0.51958 0.894634 -0.265203 1 0 1 
z
" id="m161ebfde52"/>
    </defs>
    <g clip-path="url(#pbec10501e9)">
     <use style="fill:#00ffff;" x="29.766942" xlink:href="#m161ebfde52" y="29.976737"/>
     <use style="fill:#00ffff;" x="57.436364" xlink:href="#m161ebfde52" y="30.600024"/>
     <use style="fill:#00ffff;" x="85.105785" xlink:href="#m161ebfde52" y="23.835503"/>
    </g>
   </g>
   <g id="line2d_13">
    <path clip-path="url(#pbec10501e9)" d="M 29.766942 29.382087 
L 57.436364 30.647707 
L 85.105785 21.674962 
" style="fill:none;stroke:#ff00ff;stroke-linecap:round;"/>
    <defs>
     <path d="M 0 1 
C 0.265203 1 0.51958 0.894634 0.707107 0.707107 
C 0.894634 0.51958 1 0.265203 1 0 
C 1 -0.265203 0.894634 -0.51958 0.707107 -0.707107 
C 0.51958 -0.894634 0.265203 -1 0 -1 
C -0.265203 -1 -0.51958 -0.894634 -0.707107 -0.707107 
C -0.894634 -0.51958 -1 -0.265203 -1 0 
C -1 0.265203 -0.894634 0.51958 -0.707107 0.707107 
C -0.51958 0.894634 -0.265203 1 0 1 
z
" id="madc8e6e169"/>
    </defs>
    <g clip-path="url(#pbec10501e9)">
     <use style="fill:#ff00ff;" x="29.766942" xlink:href="#madc8e6e169" y="29.382087"/>
     <use style="fill:#ff00ff;" x="57.436364" xlink:href="#madc8e6e169" y="30.647707"/>
     <use style="fill:#ff00ff;" x="85.105785" xlink:href="#madc8e6e169" y="21.674962"/>
    </g>
   </g>
   <g id="line2d_14">
    <path clip-path="url(#pbec10501e9)" d="M 29.766942 31.154892 
L 57.436364 30.776868 
L 85.105785 24.728606 
" style="fill:none;stroke:#ffa500;stroke-linecap:round;"/>
    <defs>
     <path d="M 0 1 
C 0.265203 1 0.51958 0.894634 0.707107 0.707107 
C 0.894634 0.51958 1 0.265203 1 0 
C 1 -0.265203 0.894634 -0.51958 0.707107 -0.707107 
C 0.51958 -0.894634 0.265203 -1 0 -1 
C -0.265203 -1 -0.51958 -0.894634 -0.707107 -0.707107 
C -0.894634 -0.51958 -1 -0.265203 -1 0 
C -1 0.265203 -0.894634 0.51958 -0.707107 0.707107 
C -0.51958 0.894634 -0.265203 1 0 1 
z
" id="m5afb7b15f2"/>
    </defs>
    <g clip-path="url(#pbec10501e9)">
     <use style="fill:#ffa500;" x="29.766942" xlink:href="#m5afb7b15f2" y="31.154892"/>
     <use style="fill:#ffa500;" x="57.436364" xlink:href="#m5afb7b15f2" y="30.776868"/>
     <use style="fill:#ffa500;" x="85.105785" xlink:href="#m5afb7b15f2" y="24.728606"/>
    </g>
   </g>
   <g id="patch_3">
    <path d="M 22 47.25 
L 22 6.48 
" style="fill:none;stroke:#262626;stroke-linecap:square;stroke-linejoin:miter;stroke-width:1.25;"/>
   </g>
   <g id="patch_4">
    <path d="M 87.872727 47.25 
L 87.872727 6.48 
" style="fill:none;"/>
   </g>
   <g id="patch_5">
    <path d="M 27 47.25 
L 87.872727 47.25 
" style="fill:none;stroke:#262626;stroke-linecap:square;stroke-linejoin:miter;stroke-width:1.25;"/>
   </g>
   <g id="patch_6">
    <path d="M 27 6.48 
L 87.872727 6.48 
" style="fill:none;"/>
   </g>
   <g id="text_11">
    <text style="fill:#262626;font-family:Arial;font-size:8px;font-style:normal;font-weight:400;text-anchor:middle;" transform="rotate(-0, 57.436364, 0.48)" x="57.436364" y="0.48">– Arg</text>
   </g>
  </g>
  <g id="axes_2">
   <g id="patch_7">
    <path d="M 133.527273 47.25 
L 194.4 47.25 
L 194.4 6.48 
L 133.527273 6.48 
z
" style="fill:#ffffff;"/>
   </g>
   <g id="matplotlib.axis_3">
    <g id="xtick_4">
     <g id="line2d_15">
      <g>
       <use style="fill:#262626;stroke:#262626;stroke-width:0.8;" x="136.294215" xlink:href="#m5f2697acdd" y="47.25"/>
      </g>
     </g>
     <g id="text_12">
      <text style="fill:#262626;font-family:Arial;font-size:8px;font-style:normal;font-weight:400;text-anchor:middle;" transform="rotate(-0, 136.294215, 64.57625)" x="136.294215" y="64.57625">12</text>
     </g>
    </g>
    <g id="xtick_5">
     <g id="line2d_16">
      <g>
       <use style="fill:#262626;stroke:#262626;stroke-width:0.8;" x="163.963636" xlink:href="#m5f2697acdd" y="47.25"/>
      </g>
     </g>
     <g id="text_13">
      <text style="fill:#262626;font-family:Arial;font-size:8px;font-style:normal;font-weight:400;text-anchor:middle;" transform="rotate(-0, 163.963636, 64.57625)" x="163.963636" y="64.57625">24</text>
     </g>
    </g>
    <g id="xtick_6">
     <g id="line2d_17">
      <g>
       <use style="fill:#262626;stroke:#262626;stroke-width:0.8;" x="191.633058" xlink:href="#m5f2697acdd" y="47.25"/>
      </g>
     </g>
     <g id="text_14">
      <text style="fill:#262626;font-family:Arial;font-size:8px;font-style:normal;font-weight:400;text-anchor:middle;" transform="rotate(-0, 191.633058, 64.57625)" x="191.633058" y="64.57625">48</text>
     </g>
    </g>
    <g id="text_15">
     <text style="fill:#262626;font-family:Arial;font-size:8px;font-style:normal;font-weight:400;text-anchor:middle;" transform="rotate(-0, 163.963636, 75.8925)" x="163.963636" y="75.8925">Hours of Starvation</text>
    </g>
   </g>
   <g id="matplotlib.axis_4">
    <g id="ytick_6">
     <g id="line2d_18">
      <g>
       <use style="fill:#262626;stroke:#262626;stroke-width:0.8;" x="128.527273" xlink:href="#mcd9d64f338" y="47.25"/>
      </g>
     </g>
     <g id="text_16">
      <text style="fill:#262626;font-family:Arial;font-size:8px;font-style:normal;font-weight:400;text-anchor:end;" transform="rotate(-0, 116.927273, 50.113125)" x="116.927273" y="50.113125">0.0</text>
     </g>
    </g>
    <g id="ytick_7">
     <g id="line2d_19">
      <g>
       <use style="fill:#262626;stroke:#262626;stroke-width:0.8;" x="128.527273" xlink:href="#mcd9d64f338" y="38.513571"/>
      </g>
     </g>
     <g id="text_17">
      <text style="fill:#262626;font-family:Arial;font-size:8px;font-style:normal;font-weight:400;text-anchor:end;" transform="rotate(-0, 116.927273, 41.376696)" x="116.927273" y="41.376696">0.3</text>
     </g>
    </g>
    <g id="ytick_8">
     <g id="line2d_20">
      <g>
       <use style="fill:#262626;stroke:#262626;stroke-width:0.8;" x="128.527273" xlink:href="#mcd9d64f338" y="29.777143"/>
      </g>
     </g>
     <g id="text_18">
      <text style="fill:#262626;font-family:Arial;font-size:8px;font-style:normal;font-weight:400;text-anchor:end;" transform="rotate(-0, 116.927273, 32.640268)" x="116.927273" y="32.640268">0.6</text>
     </g>
    </g>
    <g id="ytick_9">
     <g id="line2d_21">
      <g>
       <use style="fill:#262626;stroke:#262626;stroke-width:0.8;" x="128.527273" xlink:href="#mcd9d64f338" y="21.040714"/>
      </g>
     </g>
     <g id="text_19">
      <text style="fill:#262626;font-family:Arial;font-size:8px;font-style:normal;font-weight:400;text-anchor:end;" transform="rotate(-0, 116.927273, 23.903839)" x="116.927273" y="23.903839">0.9</text>
     </g>
    </g>
    <g id="ytick_10">
     <g id="line2d_22">
      <g>
       <use style="fill:#262626;stroke:#262626;stroke-width:0.8;" x="128.527273" xlink:href="#mcd9d64f338" y="12.304286"/>
      </g>
     </g>
     <g id="text_20">
      <text style="fill:#262626;font-family:Arial;font-size:8px;font-style:normal;font-weight:400;text-anchor:end;" transform="rotate(-0, 116.927273, 15.167411)" x="116.927273" y="15.167411">1.2</text>
     </g>
    </g>
   </g>
   <g id="line2d_23">
    <path clip-path="url(#p2332bb3e3d)" d="M 136.294215 25.920001 
L 163.963636 28.15513 
L 191.633058 21.600791 
" style="fill:none;stroke:#0000ff;stroke-linecap:round;"/>
    <g clip-path="url(#p2332bb3e3d)">
     <use style="fill:#0000ff;" x="136.294215" xlink:href="#m265958c780" y="25.920001"/>
     <use style="fill:#0000ff;" x="163.963636" xlink:href="#m265958c780" y="28.15513"/>
     <use style="fill:#0000ff;" x="191.633058" xlink:href="#m265958c780" y="21.600791"/>
    </g>
   </g>
   <g id="line2d_24">
    <path clip-path="url(#p2332bb3e3d)" d="M 136.294215 25.204912 
L 163.963636 25.980603 
L 191.633058 19.590062 
" style="fill:none;stroke:#008000;stroke-linecap:round;"/>
    <g clip-path="url(#p2332bb3e3d)">
     <use style="fill:#008000;" x="136.294215" xlink:href="#m0fe74858d2" y="25.204912"/>
     <use style="fill:#008000;" x="163.963636" xlink:href="#m0fe74858d2" y="25.980603"/>
     <use style="fill:#008000;" x="191.633058" xlink:href="#m0fe74858d2" y="19.590062"/>
    </g>
   </g>
   <g id="line2d_25">
    <path clip-path="url(#p2332bb3e3d)" d="M 136.294215 19.53601 
L 163.963636 22.125767 
L 191.633058 15.752794 
" style="fill:none;stroke:#ff0000;stroke-linecap:round;"/>
    <g clip-path="url(#p2332bb3e3d)">
     <use style="fill:#ff0000;" x="136.294215" xlink:href="#mf8b822bffa" y="19.53601"/>
     <use style="fill:#ff0000;" x="163.963636" xlink:href="#mf8b822bffa" y="22.125767"/>
     <use style="fill:#ff0000;" x="191.633058" xlink:href="#mf8b822bffa" y="15.752794"/>
    </g>
   </g>
   <g id="line2d_26">
    <path clip-path="url(#p2332bb3e3d)" d="M 136.294215 23.920999 
L 163.963636 24.878375 
L 191.633058 17.324324 
" style="fill:none;stroke:#00ffff;stroke-linecap:round;"/>
    <g clip-path="url(#p2332bb3e3d)">
     <use style="fill:#00ffff;" x="136.294215" xlink:href="#m161ebfde52" y="23.920999"/>
     <use style="fill:#00ffff;" x="163.963636" xlink:href="#m161ebfde52" y="24.878375"/>
     <use style="fill:#00ffff;" x="191.633058" xlink:href="#m161ebfde52" y="17.324324"/>
    </g>
   </g>
   <g id="line2d_27">
    <path clip-path="url(#p2332bb3e3d)" d="M 136.294215 24.496628 
L 163.963636 25.937565 
L 191.633058 16.237045 
" style="fill:none;stroke:#ff00ff;stroke-linecap:round;"/>
    <g clip-path="url(#p2332bb3e3d)">
     <use style="fill:#ff00ff;" x="136.294215" xlink:href="#madc8e6e169" y="24.496628"/>
     <use style="fill:#ff00ff;" x="163.963636" xlink:href="#madc8e6e169" y="25.937565"/>
     <use style="fill:#ff00ff;" x="191.633058" xlink:href="#madc8e6e169" y="16.237045"/>
    </g>
   </g>
   <g id="line2d_28">
    <path clip-path="url(#p2332bb3e3d)" d="M 136.294215 26.262211 
L 163.963636 26.376374 
L 191.633058 21.694077 
" style="fill:none;stroke:#ffa500;stroke-linecap:round;"/>
    <g clip-path="url(#p2332bb3e3d)">
     <use style="fill:#ffa500;" x="136.294215" xlink:href="#m5afb7b15f2" y="26.262211"/>
     <use style="fill:#ffa500;" x="163.963636" xlink:href="#m5afb7b15f2" y="26.376374"/>
     <use style="fill:#ffa500;" x="191.633058" xlink:href="#m5afb7b15f2" y="21.694077"/>
    </g>
   </g>
   <g id="patch_8">
    <path d="M 128.527273 47.25 
L 128.527273 6.48 
" style="fill:none;stroke:#262626;stroke-linecap:square;stroke-linejoin:miter;stroke-width:1.25;"/>
   </g>
   <g id="patch_9">
    <path d="M 194.4 47.25 
L 194.4 6.48 
" style="fill:none;"/>
   </g>
   <g id="patch_10">
    <path d="M 133.527273 47.25 
L 194.4 47.25 
" style="fill:none;stroke:#262626;stroke-linecap:square;stroke-linejoin:miter;stroke-width:1.25;"/>
   </g>
   <g id="patch_11">
    <path d="M 133.527273 6.48 
L 194.4 6.48 
" style="fill:none;"/>
   </g>
   <g id="text_21">
    <text style="fill:#262626;font-family:Arial;font-size:8px;font-style:normal;font-weight:400;text-anchor:middle;" transform="rotate(-0, 163.963636, 0.48)" x="163.963636" y="0.48">– Leu</text>
   </g>
   <g id="legend_1">
    <g id="line2d_29">
     <path d="M 216.818182 6.51125 
L 217 6.51125 
" style="fill:none;stroke:#0000ff;stroke-linecap:round;"/>
    </g>
    <g id="line2d_30">
     <g>
      <use style="fill:#0000ff;" x="224.818182" xlink:href="#m265958c780" y="6.51125"/>
     </g>
    </g>
    <g id="text_22">
     <text style="fill:#262626;font-family:Arial;font-size:8px;font-style:normal;font-weight:400;text-anchor:start;" transform="rotate(-0, 239.218182, 9.31125)" x="239.218182" y="9.31125">CTG (WT)</text>
    </g>
    <g id="line2d_31">
     <path d="M 216.818182 17.92125 
L 217 17.92125 
" style="fill:none;stroke:#008000;stroke-linecap:round;"/>
    </g>
    <g id="line2d_32">
     <g>
      <use style="fill:#008000;" x="224.818182" xlink:href="#m0fe74858d2" y="17.92125"/>
     </g>
    </g>
    <g id="text_23">
     <text style="fill:#262626;font-family:Arial;font-size:8px;font-style:normal;font-weight:400;text-anchor:start;" transform="rotate(-0, 239.218182, 20.72125)" x="239.218182" y="20.72125">CTA</text>
    </g>
    <g id="line2d_33">
     <path d="M 216.818182 29.2375 
L 217 29.2375 
" style="fill:none;stroke:#ff0000;stroke-linecap:round;"/>
    </g>
    <g id="line2d_34">
     <g>
      <use style="fill:#ff0000;" x="224.818182" xlink:href="#mf8b822bffa" y="29.2375"/>
     </g>
    </g>
    <g id="text_24">
     <text style="fill:#262626;font-family:Arial;font-size:8px;font-style:normal;font-weight:400;text-anchor:start;" transform="rotate(-0, 239.218182, 32.0375)" x="239.218182" y="32.0375">CTC</text>
    </g>
    <g id="line2d_35">
     <path d="M 216.818182 40.55375 
L 217 40.55375 
" style="fill:none;stroke:#00ffff;stroke-linecap:round;"/>
    </g>
    <g id="line2d_36">
     <g>
      <use style="fill:#00ffff;" x="224.818182" xlink:href="#m161ebfde52" y="40.55375"/>
     </g>
    </g>
    <g id="text_25">
     <text style="fill:#262626;font-family:Arial;font-size:8px;font-style:normal;font-weight:400;text-anchor:start;" transform="rotate(-0, 239.218182, 43.35375)" x="239.218182" y="43.35375">CTT</text>
    </g>
    <g id="line2d_37">
     <path d="M 216.818182 51.87 
L 217 51.87 
" style="fill:none;stroke:#ff00ff;stroke-linecap:round;"/>
    </g>
    <g id="line2d_38">
     <g>
      <use style="fill:#ff00ff;" x="224.818182" xlink:href="#madc8e6e169" y="51.87"/>
     </g>
    </g>
    <g id="text_26">
     <text style="fill:#262626;font-family:Arial;font-size:8px;font-style:normal;font-weight:400;text-anchor:start;" transform="rotate(-0, 239.218182, 54.67)" x="239.218182" y="54.67">TTA</text>
    </g>
    <g id="line2d_39">
     <path style="fill:none;stroke:#ffa500;stroke-linecap:round;"/>
    </g>
    <g id="line2d_40">
     <g>
      <use style="fill:#ffa500;" x="224.818182" xlink:href="#m5afb7b15f2" y="63.18625"/>
     </g>
    </g>
    <g id="text_27">
     <text style="fill:#262626;font-family:Arial;font-size:8px;font-style:normal;font-weight:400;text-anchor:start;" transform="rotate(-0, 239.218182, 65.98625)" x="239.218182" y="65.98625">TTG</text>
    </g>
   </g>
  </g>
 </g>
 <defs>
  <clipPath id="pbec10501e9">
   <rect height="40.77" width="60.872727" x="27" y="6.48"/>
  </clipPath>
  <clipPath id="p2332bb3e3d">
   <rect height="40.77" width="60.872727" x="133.527273" y="6.48"/>
  </clipPath>
 </defs>
</svg>
