<?xml version="1.0" encoding="utf-8" standalone="no"?>
<!DOCTYPE svg PUBLIC "-//W3C//DTD SVG 1.1//EN"
  "http://www.w3.org/Graphics/SVG/1.1/DTD/svg11.dtd">
<!-- Created with matplotlib (http://matplotlib.org/) -->
<svg height="72pt" version="1.1" viewBox="0 0 432 72" width="432pt" xmlns="http://www.w3.org/2000/svg" xmlns:xlink="http://www.w3.org/1999/xlink">
 <defs>
  <style type="text/css">
*{stroke-linecap:butt;stroke-linejoin:round;}
  </style>
 </defs>
 <g id="figure_1">
  <g id="patch_1">
   <path d="M 0 72 
L 432 72 
L 432 0 
L 0 0 
z
" style="fill:#ffffff;"/>
  </g>
  <g id="axes_1">
   <g id="patch_2">
    <path d="M 54 63 
L 128.4 63 
L 128.4 8.64 
L 54 8.64 
z
" style="fill:#ffffff;"/>
   </g>
   <g id="matplotlib.axis_1">
    <g id="xtick_1">
     <g id="line2d_1">
      <defs>
       <path d="M 0 0 
L 0 6 
" id="mea20479f5f" style="stroke:#262626;stroke-width:0.8;"/>
      </defs>
      <g>
       <use style="fill:#262626;stroke:#262626;stroke-width:0.8;" x="57.381818" xlink:href="#mea20479f5f" y="63"/>
      </g>
     </g>
     <g id="text_1">
      <text style="fill:#262626;font-family:Arial;font-size:8px;font-style:normal;font-weight:400;text-anchor:middle;" transform="rotate(-0, 57.381818, 80.32625)" x="57.381818" y="80.32625">12</text>
     </g>
    </g>
    <g id="xtick_2">
     <g id="line2d_2">
      <g>
       <use style="fill:#262626;stroke:#262626;stroke-width:0.8;" x="91.2" xlink:href="#mea20479f5f" y="63"/>
      </g>
     </g>
     <g id="text_2">
      <text style="fill:#262626;font-family:Arial;font-size:8px;font-style:normal;font-weight:400;text-anchor:middle;" transform="rotate(-0, 91.2, 80.32625)" x="91.2" y="80.32625">24</text>
     </g>
    </g>
    <g id="xtick_3">
     <g id="line2d_3">
      <g>
       <use style="fill:#262626;stroke:#262626;stroke-width:0.8;" x="125.018182" xlink:href="#mea20479f5f" y="63"/>
      </g>
     </g>
     <g id="text_3">
      <text style="fill:#262626;font-family:Arial;font-size:8px;font-style:normal;font-weight:400;text-anchor:middle;" transform="rotate(-0, 125.018182, 80.32625)" x="125.018182" y="80.32625">48</text>
     </g>
    </g>
    <g id="text_4">
     <text style="fill:#262626;font-family:Arial;font-size:8px;font-style:normal;font-weight:400;text-anchor:middle;" transform="rotate(-0, 91.2, 91.6425)" x="91.2" y="91.6425">Hours of Starvation + TMP</text>
    </g>
   </g>
   <g id="matplotlib.axis_2">
    <g id="ytick_1">
     <g id="line2d_4">
      <defs>
       <path d="M 0 0 
L -6 0 
" id="m4ded6f81e4" style="stroke:#262626;stroke-width:0.8;"/>
      </defs>
      <g>
       <use style="fill:#262626;stroke:#262626;stroke-width:0.8;" x="49" xlink:href="#m4ded6f81e4" y="63"/>
      </g>
     </g>
     <g id="text_5">
      <text style="fill:#262626;font-family:Arial;font-size:8px;font-style:normal;font-weight:400;text-anchor:end;" transform="rotate(-0, 37.4, 65.863125)" x="37.4" y="65.863125">0</text>
     </g>
    </g>
    <g id="ytick_2">
     <g id="line2d_5">
      <g>
       <use style="fill:#262626;stroke:#262626;stroke-width:0.8;" x="49" xlink:href="#m4ded6f81e4" y="49.41"/>
      </g>
     </g>
     <g id="text_6">
      <text style="fill:#262626;font-family:Arial;font-size:8px;font-style:normal;font-weight:400;text-anchor:end;" transform="rotate(-0, 37.4, 52.273125)" x="37.4" y="52.273125">2000</text>
     </g>
    </g>
    <g id="ytick_3">
     <g id="line2d_6">
      <g>
       <use style="fill:#262626;stroke:#262626;stroke-width:0.8;" x="49" xlink:href="#m4ded6f81e4" y="35.82"/>
      </g>
     </g>
     <g id="text_7">
      <text style="fill:#262626;font-family:Arial;font-size:8px;font-style:normal;font-weight:400;text-anchor:end;" transform="rotate(-0, 37.4, 38.683125)" x="37.4" y="38.683125">4000</text>
     </g>
    </g>
    <g id="ytick_4">
     <g id="line2d_7">
      <g>
       <use style="fill:#262626;stroke:#262626;stroke-width:0.8;" x="49" xlink:href="#m4ded6f81e4" y="22.23"/>
      </g>
     </g>
     <g id="text_8">
      <text style="fill:#262626;font-family:Arial;font-size:8px;font-style:normal;font-weight:400;text-anchor:end;" transform="rotate(-0, 37.4, 25.093125)" x="37.4" y="25.093125">6000</text>
     </g>
    </g>
    <g id="ytick_5">
     <g id="line2d_8">
      <g>
       <use style="fill:#262626;stroke:#262626;stroke-width:0.8;" x="49" xlink:href="#m4ded6f81e4" y="8.64"/>
      </g>
     </g>
     <g id="text_9">
      <text style="fill:#262626;font-family:Arial;font-size:8px;font-style:normal;font-weight:400;text-anchor:end;" transform="rotate(-0, 37.4, 11.503125)" x="37.4" y="11.503125">8000</text>
     </g>
    </g>
    <g id="text_10">
     <text style="fill:#262626;font-family:Arial;font-size:8px;font-style:normal;font-weight:400;text-anchor:middle;" transform="rotate(-90, 13.92125, 35.82)" x="13.92125" y="35.82">Fluorescence (a.u.)</text>
    </g>
   </g>
   <g id="line2d_9">
    <path clip-path="url(#p1b55bd68d2)" d="M 57.381818 38.735193 
L 91.2 20.896106 
L 125.018182 17.013607 
" style="fill:none;stroke:#0000ff;stroke-linecap:round;"/>
    <defs>
     <path d="M 0 1 
C 0.265203 1 0.51958 0.894634 0.707107 0.707107 
C 0.894634 0.51958 1 0.265203 1 0 
C 1 -0.265203 0.894634 -0.51958 0.707107 -0.707107 
C 0.51958 -0.894634 0.265203 -1 0 -1 
C -0.265203 -1 -0.51958 -0.894634 -0.707107 -0.707107 
C -0.894634 -0.51958 -1 -0.265203 -1 0 
C -1 0.265203 -0.894634 0.51958 -0.707107 0.707107 
C -0.51958 0.894634 -0.265203 1 0 1 
z
" id="m52099b8123"/>
    </defs>
    <g clip-path="url(#p1b55bd68d2)">
     <use style="fill:#0000ff;" x="57.381818" xlink:href="#m52099b8123" y="38.735193"/>
     <use style="fill:#0000ff;" x="91.2" xlink:href="#m52099b8123" y="20.896106"/>
     <use style="fill:#0000ff;" x="125.018182" xlink:href="#m52099b8123" y="17.013607"/>
    </g>
   </g>
   <g id="line2d_10">
    <path clip-path="url(#p1b55bd68d2)" d="M 57.381818 60.360854 
L 91.2 58.915302 
L 125.018182 58.791705 
" style="fill:none;stroke:#008000;stroke-linecap:round;"/>
    <defs>
     <path d="M 0 1 
C 0.265203 1 0.51958 0.894634 0.707107 0.707107 
C 0.894634 0.51958 1 0.265203 1 0 
C 1 -0.265203 0.894634 -0.51958 0.707107 -0.707107 
C 0.51958 -0.894634 0.265203 -1 0 -1 
C -0.265203 -1 -0.51958 -0.894634 -0.707107 -0.707107 
C -0.894634 -0.51958 -1 -0.265203 -1 0 
C -1 0.265203 -0.894634 0.51958 -0.707107 0.707107 
C -0.51958 0.894634 -0.265203 1 0 1 
z
" id="mb5858bc17a"/>
    </defs>
    <g clip-path="url(#p1b55bd68d2)">
     <use style="fill:#008000;" x="57.381818" xlink:href="#mb5858bc17a" y="60.360854"/>
     <use style="fill:#008000;" x="91.2" xlink:href="#mb5858bc17a" y="58.915302"/>
     <use style="fill:#008000;" x="125.018182" xlink:href="#mb5858bc17a" y="58.791705"/>
    </g>
   </g>
   <g id="line2d_11">
    <path clip-path="url(#p1b55bd68d2)" d="M 57.381818 60.727413 
L 91.2 59.609713 
L 125.018182 59.828065 
" style="fill:none;stroke:#ff0000;stroke-linecap:round;"/>
    <defs>
     <path d="M 0 1 
C 0.265203 1 0.51958 0.894634 0.707107 0.707107 
C 0.894634 0.51958 1 0.265203 1 0 
C 1 -0.265203 0.894634 -0.51958 0.707107 -0.707107 
C 0.51958 -0.894634 0.265203 -1 0 -1 
C -0.265203 -1 -0.51958 -0.894634 -0.707107 -0.707107 
C -0.894634 -0.51958 -1 -0.265203 -1 0 
C -1 0.265203 -0.894634 0.51958 -0.707107 0.707107 
C -0.51958 0.894634 -0.265203 1 0 1 
z
" id="m6b1d16019d"/>
    </defs>
    <g clip-path="url(#p1b55bd68d2)">
     <use style="fill:#ff0000;" x="57.381818" xlink:href="#m6b1d16019d" y="60.727413"/>
     <use style="fill:#ff0000;" x="91.2" xlink:href="#m6b1d16019d" y="59.609713"/>
     <use style="fill:#ff0000;" x="125.018182" xlink:href="#m6b1d16019d" y="59.828065"/>
    </g>
   </g>
   <g id="line2d_12">
    <path clip-path="url(#p1b55bd68d2)" d="M 57.381818 59.985707 
L 91.2 58.454306 
L 125.018182 58.567384 
" style="fill:none;stroke:#00ffff;stroke-linecap:round;"/>
    <defs>
     <path d="M 0 1 
C 0.265203 1 0.51958 0.894634 0.707107 0.707107 
C 0.894634 0.51958 1 0.265203 1 0 
C 1 -0.265203 0.894634 -0.51958 0.707107 -0.707107 
C 0.51958 -0.894634 0.265203 -1 0 -1 
C -0.265203 -1 -0.51958 -0.894634 -0.707107 -0.707107 
C -0.894634 -0.51958 -1 -0.265203 -1 0 
C -1 0.265203 -0.894634 0.51958 -0.707107 0.707107 
C -0.51958 0.894634 -0.265203 1 0 1 
z
" id="m0e9fc37fd8"/>
    </defs>
    <g clip-path="url(#p1b55bd68d2)">
     <use style="fill:#00ffff;" x="57.381818" xlink:href="#m0e9fc37fd8" y="59.985707"/>
     <use style="fill:#00ffff;" x="91.2" xlink:href="#m0e9fc37fd8" y="58.454306"/>
     <use style="fill:#00ffff;" x="125.018182" xlink:href="#m0e9fc37fd8" y="58.567384"/>
    </g>
   </g>
   <g id="line2d_13">
    <path clip-path="url(#p1b55bd68d2)" d="M 57.381818 60.992292 
L 91.2 60.092508 
L 125.018182 60.216482 
" style="fill:none;stroke:#ff00ff;stroke-linecap:round;"/>
    <defs>
     <path d="M 0 1 
C 0.265203 1 0.51958 0.894634 0.707107 0.707107 
C 0.894634 0.51958 1 0.265203 1 0 
C 1 -0.265203 0.894634 -0.51958 0.707107 -0.707107 
C 0.51958 -0.894634 0.265203 -1 0 -1 
C -0.265203 -1 -0.51958 -0.894634 -0.707107 -0.707107 
C -0.894634 -0.51958 -1 -0.265203 -1 0 
C -1 0.265203 -0.894634 0.51958 -0.707107 0.707107 
C -0.51958 0.894634 -0.265203 1 0 1 
z
" id="m302278afe1"/>
    </defs>
    <g clip-path="url(#p1b55bd68d2)">
     <use style="fill:#ff00ff;" x="57.381818" xlink:href="#m302278afe1" y="60.992292"/>
     <use style="fill:#ff00ff;" x="91.2" xlink:href="#m302278afe1" y="60.092508"/>
     <use style="fill:#ff00ff;" x="125.018182" xlink:href="#m302278afe1" y="60.216482"/>
    </g>
   </g>
   <g id="line2d_14">
    <path clip-path="url(#p1b55bd68d2)" d="M 57.381818 59.782097 
L 91.2 58.246017 
L 125.018182 58.271045 
" style="fill:none;stroke:#ffa500;stroke-linecap:round;"/>
    <defs>
     <path d="M 0 1 
C 0.265203 1 0.51958 0.894634 0.707107 0.707107 
C 0.894634 0.51958 1 0.265203 1 0 
C 1 -0.265203 0.894634 -0.51958 0.707107 -0.707107 
C 0.51958 -0.894634 0.265203 -1 0 -1 
C -0.265203 -1 -0.51958 -0.894634 -0.707107 -0.707107 
C -0.894634 -0.51958 -1 -0.265203 -1 0 
C -1 0.265203 -0.894634 0.51958 -0.707107 0.707107 
C -0.51958 0.894634 -0.265203 1 0 1 
z
" id="me5a332e1cb"/>
    </defs>
    <g clip-path="url(#p1b55bd68d2)">
     <use style="fill:#ffa500;" x="57.381818" xlink:href="#me5a332e1cb" y="59.782097"/>
     <use style="fill:#ffa500;" x="91.2" xlink:href="#me5a332e1cb" y="58.246017"/>
     <use style="fill:#ffa500;" x="125.018182" xlink:href="#me5a332e1cb" y="58.271045"/>
    </g>
   </g>
   <g id="patch_3">
    <path d="M 49 63 
L 49 8.64 
" style="fill:none;stroke:#262626;stroke-linecap:square;stroke-linejoin:miter;stroke-width:1.25;"/>
   </g>
   <g id="patch_4">
    <path d="M 128.4 63 
L 128.4 8.64 
" style="fill:none;"/>
   </g>
   <g id="patch_5">
    <path d="M 54 63 
L 128.4 63 
" style="fill:none;stroke:#262626;stroke-linecap:square;stroke-linejoin:miter;stroke-width:1.25;"/>
   </g>
   <g id="patch_6">
    <path d="M 54 8.64 
L 128.4 8.64 
" style="fill:none;"/>
   </g>
   <g id="text_11">
    <text style="fill:#262626;font-family:Arial;font-size:8px;font-style:normal;font-weight:400;text-anchor:middle;" transform="rotate(-0, 91.2, 2.64)" x="91.2" y="2.64">Rich</text>
   </g>
  </g>
  <g id="axes_2">
   <g id="patch_7">
    <path d="M 184.2 63 
L 258.6 63 
L 258.6 8.64 
L 184.2 8.64 
z
" style="fill:#ffffff;"/>
   </g>
   <g id="matplotlib.axis_3">
    <g id="xtick_4">
     <g id="line2d_15">
      <g>
       <use style="fill:#262626;stroke:#262626;stroke-width:0.8;" x="187.581818" xlink:href="#mea20479f5f" y="63"/>
      </g>
     </g>
     <g id="text_12">
      <text style="fill:#262626;font-family:Arial;font-size:8px;font-style:normal;font-weight:400;text-anchor:middle;" transform="rotate(-0, 187.581818, 80.32625)" x="187.581818" y="80.32625">12</text>
     </g>
    </g>
    <g id="xtick_5">
     <g id="line2d_16">
      <g>
       <use style="fill:#262626;stroke:#262626;stroke-width:0.8;" x="221.4" xlink:href="#mea20479f5f" y="63"/>
      </g>
     </g>
     <g id="text_13">
      <text style="fill:#262626;font-family:Arial;font-size:8px;font-style:normal;font-weight:400;text-anchor:middle;" transform="rotate(-0, 221.4, 80.32625)" x="221.4" y="80.32625">24</text>
     </g>
    </g>
    <g id="xtick_6">
     <g id="line2d_17">
      <g>
       <use style="fill:#262626;stroke:#262626;stroke-width:0.8;" x="255.218182" xlink:href="#mea20479f5f" y="63"/>
      </g>
     </g>
     <g id="text_14">
      <text style="fill:#262626;font-family:Arial;font-size:8px;font-style:normal;font-weight:400;text-anchor:middle;" transform="rotate(-0, 255.218182, 80.32625)" x="255.218182" y="80.32625">48</text>
     </g>
    </g>
    <g id="text_15">
     <text style="fill:#262626;font-family:Arial;font-size:8px;font-style:normal;font-weight:400;text-anchor:middle;" transform="rotate(-0, 221.4, 91.6425)" x="221.4" y="91.6425">Hours of Starvation + TMP</text>
    </g>
   </g>
   <g id="matplotlib.axis_4">
    <g id="ytick_6">
     <g id="line2d_18">
      <g>
       <use style="fill:#262626;stroke:#262626;stroke-width:0.8;" x="179.2" xlink:href="#m4ded6f81e4" y="63"/>
      </g>
     </g>
     <g id="text_16">
      <text style="fill:#262626;font-family:Arial;font-size:8px;font-style:normal;font-weight:400;text-anchor:end;" transform="rotate(-0, 167.6, 65.863125)" x="167.6" y="65.863125">0</text>
     </g>
    </g>
    <g id="ytick_7">
     <g id="line2d_19">
      <g>
       <use style="fill:#262626;stroke:#262626;stroke-width:0.8;" x="179.2" xlink:href="#m4ded6f81e4" y="49.41"/>
      </g>
     </g>
     <g id="text_17">
      <text style="fill:#262626;font-family:Arial;font-size:8px;font-style:normal;font-weight:400;text-anchor:end;" transform="rotate(-0, 167.6, 52.273125)" x="167.6" y="52.273125">2000</text>
     </g>
    </g>
    <g id="ytick_8">
     <g id="line2d_20">
      <g>
       <use style="fill:#262626;stroke:#262626;stroke-width:0.8;" x="179.2" xlink:href="#m4ded6f81e4" y="35.82"/>
      </g>
     </g>
     <g id="text_18">
      <text style="fill:#262626;font-family:Arial;font-size:8px;font-style:normal;font-weight:400;text-anchor:end;" transform="rotate(-0, 167.6, 38.683125)" x="167.6" y="38.683125">4000</text>
     </g>
    </g>
    <g id="ytick_9">
     <g id="line2d_21">
      <g>
       <use style="fill:#262626;stroke:#262626;stroke-width:0.8;" x="179.2" xlink:href="#m4ded6f81e4" y="22.23"/>
      </g>
     </g>
     <g id="text_19">
      <text style="fill:#262626;font-family:Arial;font-size:8px;font-style:normal;font-weight:400;text-anchor:end;" transform="rotate(-0, 167.6, 25.093125)" x="167.6" y="25.093125">6000</text>
     </g>
    </g>
    <g id="ytick_10">
     <g id="line2d_22">
      <g>
       <use style="fill:#262626;stroke:#262626;stroke-width:0.8;" x="179.2" xlink:href="#m4ded6f81e4" y="8.64"/>
      </g>
     </g>
     <g id="text_20">
      <text style="fill:#262626;font-family:Arial;font-size:8px;font-style:normal;font-weight:400;text-anchor:end;" transform="rotate(-0, 167.6, 11.503125)" x="167.6" y="11.503125">8000</text>
     </g>
    </g>
    <g id="text_21">
     <text style="fill:#262626;font-family:Arial;font-size:8px;font-style:normal;font-weight:400;text-anchor:middle;" transform="rotate(-90, 144.12125, 35.82)" x="144.12125" y="35.82">Fluorescence (a.u.)</text>
    </g>
   </g>
   <g id="line2d_23">
    <path clip-path="url(#pe10c6a3b59)" d="M 187.581818 49.764965 
L 221.4 42.248992 
L 255.218182 31.99191 
" style="fill:none;stroke:#0000ff;stroke-linecap:round;"/>
    <g clip-path="url(#pe10c6a3b59)">
     <use style="fill:#0000ff;" x="187.581818" xlink:href="#m52099b8123" y="49.764965"/>
     <use style="fill:#0000ff;" x="221.4" xlink:href="#m52099b8123" y="42.248992"/>
     <use style="fill:#0000ff;" x="255.218182" xlink:href="#m52099b8123" y="31.99191"/>
    </g>
   </g>
   <g id="line2d_24">
    <path clip-path="url(#pe10c6a3b59)" d="M 187.581818 61.359796 
L 221.4 60.84889 
L 255.218182 59.773951 
" style="fill:none;stroke:#008000;stroke-linecap:round;"/>
    <g clip-path="url(#pe10c6a3b59)">
     <use style="fill:#008000;" x="187.581818" xlink:href="#mb5858bc17a" y="61.359796"/>
     <use style="fill:#008000;" x="221.4" xlink:href="#mb5858bc17a" y="60.84889"/>
     <use style="fill:#008000;" x="255.218182" xlink:href="#mb5858bc17a" y="59.773951"/>
    </g>
   </g>
   <g id="line2d_25">
    <path clip-path="url(#pe10c6a3b59)" d="M 187.581818 61.474474 
L 221.4 60.740632 
L 255.218182 60.125204 
" style="fill:none;stroke:#ff0000;stroke-linecap:round;"/>
    <g clip-path="url(#pe10c6a3b59)">
     <use style="fill:#ff0000;" x="187.581818" xlink:href="#m6b1d16019d" y="61.474474"/>
     <use style="fill:#ff0000;" x="221.4" xlink:href="#m6b1d16019d" y="60.740632"/>
     <use style="fill:#ff0000;" x="255.218182" xlink:href="#m6b1d16019d" y="60.125204"/>
    </g>
   </g>
   <g id="line2d_26">
    <path clip-path="url(#pe10c6a3b59)" d="M 187.581818 61.212084 
L 221.4 60.401031 
L 255.218182 59.436044 
" style="fill:none;stroke:#00ffff;stroke-linecap:round;"/>
    <g clip-path="url(#pe10c6a3b59)">
     <use style="fill:#00ffff;" x="187.581818" xlink:href="#m0e9fc37fd8" y="61.212084"/>
     <use style="fill:#00ffff;" x="221.4" xlink:href="#m0e9fc37fd8" y="60.401031"/>
     <use style="fill:#00ffff;" x="255.218182" xlink:href="#m0e9fc37fd8" y="59.436044"/>
    </g>
   </g>
   <g id="line2d_27">
    <path clip-path="url(#pe10c6a3b59)" d="M 187.581818 61.768139 
L 221.4 61.342422 
L 255.218182 60.555457 
" style="fill:none;stroke:#ff00ff;stroke-linecap:round;"/>
    <g clip-path="url(#pe10c6a3b59)">
     <use style="fill:#ff00ff;" x="187.581818" xlink:href="#m302278afe1" y="61.768139"/>
     <use style="fill:#ff00ff;" x="221.4" xlink:href="#m302278afe1" y="61.342422"/>
     <use style="fill:#ff00ff;" x="255.218182" xlink:href="#m302278afe1" y="60.555457"/>
    </g>
   </g>
   <g id="line2d_28">
    <path clip-path="url(#pe10c6a3b59)" d="M 187.581818 61.221499 
L 221.4 60.310812 
L 255.218182 59.342808 
" style="fill:none;stroke:#ffa500;stroke-linecap:round;"/>
    <g clip-path="url(#pe10c6a3b59)">
     <use style="fill:#ffa500;" x="187.581818" xlink:href="#me5a332e1cb" y="61.221499"/>
     <use style="fill:#ffa500;" x="221.4" xlink:href="#me5a332e1cb" y="60.310812"/>
     <use style="fill:#ffa500;" x="255.218182" xlink:href="#me5a332e1cb" y="59.342808"/>
    </g>
   </g>
   <g id="patch_8">
    <path d="M 179.2 63 
L 179.2 8.64 
" style="fill:none;stroke:#262626;stroke-linecap:square;stroke-linejoin:miter;stroke-width:1.25;"/>
   </g>
   <g id="patch_9">
    <path d="M 258.6 63 
L 258.6 8.64 
" style="fill:none;"/>
   </g>
   <g id="patch_10">
    <path d="M 184.2 63 
L 258.6 63 
" style="fill:none;stroke:#262626;stroke-linecap:square;stroke-linejoin:miter;stroke-width:1.25;"/>
   </g>
   <g id="patch_11">
    <path d="M 184.2 8.64 
L 258.6 8.64 
" style="fill:none;"/>
   </g>
   <g id="text_22">
    <text style="fill:#262626;font-family:Arial;font-size:8px;font-style:normal;font-weight:400;text-anchor:middle;" transform="rotate(-0, 221.4, 2.64)" x="221.4" y="2.64">– Arg</text>
   </g>
  </g>
  <g id="axes_3">
   <g id="patch_12">
    <path d="M 314.4 63 
L 388.8 63 
L 388.8 8.64 
L 314.4 8.64 
z
" style="fill:#ffffff;"/>
   </g>
   <g id="matplotlib.axis_5">
    <g id="xtick_7">
     <g id="line2d_29">
      <g>
       <use style="fill:#262626;stroke:#262626;stroke-width:0.8;" x="317.781818" xlink:href="#mea20479f5f" y="63"/>
      </g>
     </g>
     <g id="text_23">
      <text style="fill:#262626;font-family:Arial;font-size:8px;font-style:normal;font-weight:400;text-anchor:middle;" transform="rotate(-0, 317.781818, 80.32625)" x="317.781818" y="80.32625">12</text>
     </g>
    </g>
    <g id="xtick_8">
     <g id="line2d_30">
      <g>
       <use style="fill:#262626;stroke:#262626;stroke-width:0.8;" x="351.6" xlink:href="#mea20479f5f" y="63"/>
      </g>
     </g>
     <g id="text_24">
      <text style="fill:#262626;font-family:Arial;font-size:8px;font-style:normal;font-weight:400;text-anchor:middle;" transform="rotate(-0, 351.6, 80.32625)" x="351.6" y="80.32625">24</text>
     </g>
    </g>
    <g id="xtick_9">
     <g id="line2d_31">
      <g>
       <use style="fill:#262626;stroke:#262626;stroke-width:0.8;" x="385.418182" xlink:href="#mea20479f5f" y="63"/>
      </g>
     </g>
     <g id="text_25">
      <text style="fill:#262626;font-family:Arial;font-size:8px;font-style:normal;font-weight:400;text-anchor:middle;" transform="rotate(-0, 385.418182, 80.32625)" x="385.418182" y="80.32625">48</text>
     </g>
    </g>
    <g id="text_26">
     <text style="fill:#262626;font-family:Arial;font-size:8px;font-style:normal;font-weight:400;text-anchor:middle;" transform="rotate(-0, 351.6, 91.6425)" x="351.6" y="91.6425">Hours of Starvation + TMP</text>
    </g>
   </g>
   <g id="matplotlib.axis_6">
    <g id="ytick_11">
     <g id="line2d_32">
      <g>
       <use style="fill:#262626;stroke:#262626;stroke-width:0.8;" x="309.4" xlink:href="#m4ded6f81e4" y="63"/>
      </g>
     </g>
     <g id="text_27">
      <text style="fill:#262626;font-family:Arial;font-size:8px;font-style:normal;font-weight:400;text-anchor:end;" transform="rotate(-0, 297.8, 65.863125)" x="297.8" y="65.863125">0</text>
     </g>
    </g>
    <g id="ytick_12">
     <g id="line2d_33">
      <g>
       <use style="fill:#262626;stroke:#262626;stroke-width:0.8;" x="309.4" xlink:href="#m4ded6f81e4" y="49.41"/>
      </g>
     </g>
     <g id="text_28">
      <text style="fill:#262626;font-family:Arial;font-size:8px;font-style:normal;font-weight:400;text-anchor:end;" transform="rotate(-0, 297.8, 52.273125)" x="297.8" y="52.273125">2000</text>
     </g>
    </g>
    <g id="ytick_13">
     <g id="line2d_34">
      <g>
       <use style="fill:#262626;stroke:#262626;stroke-width:0.8;" x="309.4" xlink:href="#m4ded6f81e4" y="35.82"/>
      </g>
     </g>
     <g id="text_29">
      <text style="fill:#262626;font-family:Arial;font-size:8px;font-style:normal;font-weight:400;text-anchor:end;" transform="rotate(-0, 297.8, 38.683125)" x="297.8" y="38.683125">4000</text>
     </g>
    </g>
    <g id="ytick_14">
     <g id="line2d_35">
      <g>
       <use style="fill:#262626;stroke:#262626;stroke-width:0.8;" x="309.4" xlink:href="#m4ded6f81e4" y="22.23"/>
      </g>
     </g>
     <g id="text_30">
      <text style="fill:#262626;font-family:Arial;font-size:8px;font-style:normal;font-weight:400;text-anchor:end;" transform="rotate(-0, 297.8, 25.093125)" x="297.8" y="25.093125">6000</text>
     </g>
    </g>
    <g id="ytick_15">
     <g id="line2d_36">
      <g>
       <use style="fill:#262626;stroke:#262626;stroke-width:0.8;" x="309.4" xlink:href="#m4ded6f81e4" y="8.64"/>
      </g>
     </g>
     <g id="text_31">
      <text style="fill:#262626;font-family:Arial;font-size:8px;font-style:normal;font-weight:400;text-anchor:end;" transform="rotate(-0, 297.8, 11.503125)" x="297.8" y="11.503125">8000</text>
     </g>
    </g>
    <g id="text_32">
     <text style="fill:#262626;font-family:Arial;font-size:8px;font-style:normal;font-weight:400;text-anchor:middle;" transform="rotate(-90, 274.32125, 35.82)" x="274.32125" y="35.82">Fluorescence (a.u.)</text>
    </g>
   </g>
   <g id="line2d_37">
    <path clip-path="url(#p19ffea3e8e)" d="M 317.781818 45.227235 
L 351.6 35.39255 
L 385.418182 22.496677 
" style="fill:none;stroke:#0000ff;stroke-linecap:round;"/>
    <g clip-path="url(#p19ffea3e8e)">
     <use style="fill:#0000ff;" x="317.781818" xlink:href="#m52099b8123" y="45.227235"/>
     <use style="fill:#0000ff;" x="351.6" xlink:href="#m52099b8123" y="35.39255"/>
     <use style="fill:#0000ff;" x="385.418182" xlink:href="#m52099b8123" y="22.496677"/>
    </g>
   </g>
   <g id="line2d_38">
    <path clip-path="url(#p19ffea3e8e)" d="M 317.781818 61.002151 
L 351.6 60.016662 
L 385.418182 59.002903 
" style="fill:none;stroke:#008000;stroke-linecap:round;"/>
    <g clip-path="url(#p19ffea3e8e)">
     <use style="fill:#008000;" x="317.781818" xlink:href="#mb5858bc17a" y="61.002151"/>
     <use style="fill:#008000;" x="351.6" xlink:href="#mb5858bc17a" y="60.016662"/>
     <use style="fill:#008000;" x="385.418182" xlink:href="#mb5858bc17a" y="59.002903"/>
    </g>
   </g>
   <g id="line2d_39">
    <path clip-path="url(#p19ffea3e8e)" d="M 317.781818 60.837247 
L 351.6 60.075063 
L 385.418182 59.569294 
" style="fill:none;stroke:#ff0000;stroke-linecap:round;"/>
    <g clip-path="url(#p19ffea3e8e)">
     <use style="fill:#ff0000;" x="317.781818" xlink:href="#m6b1d16019d" y="60.837247"/>
     <use style="fill:#ff0000;" x="351.6" xlink:href="#m6b1d16019d" y="60.075063"/>
     <use style="fill:#ff0000;" x="385.418182" xlink:href="#m6b1d16019d" y="59.569294"/>
    </g>
   </g>
   <g id="line2d_40">
    <path clip-path="url(#p19ffea3e8e)" d="M 317.781818 60.585268 
L 351.6 59.507913 
L 385.418182 58.444968 
" style="fill:none;stroke:#00ffff;stroke-linecap:round;"/>
    <g clip-path="url(#p19ffea3e8e)">
     <use style="fill:#00ffff;" x="317.781818" xlink:href="#m0e9fc37fd8" y="60.585268"/>
     <use style="fill:#00ffff;" x="351.6" xlink:href="#m0e9fc37fd8" y="59.507913"/>
     <use style="fill:#00ffff;" x="385.418182" xlink:href="#m0e9fc37fd8" y="58.444968"/>
    </g>
   </g>
   <g id="line2d_41">
    <path clip-path="url(#p19ffea3e8e)" d="M 317.781818 61.431322 
L 351.6 60.87216 
L 385.418182 60.035684 
" style="fill:none;stroke:#ff00ff;stroke-linecap:round;"/>
    <g clip-path="url(#p19ffea3e8e)">
     <use style="fill:#ff00ff;" x="317.781818" xlink:href="#m302278afe1" y="61.431322"/>
     <use style="fill:#ff00ff;" x="351.6" xlink:href="#m302278afe1" y="60.87216"/>
     <use style="fill:#ff00ff;" x="385.418182" xlink:href="#m302278afe1" y="60.035684"/>
    </g>
   </g>
   <g id="line2d_42">
    <path clip-path="url(#p19ffea3e8e)" d="M 317.781818 60.68086 
L 351.6 59.592445 
L 385.418182 58.850039 
" style="fill:none;stroke:#ffa500;stroke-linecap:round;"/>
    <g clip-path="url(#p19ffea3e8e)">
     <use style="fill:#ffa500;" x="317.781818" xlink:href="#me5a332e1cb" y="60.68086"/>
     <use style="fill:#ffa500;" x="351.6" xlink:href="#me5a332e1cb" y="59.592445"/>
     <use style="fill:#ffa500;" x="385.418182" xlink:href="#me5a332e1cb" y="58.850039"/>
    </g>
   </g>
   <g id="patch_13">
    <path d="M 309.4 63 
L 309.4 8.64 
" style="fill:none;stroke:#262626;stroke-linecap:square;stroke-linejoin:miter;stroke-width:1.25;"/>
   </g>
   <g id="patch_14">
    <path d="M 388.8 63 
L 388.8 8.64 
" style="fill:none;"/>
   </g>
   <g id="patch_15">
    <path d="M 314.4 63 
L 388.8 63 
" style="fill:none;stroke:#262626;stroke-linecap:square;stroke-linejoin:miter;stroke-width:1.25;"/>
   </g>
   <g id="patch_16">
    <path d="M 314.4 8.64 
L 388.8 8.64 
" style="fill:none;"/>
   </g>
   <g id="text_33">
    <text style="fill:#262626;font-family:Arial;font-size:8px;font-style:normal;font-weight:400;text-anchor:middle;" transform="rotate(-0, 351.6, 2.64)" x="351.6" y="2.64">– Leu</text>
   </g>
   <g id="legend_1">
    <g id="line2d_43">
     <path d="M 414.6 5.17625 
L 430.6 5.17625 
" style="fill:none;stroke:#0000ff;stroke-linecap:round;"/>
    </g>
    <g id="line2d_44">
     <g>
      <use style="fill:#0000ff;" x="422.6" xlink:href="#m52099b8123" y="5.17625"/>
     </g>
    </g>
    <g id="text_34">
     <text style="fill:#262626;font-family:Arial;font-size:8px;font-style:normal;font-weight:400;text-anchor:start;" transform="rotate(-0, 437, 7.97625)" x="437" y="7.97625">WT</text>
    </g>
    <g id="line2d_45">
     <path d="M 414.6 16.4925 
L 430.6 16.4925 
" style="fill:none;stroke:#008000;stroke-linecap:round;"/>
    </g>
    <g id="line2d_46">
     <g>
      <use style="fill:#008000;" x="422.6" xlink:href="#mb5858bc17a" y="16.4925"/>
     </g>
    </g>
    <g id="text_35">
     <text style="fill:#262626;font-family:Arial;font-size:8px;font-style:normal;font-weight:400;text-anchor:start;" transform="rotate(-0, 437, 19.2925)" x="437" y="19.2925">CTA</text>
    </g>
    <g id="line2d_47">
     <path d="M 414.6 27.80875 
L 430.6 27.80875 
" style="fill:none;stroke:#ff0000;stroke-linecap:round;"/>
    </g>
    <g id="line2d_48">
     <g>
      <use style="fill:#ff0000;" x="422.6" xlink:href="#m6b1d16019d" y="27.80875"/>
     </g>
    </g>
    <g id="text_36">
     <text style="fill:#262626;font-family:Arial;font-size:8px;font-style:normal;font-weight:400;text-anchor:start;" transform="rotate(-0, 437, 30.60875)" x="437" y="30.60875">CTC</text>
    </g>
    <g id="line2d_49">
     <path d="M 414.6 39.125 
L 430.6 39.125 
" style="fill:none;stroke:#00ffff;stroke-linecap:round;"/>
    </g>
    <g id="line2d_50">
     <g>
      <use style="fill:#00ffff;" x="422.6" xlink:href="#m0e9fc37fd8" y="39.125"/>
     </g>
    </g>
    <g id="text_37">
     <text style="fill:#262626;font-family:Arial;font-size:8px;font-style:normal;font-weight:400;text-anchor:start;" transform="rotate(-0, 437, 41.925)" x="437" y="41.925">CTT</text>
    </g>
    <g id="line2d_51">
     <path d="M 414.6 50.44125 
L 430.6 50.44125 
" style="fill:none;stroke:#ff00ff;stroke-linecap:round;"/>
    </g>
    <g id="line2d_52">
     <g>
      <use style="fill:#ff00ff;" x="422.6" xlink:href="#m302278afe1" y="50.44125"/>
     </g>
    </g>
    <g id="text_38">
     <text style="fill:#262626;font-family:Arial;font-size:8px;font-style:normal;font-weight:400;text-anchor:start;" transform="rotate(-0, 437, 53.24125)" x="437" y="53.24125">TTA</text>
    </g>
    <g id="line2d_53">
     <path d="M 414.6 61.7575 
L 430.6 61.7575 
" style="fill:none;stroke:#ffa500;stroke-linecap:round;"/>
    </g>
    <g id="line2d_54">
     <g>
      <use style="fill:#ffa500;" x="422.6" xlink:href="#me5a332e1cb" y="61.7575"/>
     </g>
    </g>
    <g id="text_39">
     <text style="fill:#262626;font-family:Arial;font-size:8px;font-style:normal;font-weight:400;text-anchor:start;" transform="rotate(-0, 437, 64.5575)" x="437" y="64.5575">TTG</text>
    </g>
   </g>
  </g>
 </g>
 <defs>
  <clipPath id="p1b55bd68d2">
   <rect height="54.36" width="74.4" x="54" y="8.64"/>
  </clipPath>
  <clipPath id="pe10c6a3b59">
   <rect height="54.36" width="74.4" x="184.2" y="8.64"/>
  </clipPath>
  <clipPath id="p19ffea3e8e">
   <rect height="54.36" width="74.4" x="314.4" y="8.64"/>
  </clipPath>
 </defs>
</svg>
