<?xml version="1.0" encoding="utf-8" standalone="no"?>
<!DOCTYPE svg PUBLIC "-//W3C//DTD SVG 1.1//EN"
  "http://www.w3.org/Graphics/SVG/1.1/DTD/svg11.dtd">
<!-- Created with matplotlib (http://matplotlib.org/) -->
<svg height="72pt" version="1.1" viewBox="0 0 216 72" width="216pt" xmlns="http://www.w3.org/2000/svg" xmlns:xlink="http://www.w3.org/1999/xlink">
 <defs>
  <style type="text/css">
*{stroke-linecap:butt;stroke-linejoin:round;}
  </style>
 </defs>
 <g id="figure_1">
  <g id="patch_1">
   <path d="M 0 72 
L 216 72 
L 216 0 
L 0 0 
z
" style="fill:#ffffff;"/>
  </g>
  <g id="axes_1">
   <g id="patch_2">
    <path d="M 27 63 
L 87.872727 63 
L 87.872727 8.64 
L 27 8.64 
z
" style="fill:#ffffff;"/>
   </g>
   <g id="matplotlib.axis_1">
    <g id="xtick_1">
     <g id="line2d_1">
      <defs>
       <path d="M 0 0 
L 0 6 
" id="m9fe092a94c" style="stroke:#262626;stroke-width:0.8;"/>
      </defs>
      <g>
       <use style="fill:#262626;stroke:#262626;stroke-width:0.8;" x="29.766942" xlink:href="#m9fe092a94c" y="63"/>
      </g>
     </g>
     <g id="text_1">
      <text style="fill:#262626;font-family:Arial;font-size:8px;font-style:normal;font-weight:400;text-anchor:middle;" transform="rotate(-0, 29.766942, 80.32625)" x="29.766942" y="80.32625">12</text>
     </g>
    </g>
    <g id="xtick_2">
     <g id="line2d_2">
      <g>
       <use style="fill:#262626;stroke:#262626;stroke-width:0.8;" x="57.436364" xlink:href="#m9fe092a94c" y="63"/>
      </g>
     </g>
     <g id="text_2">
      <text style="fill:#262626;font-family:Arial;font-size:8px;font-style:normal;font-weight:400;text-anchor:middle;" transform="rotate(-0, 57.436364, 80.32625)" x="57.436364" y="80.32625">24</text>
     </g>
    </g>
    <g id="xtick_3">
     <g id="line2d_3">
      <g>
       <use style="fill:#262626;stroke:#262626;stroke-width:0.8;" x="85.105785" xlink:href="#m9fe092a94c" y="63"/>
      </g>
     </g>
     <g id="text_3">
      <text style="fill:#262626;font-family:Arial;font-size:8px;font-style:normal;font-weight:400;text-anchor:middle;" transform="rotate(-0, 85.105785, 80.32625)" x="85.105785" y="80.32625">48</text>
     </g>
    </g>
    <g id="text_4">
     <text style="fill:#262626;font-family:Arial;font-size:8px;font-style:normal;font-weight:400;text-anchor:middle;" transform="rotate(-0, 57.436364, 91.6425)" x="57.436364" y="91.6425">Hours of Starvation</text>
    </g>
   </g>
   <g id="matplotlib.axis_2">
    <g id="ytick_1">
     <g id="line2d_4">
      <defs>
       <path d="M 0 0 
L -6 0 
" id="m1e2b00b571" style="stroke:#262626;stroke-width:0.8;"/>
      </defs>
      <g>
       <use style="fill:#262626;stroke:#262626;stroke-width:0.8;" x="22" xlink:href="#m1e2b00b571" y="63"/>
      </g>
     </g>
     <g id="text_5">
      <text style="fill:#262626;font-family:Arial;font-size:8px;font-style:normal;font-weight:400;text-anchor:end;" transform="rotate(-0, 10.4, 65.863125)" x="10.4" y="65.863125">0.0</text>
     </g>
    </g>
    <g id="ytick_2">
     <g id="line2d_5">
      <g>
       <use style="fill:#262626;stroke:#262626;stroke-width:0.8;" x="22" xlink:href="#m1e2b00b571" y="49.41"/>
      </g>
     </g>
     <g id="text_6">
      <text style="fill:#262626;font-family:Arial;font-size:8px;font-style:normal;font-weight:400;text-anchor:end;" transform="rotate(-0, 10.4, 52.273125)" x="10.4" y="52.273125">0.3</text>
     </g>
    </g>
    <g id="ytick_3">
     <g id="line2d_6">
      <g>
       <use style="fill:#262626;stroke:#262626;stroke-width:0.8;" x="22" xlink:href="#m1e2b00b571" y="35.82"/>
      </g>
     </g>
     <g id="text_7">
      <text style="fill:#262626;font-family:Arial;font-size:8px;font-style:normal;font-weight:400;text-anchor:end;" transform="rotate(-0, 10.4, 38.683125)" x="10.4" y="38.683125">0.6</text>
     </g>
    </g>
    <g id="ytick_4">
     <g id="line2d_7">
      <g>
       <use style="fill:#262626;stroke:#262626;stroke-width:0.8;" x="22" xlink:href="#m1e2b00b571" y="22.23"/>
      </g>
     </g>
     <g id="text_8">
      <text style="fill:#262626;font-family:Arial;font-size:8px;font-style:normal;font-weight:400;text-anchor:end;" transform="rotate(-0, 10.4, 25.093125)" x="10.4" y="25.093125">0.9</text>
     </g>
    </g>
    <g id="ytick_5">
     <g id="line2d_8">
      <g>
       <use style="fill:#262626;stroke:#262626;stroke-width:0.8;" x="22" xlink:href="#m1e2b00b571" y="8.64"/>
      </g>
     </g>
     <g id="text_9">
      <text style="fill:#262626;font-family:Arial;font-size:8px;font-style:normal;font-weight:400;text-anchor:end;" transform="rotate(-0, 10.4, 11.503125)" x="10.4" y="11.503125">1.2</text>
     </g>
    </g>
    <g id="text_10">
     <text style="fill:#262626;font-family:Arial;font-size:8px;font-style:normal;font-weight:400;" transform="translate(-14.98225 59.83)rotate(-90)">Fluorescence</text>
     <text style="fill:#262626;font-family:Arial;font-size:8px;font-style:normal;font-weight:400;" transform="translate(-6.40375 66.494375)rotate(-90)">(Relative to Rich)</text>
    </g>
   </g>
   <g id="line2d_9">
    <path clip-path="url(#p117d76bed3)" d="M 29.766942 34.846491 
L 57.436364 39.143821 
L 85.105785 28.273343 
" style="fill:none;stroke:#cc79a7;stroke-linecap:round;"/>
    <defs>
     <path d="M 0 1 
C 0.265203 1 0.51958 0.894634 0.707107 0.707107 
C 0.894634 0.51958 1 0.265203 1 0 
C 1 -0.265203 0.894634 -0.51958 0.707107 -0.707107 
C 0.51958 -0.894634 0.265203 -1 0 -1 
C -0.265203 -1 -0.51958 -0.894634 -0.707107 -0.707107 
C -0.894634 -0.51958 -1 -0.265203 -1 0 
C -1 0.265203 -0.894634 0.51958 -0.707107 0.707107 
C -0.51958 0.894634 -0.265203 1 0 1 
z
" id="m554f3a0811"/>
    </defs>
    <g clip-path="url(#p117d76bed3)">
     <use style="fill:#cc79a7;" x="29.766942" xlink:href="#m554f3a0811" y="34.846491"/>
     <use style="fill:#cc79a7;" x="57.436364" xlink:href="#m554f3a0811" y="39.143821"/>
     <use style="fill:#cc79a7;" x="85.105785" xlink:href="#m554f3a0811" y="28.273343"/>
    </g>
   </g>
   <g id="line2d_10">
    <path clip-path="url(#p117d76bed3)" d="M 29.766942 32.591352 
L 57.436364 32.810995 
L 85.105785 21.943589 
" style="fill:none;stroke:#e69f00;stroke-linecap:round;"/>
    <defs>
     <path d="M 0 1 
C 0.265203 1 0.51958 0.894634 0.707107 0.707107 
C 0.894634 0.51958 1 0.265203 1 0 
C 1 -0.265203 0.894634 -0.51958 0.707107 -0.707107 
C 0.51958 -0.894634 0.265203 -1 0 -1 
C -0.265203 -1 -0.51958 -0.894634 -0.707107 -0.707107 
C -0.894634 -0.51958 -1 -0.265203 -1 0 
C -1 0.265203 -0.894634 0.51958 -0.707107 0.707107 
C -0.51958 0.894634 -0.265203 1 0 1 
z
" id="m7833fa3cac"/>
    </defs>
    <g clip-path="url(#p117d76bed3)">
     <use style="fill:#e69f00;" x="29.766942" xlink:href="#m7833fa3cac" y="32.591352"/>
     <use style="fill:#e69f00;" x="57.436364" xlink:href="#m7833fa3cac" y="32.810995"/>
     <use style="fill:#e69f00;" x="85.105785" xlink:href="#m7833fa3cac" y="21.943589"/>
    </g>
   </g>
   <g id="line2d_11">
    <path clip-path="url(#p117d76bed3)" d="M 29.766942 38.291496 
L 57.436364 40.673783 
L 85.105785 32.454737 
" style="fill:none;stroke:#d55e00;stroke-linecap:round;"/>
    <defs>
     <path d="M 0 1 
C 0.265203 1 0.51958 0.894634 0.707107 0.707107 
C 0.894634 0.51958 1 0.265203 1 0 
C 1 -0.265203 0.894634 -0.51958 0.707107 -0.707107 
C 0.51958 -0.894634 0.265203 -1 0 -1 
C -0.265203 -1 -0.51958 -0.894634 -0.707107 -0.707107 
C -0.894634 -0.51958 -1 -0.265203 -1 0 
C -1 0.265203 -0.894634 0.51958 -0.707107 0.707107 
C -0.51958 0.894634 -0.265203 1 0 1 
z
" id="m8b8df2de2c"/>
    </defs>
    <g clip-path="url(#p117d76bed3)">
     <use style="fill:#d55e00;" x="29.766942" xlink:href="#m8b8df2de2c" y="38.291496"/>
     <use style="fill:#d55e00;" x="57.436364" xlink:href="#m8b8df2de2c" y="40.673783"/>
     <use style="fill:#d55e00;" x="85.105785" xlink:href="#m8b8df2de2c" y="32.454737"/>
    </g>
   </g>
   <g id="line2d_12">
    <path clip-path="url(#p117d76bed3)" d="M 29.766942 36.13048 
L 57.436364 37.100037 
L 85.105785 26.577449 
" style="fill:none;stroke:#0072b2;stroke-linecap:round;"/>
    <defs>
     <path d="M 0 1 
C 0.265203 1 0.51958 0.894634 0.707107 0.707107 
C 0.894634 0.51958 1 0.265203 1 0 
C 1 -0.265203 0.894634 -0.51958 0.707107 -0.707107 
C 0.51958 -0.894634 0.265203 -1 0 -1 
C -0.265203 -1 -0.51958 -0.894634 -0.707107 -0.707107 
C -0.894634 -0.51958 -1 -0.265203 -1 0 
C -1 0.265203 -0.894634 0.51958 -0.707107 0.707107 
C -0.51958 0.894634 -0.265203 1 0 1 
z
" id="mde90a77c05"/>
    </defs>
    <g clip-path="url(#p117d76bed3)">
     <use style="fill:#0072b2;" x="29.766942" xlink:href="#mde90a77c05" y="36.13048"/>
     <use style="fill:#0072b2;" x="57.436364" xlink:href="#mde90a77c05" y="37.100037"/>
     <use style="fill:#0072b2;" x="85.105785" xlink:href="#mde90a77c05" y="26.577449"/>
    </g>
   </g>
   <g id="line2d_13">
    <path clip-path="url(#p117d76bed3)" d="M 29.766942 35.205469 
L 57.436364 37.17421 
L 85.105785 23.216608 
" style="fill:none;stroke:#56b4e9;stroke-linecap:round;"/>
    <defs>
     <path d="M 0 1 
C 0.265203 1 0.51958 0.894634 0.707107 0.707107 
C 0.894634 0.51958 1 0.265203 1 0 
C 1 -0.265203 0.894634 -0.51958 0.707107 -0.707107 
C 0.51958 -0.894634 0.265203 -1 0 -1 
C -0.265203 -1 -0.51958 -0.894634 -0.707107 -0.707107 
C -0.894634 -0.51958 -1 -0.265203 -1 0 
C -1 0.265203 -0.894634 0.51958 -0.707107 0.707107 
C -0.51958 0.894634 -0.265203 1 0 1 
z
" id="m4eaf0f772c"/>
    </defs>
    <g clip-path="url(#p117d76bed3)">
     <use style="fill:#56b4e9;" x="29.766942" xlink:href="#m4eaf0f772c" y="35.205469"/>
     <use style="fill:#56b4e9;" x="57.436364" xlink:href="#m4eaf0f772c" y="37.17421"/>
     <use style="fill:#56b4e9;" x="85.105785" xlink:href="#m4eaf0f772c" y="23.216608"/>
    </g>
   </g>
   <g id="line2d_14">
    <path clip-path="url(#p117d76bed3)" d="M 29.766942 37.963165 
L 57.436364 37.375128 
L 85.105785 27.96672 
" style="fill:none;stroke:#009e73;stroke-linecap:round;"/>
    <defs>
     <path d="M 0 1 
C 0.265203 1 0.51958 0.894634 0.707107 0.707107 
C 0.894634 0.51958 1 0.265203 1 0 
C 1 -0.265203 0.894634 -0.51958 0.707107 -0.707107 
C 0.51958 -0.894634 0.265203 -1 0 -1 
C -0.265203 -1 -0.51958 -0.894634 -0.707107 -0.707107 
C -0.894634 -0.51958 -1 -0.265203 -1 0 
C -1 0.265203 -0.894634 0.51958 -0.707107 0.707107 
C -0.51958 0.894634 -0.265203 1 0 1 
z
" id="m3edc101c62"/>
    </defs>
    <g clip-path="url(#p117d76bed3)">
     <use style="fill:#009e73;" x="29.766942" xlink:href="#m3edc101c62" y="37.963165"/>
     <use style="fill:#009e73;" x="57.436364" xlink:href="#m3edc101c62" y="37.375128"/>
     <use style="fill:#009e73;" x="85.105785" xlink:href="#m3edc101c62" y="27.96672"/>
    </g>
   </g>
   <g id="patch_3">
    <path d="M 22 63 
L 22 8.64 
" style="fill:none;stroke:#262626;stroke-linecap:square;stroke-linejoin:miter;stroke-width:1.25;"/>
   </g>
   <g id="patch_4">
    <path d="M 87.872727 63 
L 87.872727 8.64 
" style="fill:none;"/>
   </g>
   <g id="patch_5">
    <path d="M 27 63 
L 87.872727 63 
" style="fill:none;stroke:#262626;stroke-linecap:square;stroke-linejoin:miter;stroke-width:1.25;"/>
   </g>
   <g id="patch_6">
    <path d="M 27 8.64 
L 87.872727 8.64 
" style="fill:none;"/>
   </g>
   <g id="text_11">
    <text style="fill:#262626;font-family:Arial;font-size:8px;font-style:normal;font-weight:400;text-anchor:middle;" transform="rotate(-0, 57.436364, 2.64)" x="57.436364" y="2.64">– Arg</text>
   </g>
  </g>
  <g id="axes_2">
   <g id="patch_7">
    <path d="M 133.527273 63 
L 194.4 63 
L 194.4 8.64 
L 133.527273 8.64 
z
" style="fill:#ffffff;"/>
   </g>
   <g id="matplotlib.axis_3">
    <g id="xtick_4">
     <g id="line2d_15">
      <g>
       <use style="fill:#262626;stroke:#262626;stroke-width:0.8;" x="136.294215" xlink:href="#m9fe092a94c" y="63"/>
      </g>
     </g>
     <g id="text_12">
      <text style="fill:#262626;font-family:Arial;font-size:8px;font-style:normal;font-weight:400;text-anchor:middle;" transform="rotate(-0, 136.294215, 80.32625)" x="136.294215" y="80.32625">12</text>
     </g>
    </g>
    <g id="xtick_5">
     <g id="line2d_16">
      <g>
       <use style="fill:#262626;stroke:#262626;stroke-width:0.8;" x="163.963636" xlink:href="#m9fe092a94c" y="63"/>
      </g>
     </g>
     <g id="text_13">
      <text style="fill:#262626;font-family:Arial;font-size:8px;font-style:normal;font-weight:400;text-anchor:middle;" transform="rotate(-0, 163.963636, 80.32625)" x="163.963636" y="80.32625">24</text>
     </g>
    </g>
    <g id="xtick_6">
     <g id="line2d_17">
      <g>
       <use style="fill:#262626;stroke:#262626;stroke-width:0.8;" x="191.633058" xlink:href="#m9fe092a94c" y="63"/>
      </g>
     </g>
     <g id="text_14">
      <text style="fill:#262626;font-family:Arial;font-size:8px;font-style:normal;font-weight:400;text-anchor:middle;" transform="rotate(-0, 191.633058, 80.32625)" x="191.633058" y="80.32625">48</text>
     </g>
    </g>
    <g id="text_15">
     <text style="fill:#262626;font-family:Arial;font-size:8px;font-style:normal;font-weight:400;text-anchor:middle;" transform="rotate(-0, 163.963636, 91.6425)" x="163.963636" y="91.6425">Hours of Starvation</text>
    </g>
   </g>
   <g id="matplotlib.axis_4">
    <g id="ytick_6">
     <g id="line2d_18">
      <g>
       <use style="fill:#262626;stroke:#262626;stroke-width:0.8;" x="128.527273" xlink:href="#m1e2b00b571" y="63"/>
      </g>
     </g>
     <g id="text_16">
      <text style="fill:#262626;font-family:Arial;font-size:8px;font-style:normal;font-weight:400;text-anchor:end;" transform="rotate(-0, 116.927273, 65.863125)" x="116.927273" y="65.863125">0.0</text>
     </g>
    </g>
    <g id="ytick_7">
     <g id="line2d_19">
      <g>
       <use style="fill:#262626;stroke:#262626;stroke-width:0.8;" x="128.527273" xlink:href="#m1e2b00b571" y="49.41"/>
      </g>
     </g>
     <g id="text_17">
      <text style="fill:#262626;font-family:Arial;font-size:8px;font-style:normal;font-weight:400;text-anchor:end;" transform="rotate(-0, 116.927273, 52.273125)" x="116.927273" y="52.273125">0.3</text>
     </g>
    </g>
    <g id="ytick_8">
     <g id="line2d_20">
      <g>
       <use style="fill:#262626;stroke:#262626;stroke-width:0.8;" x="128.527273" xlink:href="#m1e2b00b571" y="35.82"/>
      </g>
     </g>
     <g id="text_18">
      <text style="fill:#262626;font-family:Arial;font-size:8px;font-style:normal;font-weight:400;text-anchor:end;" transform="rotate(-0, 116.927273, 38.683125)" x="116.927273" y="38.683125">0.6</text>
     </g>
    </g>
    <g id="ytick_9">
     <g id="line2d_21">
      <g>
       <use style="fill:#262626;stroke:#262626;stroke-width:0.8;" x="128.527273" xlink:href="#m1e2b00b571" y="22.23"/>
      </g>
     </g>
     <g id="text_19">
      <text style="fill:#262626;font-family:Arial;font-size:8px;font-style:normal;font-weight:400;text-anchor:end;" transform="rotate(-0, 116.927273, 25.093125)" x="116.927273" y="25.093125">0.9</text>
     </g>
    </g>
    <g id="ytick_10">
     <g id="line2d_22">
      <g>
       <use style="fill:#262626;stroke:#262626;stroke-width:0.8;" x="128.527273" xlink:href="#m1e2b00b571" y="8.64"/>
      </g>
     </g>
     <g id="text_20">
      <text style="fill:#262626;font-family:Arial;font-size:8px;font-style:normal;font-weight:400;text-anchor:end;" transform="rotate(-0, 116.927273, 11.503125)" x="116.927273" y="11.503125">1.2</text>
     </g>
    </g>
   </g>
   <g id="line2d_23">
    <path clip-path="url(#p6736818c4f)" d="M 136.294215 28.70764 
L 163.963636 29.914272 
L 191.633058 19.97343 
" style="fill:none;stroke:#cc79a7;stroke-linecap:round;"/>
    <g clip-path="url(#p6736818c4f)">
     <use style="fill:#cc79a7;" x="136.294215" xlink:href="#m554f3a0811" y="28.70764"/>
     <use style="fill:#cc79a7;" x="163.963636" xlink:href="#m554f3a0811" y="29.914272"/>
     <use style="fill:#cc79a7;" x="191.633058" xlink:href="#m554f3a0811" y="19.97343"/>
    </g>
   </g>
   <g id="line2d_24">
    <path clip-path="url(#p6736818c4f)" d="M 136.294215 19.88935 
L 163.963636 23.91786 
L 191.633058 14.004347 
" style="fill:none;stroke:#e69f00;stroke-linecap:round;"/>
    <g clip-path="url(#p6736818c4f)">
     <use style="fill:#e69f00;" x="136.294215" xlink:href="#m7833fa3cac" y="19.88935"/>
     <use style="fill:#e69f00;" x="163.963636" xlink:href="#m7833fa3cac" y="23.91786"/>
     <use style="fill:#e69f00;" x="191.633058" xlink:href="#m7833fa3cac" y="14.004347"/>
    </g>
   </g>
   <g id="line2d_25">
    <path clip-path="url(#p6736818c4f)" d="M 136.294215 29.820001 
L 163.963636 33.296869 
L 191.633058 23.10123 
" style="fill:none;stroke:#d55e00;stroke-linecap:round;"/>
    <g clip-path="url(#p6736818c4f)">
     <use style="fill:#d55e00;" x="136.294215" xlink:href="#m8b8df2de2c" y="29.820001"/>
     <use style="fill:#d55e00;" x="163.963636" xlink:href="#m8b8df2de2c" y="33.296869"/>
     <use style="fill:#d55e00;" x="191.633058" xlink:href="#m8b8df2de2c" y="23.10123"/>
    </g>
   </g>
   <g id="line2d_26">
    <path clip-path="url(#p6736818c4f)" d="M 136.294215 26.710443 
L 163.963636 28.199694 
L 191.633058 16.448948 
" style="fill:none;stroke:#0072b2;stroke-linecap:round;"/>
    <g clip-path="url(#p6736818c4f)">
     <use style="fill:#0072b2;" x="136.294215" xlink:href="#mde90a77c05" y="26.710443"/>
     <use style="fill:#0072b2;" x="163.963636" xlink:href="#mde90a77c05" y="28.199694"/>
     <use style="fill:#0072b2;" x="191.633058" xlink:href="#mde90a77c05" y="16.448948"/>
    </g>
   </g>
   <g id="line2d_27">
    <path clip-path="url(#p6736818c4f)" d="M 136.294215 27.605866 
L 163.963636 29.847324 
L 191.633058 14.757626 
" style="fill:none;stroke:#56b4e9;stroke-linecap:round;"/>
    <g clip-path="url(#p6736818c4f)">
     <use style="fill:#56b4e9;" x="136.294215" xlink:href="#m4eaf0f772c" y="27.605866"/>
     <use style="fill:#56b4e9;" x="163.963636" xlink:href="#m4eaf0f772c" y="29.847324"/>
     <use style="fill:#56b4e9;" x="191.633058" xlink:href="#m4eaf0f772c" y="14.757626"/>
    </g>
   </g>
   <g id="line2d_28">
    <path clip-path="url(#p6736818c4f)" d="M 136.294215 30.352329 
L 163.963636 30.529916 
L 191.633058 23.246342 
" style="fill:none;stroke:#009e73;stroke-linecap:round;"/>
    <g clip-path="url(#p6736818c4f)">
     <use style="fill:#009e73;" x="136.294215" xlink:href="#m3edc101c62" y="30.352329"/>
     <use style="fill:#009e73;" x="163.963636" xlink:href="#m3edc101c62" y="30.529916"/>
     <use style="fill:#009e73;" x="191.633058" xlink:href="#m3edc101c62" y="23.246342"/>
    </g>
   </g>
   <g id="patch_8">
    <path d="M 128.527273 63 
L 128.527273 8.64 
" style="fill:none;stroke:#262626;stroke-linecap:square;stroke-linejoin:miter;stroke-width:1.25;"/>
   </g>
   <g id="patch_9">
    <path d="M 194.4 63 
L 194.4 8.64 
" style="fill:none;"/>
   </g>
   <g id="patch_10">
    <path d="M 133.527273 63 
L 194.4 63 
" style="fill:none;stroke:#262626;stroke-linecap:square;stroke-linejoin:miter;stroke-width:1.25;"/>
   </g>
   <g id="patch_11">
    <path d="M 133.527273 8.64 
L 194.4 8.64 
" style="fill:none;"/>
   </g>
   <g id="text_21">
    <text style="fill:#262626;font-family:Arial;font-size:8px;font-style:normal;font-weight:400;text-anchor:middle;" transform="rotate(-0, 163.963636, 2.64)" x="163.963636" y="2.64">– Leu</text>
   </g>
   <g id="legend_1">
    <g id="line2d_29">
     <path d="M 216.818182 5.17625 
L 217 5.17625 
" style="fill:none;stroke:#cc79a7;stroke-linecap:round;"/>
    </g>
    <g id="line2d_30">
     <g>
      <use style="fill:#cc79a7;" x="224.818182" xlink:href="#m554f3a0811" y="5.17625"/>
     </g>
    </g>
    <g id="text_22">
     <text style="fill:#262626;font-family:Arial;font-size:8px;font-style:normal;font-weight:400;text-anchor:start;" transform="rotate(-0, 239.218182, 7.97625)" x="239.218182" y="7.97625">CTA</text>
    </g>
    <g id="line2d_31">
     <path d="M 216.818182 16.4925 
L 217 16.4925 
" style="fill:none;stroke:#e69f00;stroke-linecap:round;"/>
    </g>
    <g id="line2d_32">
     <g>
      <use style="fill:#e69f00;" x="224.818182" xlink:href="#m7833fa3cac" y="16.4925"/>
     </g>
    </g>
    <g id="text_23">
     <text style="fill:#262626;font-family:Arial;font-size:8px;font-style:normal;font-weight:400;text-anchor:start;" transform="rotate(-0, 239.218182, 19.2925)" x="239.218182" y="19.2925">CTC</text>
    </g>
    <g id="line2d_33">
     <path d="M 216.818182 27.90625 
L 217 27.90625 
" style="fill:none;stroke:#d55e00;stroke-linecap:round;"/>
    </g>
    <g id="line2d_34">
     <g>
      <use style="fill:#d55e00;" x="224.818182" xlink:href="#m8b8df2de2c" y="27.90625"/>
     </g>
    </g>
    <g id="text_24">
     <text style="fill:#262626;font-family:Arial;font-size:8px;font-style:normal;font-weight:400;text-anchor:start;" transform="rotate(-0, 239.218182, 30.70625)" x="239.218182" y="30.70625">CTG (WT)</text>
    </g>
    <g id="line2d_35">
     <path d="M 216.818182 39.31625 
L 217 39.31625 
" style="fill:none;stroke:#0072b2;stroke-linecap:round;"/>
    </g>
    <g id="line2d_36">
     <g>
      <use style="fill:#0072b2;" x="224.818182" xlink:href="#mde90a77c05" y="39.31625"/>
     </g>
    </g>
    <g id="text_25">
     <text style="fill:#262626;font-family:Arial;font-size:8px;font-style:normal;font-weight:400;text-anchor:start;" transform="rotate(-0, 239.218182, 42.11625)" x="239.218182" y="42.11625">CTT</text>
    </g>
    <g id="line2d_37">
     <path d="M 216.818182 50.6325 
L 217 50.6325 
" style="fill:none;stroke:#56b4e9;stroke-linecap:round;"/>
    </g>
    <g id="line2d_38">
     <g>
      <use style="fill:#56b4e9;" x="224.818182" xlink:href="#m4eaf0f772c" y="50.6325"/>
     </g>
    </g>
    <g id="text_26">
     <text style="fill:#262626;font-family:Arial;font-size:8px;font-style:normal;font-weight:400;text-anchor:start;" transform="rotate(-0, 239.218182, 53.4325)" x="239.218182" y="53.4325">TTA</text>
    </g>
    <g id="line2d_39">
     <path d="M 216.818182 61.94875 
L 217 61.94875 
" style="fill:none;stroke:#009e73;stroke-linecap:round;"/>
    </g>
    <g id="line2d_40">
     <g>
      <use style="fill:#009e73;" x="224.818182" xlink:href="#m3edc101c62" y="61.94875"/>
     </g>
    </g>
    <g id="text_27">
     <text style="fill:#262626;font-family:Arial;font-size:8px;font-style:normal;font-weight:400;text-anchor:start;" transform="rotate(-0, 239.218182, 64.74875)" x="239.218182" y="64.74875">TTG</text>
    </g>
   </g>
  </g>
 </g>
 <defs>
  <clipPath id="p117d76bed3">
   <rect height="54.36" width="60.872727" x="27" y="8.64"/>
  </clipPath>
  <clipPath id="p6736818c4f">
   <rect height="54.36" width="60.872727" x="133.527273" y="8.64"/>
  </clipPath>
 </defs>
</svg>
